<?xml version="1.0" encoding="UTF-8"?>
<svg version="1.1" xmlns="http://www.w3.org/2000/svg" width="881" height="881">
<path d="M0 0 C2.03886767 0.15241595 4.07689671 0.26927549 6.11865234 0.37548828 C8.00003906 0.48183594 8.00003906 0.48183594 9.91943359 0.59033203 C11.58619141 0.68121094 11.58619141 0.68121094 13.28662109 0.77392578 C16.04443359 1.15283203 16.04443359 1.15283203 19.04443359 3.15283203 C20.39706296 3.62191531 21.76863324 4.03806574 23.14990234 4.41455078 C24.36661621 4.75691772 24.36661621 4.75691772 25.60791016 5.10620117 C26.47383789 5.34846436 27.33976562 5.59072754 28.23193359 5.84033203 C39.20836254 9.0254033 50.23143626 12.70474913 59.73193359 19.21533203 C60.82505859 19.85470703 61.91818359 20.49408203 63.04443359 21.15283203 C67.20921205 20.00366168 71.076743 17.65392851 74.93725586 15.72460938 C100.32927382 3.15283203 100.32927382 3.15283203 113.04443359 3.15283203 C113.37443359 2.49283203 113.70443359 1.83283203 114.04443359 1.15283203 C118.76654314 0.35144002 123.57833169 0.18985241 128.35693359 -0.09716797 C129.06796234 -0.14241608 129.77899109 -0.18766418 130.51156616 -0.23428345 C163.75353736 -2.27746671 163.75353736 -2.27746671 177.04443359 2.15283203 C178.54695772 2.53971266 180.05259601 2.91457083 181.56005859 3.28173828 C193.09901502 6.15295318 204.33168882 9.44125581 215.50439453 13.52416992 C219.2119258 14.87058568 222.6013067 16.0833905 226.50927734 16.69580078 C229.04443359 17.15283203 229.04443359 17.15283203 230.40576172 18.52587891 C232.37308243 20.47913058 234.30391218 21.43601007 236.79833984 22.64111328 C237.73613281 23.10066406 238.67392578 23.56021484 239.64013672 24.03369141 C240.61917969 24.50613281 241.59822266 24.97857422 242.60693359 25.46533203 C249.22113133 28.66719485 255.64550226 31.98824657 261.9050293 35.8449707 C263.8016516 37.00441446 265.71944136 38.08693834 267.66943359 39.15283203 C270.91733164 41.07751235 273.83475283 43.16504278 276.82177734 45.46142578 C279.29907136 47.34660735 281.82525826 49.15390572 284.35693359 50.96533203 C293.20031616 57.39355632 301.43712078 64.40479663 309.47802734 71.80517578 C311.72002315 73.85607301 313.99234388 75.85760737 316.29443359 77.84033203 C322.03782718 82.84679325 327.22201334 88.24444032 332.18505859 94.02001953 C333.44280405 95.46272756 334.7250594 96.88437079 336.02880859 98.28564453 C354.88043849 118.58210737 370.10521666 142.61664742 383.91943359 166.52783203 C399.14956073 192.77861376 417.65995571 222.26333334 448.04443359 232.15283203 C452.75898315 233.1575721 457.23085706 233.25106829 462.04443359 233.15283203 C462.37443359 233.81283203 462.70443359 234.47283203 463.04443359 235.15283203 C464.92677215 235.52168842 466.82758097 235.79827907 468.73193359 236.02783203 C473.75818241 236.81579503 477.29069282 237.49534102 481.04443359 241.15283203 C483.79299387 245.32000406 484.34456155 249.2444273 483.73193359 254.15283203 C477.54187451 281.27654546 454.69823352 301.91815893 432.9128418 317.08398438 C431.04443359 318.15283203 431.04443359 318.15283203 428.86938477 318.67871094 C428.26715088 318.8351709 427.66491699 318.99163086 427.04443359 319.15283203 C426.71443359 319.81283203 426.38443359 320.47283203 426.04443359 321.15283203 C425.05443359 321.48283203 424.06443359 321.81283203 423.04443359 322.15283203 C422.9494458 323.02270752 422.85445801 323.89258301 422.7565918 324.78881836 C419.06124057 357.98995919 419.06124057 357.98995919 414.04443359 373.15283203 C413.82029785 373.84183594 413.59616211 374.53083984 413.36523438 375.24072266 C410.54185449 383.74473489 407.04897066 391.60336171 402.40844727 399.28271484 C400.39968222 402.54636787 400.39968222 402.54636787 400.58740234 406.20361328 C401.30863281 407.16847656 401.30863281 407.16847656 402.04443359 408.15283203 C402.62837891 409.06935547 403.21232422 409.98587891 403.81396484 410.93017578 C404.82523438 412.49445313 404.82523438 412.49445313 405.85693359 414.09033203 C418.74132769 434.70536258 419.25843382 457.93403102 414.04443359 481.15283203 C412.66777757 486.05711164 410.99937304 490.84324669 409.25146484 495.62548828 C407.88255273 499.00454356 407.88255273 499.00454356 408.04443359 502.15283203 C407.38443359 502.15283203 406.72443359 502.15283203 406.04443359 502.15283203 C405.80208984 502.98943359 405.55974609 503.82603516 405.31005859 504.68798828 C399.08929892 521.71827788 384.6377007 536.87121203 370.04443359 547.15283203 C369.20912109 547.75353516 368.37380859 548.35423828 367.51318359 548.97314453 C360.15174197 553.97459458 352.38111049 557.18360464 344.04443359 560.15283203 C343.32771484 560.41064453 342.61099609 560.66845703 341.87255859 560.93408203 C334.92665202 563.02400082 327.23722793 562.8211255 320.04443359 563.15283203 C319.80660156 564.2129248 319.80660156 564.2129248 319.56396484 565.29443359 C317.64858389 573.41892934 315.01209988 581.10834381 312.04443359 588.90283203 C311.60615234 590.06943359 311.16787109 591.23603516 310.71630859 592.43798828 C309.49793747 595.6784151 308.27227624 598.91598479 307.04443359 602.15283203 C304.97188917 607.62668757 304.97188917 607.62668757 303.04443359 613.15283203 C302.36380859 614.01908203 302.36380859 614.01908203 301.66943359 614.90283203 C299.99067404 617.22726834 299.05326714 619.55759646 297.97021484 622.19580078 C296.56417283 625.16806682 294.68744389 627.76490515 292.82177734 630.46533203 C291.13526809 633.01548229 289.59543706 635.62331593 288.07080078 638.27246094 C277.95936638 655.73395594 264.56696182 671.12737048 250.98193359 685.96533203 C250.42119141 686.58303467 249.86044922 687.2007373 249.28271484 687.8371582 C247.91172215 689.31557627 246.48280467 690.73988136 245.04443359 692.15283203 C244.38443359 692.15283203 243.72443359 692.15283203 243.04443359 692.15283203 C243.04443359 692.81283203 243.04443359 693.47283203 243.04443359 694.15283203 C241.68115234 695.56298828 241.68115234 695.56298828 239.73193359 697.21533203 C239.01263672 697.83021484 238.29333984 698.44509766 237.55224609 699.07861328 C235.74766334 700.57118874 233.92804184 702.04564931 232.09912109 703.50830078 C231.11169922 704.29849609 230.12427734 705.08869141 229.10693359 705.90283203 C228.16978516 706.64017578 227.23263672 707.37751953 226.26708984 708.13720703 C223.81215631 710.03246408 223.81215631 710.03246408 223.04443359 713.15283203 C222.38443359 713.15283203 221.72443359 713.15283203 221.04443359 713.15283203 C224.72706147 745.34493141 228.75099883 777.27252773 239.04443359 808.15283203 C239.41402186 812.66180882 239.54011143 815.14082311 237.54443359 819.21533203 C231.84038136 825.91759341 225.50497295 830.30056638 217.79296875 834.40039062 C214.64293595 836.09909941 213.07333387 837.10948161 211.04443359 840.15283203 C210.05443359 840.15283203 209.06443359 840.15283203 208.04443359 840.15283203 C205.89539409 841.10006707 203.77465547 842.11183931 201.66943359 843.15283203 C180.87422491 853.09769936 158.91679585 859.72193321 136.41943359 864.59033203 C135.29287354 864.83638184 135.29287354 864.83638184 134.14355469 865.08740234 C129.69102048 865.99641481 125.58824813 866.30190731 121.04443359 866.15283203 C120.71443359 866.81283203 120.38443359 867.47283203 120.04443359 868.15283203 C117.83349609 868.49658203 117.83349609 868.49658203 114.66943359 868.65283203 C112.81318359 868.75917969 112.81318359 868.75917969 110.91943359 868.86767578 C110.18080078 868.90876465 109.44216797 868.94985352 108.68115234 868.9921875 C103.00640365 869.33792682 97.33855031 869.78853668 91.66943359 870.21533203 C89.26580584 870.39396092 86.8621613 870.57236404 84.45849609 870.75048828 C82.65380669 870.88457723 80.84911843 871.01868158 79.04443359 871.15283203 C79.04443359 871.81283203 79.04443359 872.47283203 79.04443359 873.15283203 C73.04443359 873.15283203 67.04443359 873.15283203 61.04443359 873.15283203 C61.04443359 872.49283203 61.04443359 871.83283203 61.04443359 871.15283203 C57.92152724 871.63861746 55.04863001 872.15143323 52.04443359 873.15283203 C51.71443359 872.49283203 51.38443359 871.83283203 51.04443359 871.15283203 C48.4415866 870.6811502 48.4415866 870.6811502 45.28662109 870.52001953 C44.10326172 870.43623047 42.91990234 870.35244141 41.70068359 870.26611328 C39.82896484 870.14816406 39.82896484 870.14816406 37.91943359 870.02783203 C36.69482422 869.94146484 35.47021484 869.85509766 34.20849609 869.76611328 C29.49348287 869.44463511 24.84179738 869.13856508 20.11474609 869.22314453 C16.48336429 869.13998312 13.51936281 868.18807929 10.04443359 867.15283203 C6.68623386 866.60222493 3.30183204 866.28769394 -0.08251953 865.94189453 C-4.29102923 865.47293476 -7.96060984 864.51281724 -11.95556641 863.15283203 C-13.27556641 863.15283203 -14.59556641 863.15283203 -15.95556641 863.15283203 C-15.95556641 862.49283203 -15.95556641 861.83283203 -15.95556641 861.15283203 C-17.00744141 861.04970703 -18.05931641 860.94658203 -19.14306641 860.84033203 C-24.25228324 860.21658563 -29.2009434 858.98544944 -34.19775391 857.77392578 C-36.80960711 857.07959554 -36.80960711 857.07959554 -38.95556641 857.15283203 C-38.95556641 856.49283203 -38.95556641 855.83283203 -38.95556641 855.15283203 C-40.60556641 855.15283203 -42.25556641 855.15283203 -43.95556641 855.15283203 C-43.95556641 855.81283203 -43.95556641 856.47283203 -43.95556641 857.15283203 C-44.94556641 857.15283203 -45.93556641 857.15283203 -46.95556641 857.15283203 C-47.04499512 856.23606689 -47.04499512 856.23606689 -47.13623047 855.30078125 C-47.77530869 852.94862405 -47.77530869 852.94862405 -50.15771484 851.87597656 C-51.11709961 851.51616699 -52.07648438 851.15635742 -53.06494141 850.78564453 C-54.12455078 850.37765625 -55.18416016 849.96966797 -56.27587891 849.54931641 C-57.40767578 849.12972656 -58.53947266 848.71013672 -59.70556641 848.27783203 C-61.99293364 847.39737718 -64.27940202 846.51458341 -66.56494141 845.62939453 C-67.66773438 845.20561523 -68.77052734 844.78183594 -69.90673828 844.34521484 C-85.38638464 838.29119556 -85.38638464 838.29119556 -86.95556641 835.15283203 C-88.61761679 834.47473856 -90.28516265 833.81007896 -91.95556641 833.15283203 C-98.58857593 829.03829331 -104.59376477 824.69553449 -108.95556641 818.15283203 C-109.61556641 818.48283203 -110.27556641 818.81283203 -110.95556641 819.15283203 C-110.27147398 810.60167672 -109.0182887 802.71159766 -106.20556641 794.59033203 C-103.26342705 785.98489402 -101.40035575 777.25636871 -99.70556641 768.34033203 C-99.45967773 767.05376709 -99.21378906 765.76720215 -98.96044922 764.44165039 C-95.66715369 747.0407711 -95.66715369 747.0407711 -94.95556641 729.40283203 C-95.04740545 726.62929301 -95.0509679 723.9314006 -94.95556641 721.15283203 C-94.29556641 720.49283203 -93.63556641 719.83283203 -92.95556641 719.15283203 C-91.73015131 715.87807511 -91.73015131 715.87807511 -91.95556641 712.15283203 C-93.71176696 709.63419494 -96.02835504 707.94012568 -98.45556641 706.09033203 C-99.84843809 704.9576726 -101.23899707 703.82216429 -102.62744141 702.68408203 C-103.70541992 701.81396484 -103.70541992 701.81396484 -104.80517578 700.92626953 C-121.92298116 686.80913303 -136.38083368 670.05100755 -149.32666016 652.1027832 C-152.50818133 647.43780428 -152.50818133 647.43780428 -156.95556641 644.15283203 C-156.62556641 643.49283203 -156.29556641 642.83283203 -155.95556641 642.15283203 C-156.90647679 640.05477273 -156.90647679 640.05477273 -158.37744141 637.75830078 C-158.90853516 636.88496094 -159.43962891 636.01162109 -159.98681641 635.11181641 C-160.55400391 634.19722656 -161.12119141 633.28263672 -161.70556641 632.34033203 C-162.25728516 631.43734375 -162.80900391 630.53435547 -163.37744141 629.60400391 C-164.41383437 627.90865436 -165.45353303 626.21531815 -166.49755859 624.5246582 C-167.52934821 622.84618597 -168.52828965 621.1473143 -169.50341797 619.43530273 C-171.09425095 616.93484922 -172.22453945 616.18873881 -174.95556641 615.15283203 C-174.89369141 614.14220703 -174.83181641 613.13158203 -174.76806641 612.09033203 C-174.98567204 607.52061366 -175.79931187 605.14589598 -177.95556641 601.15283203 C-178.94556641 600.82283203 -179.93556641 600.49283203 -180.95556641 600.15283203 C-180.88724609 599.35232422 -180.81892578 598.55181641 -180.74853516 597.72705078 C-181.0202808 593.03559294 -182.52363828 589.29305814 -184.26806641 584.96533203 C-184.73116211 583.75586914 -184.73116211 583.75586914 -185.20361328 582.52197266 C-186.73875592 578.63402193 -187.9940798 576.11328891 -190.95556641 573.15283203 C-191.24853516 570.67236328 -191.24853516 570.67236328 -191.14306641 567.96533203 C-191.11599609 567.06427734 -191.08892578 566.16322266 -191.06103516 565.23486328 C-191.02623047 564.54779297 -190.99142578 563.86072266 -190.95556641 563.15283203 C-192.68806641 563.21470703 -192.68806641 563.21470703 -194.45556641 563.27783203 C-203.98532104 563.29295863 -213.5421887 561.50982544 -222.95556641 560.15283203 C-223.28556641 559.16283203 -223.61556641 558.17283203 -223.95556641 557.15283203 C-226.23070561 555.84002325 -228.47255209 554.6703662 -230.83056641 553.52783203 C-237.99840224 549.87204012 -244.00136047 545.604766 -249.95556641 540.15283203 C-250.79603516 539.39357422 -251.63650391 538.63431641 -252.50244141 537.85205078 C-267.90232008 523.24129632 -278.0388298 504.37223115 -283.95556641 484.15283203 C-284.26236328 483.28142578 -284.56916016 482.41001953 -284.88525391 481.51220703 C-291.13854591 462.57366553 -288.93046261 437.90886244 -280.50244141 420.07861328 C-278.43151095 416.16162614 -276.42584656 412.69546297 -273.51806641 409.34033203 C-271.68623837 407.25397499 -271.68623837 407.25397499 -272.08056641 404.60205078 C-273.46673201 399.1378355 -276.1081198 394.33554566 -278.62939453 389.31689453 C-280.53146363 385.44449285 -282.15379407 381.83196272 -283.11572266 377.61376953 C-283.39287109 376.47166016 -283.67001953 375.32955078 -283.95556641 374.15283203 C-284.61556641 373.82283203 -285.27556641 373.49283203 -285.95556641 373.15283203 C-286.48291016 371.35986328 -286.48291016 371.35986328 -286.89306641 368.96533203 C-287.62751746 364.86512889 -288.50074122 360.83224049 -289.45556641 356.77783203 C-290.99455743 349.77890302 -291.683691 342.78286299 -292.22119141 335.64160156 C-292.28951172 334.8138623 -292.35783203 333.98612305 -292.42822266 333.13330078 C-292.48244385 332.38975342 -292.53666504 331.64620605 -292.5925293 330.88012695 C-292.71233154 330.31011963 -292.83213379 329.7401123 -292.95556641 329.15283203 C-293.61556641 328.82283203 -294.27556641 328.49283203 -294.95556641 328.15283203 C-294.95556641 326.15283203 -294.95556641 324.15283203 -294.95556641 322.15283203 C-297.26556641 321.82283203 -299.57556641 321.49283203 -301.95556641 321.15283203 C-301.95556641 320.16283203 -301.95556641 319.17283203 -301.95556641 318.15283203 C-304.2401083 316.37774078 -304.2401083 316.37774078 -307.20556641 314.65283203 C-313.63149541 310.52511764 -319.06042952 305.82274934 -324.53710938 300.52001953 C-325.8808827 299.22481633 -327.24771275 297.95365951 -328.61572266 296.68408203 C-334.303495 291.26883046 -338.67625445 285.57687064 -342.94775391 279.03564453 C-344.77587022 276.4108394 -346.62515356 274.32723398 -348.95556641 272.15283203 C-349.61556641 271.49283203 -350.27556641 270.83283203 -350.95556641 270.15283203 C-350.62556641 269.16283203 -350.29556641 268.17283203 -349.95556641 267.15283203 C-350.68599319 264.68233972 -350.68599319 264.68233972 -351.83056641 262.02783203 C-354.20107115 255.77531604 -356.03897717 250.34287485 -353.83056641 243.84033203 C-351.11358002 239.94598488 -348.46969643 237.65754204 -343.95556641 236.15283203 C-340.43927691 235.88068678 -336.92321241 235.70748104 -333.40087891 235.53173828 C-330.1390857 235.17301499 -327.94356261 234.41624522 -324.95556641 233.15283203 C-324.00810547 233.01619141 -323.06064453 232.87955078 -322.08447266 232.73876953 C-300.33123901 228.66513027 -283.39232615 206.24096523 -271.74072266 189.27392578 C-265.25396139 181.21413519 -265.25396139 181.21413519 -261.95556641 172.15283203 C-261.36187256 171.56356934 -260.76817871 170.97430664 -260.15649414 170.3671875 C-257.77616634 167.97233746 -256.37508458 165.67145434 -254.74072266 162.72314453 C-250.89458817 155.97220138 -246.70851813 149.48594404 -242.39306641 143.02783203 C-242.00460541 142.44488373 -241.61614441 141.86193542 -241.21591187 141.26132202 C-232.68151597 128.48359041 -223.63783111 116.17774404 -213.26489258 104.82348633 C-211.74994946 103.24423829 -211.74994946 103.24423829 -211.95556641 101.15283203 C-210.52197266 99.77783203 -210.52197266 99.77783203 -208.51806641 98.15283203 C-204.37204956 94.63455717 -200.83934423 90.77391809 -197.24462891 86.70361328 C-191.24765414 80.02097757 -184.73670139 74.01976368 -177.95556641 68.15283203 C-177.34511475 67.61972412 -176.73466309 67.08661621 -176.10571289 66.53735352 C-159.28749075 51.93761831 -140.67481794 39.49347926 -120.95556641 29.15283203 C-120.35502441 28.82943848 -119.75448242 28.50604492 -119.13574219 28.17285156 C-82.76811774 8.62755487 -41.43562922 -3.288542 0 0 Z M-189.95556641 569.15283203 C-188.95556641 572.15283203 -188.95556641 572.15283203 -188.95556641 572.15283203 Z M-188.95556641 572.15283203 C-187.95556641 574.15283203 -187.95556641 574.15283203 -187.95556641 574.15283203 Z M-179.95556641 597.15283203 C-178.95556641 599.15283203 -178.95556641 599.15283203 -178.95556641 599.15283203 Z M-172.95556641 612.15283203 C-171.95556641 614.15283203 -171.95556641 614.15283203 -171.95556641 614.15283203 Z M-171.95556641 614.15283203 C-170.95556641 616.15283203 -170.95556641 616.15283203 -170.95556641 616.15283203 Z " fill="#385977" transform="translate(372.95556640625,4.84716796875)"/>
<path d="M0 0 C4.56756616 0.92467308 8.33280397 0.70729406 12.80078125 -0.546875 C25.61300715 -3.98490473 40.32827312 -1.3203139 51.83984375 4.95703125 C71.56719031 17.26252593 81.37357145 36.93922168 86.51611328 58.94238281 C88.39128427 68.05832564 89.67235248 77.28820004 91.0612793 86.48803711 C94.85295309 111.52645912 101.40064458 134.00243476 113.23828125 156.453125 C113.90760557 157.78512619 114.57487832 159.11816478 115.23828125 160.453125 C114.62009521 160.52305664 114.00190918 160.59298828 113.36499023 160.66503906 C84.0308076 163.1521874 84.0308076 163.1521874 60.23828125 178.453125 C59.64015625 179.154375 59.04203125 179.855625 58.42578125 180.578125 C56.53755385 185.14962293 56.58866415 189.58456606 57.23828125 194.453125 C58.84685201 197.72771547 60.14872137 199.59704224 62.98828125 201.828125 C69.62036157 203.67036953 75.01849263 202.15792575 81.11328125 199.578125 C87.10967162 197.18886773 92.81218218 195.32580512 99.23828125 194.453125 C99.95886719 194.34355469 100.67945313 194.23398437 101.421875 194.12109375 C115.71957852 192.20963606 136.58616207 191.07721847 149.83984375 197.0859375 C152.42578125 199.078125 152.42578125 199.078125 154.76171875 201.23046875 C173.07198742 217.66350167 200.7866321 220.6773935 224.23828125 219.453125 C233.46810406 218.62885196 242.33887056 215.92399504 251.23828125 213.453125 C252.57081162 213.11659611 253.90397258 212.78253245 255.23828125 212.453125 C248.23863338 404.01108679 248.23863338 404.01108679 189.23828125 479.453125 C188.52285156 480.35933594 187.80742188 481.26554687 187.0703125 482.19921875 C174.93019695 497.34750452 161.48625699 511.42797108 146.23828125 523.453125 C145.09482367 524.38484358 143.95297825 525.31854316 142.8125 526.25390625 C122.96115288 542.47124906 101.59550849 556.76905467 78.23828125 567.453125 C77.57828125 567.75557129 76.91828125 568.05801758 76.23828125 568.36962891 C42.98321385 583.35839126 1.79499596 590.11183001 -33.76171875 579.453125 C-34.60653809 579.20643066 -35.45135742 578.95973633 -36.32177734 578.70556641 C-48.90194291 574.95842987 -60.95717931 570.17810664 -72.76171875 564.453125 C-73.50566895 564.09412109 -74.24961914 563.73511719 -75.01611328 563.36523438 C-101.11413743 550.60396545 -124.16529891 533.32207332 -145.83984375 514.1484375 C-147.29893017 512.8613572 -148.76983845 511.58766375 -150.24609375 510.3203125 C-151.07625 509.60101562 -151.90640625 508.88171875 -152.76171875 508.140625 C-153.90640625 507.15642578 -153.90640625 507.15642578 -155.07421875 506.15234375 C-156.76171875 504.453125 -156.76171875 504.453125 -156.76171875 502.453125 C-157.42171875 502.453125 -158.08171875 502.453125 -158.76171875 502.453125 C-160.1015625 501.16015625 -160.1015625 501.16015625 -161.69921875 499.265625 C-162.323125 498.52828125 -162.94703125 497.7909375 -163.58984375 497.03125 C-164.66492188 495.75507812 -164.66492188 495.75507812 -165.76171875 494.453125 C-166.5815625 493.51984375 -167.40140625 492.5865625 -168.24609375 491.625 C-204.32396356 450.36188957 -221.0242424 399.36880249 -231.76171875 346.453125 C-231.95217773 345.51968262 -232.14263672 344.58624023 -232.33886719 343.62451172 C-240.89945484 300.72095173 -243.1069079 256.08503336 -242.76171875 212.453125 C-241.6015625 212.79085937 -240.44140625 213.12859375 -239.24609375 213.4765625 C-209.49247683 222.03468354 -178.80785321 222.71657148 -150.9140625 207.4296875 C-145.24995319 204.10895405 -145.24995319 204.10895405 -140.23193359 199.91992188 C-135.19294481 194.9510226 -130.81077701 194.39661102 -123.88671875 194.078125 C-122.36087158 193.98108276 -122.36087158 193.98108276 -120.80419922 193.88208008 C-117.79054743 193.70459736 -114.77820965 193.57146899 -111.76171875 193.453125 C-110.54742187 193.39535889 -110.54742187 193.39535889 -109.30859375 193.33642578 C-94.04490199 192.66597079 -80.1313571 194.8176679 -66.2265625 201.24609375 C-61.02475958 203.05822126 -56.69115694 203.18121488 -51.44921875 201.203125 C-47.68443285 198.75163651 -46.17276215 196.68625519 -44.76171875 192.453125 C-44.22880047 186.1646893 -44.88937699 181.57357692 -48.76171875 176.453125 C-61.97208337 163.33734533 -86.34652784 162.33444889 -103.76171875 160.453125 C-102.42288267 156.88061851 -100.80473016 153.52312108 -99.04614258 150.1394043 C-87.96928344 128.73599487 -82.74817199 106.42276416 -79.19921875 82.703125 C-74.96859116 54.57277401 -69.13791831 25.75891704 -44.94921875 7.578125 C-31.23026591 -1.42358538 -15.82736997 -3.534022 0 0 Z " fill="#DCE4EC" transform="translate(431.76171875,167.546875)"/>
<path d="M0 0 C0.74644775 0.00021149 1.49289551 0.00042297 2.26196289 0.00064087 C15.41422816 0.03767418 27.93593157 1.26765085 40.75 4.375 C41.9860498 4.67180664 41.9860498 4.67180664 43.24707031 4.97460938 C53.02407404 7.38473634 62.47408883 10.43789104 71.75 14.375 C72.47380859 14.67889648 73.19761719 14.98279297 73.94335938 15.29589844 C93.34345064 23.50240715 110.82663493 33.87262636 127.75 46.375 C128.32943359 46.79604004 128.90886719 47.21708008 129.50585938 47.65087891 C138.9444554 54.51958756 147.38536477 62.25777819 155.75 70.375 C156.43594238 71.03902832 157.12188477 71.70305664 157.82861328 72.38720703 C165.18152857 79.53620509 172.35260823 86.68153677 178.69140625 94.7578125 C180.90698224 97.57457893 183.22945004 100.27995123 185.5625 103 C198.95557473 119.06754322 209.96558793 137.06568796 220.75 154.9375 C240.4508119 187.52804255 263.25241676 220.47810493 301.75 231.375 C300.40539927 240.41485411 288.55355903 248.9827658 281.75 254.375 C270.50077501 262.13598462 259.26516995 267.3212736 246.03051758 270.50073242 C240.64645039 271.8595042 236.62774088 273.49579732 233.4609375 278.3515625 C232.16953701 282.02708698 232.2176054 285.54175888 232.75 289.375 C235.13468325 294.32780367 237.64233297 296.43408653 242.75 298.375 C244.74561982 298.73362606 246.74538059 299.07067756 248.75 299.375 C247.98438976 320.6972451 241.50149549 340.09329597 232.75 359.375 C232.08097656 359.24222656 231.41195313 359.10945313 230.72265625 358.97265625 C224.41326538 357.81240585 218.20536021 357.13873396 211.80859375 356.80859375 C211.02963745 356.76569214 210.25068115 356.72279053 209.44812012 356.67858887 C207.54890786 356.57441267 205.64947434 356.47428311 203.75 356.375 C203.65069224 351.09144498 203.57832536 345.80844016 203.53027344 340.52416992 C203.51022999 338.72882618 203.48298749 336.93354713 203.44824219 335.13842773 C203.39940151 332.5491535 203.3769588 329.9607466 203.359375 327.37109375 C203.33872986 326.57601913 203.31808472 325.78094452 203.29681396 324.96177673 C203.29454708 319.25743736 204.65424353 316.15182598 207.75 311.375 C208.96014365 305.47554973 207.7994879 300.36143912 205.11328125 295.06640625 C201.09040326 290.0752711 194.83539579 289.20090832 188.9375 287.6875 C179.15285032 285.0299722 170.53790083 281.39084383 161.75 276.375 C160.79222656 275.84390625 159.83445312 275.3128125 158.84765625 274.765625 C126.34465009 255.48337171 102.59155808 218.22087521 91.625 182.6875 C89.80566036 176.95735763 87.78387758 174.49871431 82.875 171.0625 C79.09315075 169.83896054 75.6077525 169.66928293 71.84765625 171.09765625 C67.8546172 173.18281618 65.34336909 175.1572583 63.75 179.375 C60.86135697 205.37278724 82.95919922 238.52852009 97.75 258.375 C98.42546875 259.2825 99.1009375 260.19 99.796875 261.125 C115.25539769 281.0549962 133.65330514 296.37399551 155.75 308.375 C156.36955566 308.71225098 156.98911133 309.04950195 157.62744141 309.39697266 C161.32541746 311.40771731 165.03316472 313.3992736 168.75 315.375 C161.78425111 322.34074889 146.24672007 321.8222535 137.125 321.875 C127.40059388 321.79714072 118.92156635 320.78508421 109.75 317.375 C108.17412109 316.81425781 108.17412109 316.81425781 106.56640625 316.2421875 C80.94392061 306.38487455 64.69674861 286.52581095 53.359375 262.41796875 C45.96887632 244.94739118 43.36420205 225.76480288 40.6875 207.125 C38.71011875 193.35884021 36.72512664 179.73786839 32.75 166.375 C32.53408203 165.64458496 32.31816406 164.91416992 32.09570312 164.16162109 C23.64946127 136.42979368 6.06312627 109.92817354 -19.91015625 96.03515625 C-27.82949781 92.09864144 -35.42744693 90.23158478 -44.3046875 90.27734375 C-45.41328125 90.28056641 -46.521875 90.28378906 -47.6640625 90.28710938 C-49.37722656 90.29967773 -49.37722656 90.29967773 -51.125 90.3125 C-52.87296875 90.31926758 -52.87296875 90.31926758 -54.65625 90.32617188 C-57.52088645 90.33791219 -60.38541633 90.3543343 -63.25 90.375 C-63.43558011 81.09126043 -63.57761459 71.80816166 -63.66449738 62.5229702 C-63.70620353 58.21109765 -63.76274185 53.90049632 -63.85351562 49.58935547 C-63.94061452 45.42656655 -63.98830855 41.26499789 -64.00901794 37.10136795 C-64.02376989 35.51521212 -64.05258006 33.92912119 -64.09584045 32.34348679 C-64.42139117 19.91357561 -64.42139117 19.91357561 -61.50682068 16.08540344 C-59.47248305 14.53159202 -57.57992514 13.41887082 -55.25 12.375 C-54.39535156 11.87871094 -53.54070312 11.38242187 -52.66015625 10.87109375 C-47.13817325 8.381148 -41.54565177 6.42137386 -35.75 4.6875 C-35.07461182 4.48503662 -34.39922363 4.28257324 -33.70336914 4.07397461 C-22.48452067 0.86419316 -11.61219615 -0.03039758 0 0 Z " fill="#80A5C4" transform="translate(514.25,36.625)"/>
<path d="M0 0 C2 2 2 2 2.24050903 4.97390747 C2.23606781 6.24853851 2.23162659 7.52316956 2.22705078 8.83642578 C2.22734283 9.53897491 2.22763489 10.24152405 2.22793579 10.96536255 C2.22654023 13.29213731 2.21096872 15.61859354 2.1953125 17.9453125 C2.19158317 19.55671005 2.18873582 21.16810987 2.18673706 22.7795105 C2.17909431 27.02433514 2.15944039 31.2690233 2.1373291 35.51379395 C2.11688443 39.8438126 2.1077383 44.17385326 2.09765625 48.50390625 C2.07619504 57.00266686 2.04205145 65.50131646 2 74 C1.25100433 73.99181747 0.50200867 73.98363495 -0.26968384 73.97520447 C-3.69278888 73.94254409 -7.115861 73.92234042 -10.5390625 73.90234375 C-11.71734619 73.88925171 -12.89562988 73.87615967 -14.10961914 73.8626709 C-33.73906603 73.77666736 -48.43231001 82.90681365 -62.5 96.1875 C-90.31922015 125.11948896 -97.31580719 162.57378122 -102.12524414 200.97412109 C-105.53602583 227.6343357 -112.96061072 252.74504455 -130 274 C-130.52722656 274.6909375 -131.05445313 275.381875 -131.59765625 276.09375 C-143.86109229 291.27992141 -164.06524113 302.46321441 -183.12890625 305.71875 C-196.12522301 306.99185858 -211.16397375 307.19100483 -223 301 C-222.14003418 300.60844727 -222.14003418 300.60844727 -221.26269531 300.20898438 C-205.55277574 293.01254308 -192.18894064 285.28497327 -179 274 C-178.19433594 273.31808594 -177.38867188 272.63617188 -176.55859375 271.93359375 C-171.57479928 267.62442459 -167.15641458 263.10819859 -163 258 C-162.26265625 257.11183594 -161.5253125 256.22367187 -160.765625 255.30859375 C-150.80320583 242.88729724 -141.81577215 228.86043079 -136 214 C-135.70673828 213.2673291 -135.41347656 212.5346582 -135.11132812 211.77978516 C-121.19691631 179.40487506 -121.19691631 179.40487506 -121.125 145.5 C-123.89294483 141.8094069 -126.51234583 139.43689984 -131.1796875 138.6171875 C-135.13804646 138.41727038 -137.66723784 138.84931525 -141.3125 140.5 C-146.79031926 145.59564583 -148.62726976 152.46318167 -150.3125 159.5625 C-161.26834947 203.06545011 -178.93611947 242.87012723 -218.82324219 267.10791016 C-231.10387131 274.37874029 -243.83330621 278.78942849 -257.9765625 281.03125 C-262.54994795 282.49662415 -264.82584909 285.58292132 -267.8125 289.1875 C-269.90466198 294.14262047 -269.97229618 299.31961594 -268.1328125 304.390625 C-266.42377029 307.938916 -266.42377029 307.938916 -264 311 C-263.91216458 313.21855264 -263.89305391 315.43988496 -263.90234375 317.66015625 C-263.9037587 318.32462265 -263.90517365 318.98908905 -263.90663147 319.6736908 C-263.91224482 321.80333899 -263.92479946 323.93288339 -263.9375 326.0625 C-263.94251329 327.50325369 -263.94707649 328.94400903 -263.95117188 330.38476562 C-263.96221855 333.92321102 -263.97949208 337.46159539 -264 341 C-265.84464844 340.96519531 -265.84464844 340.96519531 -267.7265625 340.9296875 C-269.3593689 340.91091961 -270.9921819 340.89272051 -272.625 340.875 C-273.43324219 340.85824219 -274.24148438 340.84148437 -275.07421875 340.82421875 C-279.84791396 340.78540822 -283.47656298 341.31531818 -288 343 C-289.32 343 -290.64 343 -292 343 C-299.5582073 325.93411643 -307.29430525 307.13303082 -307.0625 288.125 C-307.05347656 287.15820312 -307.04445313 286.19140625 -307.03515625 285.1953125 C-307.02355469 284.47085937 -307.01195312 283.74640625 -307 283 C-306.40832031 282.91363281 -305.81664062 282.82726562 -305.20703125 282.73828125 C-299.65855945 281.75168512 -296.65250778 280.56563473 -293 276 C-291.77514188 273.55028376 -291.83277192 271.85765539 -291.8125 269.125 C-291.79832031 268.26132812 -291.78414063 267.39765625 -291.76953125 266.5078125 C-292.02071375 263.77460627 -292.45942163 262.26498826 -294 260 C-299.22744159 256.24207525 -305.51554611 254.47260028 -311.625 252.6875 C-331.60854867 246.74855699 -351.67709845 234.66062973 -362 216 C-360.98421875 215.57589844 -359.9684375 215.15179688 -358.921875 214.71484375 C-346.08686768 209.28055363 -334.64448601 203.1213441 -324 194 C-323.21625 193.33871094 -322.4325 192.67742187 -321.625 191.99609375 C-316.61668075 187.6730344 -312.20586461 183.10032451 -308 178 C-307.40960938 177.3090625 -306.81921875 176.618125 -306.2109375 175.90625 C-297.01481358 164.85576364 -289.43108176 152.5368684 -282.125 140.1875 C-259.91761317 102.69517378 -231.89298784 64.68563183 -197 38 C-195.73866549 36.99985436 -194.47832541 35.99845388 -193.21875 34.99609375 C-182.9372851 26.88757202 -172.23836291 19.71180007 -161 13 C-160.25105469 12.54995605 -159.50210938 12.09991211 -158.73046875 11.63623047 C-147.27961009 4.82036254 -135.51311488 -0.44432704 -123 -5 C-122.22624023 -5.28359375 -121.45248047 -5.5671875 -120.65527344 -5.859375 C-112.40784999 -8.84435796 -104.11745305 -11.36729026 -95.5625 -13.3125 C-94.51715088 -13.55178223 -94.51715088 -13.55178223 -93.45068359 -13.79589844 C-63.12563208 -20.27115101 -26.52484492 -17.16617644 0 0 Z " fill="#81A5C4" transform="translate(420,53)"/>
<path d="M0 0 C6.18036663 3.33273742 12.30584753 6.73559396 18.36376953 10.28588867 C67.76404778 39.08750919 120.21031678 49.84830515 176.1328125 35.5703125 C188.93614524 32.19499972 201.01685975 27.59193694 213 22 C213.64018066 21.70254883 214.28036133 21.40509766 214.93994141 21.09863281 C226.06012509 15.8759012 236.51600342 9.64976716 246.96386719 3.20166016 C248.93779477 2.03671153 250.94578942 1.01451879 253 0 C253.18062988 1.22178955 253.36125977 2.4435791 253.54736328 3.70239258 C256.95556298 26.65124926 260.38480293 49.46750181 266 72 C259.87196764 76.51467516 253.85414254 80.3921217 246.875 83.4375 C245.59701538 83.99981323 245.59701538 83.99981323 244.29321289 84.57348633 C218.3394108 95.71864382 191.0028392 101.87035368 163 105 C161.88274536 105.13160522 161.88274536 105.13160522 160.74291992 105.26586914 C154.32707543 105.97545253 147.98679865 106.16082028 141.53515625 106.16796875 C140.46236923 106.17129715 139.38958221 106.17462555 138.2842865 106.17805481 C136.0227806 106.18309093 133.76126736 106.18546417 131.49975586 106.18530273 C128.10322239 106.18747397 124.70702242 106.20562363 121.31054688 106.22460938 C108.39762302 106.25841608 95.79991448 105.69975291 83 104 C81.27511353 103.78887573 81.27511353 103.78887573 79.51538086 103.57348633 C47.57286954 99.53323857 14.0957305 91.06382033 -13 73 C-11.89283597 67.26580589 -10.68939799 61.55857742 -9.4140625 55.859375 C-5.29107872 37.31241124 -2.16819454 18.88127463 0 0 Z " fill="#DBE5ED" transform="translate(311,738)"/>
<path d="M0 0 C2.17463509 -0.009634 4.34829379 -0.04068448 6.52270508 -0.07226562 C24.37893947 -0.20790671 41.90260253 3.84425393 56.1418457 15.24023438 C60.19595893 19.45117983 62.47225272 23.48200516 62.8918457 29.36523438 C62.57786542 33.83770909 61.15432275 36.54706416 58.33325195 39.96289062 C54.74868117 42.05229285 51.26263508 42.50857452 47.1418457 42.24023438 C44.01684697 41.15680563 41.36181871 39.57339901 38.5793457 37.80273438 C37.85682617 37.36896484 37.13430664 36.93519531 36.38989258 36.48828125 C34.62784761 35.4263866 32.88293075 34.33615662 31.1418457 33.24023438 C31.18825195 34.13484375 31.2346582 35.02945313 31.2824707 35.95117188 C31.60553463 46.7738135 29.80617705 54.87522252 22.97387695 63.41992188 C16.77487314 69.57927321 8.9851698 72.75590197 0.3918457 73.61523438 C-7.82303465 73.34458909 -15.26342128 69.85977342 -21.1394043 64.22460938 C-28.29707287 55.96075565 -30.10023753 47.20338733 -30.02612305 36.56054688 C-29.8581543 34.24023438 -29.8581543 34.24023438 -28.8581543 32.24023438 C-37.74254145 36.43161401 -46.01726882 40.65157504 -53.8190918 46.67382812 C-57.61615659 49.59073039 -60.61536246 49.62677007 -65.30737305 49.59960938 C-69.41683934 49.02063403 -71.07165007 47.24108508 -73.8581543 44.24023438 C-75.09618266 41.76417765 -75.20406394 39.88115626 -75.3581543 37.11523438 C-75.4303418 36.20515625 -75.5025293 35.29507813 -75.5769043 34.35742188 C-73.88892246 27.03671805 -67.25758511 22.42874831 -61.19873047 18.57421875 C-60.00920776 17.85202148 -60.00920776 17.85202148 -58.7956543 17.11523438 C-57.96074463 16.60025391 -57.12583496 16.08527344 -56.265625 15.5546875 C-38.62794324 4.88792049 -20.54645875 0.05482101 0 0 Z " fill="#385875" transform="translate(311.858154296875,402.759765625)"/>
<path d="M0 0 C0.74612549 0.00370605 1.49225098 0.00741211 2.26098633 0.01123047 C29.05626715 0.20059641 53.84450156 9.62515606 74.125 27.4375 C77.24687658 31.18375189 77.6422295 34.48311498 77.484375 39.21875 C76.92579406 42.66738016 75.36093827 44.81825803 73.125 47.4375 C69.48018685 49.86737543 67.3730741 50.15095031 63.0625 50.08203125 C58.08595898 48.99010403 54.45062935 45.84097974 50.44921875 42.8359375 C44.7848396 38.61725064 38.08972507 34.87960778 31.125 33.4375 C31.17140625 34.24832031 31.2178125 35.05914062 31.265625 35.89453125 C31.60958951 46.4468709 29.69812036 55.28890922 22.97265625 63.6484375 C16.00489681 70.39523206 8.52859588 72.77570794 -0.96875 72.82250977 C-9.09640138 72.64213363 -14.75496535 69.61087714 -20.6875 64.25 C-27.36336192 57.03754398 -30.04374574 48.79336189 -29.9375 39.125 C-29.92847656 38.05636719 -29.91945313 36.98773438 -29.91015625 35.88671875 C-29.89855469 35.07847656 -29.88695312 34.27023437 -29.875 33.4375 C-30.70902344 34.00339844 -31.54304687 34.56929688 -32.40234375 35.15234375 C-45.05213941 43.49883387 -45.05213941 43.49883387 -51.875 42.4375 C-55.63322269 40.69758209 -57.40339625 39.09166004 -59.8125 35.75 C-61.5946966 30.19374002 -60.89911905 25.61931884 -58.4375 20.375 C-43.36667806 3.09869192 -21.70739932 -0.19414108 0 0 Z " fill="#385875" transform="translate(560.875,402.5625)"/>
<path d="M0 0 C9.13503762 2.89103854 18.16429697 4.7612118 27.625 6.1875 C28.59566406 6.36539063 29.56632812 6.54328125 30.56640625 6.7265625 C37.85024063 7.82425402 45.27215159 7.92359324 52.625 8.1875 C53.87821045 8.23269775 53.87821045 8.23269775 55.15673828 8.27880859 C76.95049464 8.94618128 100.52641181 7.1902018 121.0625 -0.5 C126.30833538 -2.45166367 130.06701229 -3.70574803 135.625 -2.8125 C139.37712276 -0.79747111 141.26144095 0.64216142 143.625 4.1875 C144.45643572 9.27238582 144.26899171 13.10076399 141.625 17.5625 C121.6551999 35.03607509 85.28426358 34.54918494 60.375 34.625 C59.41288605 34.63126404 58.45077209 34.63752808 57.45950317 34.64398193 C33.45660825 34.74272243 -3.2459955 33.94210009 -22.375 17.1875 C-24.61218343 14.20458876 -24.90523303 10.98944362 -24.8359375 7.2890625 C-23.98303882 3.40042275 -21.27676501 0.78104645 -18.375 -1.8125 C-12.46060556 -4.76969722 -5.8256615 -1.92810018 0 0 Z " fill="#375674" transform="translate(377.375,610.8125)"/>
<path d="M0 0 C8.936708 5.2271311 13.80269405 11.35552076 17.05859375 21.19140625 C21.94295227 40.02145046 15.87824317 62.38630189 6.97265625 79.1953125 C4.17160163 83.82199567 0.90703407 87.90643808 -2.6875 91.9375 C-3.31527344 92.64777344 -3.94304688 93.35804688 -4.58984375 94.08984375 C-13.51358523 103.59755195 -25.54221515 110.79443175 -38.6875 111.9375 C-37.50563122 103.83080648 -36.11760038 95.78460417 -34.58105469 87.73803711 C-32.12234487 74.82981057 -29.9998829 61.92345791 -28.4375 48.875 C-28.35483887 48.1899942 -28.27217773 47.5049884 -28.18701172 46.79922485 C-27.35410479 39.81421151 -26.6424746 32.83532296 -26.2109375 25.8125 C-26.10507324 24.17099976 -26.10507324 24.17099976 -25.99707031 22.49633789 C-25.87884066 20.4969119 -25.78478585 18.4958206 -25.72167969 16.49389648 C-25.35161882 9.92889738 -23.51820212 5.52078283 -18.6875 0.9375 C-12.92779034 -2.44675176 -6.24207536 -1.79856409 0 0 Z " fill="#DBE5ED" transform="translate(739.6875,424.0625)"/>
<path d="M0 0 C4.01859069 2.5775809 6.4348547 5.78112661 7.921875 10.2421875 C8.1522584 12.42864954 8.33789221 14.61991846 8.5 16.8125 C8.60642812 18.18047845 8.71364241 19.5483959 8.8215332 20.91625977 C8.87798004 21.640159 8.93442688 22.36405823 8.99258423 23.1098938 C11.0502524 49.01619876 15.26929753 74.4826723 20.04223633 100.01196289 C20.16775879 100.68478302 20.29328125 101.35760315 20.42260742 102.05081177 C20.76316637 103.8707668 21.10670042 105.6901644 21.45043945 107.50952148 C21.921875 110.2421875 21.921875 110.2421875 21.921875 112.2421875 C6.65340056 111.20115515 -6.28996481 101.34517518 -16.078125 90.2421875 C-30.20627384 72.6399037 -36.70546355 49.69054257 -35.078125 27.2421875 C-32.73589781 15.89512833 -28.30517562 8.2345618 -19.078125 1.2421875 C-13.83467607 -2.09857532 -5.7521115 -2.09757449 0 0 Z " fill="#DBE5ED" transform="translate(152.078125,423.7578125)"/>
<path d="M0 0 C5.48098243 2.74049121 7.89753086 8.47456355 10 14 C17.75767696 41.048543 9.41377735 73.31595464 3.04907227 99.92675781 C-0.70815054 113.92728766 -0.70815054 113.92728766 1.125 127.9375 C4.56384816 131.72023297 7.92047186 134.18068022 13.09375 134.46875 C14.56225265 134.49764719 16.03123348 134.50774394 17.5 134.5 C23.5640241 134.46802799 27.1208333 134.94382528 32 139 C34.67375977 143.01063966 34.82035715 146.285018 34 151 C31.44000253 154.34221892 28.91237791 156.49927213 25 158 C10.95469447 159.26746724 -0.82374627 157.12692176 -12 148 C-18.66834067 141.87304937 -22.60221908 135.32241115 -23.28442383 126.19433594 C-23.51054588 115.47935457 -22.12881239 105.58417204 -19.80834961 95.14608765 C-18.84420877 90.79275146 -17.94856635 86.42521565 -17.046875 82.05859375 C-16.86745361 81.19524918 -16.68803223 80.3319046 -16.50317383 79.44239807 C-8.78941124 48.23771304 -8.78941124 48.23771304 -14.09765625 17.9140625 C-15.75854896 14.39095675 -15.61752681 10.78602746 -15 7 C-11.84709475 -0.05650223 -7.13167018 -0.95760942 0 0 Z " fill="#375673" transform="translate(411,412)"/>
<path d="M0 0 C0.66 0.33 1.32 0.66 2 1 C1.02688873 1.77999359 1.02688873 1.77999359 0.03411865 2.57574463 C-2.65358689 5.77894253 -2.51561412 7.63913448 -2.54589844 11.78808594 C-2.55623611 12.46166641 -2.56657379 13.13524689 -2.57722473 13.82923889 C-2.60664006 16.04786197 -2.60815151 18.2655723 -2.609375 20.484375 C-2.62435766 22.0256728 -2.64108499 23.56695454 -2.65948486 25.10821533 C-2.7031617 29.15896341 -2.72315798 33.20949493 -2.73822021 37.26043701 C-2.75779027 41.39641121 -2.79976033 45.53215149 -2.83984375 49.66796875 C-2.91514936 57.77858463 -2.96543844 65.88910866 -3 74 C-1.68 74.33 -0.36 74.66 1 75 C-1.97 75.495 -1.97 75.495 -5 76 C-5.11584226 66.68155366 -5.20468854 57.36335509 -5.25906086 48.04434586 C-5.28515685 43.71713075 -5.32055402 39.39040818 -5.37719727 35.06347656 C-5.43151838 30.88780629 -5.46142052 26.71260979 -5.47438622 22.53661346 C-5.48362606 20.94334198 -5.50166978 19.35009649 -5.52865028 17.75702667 C-5.56494492 15.52527316 -5.56994562 13.29547764 -5.56762695 11.06347656 C-5.57873001 9.79328674 -5.58983307 8.52309692 -5.60127258 7.2144165 C-5 4 -5 4 -2.46452332 1.55853271 C-1.65123062 1.04421692 -0.83793793 0.52990112 0 0 Z " fill="#8FB4D3" transform="translate(456,51)"/>
<path d="M0 0 C8.64820922 1.4380849 16.21422908 10.92074763 22.3984375 16.6171875 C24.65155544 18.68085409 26.93488353 20.69417578 29.25 22.6875 C35.10573854 27.79189123 40.37242447 33.3042342 45.421875 39.203125 C46.88881269 40.87340058 48.40956293 42.44788672 50 44 C49.67 44.99 49.34 45.98 49 47 C48.55197021 46.52167725 48.10394043 46.04335449 47.64233398 45.55053711 C45.57525341 43.34506567 43.50638807 41.14127592 41.4375 38.9375 C40.73302734 38.18533203 40.02855469 37.43316406 39.30273438 36.65820312 C31.41661032 28.26329687 23.27971249 20.50310027 14.51953125 13.03125 C13.89957275 12.50168701 13.27961426 11.97212402 12.64086914 11.42651367 C11.40332608 10.37016801 10.16428707 9.31557179 8.92358398 8.26293945 C5.82116356 5.61799092 2.83326478 2.93846026 0 0 Z " fill="#344F67" transform="translate(660,60)"/>
<path d="M0 0 C2.61322465 2.31371466 3.83053426 4.48858798 5.1875 7.6875 C7.6770915 13.37257327 10.41796711 18.89997288 13.2331543 24.4284668 C14.99150098 27.90168574 16.62629369 31.35087247 18 35 C13.20752126 33.40250709 12.10756685 29.08556731 9.81640625 24.78515625 C8.00833407 22.0127789 7.06434087 21.0708356 4 20 C4.061875 18.989375 4.12375 17.97875 4.1875 16.9375 C3.96989436 12.36778163 3.15625453 9.99306395 1 6 C0.01 5.67 -0.98 5.34 -2 5 C-1 2 -1 2 0 0 Z M6 17 C7 19 7 19 7 19 Z M7 19 C8 21 8 21 8 21 Z " fill="#355068" transform="translate(194,600)"/>
<path d="M0 0 C10.54157783 -0.61407249 10.54157783 -0.61407249 15.5625 1.5 C18.76229216 4.78183812 20.31915333 7.44827227 21 12 C20.80287333 20.55529756 17.07593365 27.65562898 13 35 C12.34 35 11.68 35 11 35 C11.88722708 32.19044757 12.7972777 29.4433583 14.0234375 26.76171875 C17.22861966 19.63530309 18.52583153 12.57749458 16 5 C15.34 5 14.68 5 14 5 C14 4.34 14 3.68 14 3 C9.38 2.34 4.76 1.68 0 1 C0 0.67 0 0.34 0 0 Z " fill="#314D66" transform="translate(836,242)"/>
<path d="M0 0 C0.99 0.33 1.98 0.66 3 1 C2.52167725 1.47308594 2.04335449 1.94617188 1.55053711 2.43359375 C-0.6565534 4.61964406 -2.85953633 6.80979129 -5.0625 9 C-5.81466797 9.74378906 -6.56683594 10.48757812 -7.34179688 11.25390625 C-13.96374341 17.84718635 -20.05670232 24.79600282 -26 32 C-26.33 31.01 -26.66 30.02 -27 29 C-25.55738102 26.59563504 -23.80890121 24.81027109 -21.8203125 22.8359375 C-18.46587359 19.46291444 -15.23315748 15.98877036 -12 12.5 C-8.06908756 8.2583103 -4.12072903 4.05829374 0 0 Z " fill="#334E67" transform="translate(185,82)"/>
<path d="M0 0 C0.66 0 1.32 0 2 0 C3.01956941 1.52324891 3.96314644 3.09742701 4.875 4.6875 C8.66726619 10.85891424 13.24757724 15.85447616 18.23046875 21.0546875 C20.65049952 23.58317672 22.85803765 26.22925156 25 29 C17.7151063 27.98543718 12.39814677 19.91424646 8.16015625 14.36328125 C7.24577176 13.12219245 6.33808392 11.87613909 5.4375 10.625 C5.00808105 10.03050049 4.57866211 9.43600098 4.13623047 8.82348633 C2.1404537 5.96595212 0.49066199 3.49489068 0 0 Z " fill="#35506A" transform="translate(102,517)"/>
<path d="M0 0 C3.85531662 3.62166107 7.02988722 7.54267647 10.25 11.734375 C14.98830557 17.86878846 20.0434863 23.02615988 26 28 C25.01 28.33 24.02 28.66 23 29 C3.75060925 10.42560137 3.75060925 10.42560137 0 3 C0 2.01 0 1.02 0 0 Z " fill="#344E67" transform="translate(30,281)"/>
<path d="M0 0 C3.29385317 1.09795106 3.65031422 1.53612561 5.48828125 4.28125 C6.17325684 5.29106934 6.17325684 5.29106934 6.87207031 6.32128906 C7.34741211 7.04026367 7.82275391 7.75923828 8.3125 8.5 C8.79944336 9.22670898 9.28638672 9.95341797 9.78808594 10.70214844 C10.75474639 12.145377 11.7188377 13.59033012 12.68017578 15.03710938 C13.78815819 16.68494114 14.93466243 18.30678037 16.08984375 19.921875 C16.63769531 20.69015625 17.18554688 21.4584375 17.75 22.25 C18.45382812 23.21679688 18.45382812 23.21679688 19.171875 24.203125 C20.24111707 26.52317854 19.69899046 27.6085866 19 30 C18.60208252 29.40050537 18.20416504 28.80101074 17.79418945 28.18334961 C15.96820804 25.43390164 14.14036842 22.68569378 12.3125 19.9375 C11.68666016 18.99455078 11.06082031 18.05160156 10.41601562 17.08007812 C7.68894015 12.98232598 4.95847216 8.90793064 2.04296875 4.94140625 C0 2 0 2 0 0 Z " fill="#314D66" transform="translate(726,127)"/>
<path d="M0 0 C4.4820765 4.4205578 8.80754159 8.98159012 13.125 13.5625 C13.84042969 14.31724609 14.55585938 15.07199219 15.29296875 15.84960938 C15.98261719 16.58115234 16.67226562 17.31269531 17.3828125 18.06640625 C18.00559082 18.72584229 18.62836914 19.38527832 19.27001953 20.06469727 C20.97132347 21.96792001 22.50060368 23.93538472 24 26 C20.63062552 25.42008587 19.03447573 24.39650321 16.6875 21.9375 C16.08421875 21.30714844 15.4809375 20.67679688 14.859375 20.02734375 C12.43405475 17.38292944 10.04788011 14.71118949 7.7109375 11.98828125 C6.56650434 10.65833495 5.40473979 9.34311594 4.2265625 8.04296875 C3.67742187 7.43066406 3.12828125 6.81835938 2.5625 6.1875 C2.06878906 5.64480469 1.57507813 5.10210938 1.06640625 4.54296875 C0 3 0 3 0 0 Z " fill="#2D4761" transform="translate(236,670)"/>
<path d="M0 0 C0.74958984 0.00451172 1.49917969 0.00902344 2.27148438 0.01367188 C4.11852383 0.02543646 5.96552213 0.04337135 7.8125 0.0625 C7.8125 0.7225 7.8125 1.3825 7.8125 2.0625 C6.43578125 2.13597656 6.43578125 2.13597656 5.03125 2.2109375 C-4.77012695 2.65055817 -4.77012695 2.65055817 -14.1875 5.0625 C-15.78438639 7.54563064 -15.78438639 7.54563064 -16.1875 10.0625 C-16.5175 8.7425 -16.8475 7.4225 -17.1875 6.0625 C-11.32190738 0.97898639 -7.85805448 -0.08921809 0 0 Z " fill="#334F69" transform="translate(37.1875,240.9375)"/>
<path d="M0 0 C9.9 0 19.8 0 30 0 C29.01 0.495 29.01 0.495 28 1 C28 1.66 28 2.32 28 3 C22 3 16 3 10 3 C10 2.34 10 1.68 10 1 C6.87709365 1.48578543 4.00419641 1.9986012 1 3 C0.67 2.01 0.34 1.02 0 0 Z " fill="#5F738B" transform="translate(424,875)"/>
<path d="M0 0 C4.5059121 0.77244207 8.53029263 1.51140988 11.82421875 4.84765625 C14.87923629 7.86976516 18.38017753 10.04930825 21.953125 12.4140625 C22.62859375 12.93742187 23.3040625 13.46078125 24 14 C24 14.66 24 15.32 24 16 C18.71273017 13.48577379 13.90493914 10.17766218 9 7 C8.1028125 6.41992188 7.205625 5.83984375 6.28125 5.2421875 C5.4665625 4.70851563 4.651875 4.17484375 3.8125 3.625 C3.07644531 3.14289062 2.34039063 2.66078125 1.58203125 2.1640625 C1.05996094 1.77992187 0.53789063 1.39578125 0 1 C0 0.67 0 0.34 0 0 Z " fill="#324E68" transform="translate(635,43)"/>
<path d="M0 0 C0.93344238 0.28133789 0.93344238 0.28133789 1.88574219 0.56835938 C1.42723877 0.91092773 0.96873535 1.25349609 0.49633789 1.60644531 C-1.60367381 3.17622062 -3.70272197 4.74727946 -5.80175781 6.31835938 C-6.52298828 6.8571875 -7.24421875 7.39601563 -7.98730469 7.95117188 C-11.74570544 10.76568203 -15.46956352 13.60659596 -19.11425781 16.56835938 C-19.11425781 15.57835938 -19.11425781 14.58835937 -19.11425781 13.56835938 C-17.07475874 11.61138338 -15.05616341 9.83784205 -12.86425781 8.06835938 C-12.27773437 7.58238281 -11.69121094 7.09640625 -11.08691406 6.59570312 C-9.9475329 5.65603372 -8.8012255 4.72468631 -7.64746094 3.80273438 C-6.38635682 2.78742507 -5.15919377 1.73010173 -3.94238281 0.66210938 C-2.11425781 -0.43164062 -2.11425781 -0.43164062 0 0 Z " fill="#345069" transform="translate(218.1142578125,56.431640625)"/>
<path d="M0 0 C0.33 0 0.66 0 1 0 C1.33 1.98 1.66 3.96 2 6 C2.33 4.35 2.66 2.7 3 1 C3.33 1 3.66 1 4 1 C4.31918373 8.85546636 3.35709504 16.26940505 2 24 C1.67 24 1.34 24 1 24 C0.20318916 15.97497656 -0.12867289 8.06350113 0 0 Z " fill="#344F68" transform="translate(278,726)"/>
<path d="M0 0 C8.44176667 2.713425 16.71110853 5.85734053 25 9 C25 9.33 25 9.66 25 10 C19.26535442 10.49101166 14.91197599 8.76974905 9.6875 6.6875 C8.86443359 6.37876953 8.04136719 6.07003906 7.19335938 5.75195312 C6.02063477 5.29272461 6.02063477 5.29272461 4.82421875 4.82421875 C4.11354248 4.54666748 3.40286621 4.26911621 2.6706543 3.9831543 C1 3 1 3 0 0 Z " fill="#344E68" transform="translate(303,847)"/>
<path d="M0 0 C0.33 0.99 0.66 1.98 1 3 C0.25556641 3.72703125 0.25556641 3.72703125 -0.50390625 4.46875 C-4.70778087 8.61678568 -8.65121889 12.83440013 -12.359375 17.43359375 C-14.2196081 19.20967344 -15.48897116 19.61242816 -18 20 C-12.23683566 13.11622037 -6.10986528 6.57453141 0 0 Z " fill="#334D67" transform="translate(632,678)"/>
<path d="M0 0 C6.02795466 5.46283391 10.50758155 12.26137232 15 19 C14.01 19 13.02 19 12 19 C9.84375 16.76953125 9.84375 16.76953125 7.5 13.8125 C6.33984375 12.36810547 6.33984375 12.36810547 5.15625 10.89453125 C0 3.97282609 0 3.97282609 0 0 Z " fill="#314C66" transform="translate(221,650)"/>
<path d="M0 0 C0 0.33 0 0.66 0 1 C-9.9 1 -19.8 1 -30 1 C-30 0.67 -30 0.34 -30 0 C-19.38487067 -1.95739974 -10.61512933 -1.95739974 0 0 Z " fill="#27435F" transform="translate(373,6)"/>
<path d="M0 0 C0.99 0.33 1.98 0.66 3 1 C2.41992188 1.64066406 1.83984375 2.28132812 1.2421875 2.94140625 C0.46101563 3.80636719 -0.32015625 4.67132813 -1.125 5.5625 C-1.94484375 6.47 -2.7646875 7.3775 -3.609375 8.3125 C-5.58048847 10.52839227 -7.48817622 12.77544087 -9.375 15.0625 C-12 18 -12 18 -15 19 C-13.65285534 15.96232088 -12.17833297 14.00331798 -9.75 11.75 C-6.02468718 8.14964526 -2.99134616 4.21856509 0 0 Z " fill="#334F69" transform="translate(93,205)"/>
<path d="M0 0 C2.2303265 2.06328016 3.68051002 3.97701464 5.04296875 6.6875 C5.56987305 7.73550781 5.56987305 7.73550781 6.10742188 8.8046875 C6.46384766 9.52914062 6.82027344 10.25359375 7.1875 11 C7.55552734 11.72445312 7.92355469 12.44890625 8.30273438 13.1953125 C8.82383789 14.24332031 8.82383789 14.24332031 9.35546875 15.3125 C9.67153076 15.94800781 9.98759277 16.58351563 10.31323242 17.23828125 C11 19 11 19 11 22 C7.70945447 19.01638171 5.778558 16.09754907 3.8125 12.125 C3.30332031 11.11695313 2.79414063 10.10890625 2.26953125 9.0703125 C1.00394027 6.00952939 0.40589229 3.27647994 0 0 Z " fill="#2E4A65" transform="translate(200,613)"/>
<path d="M0 0 C-1.49499589 4.30054013 -4.65272261 6.07011483 -8.375 8.3125 C-8.9525 8.68439453 -9.53 9.05628906 -10.125 9.43945312 C-14.40952663 12.06592664 -14.40952663 12.06592664 -17.4140625 11.73046875 C-17.93742188 11.48941406 -18.46078125 11.24835937 -19 11 C-18.19175781 10.54109375 -17.38351562 10.0821875 -16.55078125 9.609375 C-14.94783203 8.68898438 -14.94783203 8.68898438 -13.3125 7.75 C-12.25675781 7.14671875 -11.20101562 6.5434375 -10.11328125 5.921875 C-6.9699248 4.07134768 -6.9699248 4.07134768 -4.23046875 1.765625 C-2 0 -2 0 0 0 Z " fill="#2F4963" transform="translate(748,546)"/>
<path d="M0 0 C3.36202939 1.42609159 5.23675579 3.14348515 7.5625 5.9375 C9.6269098 8.39732014 11.69358543 10.76368922 14 13 C13.67 13.99 13.34 14.98 13 16 C2.75322284 5.95027624 2.75322284 5.95027624 0 2 C0 1.34 0 0.68 0 0 Z " fill="#35516A" transform="translate(777,205)"/>
<path d="M0 0 C0.66 0 1.32 0 2 0 C3.98616619 4.96541546 4.41847439 8.72722269 4 14 C2.625 17 2.625 17 1 19 C0.34 19 -0.32 19 -1 19 C-0.67 18.34 -0.34 17.68 0 17 C1.88287147 11.3513856 1.14901675 5.74508376 0 0 Z " fill="#354F68" transform="translate(608,807)"/>
<path d="M0 0 C0.33 0.99 0.66 1.98 1 3 C-0.32021449 5.14572107 -1.63967824 7.0313419 -3.1875 9 C-3.58775391 9.53367187 -3.98800781 10.06734375 -4.40039062 10.6171875 C-6.66501341 13.56817084 -8.89471825 15.94408933 -12 18 C-10.61230906 13.9670232 -8.7201398 11.14516807 -6 7.875 C-3.86263907 5.28973622 -1.86241106 2.79361659 0 0 Z " fill="#314C65" transform="translate(650,655)"/>
<path d="M0 0 C-3.23831126 1.79041248 -6.41415108 2.73750239 -10 3.625 C-11.546875 4.01558594 -11.546875 4.01558594 -13.125 4.4140625 C-16 5 -16 5 -20 5 C-20 4.34 -20 3.68 -20 3 C-13.12418702 0.8408662 -7.21471629 -0.35482211 0 0 Z " fill="#37536C" transform="translate(326,9)"/>
<path d="M0 0 C-0.66 0 -1.32 0 -2 0 C-2 0.66 -2 1.32 -2 2 C-8.11980533 3.40454548 -13.71739294 4.23268915 -20 4 C-16.60664159 1.73776106 -13.97522368 1.16137589 -10 0.3125 C-8.14375 -0.09548828 -8.14375 -0.09548828 -6.25 -0.51171875 C-3 -1 -3 -1 0 0 Z " fill="#314D67" transform="translate(522,865)"/>
<path d="M0 0 C5.59363406 4.06133537 10.85963514 8.3791401 16 13 C15.01 13.33 14.02 13.66 13 14 C11.01436365 12.23598822 9.03656344 10.46438117 7.0625 8.6875 C6.49853516 8.18798828 5.93457031 7.68847656 5.35351562 7.17382812 C1.11328125 3.33984375 1.11328125 3.33984375 0 0 Z " fill="#2E4964" transform="translate(261,697)"/>
<path d="M0 0 C3.66398299 1.68970089 6.90832572 3.87300211 10.25 6.125 C11.86648437 7.21167969 11.86648437 7.21167969 13.515625 8.3203125 C14.33546875 8.87460937 15.1553125 9.42890625 16 10 C14.35546875 10.734375 14.35546875 10.734375 12 11 C9.23828125 9.453125 9.23828125 9.453125 6.3125 7.25 C5.33925781 6.53328125 4.36601563 5.8165625 3.36328125 5.078125 C1 3 1 3 0 0 Z " fill="#344D67" transform="translate(57,311)"/>
<path d="M0 0 C3.96 0.33 7.92 0.66 12 1 C12 1.33 12 1.66 12 2 C9.39740876 2.53010201 6.793443 3.04937795 4.1875 3.5625 C3.08051758 3.78969727 3.08051758 3.78969727 1.95117188 4.02148438 C-3.66015625 5.11328125 -3.66015625 5.11328125 -7 4 C-4 2 -4 2 0 2 C0 1.34 0 0.68 0 0 Z " fill="#324E69" transform="translate(486,6)"/>
<path d="M0 0 C3.78806451 0.60636284 6.82895704 1.71161456 10.25 3.4375 C11.12140625 3.86933594 11.9928125 4.30117187 12.890625 4.74609375 C15 6 15 6 16 8 C11.85701333 7.40165275 8.81805623 5.99335715 5.1875 3.9375 C4.21167969 3.38964844 3.23585938 2.84179688 2.23046875 2.27734375 C1.49441406 1.85582031 0.75835938 1.43429688 0 1 C0 0.67 0 0.34 0 0 Z " fill="#314D68" transform="translate(804,231)"/>
<path d="M0 0 C2.56278699 -0.05420701 5.12441483 -0.09377007 7.6875 -0.125 C8.40873047 -0.14175781 9.12996094 -0.15851562 9.87304688 -0.17578125 C14.04876781 -0.21391569 17.2494138 0.1210081 21 2 C21 2.33 21 2.66 21 3 C6.21867882 2.03644647 6.21867882 2.03644647 0 1 C0 0.67 0 0.34 0 0 Z " fill="#304B66" transform="translate(526,6)"/>
<path d="M0 0 C2.06277107 0.14194764 4.12521031 0.28872216 6.1875 0.4375 C7.91033203 0.55931641 7.91033203 0.55931641 9.66796875 0.68359375 C12.51598171 0.95403812 15.21210482 1.37521747 18 2 C18 2.33 18 2.66 18 3 C15.9377952 3.054348 13.87517184 3.09294961 11.8125 3.125 C10.66394531 3.14820313 9.51539063 3.17140625 8.33203125 3.1953125 C5.08259628 3.00484152 2.91339479 2.39360127 0 1 C0 0.67 0 0.34 0 0 Z " fill="#2E4963" transform="translate(378,869)"/>
<path d="M0 0 C2.04174058 0.31201674 4.08338913 0.62463569 6.125 0.9375 C7.83042969 1.19853516 7.83042969 1.19853516 9.5703125 1.46484375 C12.71732669 1.95589266 15.85930783 2.47018719 19 3 C19 3.33 19 3.66 19 4 C11.49118208 5.44219467 6.67216405 4.75510682 0 1 C0 0.67 0 0.34 0 0 Z " fill="#2D4962" transform="translate(358,865)"/>
<path d="M0 0 C3.91703377 1.30567792 4.31757187 2.80094602 6.25 6.375 C7.06210937 7.84066406 7.06210937 7.84066406 7.890625 9.3359375 C9 12 9 12 8 15 C6.66121428 12.8782637 5.32884524 10.75294812 4 8.625 C3.6184375 8.02171875 3.236875 7.4184375 2.84375 6.796875 C0 2.2265625 0 2.2265625 0 0 Z " fill="#304B63" transform="translate(754,170)"/>
<path d="M0 0 C0 3.93974955 -1.47789475 5.82936093 -3.5 9.1875 C-4.47453125 10.81751953 -4.47453125 10.81751953 -5.46875 12.48046875 C-6.22671875 13.72763672 -6.22671875 13.72763672 -7 15 C-7.5534764 12.92446352 -8 11.15634036 -8 9 C-6.66666667 7.66666667 -5.33333333 6.33333333 -4 5 C-3.31822584 3.67432801 -2.64808564 2.34246312 -2 1 C-1.34 0.67 -0.68 0.34 0 0 Z " fill="#304B65" transform="translate(119,168)"/>
<path d="M0 0 C0.33 0.99 0.66 1.98 1 3 C-0.36328125 5.6640625 -0.36328125 5.6640625 -2.3125 8.625 C-2.94800781 9.60726562 -3.58351563 10.58953125 -4.23828125 11.6015625 C-6 14 -6 14 -8 15 C-7.35256333 11.17009294 -5.54688763 8.4716102 -3.4375 5.25 C-2.79683594 4.26515625 -2.15617188 3.2803125 -1.49609375 2.265625 C-1.00238281 1.51796875 -0.50867188 0.7703125 0 0 Z " fill="#334E67" transform="translate(660,640)"/>
<path d="M0 0 C0.33 0.99 0.66 1.98 1 3 C-1.64 5.64 -4.28 8.28 -7 11 C-7.99 10.67 -8.98 10.34 -10 10 C-6.7 6.7 -3.4 3.4 0 0 Z " fill="#334E67" transform="translate(759,534)"/>
<path d="M0 0 C0 4.03381023 -1.59573562 5.49433637 -4 8.6875 C-4.7425 9.68136719 -5.485 10.67523438 -6.25 11.69921875 C-7.11625 12.83810547 -7.11625 12.83810547 -8 14 C-8.33 13.01 -8.66 12.02 -9 11 C-7.63671875 8.5546875 -7.63671875 8.5546875 -5.6875 5.875 C-4.73423828 4.54082031 -4.73423828 4.54082031 -3.76171875 3.1796875 C-2 1 -2 1 0 0 Z " fill="#2F4A64" transform="translate(106,189)"/>
<path d="M0 0 C3.45201639 1.47721422 5.64961936 3.43794001 8.25 6.125 C8.95640625 6.84945312 9.6628125 7.57390625 10.390625 8.3203125 C11.18726563 9.15175781 11.18726563 9.15175781 12 10 C11.67 10.99 11.34 11.98 11 13 C9.16365966 11.02354928 7.33083938 9.044035 5.5 7.0625 C4.71302734 6.21655273 4.71302734 6.21655273 3.91015625 5.35351562 C0 1.11328125 0 1.11328125 0 0 Z " fill="#2E4B65" transform="translate(698,94)"/>
<path d="M0 0 C-3 2 -3 2 -5 2 C-5.33 2.66 -5.66 3.32 -6 4 C-9.96 3.67 -13.92 3.34 -18 3 C-18 2.67 -18 2.34 -18 2 C-16.12612523 1.6603981 -14.25083303 1.32861309 -12.375 1 C-11.33085937 0.814375 -10.28671875 0.62875 -9.2109375 0.4375 C-6.09425135 0.01284203 -3.14069188 -0.07545206 0 0 Z " fill="#304963" transform="translate(499,869)"/>
<path d="M0 0 C3.55780196 0.60990891 6.6828589 1.5783681 10 3 C9.01 3.66 8.02 4.32 7 5 C7.99 5.66 8.98 6.32 10 7 C7.69 6.67 5.38 6.34 3 6 C2.67 5.01 2.34 4.02 2 3 C1.34 2.67 0.68 2.34 0 2 C0 1.34 0 0.68 0 0 Z " fill="#3B546D" transform="translate(147,559)"/>
<path d="M0 0 C2.52394612 3.12488567 4.39701907 6.31314387 6 10 C5.67 10.66 5.34 11.32 5 12 C3.35 11.67 1.7 11.34 0 11 C0.185625 10.484375 0.37125 9.96875 0.5625 9.4375 C1.15419517 6.14091261 0.567267 3.27754265 0 0 Z " fill="#364F68" transform="translate(22,265)"/>
<path d="M0 0 C-2.11997834 1.19733988 -4.24513676 2.38298713 -6.375 3.5625 C-6.97828125 3.90474609 -7.5815625 4.24699219 -8.203125 4.59960938 C-9.76978241 5.46127095 -11.38290862 6.23718183 -13 7 C-13.66 6.67 -14.32 6.34 -15 6 C-12.87748883 3.69895986 -10.84451444 2.18105541 -8.0625 0.75 C-7.39347656 0.39421875 -6.72445313 0.0384375 -6.03515625 -0.328125 C-3.61730731 -1.12634 -2.36988243 -0.82707306 0 0 Z " fill="#324F68" transform="translate(457,19)"/>
<path d="M0 0 C3.61569144 1.20523048 3.94669545 2.07185564 5.75 5.3125 C6.19859375 6.09238281 6.6471875 6.87226563 7.109375 7.67578125 C8.11611108 10.30300917 7.97226335 11.40927388 7 14 C6.01780373 12.23084525 5.03934641 10.45961431 4.0625 8.6875 C3.51722656 7.70136719 2.97195313 6.71523438 2.41015625 5.69921875 C1 3 1 3 0 0 Z " fill="#324D66" transform="translate(776,418)"/>
<path d="M0 0 C0.66 0.33 1.32 0.66 2 1 C1.01 1.33 0.02 1.66 -1 2 C-1 2.66 -1 3.32 -1 4 C1.64 4.33 4.28 4.66 7 5 C7 5.33 7 5.66 7 6 C5.41590006 5.88512252 3.83271037 5.75765492 2.25 5.625 C1.36828125 5.55539062 0.4865625 5.48578125 -0.421875 5.4140625 C-2.99066382 5.00149945 -4.75841015 4.28839043 -7 3 C-4.69631264 1.93347808 -2.35981813 0.93578995 0 0 Z " fill="#97BBD8" transform="translate(204,351)"/>
<path d="M0 0 C0.66 0 1.32 0 2 0 C1.34 5.28 0.68 10.56 0 16 C-0.33 16 -0.66 16 -1 16 C-1.02701408 13.89590361 -1.04640223 11.79170822 -1.0625 9.6875 C-1.07410156 8.51574219 -1.08570313 7.34398437 -1.09765625 6.13671875 C-1 3 -1 3 0 0 Z " fill="#2D4861" transform="translate(265,805)"/>
<path d="M0 0 C0 0.33 0 0.66 0 1 C-1.65 1.33 -3.3 1.66 -5 2 C-4.01 2.66 -3.02 3.32 -2 4 C-3.43836751 3.88541307 -4.87570966 3.75790884 -6.3125 3.625 C-7.11300781 3.55539063 -7.91351562 3.48578125 -8.73828125 3.4140625 C-11 3 -11 3 -14 1 C-9.27685687 0.22887459 -4.78478822 -0.09764874 0 0 Z " fill="#344F67" transform="translate(835,238)"/>
<path d="M0 0 C1.12894876 0.93274109 2.25300876 1.87140122 3.375 2.8125 C4.00148437 3.33457031 4.62796875 3.85664062 5.2734375 4.39453125 C7 6 7 6 9 9 C5.40094092 8.44449305 4.00090201 7.25112752 1.75 4.4375 C1.22921875 3.79683594 0.7084375 3.15617188 0.171875 2.49609375 C-0.21484375 2.00238281 -0.6015625 1.50867188 -1 1 C-0.67 0.67 -0.34 0.34 0 0 Z " fill="#354F68" transform="translate(251,687)"/>
<path d="M0 0 C2.55934601 1.279673 2.6989233 2.24201036 3.6875 4.875 C3.95949219 5.57367187 4.23148438 6.27234375 4.51171875 6.9921875 C5 9 5 9 4 12 C0.46209597 8.30827405 0.40884117 4.90609405 0 0 Z " fill="#324D67" transform="translate(188,584)"/>
<path d="M0 0 C0.33 0.99 0.66 1.98 1 3 C-0.43359375 5.48046875 -0.43359375 5.48046875 -2.4375 8.1875 C-3.09621094 9.08855469 -3.75492188 9.98960937 -4.43359375 10.91796875 C-5.20896484 11.94857422 -5.20896484 11.94857422 -6 13 C-6.33 12.01 -6.66 11.02 -7 10 C-5.56640625 7.51953125 -5.56640625 7.51953125 -3.5625 4.8125 C-2.90378906 3.91144531 -2.24507812 3.01039063 -1.56640625 2.08203125 C-1.04949219 1.39496094 -0.53257812 0.70789063 0 0 Z " fill="#304C65" transform="translate(845,279)"/>
<path d="M0 0 C0.99 0.33 1.98 0.66 3 1 C2.34 1.66 1.68 2.32 1 3 C0.34 2.34 -0.32 1.68 -1 1 C-0.67 0.67 -0.34 0.34 0 0 Z " fill="#43617C" transform="translate(187,80)"/>
<path d="M0 0 C0.99 0.33 1.98 0.66 3 1 C-0.3 3.64 -3.6 6.28 -7 9 C-7 6 -7 6 -5.57421875 4.359375 C-4.95160156 3.82828125 -4.32898438 3.2971875 -3.6875 2.75 C-3.07261719 2.20859375 -2.45773438 1.6671875 -1.82421875 1.109375 C-1.22222656 0.74328125 -0.62023437 0.3771875 0 0 Z " fill="#2E4962" transform="translate(206,64)"/>
<path d="M0 0 C2.53910197 0.38520564 3.72751123 0.70097943 5.484375 2.62890625 C5.90203125 3.26699219 6.3196875 3.90507813 6.75 4.5625 C7.17796875 5.20316406 7.6059375 5.84382812 8.046875 6.50390625 C8.36140625 6.99761719 8.6759375 7.49132812 9 8 C8.01 8 7.02 8 6 8 C4.39453125 6.25 4.39453125 6.25 2.8125 4 C2.28269531 3.2575 1.75289062 2.515 1.20703125 1.75 C0.80871094 1.1725 0.41039062 0.595 0 0 Z " fill="#37526B" transform="translate(227,661)"/>
<path d="M0 0 C-1.44472346 3.80881639 -3.32603071 5.29742886 -7 7 C-7.99 6.67 -8.98 6.34 -10 6 C-8.71283353 4.99421411 -7.42011342 3.99553202 -6.125 3 C-5.40570312 2.443125 -4.68640625 1.88625 -3.9453125 1.3125 C-2 0 -2 0 0 0 Z " fill="#314C63" transform="translate(605,828)"/>
<path d="M0 0 C1.1055189 0.93590504 2.20935453 1.87379858 3.3125 2.8125 C3.92738281 3.33457031 4.54226563 3.85664062 5.17578125 4.39453125 C6.85424679 5.87172469 8.43882034 7.40039131 10 9 C6.39755548 8.69121904 5.00654002 8.00552268 2.1875 5.625 C0 3 0 3 0 0 Z " fill="#2F4B64" transform="translate(266,823)"/>
<path d="M0 0 C-1.44253657 3.36591866 -3.33264727 5.51047079 -6 8 C-6.99 7.67 -7.98 7.34 -9 7 C-7.88121617 5.82737096 -6.75476949 4.66204862 -5.625 3.5 C-4.68527344 2.52546875 -4.68527344 2.52546875 -3.7265625 1.53125 C-2 0 -2 0 0 0 Z " fill="#33506B" transform="translate(613,699)"/>
<path d="M0 0 C0 0.66 0 1.32 0 2 C-7.42857143 4.42857143 -7.42857143 4.42857143 -11 3 C-4.5 0 -4.5 0 0 0 Z " fill="#3B546E" transform="translate(531,862)"/>
<path d="M0 0 C0.33 0 0.66 0 1 0 C0.67 2.64 0.34 5.28 0 8 C-0.66 8 -1.32 8 -2 8 C-2.33 8.66 -2.66 9.32 -3 10 C-2.69201674 8.51988629 -2.378482 7.04092675 -2.0625 5.5625 C-1.88847656 4.73878906 -1.71445312 3.91507813 -1.53515625 3.06640625 C-1 1 -1 1 0 0 Z " fill="#365169" transform="translate(269,795)"/>
<path d="M0 0 C2.80045623 3.14591933 3.35261589 5.067064 3.1875 9.25 C3.16042969 10.14203125 3.13335938 11.0340625 3.10546875 11.953125 C3.07066406 12.62859375 3.03585937 13.3040625 3 14 C2.67 14 2.34 14 2 14 C-0.29612756 4.58997722 -0.29612756 4.58997722 0 0 Z " fill="#27425B" transform="translate(598,766)"/>
<path d="M0 0 C1.67110042 2.96178773 2.32682752 5.37071192 2.625 8.75 C2.69976562 9.54921875 2.77453125 10.3484375 2.8515625 11.171875 C2.90054688 11.77515625 2.94953125 12.3784375 3 13 C0.75393573 11.22555028 0.04918998 10.41647515 -0.29296875 7.51953125 C-0.25816406 6.62621094 -0.22335938 5.73289062 -0.1875 4.8125 C-0.16042969 3.91144531 -0.13335937 3.01039063 -0.10546875 2.08203125 C-0.07066406 1.39496094 -0.03585938 0.70789063 0 0 Z " fill="#29445E" transform="translate(88,475)"/>
<path d="M0 0 C-0.33 4.62 -0.66 9.24 -1 14 C-1.33 14 -1.66 14 -2 14 C-2 10.37 -2 6.74 -2 3 C-2.99 2.67 -3.98 2.34 -5 2 C-2 0 -2 0 0 0 Z " fill="#ECF8FC" transform="translate(283,435)"/>
<path d="M0 0 C0.66 0 1.32 0 2 0 C1.01 3.3 0.02 6.6 -1 10 C-1.66 10 -2.32 10 -3 10 C-2.49287967 6.28111761 -1.88391785 3.26545761 0 0 Z " fill="#344E66" transform="translate(93,424)"/>
<path d="M0 0 C-1.34882814 4.04648443 -3.34826069 4.95502599 -7 7 C-7.99 6.67 -8.98 6.34 -10 6 C-8.71283353 4.99421411 -7.42011342 3.99553202 -6.125 3 C-5.40570312 2.443125 -4.68640625 1.88625 -3.9453125 1.3125 C-2 0 -2 0 0 0 Z " fill="#314C66" transform="translate(815,313)"/>
<path d="M0 0 C0.66 0 1.32 0 2 0 C0.6302836 3.99500618 -1.25722422 6.80009492 -4 10 C-3.52651586 5.8333396 -2.95303159 3.07115285 0 0 Z " fill="#324C64" transform="translate(128,152)"/>
<path d="M0 0 C0.99 0.33 1.98 0.66 3 1 C1.02 2.98 -0.96 4.96 -3 7 C-3.99 6.67 -4.98 6.34 -6 6 C-4.02 4.02 -2.04 2.04 0 0 Z " fill="#39536C" transform="translate(185,82)"/>
<path d="M0 0 C1 3 1 3 0.22265625 4.82421875 C-0.8515625 6.54947917 -1.92578125 8.27473958 -3 10 C-3.66 10 -4.32 10 -5 10 C-3.66511872 6.40608886 -2.03977277 3.24509304 0 0 Z " fill="#2D4962" transform="translate(667,628)"/>
<path d="M0 0 C2.30903272 3.98352209 1.86516528 6.50114053 1 11 C0.34 10.34 -0.32 9.68 -1 9 C-0.9765625 6.8359375 -0.9765625 6.8359375 -0.625 4.375 C-0.51414062 3.55773437 -0.40328125 2.74046875 -0.2890625 1.8984375 C-0.19367187 1.27195313 -0.09828125 0.64546875 0 0 Z " fill="#3B5369" transform="translate(855,250)"/>
<path d="M0 0 C0.33 0.99 0.66 1.98 1 3 C-0.8125 6.1875 -0.8125 6.1875 -3 9 C-3.66 9 -4.32 9 -5 9 C-3.7508258 5.54074837 -2.32472205 2.85306797 0 0 Z " fill="#2F4B65" transform="translate(771,518)"/>
<path d="M0 0 C0.66 0 1.32 0 2 0 C3.5625 2.8125 3.5625 2.8125 5 6 C4.67 6.99 4.34 7.98 4 9 C1.49701566 6.06171403 0.53069061 3.82097239 0 0 Z " fill="#35516B" transform="translate(96,395)"/>
<path d="M0 0 C2 1 2 1 3.125 3.375 C4 6 4 6 4 9 C3.34 9 2.68 9 2 9 C0.14223235 5.86501708 -0.20140476 3.62528568 0 0 Z " fill="#314C67" transform="translate(91,382)"/>
<path d="M0 0 C0 3.99904969 -1.72586967 5.80200422 -4 9 C-4.8125 7.3125 -4.8125 7.3125 -5 5 C-2.5625 2.25 -2.5625 2.25 0 0 Z " fill="#2D4A63" transform="translate(140,136)"/>
<path d="M0 0 C3.16115776 1.36983503 3.9927092 1.9890638 6 5 C5.67 5.99 5.34 6.98 5 8 C0 2.25 0 2.25 0 0 Z " fill="#2F4B65" transform="translate(719,118)"/>
<path d="M0 0 C0.33 0 0.66 0 1 0 C0.88637738 1.4800841 0.75877092 2.95910074 0.625 4.4375 C0.52058594 5.67306641 0.52058594 5.67306641 0.4140625 6.93359375 C0.27742188 7.61550781 0.14078125 8.29742188 0 9 C-0.99 9.495 -0.99 9.495 -2 10 C-2 7.69 -2 5.38 -2 3 C-1.34 3 -0.68 3 0 3 C0 2.01 0 1.02 0 0 Z " fill="#2B4866" transform="translate(273,781)"/>
<path d="M0 0 C-1.13474948 3.40424844 -1.96811304 4.21653709 -5 6 C-5.99 5.67 -6.98 5.34 -8 5 C-2.25 0 -2.25 0 0 0 Z " fill="#324E68" transform="translate(602,709)"/>
<path d="M0 0 C1.64826111 2.96687001 2.44271087 5.65626525 3 9 C1.68 8.34 0.36 7.68 -1 7 C-1.04254356 5.00045254 -1.04080783 2.99958364 -1 1 C-0.67 0.67 -0.34 0.34 0 0 Z " fill="#48637A" transform="translate(199,613)"/>
<path d="M0 0 C0.33 0 0.66 0 1 0 C1 2.97 1 5.94 1 9 C0.67 8.34 0.34 7.68 0 7 C-0.99 7.33 -1.98 7.66 -3 8 C-1.125 2.25 -1.125 2.25 0 0 Z " fill="#314D67" transform="translate(676,609)"/>
<path d="M0 0 C0.99 0 1.98 0 3 0 C3 2.64 3 5.28 3 8 C2.01 7.67 1.02 7.34 0 7 C0 4.66666667 0 2.33333333 0 0 Z " fill="#577089" transform="translate(78,326)"/>
<path d="M0 0 C3.2542015 2.83430453 4.5206753 4.68607774 5 9 C1.7457985 6.16569547 0.4793247 4.31392226 0 0 Z " fill="#2E4A64" transform="translate(214,639)"/>
<path d="M0 0 C-1.0975223 2.99324263 -1.67682892 3.84610901 -4.625 5.25 C-5.40875 5.4975 -6.1925 5.745 -7 6 C-5.81636731 2.44910192 -3.99368042 0 0 0 Z " fill="#345068" transform="translate(748,546)"/>
<path d="M0 0 C2 1 2 1 2.6328125 2.84765625 C2.79523438 3.57855469 2.95765625 4.30945313 3.125 5.0625 C3.29257813 5.79597656 3.46015625 6.52945312 3.6328125 7.28515625 C3.75398438 7.85105469 3.87515625 8.41695313 4 9 C0.06153846 5.67692308 0.06153846 5.67692308 -0.25 2.25 C-0.1675 1.5075 -0.085 0.765 0 0 Z " fill="#304961" transform="translate(92,494)"/>
<path d="M0 0 C2 4 2 4 1.75 6.0625 C1 8 1 8 -1 11 C-0.67 7.37 -0.34 3.74 0 0 Z " fill="#4C667E" transform="translate(87,441)"/>
<path d="M0 0 C-1.15173355 2.46800047 -2.04783565 4.04783565 -4 6 C-4.99 5.67 -5.98 5.34 -7 5 C-2.25 0 -2.25 0 0 0 Z " fill="#354F67" transform="translate(826,304)"/>
<path d="M0 0 C-4.625 3 -4.625 3 -8 3 C-8 2.34 -8 1.68 -8 1 C-4.93251126 -0.86240388 -3.40254489 -1.2151946 0 0 Z " fill="#2F4A65" transform="translate(272,27)"/>
<path d="M0 0 C1.32 0.66 2.64 1.32 4 2 C2.35 2.66 0.7 3.32 -1 4 C-0.67 2.68 -0.34 1.36 0 0 Z " fill="#475F77" transform="translate(303,850)"/>
<path d="M0 0 C0.33 0 0.66 0 1 0 C1 2.31 1 4.62 1 7 C0.34 6.67 -0.32 6.34 -1 6 C-0.67 4.02 -0.34 2.04 0 0 Z " fill="#49647E" transform="translate(279,716)"/>
<path d="M0 0 C2.31 0 4.62 0 7 0 C7 0.33 7 0.66 7 1 C4.69 1 2.38 1 0 1 C0 0.67 0 0.34 0 0 Z " fill="#47627F" transform="translate(457,876)"/>
<path d="M0 0 C1.32 0 2.64 0 4 0 C4 0.66 4 1.32 4 2 C2.68 1.67 1.36 1.34 0 1 C0 0.67 0 0.34 0 0 Z " fill="#4A627A" transform="translate(409,876)"/>
<path d="M0 0 C0.99 0.99 1.98 1.98 3 3 C2.67 3.66 2.34 4.32 2 5 C1.34 3.35 0.68 1.7 0 0 Z " fill="#48627C" transform="translate(95,399)"/>
<path d="M0 0 C0.99 0 1.98 0 3 0 C2.67 0.66 2.34 1.32 2 2 C1.01 1.67 0.02 1.34 -1 1 C-0.67 0.67 -0.34 0.34 0 0 Z " fill="#47637B" transform="translate(520,867)"/>
<path d="M0 0 C1.98 0.99 1.98 0.99 4 2 C3.01 2.495 3.01 2.495 2 3 C1.34 2.67 0.68 2.34 0 2 C0 1.34 0 0.68 0 0 Z " fill="#435D78" transform="translate(287,842)"/>
<path d="M0 0 C0.99 0.33 1.98 0.66 3 1 C2.01 1.66 1.02 2.32 0 3 C0 2.01 0 1.02 0 0 Z " fill="#4B5F75" transform="translate(102,523)"/>
<path d="M0 0 C0.99 0.33 1.98 0.66 3 1 C2.34 1 1.68 1 1 1 C0.67 1.99 0.34 2.98 0 4 C0 2.68 0 1.36 0 0 Z " fill="#4C6071" transform="translate(78,350)"/>
<path d="M0 0 C1.65 0 3.3 0 5 0 C5 0.33 5 0.66 5 1 C3.35 1 1.7 1 0 1 C0 0.67 0 0.34 0 0 Z " fill="#48637D" transform="translate(414,876)"/>
<path d="M0 0 C0.66 0.66 1.32 1.32 2 2 C1.01 2 0.02 2 -1 2 C-0.67 1.34 -0.34 0.68 0 0 Z " fill="#425D73" transform="translate(135,136)"/>
<path d="M0 0 C1.32 0 2.64 0 4 0 C3.67 0.66 3.34 1.32 3 2 C2.01 1.34 1.02 0.68 0 0 Z " fill="#4A5F73" transform="translate(579,14)"/>
<path d="M0 0 C1.32 0.33 2.64 0.66 4 1 C2.68 1.33 1.36 1.66 0 2 C0 1.34 0 0.68 0 0 Z " fill="#4B6076" transform="translate(481,6)"/>
<path d="M0 0 C0.66 0 1.32 0 2 0 C2 0.66 2 1.32 2 2 C1.34 2 0.68 2 0 2 C0 1.34 0 0.68 0 0 Z " fill="#4A6177" transform="translate(406,875)"/>
<path d="M0 0 C4 1 4 1 4 1 Z " fill="#516373" transform="translate(360,869)"/>
<path d="M0 0 C1 4 1 4 1 4 Z " fill="#45596C" transform="translate(613,817)"/>
<path d="M0 0 C1 4 1 4 1 4 Z " fill="#4B6076" transform="translate(605,785)"/>
<path d="M0 0 C0 3 0 3 0 3 Z " fill="#4C627A" transform="translate(184,581)"/>
<path d="M0 0 C1 4 1 4 1 4 Z " fill="#4C6275" transform="translate(82,359)"/>
<path d="M0 0 C1 4 1 4 1 4 Z " fill="#46627D" transform="translate(81,354)"/>
<path d="M0 0 C0.99 0.495 0.99 0.495 2 1 C1.34 1.66 0.68 2.32 0 3 C0 2.01 0 1.02 0 0 Z " fill="#4B5F75" transform="translate(57,315)"/>
<path d="M0 0 C1.485 0.99 1.485 0.99 3 2 C2.01 2 1.02 2 0 2 C0 1.34 0 0.68 0 0 Z " fill="#4C6378" transform="translate(318,6)"/>
<path d="M0 0 C4 1 4 1 4 1 Z " fill="#4D6175" transform="translate(321,6)"/>
<path d="M0 0 C3 1 3 1 3 1 Z " fill="#4A627C" transform="translate(391,874)"/>
<path d="M0 0 C3 1 3 1 3 1 Z " fill="#4E6171" transform="translate(382,873)"/>
<path d="M0 0 C3 1 3 1 3 1 Z " fill="#4D5F72" transform="translate(542,861)"/>
<path d="M0 0 C0.33 0.66 0.66 1.32 1 2 C0.34 1.67 -0.32 1.34 -1 1 C-0.67 0.67 -0.34 0.34 0 0 Z " fill="#455971" transform="translate(263,806)"/>
<path d="" fill="#4F6277" transform="translate(0,0)"/>
<path d="M0 0 C0.66 0.66 1.32 1.32 2 2 C1.34 2 0.68 2 0 2 C0 1.34 0 0.68 0 0 Z " fill="#485E75" transform="translate(209,636)"/>
<path d="M0 0 C0.66 0.66 1.32 1.32 2 2 C1.34 2 0.68 2 0 2 C0 1.34 0 0.68 0 0 Z " fill="#4E6174" transform="translate(186,588)"/>
<path d="M0 0 C3 1 3 1 3 1 Z " fill="#4B6072" transform="translate(717,565)"/>
<path d="" fill="#4A5E6F" transform="translate(0,0)"/>
<path d="M0 0 C0.99 0.495 0.99 0.495 2 1 C1.01 1.495 1.01 1.495 0 2 C0 1.34 0 0.68 0 0 Z " fill="#435F79" transform="translate(119,543)"/>
<path d="M0 0 C0.33 0.66 0.66 1.32 1 2 C0.34 1.67 -0.32 1.34 -1 1 C-0.67 0.67 -0.34 0.34 0 0 Z " fill="#476277" transform="translate(87,486)"/>
<path d="M0 0 C0.66 0 1.32 0 2 0 C1.67 0.66 1.34 1.32 1 2 C0.67 1.34 0.34 0.68 0 0 Z " fill="#46637E" transform="translate(87,381)"/>
<path d="" fill="#48617B" transform="translate(0,0)"/>
<path d="" fill="#45617C" transform="translate(0,0)"/>
<path d="M0 0 C0.66 0 1.32 0 2 0 C1.67 0.66 1.34 1.32 1 2 C0.67 1.34 0.34 0.68 0 0 Z " fill="#455E76" transform="translate(33,291)"/>
<path d="M0 0 C3 1 3 1 3 1 Z " fill="#3E5A75" transform="translate(840,239)"/>
<path d="M0 0 C0.66 0 1.32 0 2 0 C1.67 0.66 1.34 1.32 1 2 C0.67 1.34 0.34 0.68 0 0 Z " fill="#475F71" transform="translate(78,218)"/>
<path d="M0 0 C0.99 0.495 0.99 0.495 2 1 C1.01 1.495 1.01 1.495 0 2 C0 1.34 0 0.68 0 0 Z " fill="#475B6D" transform="translate(158,103)"/>
<path d="M0 0 C3 1 3 1 3 1 Z " fill="#47596A" transform="translate(182,78)"/>
<path d="M0 0 C0.99 0.495 0.99 0.495 2 1 C1.01 1.495 1.01 1.495 0 2 C0 1.34 0 0.68 0 0 Z " fill="#425D75" transform="translate(201,63)"/>
<path d="M0 0 C0.99 0.495 0.99 0.495 2 1 C1.01 1.495 1.01 1.495 0 2 C0 1.34 0 0.68 0 0 Z " fill="#455A6C" transform="translate(668,62)"/>
<path d="M0 0 C2 1 2 1 2 1 Z " fill="#48657D" transform="translate(465,876)"/>
<path d="M0 0 C2 1 2 1 2 1 Z " fill="#4A627B" transform="translate(454,876)"/>
<path d="M0 0 C2 1 2 1 2 1 Z " fill="#536171" transform="translate(472,875)"/>
<path d="M0 0 C2 1 2 1 2 1 Z " fill="#526372" transform="translate(400,875)"/>
<path d="M0 0 C2 1 2 1 2 1 Z " fill="#496580" transform="translate(483,874)"/>
<path d="M0 0 C2 1 2 1 2 1 Z " fill="#4E5F71" transform="translate(510,869)"/>
<path d="M0 0 C2 1 2 1 2 1 Z " fill="#4B647E" transform="translate(358,868)"/>
<path d="M0 0 C2 1 2 1 2 1 Z " fill="#485F78" transform="translate(545,860)"/>
<path d="M0 0 C2 1 2 1 2 1 Z " fill="#45607B" transform="translate(329,860)"/>
<path d="M0 0 C2 1 2 1 2 1 Z " fill="#46617A" transform="translate(323,858)"/>
<path d="M0 0 C2 1 2 1 2 1 Z " fill="#495D6F" transform="translate(278,837)"/>
<path d="M0 0 C2 1 2 1 2 1 Z " fill="#435976" transform="translate(276,836)"/>
<path d="M0 0 C2 1 2 1 2 1 Z " fill="#435A70" transform="translate(265,828)"/>
<path d="" fill="#4F6273" transform="translate(0,0)"/>
<path d="" fill="#4B6379" transform="translate(0,0)"/>
<path d="" fill="#4E5E6B" transform="translate(0,0)"/>
<path d="" fill="#476075" transform="translate(0,0)"/>
<path d="" fill="#4B5E70" transform="translate(0,0)"/>
<path d="" fill="#486178" transform="translate(0,0)"/>
<path d="" fill="#4A5D74" transform="translate(0,0)"/>
<path d="M0 0 C2 1 2 1 2 1 Z " fill="#45607C" transform="translate(215,647)"/>
<path d="" fill="#4F5E70" transform="translate(0,0)"/>
<path d="" fill="#45617B" transform="translate(0,0)"/>
<path d="M0 0 C2 1 2 1 2 1 Z " fill="#4D6376" transform="translate(137,557)"/>
<path d="M0 0 C2 1 2 1 2 1 Z " fill="#4F5F70" transform="translate(134,555)"/>
<path d="M0 0 C2 1 2 1 2 1 Z " fill="#465E75" transform="translate(115,540)"/>
<path d="" fill="#4F5C6C" transform="translate(0,0)"/>
<path d="" fill="#465E76" transform="translate(0,0)"/>
<path d="" fill="#4B5E73" transform="translate(0,0)"/>
<path d="" fill="#4A5F74" transform="translate(0,0)"/>
<path d="" fill="#435F79" transform="translate(0,0)"/>
<path d="" fill="#495F76" transform="translate(0,0)"/>
<path d="" fill="#4B6177" transform="translate(0,0)"/>
<path d="M0 0 C2 1 2 1 2 1 Z " fill="#536577" transform="translate(776,414)"/>
<path d="" fill="#4C6174" transform="translate(0,0)"/>
<path d="" fill="#4F6273" transform="translate(0,0)"/>
<path d="" fill="#516475" transform="translate(0,0)"/>
<path d="" fill="#4C6175" transform="translate(0,0)"/>
<path d="M0 0 C2 1 2 1 2 1 Z " fill="#4E6073" transform="translate(54,315)"/>
<path d="M0 0 C2 1 2 1 2 1 Z " fill="#4A6079" transform="translate(49,308)"/>
<path d="" fill="#495E70" transform="translate(0,0)"/>
<path d="" fill="#4A5B71" transform="translate(0,0)"/>
<path d="" fill="#45586E" transform="translate(0,0)"/>
<path d="" fill="#415362" transform="translate(0,0)"/>
<path d="M0 0 C2 1 2 1 2 1 Z " fill="#425E76" transform="translate(37,239)"/>
<path d="M0 0 C2 1 2 1 2 1 Z " fill="#465C71" transform="translate(120,160)"/>
<path d="" fill="#485E70" transform="translate(0,0)"/>
<path d="" fill="#4C5C6E" transform="translate(0,0)"/>
<path d="M0 0 C2 1 2 1 2 1 Z " fill="#47586A" transform="translate(166,97)"/>
<path d="" fill="#495A6A" transform="translate(0,0)"/>
<path d="" fill="#4B5D6E" transform="translate(0,0)"/>
<path d="M0 0 C2 1 2 1 2 1 Z " fill="#3F5C78" transform="translate(194,71)"/>
<path d="M0 0 C2 1 2 1 2 1 Z " fill="#485E72" transform="translate(241,38)"/>
<path d="M0 0 C2 1 2 1 2 1 Z " fill="#435F79" transform="translate(625,34)"/>
<path d="M0 0 C2 1 2 1 2 1 Z " fill="#4A5F72" transform="translate(280,19)"/>
<path d="M0 0 C2 1 2 1 2 1 Z " fill="#4B6075" transform="translate(288,16)"/>
<path d="M0 0 C2 1 2 1 2 1 Z " fill="#495F71" transform="translate(290,15)"/>
<path d="M0 0 C2 1 2 1 2 1 Z " fill="#4E5E6C" transform="translate(294,14)"/>
<path d="M0 0 C2 1 2 1 2 1 Z " fill="#4A627A" transform="translate(564,9)"/>
<path d="" fill="#4A647B" transform="translate(0,0)"/>
<path d="M0 0 C2 1 2 1 2 1 Z " fill="#4C6174" transform="translate(559,8)"/>
<path d="M0 0 C2 1 2 1 2 1 Z " fill="#4B6177" transform="translate(397,8)"/>
<path d="M0 0 C2 1 2 1 2 1 Z " fill="#47617A" transform="translate(345,3)"/>
<path d="" fill="#536274" transform="translate(0,0)"/>
<path d="" fill="#4B6475" transform="translate(0,0)"/>
<path d="" fill="#536070" transform="translate(0,0)"/>
<path d="" fill="#4B5E73" transform="translate(0,0)"/>
<path d="" fill="#495F75" transform="translate(0,0)"/>
<path d="" fill="#4E5F72" transform="translate(0,0)"/>
<path d="" fill="#4F5F6E" transform="translate(0,0)"/>
<path d="" fill="#526170" transform="translate(0,0)"/>
<path d="" fill="#4C5F76" transform="translate(0,0)"/>
<path d="" fill="#4A637D" transform="translate(0,0)"/>
<path d="" fill="#515E6E" transform="translate(0,0)"/>
<path d="" fill="#50606F" transform="translate(0,0)"/>
<path d="" fill="#4F5F6E" transform="translate(0,0)"/>
<path d="" fill="#4A6074" transform="translate(0,0)"/>
<path d="" fill="#47617A" transform="translate(0,0)"/>
<path d="" fill="#506376" transform="translate(0,0)"/>
<path d="" fill="#50616D" transform="translate(0,0)"/>
<path d="" fill="#4F6073" transform="translate(0,0)"/>
<path d="" fill="#4C5F6D" transform="translate(0,0)"/>
<path d="" fill="#4B5F6F" transform="translate(0,0)"/>
<path d="" fill="#435C74" transform="translate(0,0)"/>
<path d="" fill="#4D5B6B" transform="translate(0,0)"/>
<path d="" fill="#4A5C6B" transform="translate(0,0)"/>
<path d="" fill="#495C6F" transform="translate(0,0)"/>
<path d="" fill="#4B5F71" transform="translate(0,0)"/>
<path d="" fill="#495C71" transform="translate(0,0)"/>
<path d="" fill="#4F616F" transform="translate(0,0)"/>
<path d="" fill="#465A6C" transform="translate(0,0)"/>
<path d="" fill="#435B6E" transform="translate(0,0)"/>
<path d="" fill="#435C76" transform="translate(0,0)"/>
<path d="" fill="#45586D" transform="translate(0,0)"/>
<path d="" fill="#3C5871" transform="translate(0,0)"/>
<path d="" fill="#445669" transform="translate(0,0)"/>
<path d="" fill="#44586A" transform="translate(0,0)"/>
<path d="" fill="#485867" transform="translate(0,0)"/>
<path d="" fill="#425971" transform="translate(0,0)"/>
<path d="" fill="#415B72" transform="translate(0,0)"/>
<path d="" fill="#465A6A" transform="translate(0,0)"/>
<path d="" fill="#4C5C69" transform="translate(0,0)"/>
<path d="" fill="#4A6074" transform="translate(0,0)"/>
<path d="" fill="#4E5C6A" transform="translate(0,0)"/>
<path d="" fill="#505B6A" transform="translate(0,0)"/>
<path d="" fill="#4B5868" transform="translate(0,0)"/>
<path d="" fill="#46617E" transform="translate(0,0)"/>
<path d="" fill="#50606F" transform="translate(0,0)"/>
<path d="" fill="#4F5F6E" transform="translate(0,0)"/>
<path d="" fill="#4D6279" transform="translate(0,0)"/>
<path d="" fill="#4C6175" transform="translate(0,0)"/>
<path d="" fill="#4A6076" transform="translate(0,0)"/>
<path d="" fill="#4D5D6C" transform="translate(0,0)"/>
<path d="" fill="#566675" transform="translate(0,0)"/>
<path d="" fill="#526473" transform="translate(0,0)"/>
<path d="" fill="#4B6379" transform="translate(0,0)"/>
<path d="" fill="#4C6072" transform="translate(0,0)"/>
<path d="" fill="#4D6173" transform="translate(0,0)"/>
<path d="" fill="#515E6E" transform="translate(0,0)"/>
<path d="" fill="#4A6076" transform="translate(0,0)"/>
<path d="" fill="#47627D" transform="translate(0,0)"/>
<path d="" fill="#4C5F74" transform="translate(0,0)"/>
<path d="" fill="#48647D" transform="translate(0,0)"/>
<path d="" fill="#45637B" transform="translate(0,0)"/>
<path d="" fill="#48647D" transform="translate(0,0)"/>
<path d="" fill="#4C6175" transform="translate(0,0)"/>
<path d="" fill="#48617F" transform="translate(0,0)"/>
<path d="" fill="#4B5F71" transform="translate(0,0)"/>
<path d="" fill="#525F6F" transform="translate(0,0)"/>
<path d="" fill="#4D5D6A" transform="translate(0,0)"/>
<path d="" fill="#4F5F6C" transform="translate(0,0)"/>
<path d="" fill="#485E72" transform="translate(0,0)"/>
<path d="" fill="#435F7A" transform="translate(0,0)"/>
<path d="" fill="#495C71" transform="translate(0,0)"/>
<path d="" fill="#4A6076" transform="translate(0,0)"/>
<path d="" fill="#4B5E73" transform="translate(0,0)"/>
<path d="" fill="#546375" transform="translate(0,0)"/>
<path d="" fill="#4D6175" transform="translate(0,0)"/>
<path d="" fill="#4B5E73" transform="translate(0,0)"/>
<path d="" fill="#466079" transform="translate(0,0)"/>
<path d="" fill="#4E6277" transform="translate(0,0)"/>
<path d="" fill="#446079" transform="translate(0,0)"/>
<path d="" fill="#4A6074" transform="translate(0,0)"/>
<path d="" fill="#495C6F" transform="translate(0,0)"/>
<path d="" fill="#4E5F70" transform="translate(0,0)"/>
<path d="" fill="#505D6D" transform="translate(0,0)"/>
<path d="" fill="#465F7B" transform="translate(0,0)"/>
<path d="" fill="#485E74" transform="translate(0,0)"/>
<path d="" fill="#4C5D73" transform="translate(0,0)"/>
<path d="" fill="#4B5E75" transform="translate(0,0)"/>
<path d="" fill="#515E6E" transform="translate(0,0)"/>
<path d="" fill="#4C6177" transform="translate(0,0)"/>
<path d="" fill="#44607D" transform="translate(0,0)"/>
<path d="" fill="#4A6074" transform="translate(0,0)"/>
<path d="" fill="#495F73" transform="translate(0,0)"/>
<path d="" fill="#426078" transform="translate(0,0)"/>
<path d="" fill="#495C67" transform="translate(0,0)"/>
<path d="" fill="#4F5F6C" transform="translate(0,0)"/>
<path d="" fill="#4E5D6F" transform="translate(0,0)"/>
<path d="" fill="#4D6173" transform="translate(0,0)"/>
<path d="" fill="#485D76" transform="translate(0,0)"/>
<path d="" fill="#4C5F74" transform="translate(0,0)"/>
<path d="" fill="#515E6E" transform="translate(0,0)"/>
<path d="" fill="#46617C" transform="translate(0,0)"/>
<path d="" fill="#4B5E73" transform="translate(0,0)"/>
<path d="" fill="#4C6177" transform="translate(0,0)"/>
<path d="" fill="#4D6279" transform="translate(0,0)"/>
<path d="" fill="#4F6579" transform="translate(0,0)"/>
<path d="" fill="#485F77" transform="translate(0,0)"/>
<path d="" fill="#4F6579" transform="translate(0,0)"/>
<path d="" fill="#536672" transform="translate(0,0)"/>
<path d="" fill="#506270" transform="translate(0,0)"/>
<path d="" fill="#4B5F71" transform="translate(0,0)"/>
<path d="" fill="#4D5B6B" transform="translate(0,0)"/>
<path d="" fill="#4D5B69" transform="translate(0,0)"/>
<path d="" fill="#465B72" transform="translate(0,0)"/>
<path d="" fill="#475C73" transform="translate(0,0)"/>
<path d="" fill="#495F73" transform="translate(0,0)"/>
<path d="" fill="#435F78" transform="translate(0,0)"/>
<path d="" fill="#485E72" transform="translate(0,0)"/>
<path d="" fill="#4C5C69" transform="translate(0,0)"/>
<path d="" fill="#4D5D6C" transform="translate(0,0)"/>
<path d="" fill="#495C71" transform="translate(0,0)"/>
<path d="" fill="#495C71" transform="translate(0,0)"/>
<path d="" fill="#4A5C6D" transform="translate(0,0)"/>
<path d="" fill="#4C5F76" transform="translate(0,0)"/>
<path d="" fill="#4B5E73" transform="translate(0,0)"/>
<path d="" fill="#485F75" transform="translate(0,0)"/>
<path d="" fill="#4C5B6B" transform="translate(0,0)"/>
<path d="" fill="#4B5E75" transform="translate(0,0)"/>
<path d="" fill="#4E5E6D" transform="translate(0,0)"/>
<path d="" fill="#485F75" transform="translate(0,0)"/>
<path d="" fill="#4A6076" transform="translate(0,0)"/>
<path d="" fill="#485F75" transform="translate(0,0)"/>
<path d="" fill="#4C5F6D" transform="translate(0,0)"/>
<path d="" fill="#4F5F70" transform="translate(0,0)"/>
<path d="" fill="#4A6479" transform="translate(0,0)"/>
<path d="" fill="#4E6478" transform="translate(0,0)"/>
<path d="" fill="#4F647B" transform="translate(0,0)"/>
<path d="" fill="#4C647A" transform="translate(0,0)"/>
<path d="" fill="#4E6277" transform="translate(0,0)"/>
<path d="" fill="#4E6478" transform="translate(0,0)"/>
<path d="" fill="#50606F" transform="translate(0,0)"/>
<path d="" fill="#4E6277" transform="translate(0,0)"/>
<path d="" fill="#4F616F" transform="translate(0,0)"/>
<path d="" fill="#4F6577" transform="translate(0,0)"/>
<path d="" fill="#4F5F6E" transform="translate(0,0)"/>
<path d="" fill="#49607A" transform="translate(0,0)"/>
<path d="" fill="#536272" transform="translate(0,0)"/>
<path d="" fill="#45637B" transform="translate(0,0)"/>
<path d="" fill="#536274" transform="translate(0,0)"/>
<path d="" fill="#496176" transform="translate(0,0)"/>
<path d="" fill="#4D6175" transform="translate(0,0)"/>
<path d="" fill="#556373" transform="translate(0,0)"/>
<path d="" fill="#47627D" transform="translate(0,0)"/>
<path d="" fill="#50606F" transform="translate(0,0)"/>
<path d="" fill="#4C5D73" transform="translate(0,0)"/>
<path d="" fill="#4B5D6E" transform="translate(0,0)"/>
<path d="" fill="#485E70" transform="translate(0,0)"/>
<path d="" fill="#465B72" transform="translate(0,0)"/>
<path d="" fill="#4A6076" transform="translate(0,0)"/>
<path d="" fill="#4A5D72" transform="translate(0,0)"/>
<path d="" fill="#4A5D72" transform="translate(0,0)"/>
<path d="" fill="#4C5B6B" transform="translate(0,0)"/>
<path d="" fill="#495C71" transform="translate(0,0)"/>
<path d="" fill="#435C78" transform="translate(0,0)"/>
<path d="" fill="#415D76" transform="translate(0,0)"/>
<path d="" fill="#465C70" transform="translate(0,0)"/>
<path d="" fill="#495C6F" transform="translate(0,0)"/>
<path d="" fill="#4C5B6B" transform="translate(0,0)"/>
<path d="" fill="#465A6E" transform="translate(0,0)"/>
<path d="" fill="#485865" transform="translate(0,0)"/>
<path d="" fill="#495664" transform="translate(0,0)"/>
<path d="" fill="#3F5367" transform="translate(0,0)"/>
<path d="" fill="#455360" transform="translate(0,0)"/>
<path d="" fill="#43566B" transform="translate(0,0)"/>
<path d="" fill="#495664" transform="translate(0,0)"/>
<path d="" fill="#44576C" transform="translate(0,0)"/>
<path d="" fill="#46515F" transform="translate(0,0)"/>
<path d="" fill="#45596B" transform="translate(0,0)"/>
<path d="" fill="#475965" transform="translate(0,0)"/>
<path d="" fill="#445C72" transform="translate(0,0)"/>
<path d="" fill="#44607B" transform="translate(0,0)"/>
<path d="" fill="#435F7A" transform="translate(0,0)"/>
<path d="" fill="#475D71" transform="translate(0,0)"/>
<path d="" fill="#455A6E" transform="translate(0,0)"/>
<path d="" fill="#4E6277" transform="translate(0,0)"/>
<path d="" fill="#4B5E73" transform="translate(0,0)"/>
<path d="" fill="#4E6277" transform="translate(0,0)"/>
<path d="" fill="#526170" transform="translate(0,0)"/>
<path d="" fill="#506272" transform="translate(0,0)"/>
<path d="" fill="#47637B" transform="translate(0,0)"/>
<path d="" fill="#4B6379" transform="translate(0,0)"/>
<path d="" fill="#4F5F6C" transform="translate(0,0)"/>
<path d="" fill="#4E6275" transform="translate(0,0)"/>
<path d="" fill="#4C5B6B" transform="translate(0,0)"/>
<path d="" fill="#486580" transform="translate(0,0)"/>
<path d="" fill="#495C71" transform="translate(0,0)"/>
<path d="" fill="#4A6275" transform="translate(0,0)"/>
<path d="" fill="#4C5D73" transform="translate(0,0)"/>
<path d="" fill="#495F73" transform="translate(0,0)"/>
<path d="" fill="#4D6173" transform="translate(0,0)"/>
<path d="" fill="#4E6478" transform="translate(0,0)"/>
<path d="" fill="#4A6373" transform="translate(0,0)"/>
<path d="" fill="#486073" transform="translate(0,0)"/>
<path d="" fill="#4F5F6E" transform="translate(0,0)"/>
<path d="" fill="#4B5F71" transform="translate(0,0)"/>
<path d="" fill="#546272" transform="translate(0,0)"/>
<path d="" fill="#4F5F6C" transform="translate(0,0)"/>
<path d="" fill="#4E5E6B" transform="translate(0,0)"/>
<path d="" fill="#4E5E6D" transform="translate(0,0)"/>
<path d="" fill="#525F6F" transform="translate(0,0)"/>
<path d="" fill="#4E5C6A" transform="translate(0,0)"/>
<path d="" fill="#485E72" transform="translate(0,0)"/>
<path d="" fill="#4A5B6F" transform="translate(0,0)"/>
<path d="" fill="#4D5B6B" transform="translate(0,0)"/>
<path d="" fill="#495C6F" transform="translate(0,0)"/>
<path d="" fill="#4E5C6A" transform="translate(0,0)"/>
<path d="" fill="#495C71" transform="translate(0,0)"/>
<path d="" fill="#4E5E6D" transform="translate(0,0)"/>
<path d="" fill="#536070" transform="translate(0,0)"/>
<path d="" fill="#495F73" transform="translate(0,0)"/>
<path d="" fill="#4C5E6F" transform="translate(0,0)"/>
<path d="" fill="#465B72" transform="translate(0,0)"/>
<path d="" fill="#4E5C6C" transform="translate(0,0)"/>
<path d="" fill="#465C70" transform="translate(0,0)"/>
<path d="" fill="#4A5C6B" transform="translate(0,0)"/>
<path d="" fill="#475D71" transform="translate(0,0)"/>
<path d="" fill="#4D5D6C" transform="translate(0,0)"/>
<path d="" fill="#485E72" transform="translate(0,0)"/>
<path d="" fill="#465C70" transform="translate(0,0)"/>
<path d="" fill="#415C70" transform="translate(0,0)"/>
<path d="" fill="#4D5D6A" transform="translate(0,0)"/>
<path d="" fill="#4F6171" transform="translate(0,0)"/>
<path d="" fill="#495F73" transform="translate(0,0)"/>
<path d="" fill="#43596D" transform="translate(0,0)"/>
<path d="" fill="#475B6E" transform="translate(0,0)"/>
<path d="" fill="#475B6E" transform="translate(0,0)"/>
<path d="" fill="#445C74" transform="translate(0,0)"/>
<path d="" fill="#495A66" transform="translate(0,0)"/>
<path d="" fill="#415B72" transform="translate(0,0)"/>
<path d="" fill="#44586A" transform="translate(0,0)"/>
<path d="" fill="#4C5969" transform="translate(0,0)"/>
<path d="" fill="#495C71" transform="translate(0,0)"/>
<path d="" fill="#475D6F" transform="translate(0,0)"/>
<path d="" fill="#465A6E" transform="translate(0,0)"/>
<path d="" fill="#495C6F" transform="translate(0,0)"/>
<path d="" fill="#425E77" transform="translate(0,0)"/>
<path d="" fill="#475B6E" transform="translate(0,0)"/>
<path d="" fill="#435D72" transform="translate(0,0)"/>
<path d="" fill="#465B72" transform="translate(0,0)"/>
<path d="" fill="#455E6F" transform="translate(0,0)"/>
<path d="" fill="#4B5B67" transform="translate(0,0)"/>
<path d="" fill="#455E78" transform="translate(0,0)"/>
<path d="" fill="#3E5C74" transform="translate(0,0)"/>
<path d="" fill="#43596D" transform="translate(0,0)"/>
<path d="" fill="#455B6C" transform="translate(0,0)"/>
<path d="" fill="#4A5865" transform="translate(0,0)"/>
<path d="" fill="#475D6F" transform="translate(0,0)"/>
<path d="" fill="#475B70" transform="translate(0,0)"/>
<path d="" fill="#4A5D70" transform="translate(0,0)"/>
<path d="" fill="#4A5E6E" transform="translate(0,0)"/>
<path d="" fill="#4A5C6D" transform="translate(0,0)"/>
<path d="" fill="#455A6E" transform="translate(0,0)"/>
<path d="" fill="#485865" transform="translate(0,0)"/>
<path d="" fill="#3F5D78" transform="translate(0,0)"/>
<path d="" fill="#475B6E" transform="translate(0,0)"/>
<path d="" fill="#495C6F" transform="translate(0,0)"/>
<path d="" fill="#435F7A" transform="translate(0,0)"/>
<path d="" fill="#475B6E" transform="translate(0,0)"/>
<path d="" fill="#4A5D70" transform="translate(0,0)"/>
<path d="" fill="#4B5966" transform="translate(0,0)"/>
<path d="" fill="#4A5D72" transform="translate(0,0)"/>
<path d="" fill="#4C5F6B" transform="translate(0,0)"/>
<path d="" fill="#46617A" transform="translate(0,0)"/>
<path d="" fill="#495C6F" transform="translate(0,0)"/>
<path d="" fill="#495664" transform="translate(0,0)"/>
<path d="" fill="#495C71" transform="translate(0,0)"/>
<path d="" fill="#455A6E" transform="translate(0,0)"/>
<path d="" fill="#4A6074" transform="translate(0,0)"/>
<path d="" fill="#475D71" transform="translate(0,0)"/>
<path d="" fill="#475B6E" transform="translate(0,0)"/>
<path d="" fill="#495F73" transform="translate(0,0)"/>
<path d="" fill="#4B5D6E" transform="translate(0,0)"/>
<path d="" fill="#4A5D72" transform="translate(0,0)"/>
<path d="" fill="#4A5D70" transform="translate(0,0)"/>
<path d="" fill="#50606F" transform="translate(0,0)"/>
<path d="" fill="#465B72" transform="translate(0,0)"/>
<path d="" fill="#435F7A" transform="translate(0,0)"/>
<path d="" fill="#4B5D6E" transform="translate(0,0)"/>
<path d="" fill="#435B70" transform="translate(0,0)"/>
<path d="" fill="#496176" transform="translate(0,0)"/>
<path d="" fill="#485E72" transform="translate(0,0)"/>
<path d="" fill="#475C73" transform="translate(0,0)"/>
<path d="" fill="#4D5D6A" transform="translate(0,0)"/>
<path d="" fill="#465A6C" transform="translate(0,0)"/>
<path d="" fill="#4D6375" transform="translate(0,0)"/>
<path d="" fill="#4C6072" transform="translate(0,0)"/>
<path d="" fill="#475B6E" transform="translate(0,0)"/>
<path d="" fill="#4A5D70" transform="translate(0,0)"/>
<path d="" fill="#506378" transform="translate(0,0)"/>
<path d="" fill="#4A6074" transform="translate(0,0)"/>
<path d="" fill="#4E637A" transform="translate(0,0)"/>
<path d="" fill="#466075" transform="translate(0,0)"/>
<path d="" fill="#4C6175" transform="translate(0,0)"/>
<path d="" fill="#4C6578" transform="translate(0,0)"/>
<path d="" fill="#4A5C6B" transform="translate(0,0)"/>
<path d="" fill="#546270" transform="translate(0,0)"/>
<path d="" fill="#4F616D" transform="translate(0,0)"/>
<path d="" fill="#506376" transform="translate(0,0)"/>
<path d="" fill="#4D6377" transform="translate(0,0)"/>
<path d="" fill="#546473" transform="translate(0,0)"/>
<path d="" fill="#4C667B" transform="translate(0,0)"/>
<path d="" fill="#425E77" transform="translate(0,0)"/>
<path d="" fill="#4C6072" transform="translate(0,0)"/>
<path d="" fill="#4D6175" transform="translate(0,0)"/>
<path d="" fill="#50606F" transform="translate(0,0)"/>
<path d="" fill="#4C6072" transform="translate(0,0)"/>
<path d="" fill="#4D6377" transform="translate(0,0)"/>
<path d="" fill="#50606F" transform="translate(0,0)"/>
<path d="" fill="#4E6275" transform="translate(0,0)"/>
<path d="" fill="#546473" transform="translate(0,0)"/>
<path d="" fill="#4D5D6C" transform="translate(0,0)"/>
<path d="" fill="#475D71" transform="translate(0,0)"/>
<path d="" fill="#4B5E75" transform="translate(0,0)"/>
</svg>
