<?xml version="1.0" encoding="UTF-8"?>
<svg version="1.1" xmlns="http://www.w3.org/2000/svg" width="781" height="781">
<path d="M0 0 C0.96993896 0.18208008 1.93987793 0.36416016 2.93920898 0.55175781 C9.14818579 1.76392474 15.01116131 3.27175104 20.91015625 5.578125 C23.47190725 6.38214702 25.58109368 6.44570745 28.25 6.3125 C28.25 6.9725 28.25 7.6325 28.25 8.3125 C28.89437012 8.61430176 29.53874023 8.91610352 30.20263672 9.22705078 C33.17935821 10.62507056 36.15216628 12.03123307 39.125 13.4375 C40.13820313 13.911875 41.15140625 14.38625 42.1953125 14.875 C62.21816492 24.37301974 80.38824092 37.64488623 96.52734375 52.7734375 C98.85426731 54.9434523 101.21486966 57.04872073 103.625 59.125 C106.99390915 62.05693767 110.20628451 65.04050585 113.25 68.3125 C113.25 68.9725 113.25 69.6325 113.25 70.3125 C113.848125 70.374375 114.44625 70.43625 115.0625 70.5 C117.25 71.3125 117.25 71.3125 118.51953125 73.46484375 C120.65997199 76.98714917 123.28134555 79.72506882 126.125 82.6875 C127.1680828 83.77480326 128.20716861 84.8659553 129.2421875 85.9609375 C129.76176025 86.50073242 130.28133301 87.04052734 130.81665039 87.59667969 C132.25 89.3125 132.25 89.3125 133.24389648 91.28613281 C134.39151867 93.52558805 135.21834384 94.80426671 137.25 96.3125 C142.06353016 97.07871931 146.72081658 96.69027085 151.5625 96.3125 C152.85607422 96.24160156 154.14964844 96.17070312 155.48242188 96.09765625 C160.54506531 95.80244328 165.5838088 95.44563285 170.609375 94.7578125 C174.82862403 94.2417241 178.94272282 94.16529541 183.1875 94.1875 C183.95384766 94.18363281 184.72019531 94.17976563 185.50976562 94.17578125 C191.12322538 94.18572538 191.12322538 94.18572538 192.25 95.3125 C194.85412484 95.54385383 197.44121042 95.71659435 200.05078125 95.85546875 C201.72891937 95.95589531 203.40697647 96.05768261 205.08496094 96.16064453 C205.97662964 96.21496643 206.86829834 96.26928833 207.7869873 96.32525635 C239.76467213 98.33854112 270.31861707 104.04565529 301.30111694 112.09356689 C304.73127831 113.00533356 304.73127831 113.00533356 308.25 113.3125 C308.25 113.9725 308.25 114.6325 308.25 115.3125 C309.20519531 115.41046875 310.16039062 115.5084375 311.14453125 115.609375 C315.95543535 116.30061769 320.38049549 117.91930976 324.9375 119.5625 C326.25609009 120.02958374 326.25609009 120.02958374 327.60131836 120.50610352 C333.51047118 122.62136408 339.30238816 124.90689414 345.03515625 127.46484375 C347.32171787 128.49121666 347.32171787 128.49121666 350.25 128.3125 C350.25 128.9725 350.25 129.6325 350.25 130.3125 C355.58835539 132.23721317 360.59979382 133.71141424 366.25 134.3125 C366.25 134.9725 366.25 135.6325 366.25 136.3125 C366.90371582 136.63412109 367.55743164 136.95574219 368.23095703 137.28710938 C393.32941649 149.6620136 393.32941649 149.6620136 404.25 156.3125 C404.97493652 156.75029785 405.69987305 157.1880957 406.44677734 157.63916016 C420.36488985 166.08607378 433.11838385 175.26152142 445.06640625 186.33984375 C447.29353311 188.40510555 447.29353311 188.40510555 450.02734375 190.44140625 C450.76082031 191.05886719 451.49429688 191.67632812 452.25 192.3125 C452.25 192.9725 452.25 193.6325 452.25 194.3125 C453.24 194.6425 454.23 194.9725 455.25 195.3125 C457.017628 197.46975102 458.68015493 199.62013032 460.3125 201.875 C461.91012235 204.07662965 463.53459491 206.1969318 465.25 208.3125 C465.91 208.3125 466.57 208.3125 467.25 208.3125 C467.37375 209.3334375 467.37375 209.3334375 467.5 210.375 C468.17791968 213.03018543 468.93912448 214.68030566 470.3125 217 C472.25 220.3125 472.25 220.3125 472.25 222.3125 C472.91 222.6425 473.57 222.9725 474.25 223.3125 C475.03125 225.28125 475.03125 225.28125 475.75 227.8125 C475.9871875 228.6271875 476.224375 229.441875 476.46875 230.28125 C476.85546875 231.78171875 476.85546875 231.78171875 477.25 233.3125 C477.42354004 233.96597412 477.59708008 234.61944824 477.77587891 235.29272461 C481.42396397 250.05683567 480.1891597 266.02834143 475.25 280.3125 C475.00282227 281.04549316 474.75564453 281.77848633 474.50097656 282.53369141 C465.42599115 308.77414921 449.74688136 332.51358132 432.67578125 354.22265625 C430.91615587 356.46398263 429.18750694 358.71549073 427.48046875 360.99609375 C427.02373779 361.60275879 426.56700684 362.20942383 426.09643555 362.83447266 C425.21704333 364.00391283 424.34199921 365.17663888 423.47192383 366.35302734 C422.4448567 367.70967414 421.35282245 369.01668362 420.25 370.3125 C419.59 370.3125 418.93 370.3125 418.25 370.3125 C417.92153076 371.12883911 417.92153076 371.12883911 417.58642578 371.96166992 C415.80934561 375.0876299 413.40642685 377.42221815 410.8671875 379.92578125 C410.06754074 380.72474068 410.06754074 380.72474068 409.2517395 381.5398407 C408.12266483 382.66589921 406.99116559 383.7895312 405.85742188 384.91088867 C404.14664129 386.60358744 402.44382508 388.30397489 400.7421875 390.00585938 C394.5478763 396.18003431 388.32174854 402.26390702 381.47827148 407.72680664 C378.07379021 410.41998373 378.07379021 410.41998373 376.25 414.3125 C375.69570313 414.44398438 375.14140625 414.57546875 374.5703125 414.7109375 C371.16623898 415.59347508 368.81379753 417.77045676 366.125 419.9375 C364.97404004 420.8455068 363.82167943 421.75174083 362.66796875 422.65625 C362.0961084 423.10484375 361.52424805 423.5534375 360.93505859 424.015625 C357.14766027 426.93052791 353.19783444 429.62119977 349.25 432.3125 C349.90644861 435.99665037 350.92027433 439.39803466 352.125 442.9375 C357.77773395 461.09226599 358.14073079 477.85468784 354.25 496.3125 C353.59 496.3125 352.93 496.3125 352.25 496.3125 C352.023125 497.034375 351.79625 497.75625 351.5625 498.5 C348.50410752 505.05369817 341.24145399 510.78652329 334.51171875 513.359375 C332.10216908 514.08189909 329.69923332 514.74034303 327.25 515.3125 C327.25 515.9725 327.25 516.6325 327.25 517.3125 C326.71890625 517.16296875 326.1878125 517.0134375 325.640625 516.859375 C322.77223106 516.20320645 319.92306724 515.90239154 317 515.5625 C308.33888567 514.370687 299.11291938 512.24395969 291.25 508.3125 C290.92 508.9725 290.59 509.6325 290.25 510.3125 C290.25 509.3225 290.25 508.3325 290.25 507.3125 C289.70110107 507.14886963 289.15220215 506.98523926 288.58666992 506.81665039 C282.86317347 505.02253681 277.77344571 502.70411886 272.5625 499.75 C271.40391479 499.1000708 271.40391479 499.1000708 270.22192383 498.43701172 C253.2363142 488.72745013 253.2363142 488.72745013 247.0703125 481.8984375 C242.35565712 479.2472601 237.99797912 481.08593919 232.9375 482.3125 C230.67649013 482.81181459 228.41474925 483.30782887 226.15234375 483.80078125 C225.00233887 484.05682129 223.85233398 484.31286133 222.66748047 484.57666016 C201.84755782 489.05953249 180.56877606 491.90195925 159.25 491.3125 C158.92 491.9725 158.59 492.6325 158.25 493.3125 C75.08609453 491.19356466 75.08609453 491.19356466 38.25 476.3125 C35.82797256 475.70253816 35.82797256 475.70253816 33.25 476.3125 C30.82051521 478.00810875 28.6653499 479.69613325 26.4375 481.625 C14.44536142 491.59845451 1.46717773 500.00728136 -11.828125 508.13037109 C-13.65625913 509.25484079 -15.46973106 510.39979654 -17.28125 511.55078125 C-44.18498748 528.43529901 -80.91594963 546.7413064 -113.64453125 541.8828125 C-119.25329272 540.48708384 -122.87116633 537.97985672 -126.9609375 533.93359375 C-128.68045863 532.21191156 -128.68045863 532.21191156 -130.9296875 531.3125 C-131.53039062 530.9825 -132.13109375 530.6525 -132.75 530.3125 C-133.36238033 527.50575684 -133.62932014 525.15311836 -133.75 522.3125 C-133.82476562 521.48234375 -133.89953125 520.6521875 -133.9765625 519.796875 C-134.66814793 507.34833722 -128.57301122 497.25653219 -121.75 487.3125 C-120.71783321 485.76726784 -119.68583092 484.22192346 -118.65649414 482.67480469 C-117.86928876 481.49225171 -117.08065831 480.31064641 -116.29077148 479.12988281 C-111.95538342 472.64470896 -107.66656751 466.1289471 -103.38586426 459.60760498 C-102.55899375 458.34840664 -101.73146124 457.08964271 -100.90319824 455.83135986 C-93.88994178 445.17461724 -86.97043551 434.45744696 -80.75 423.3125 C-81.81476563 422.57386719 -82.87953125 421.83523438 -83.9765625 421.07421875 C-96.57820957 412.28665073 -108.80677396 403.28528312 -120.0546875 392.796875 C-122.15617926 390.85984781 -124.28322844 388.98752929 -126.44921875 387.125 C-131.39834873 382.80816845 -136.04734399 378.20704844 -140.6875 373.5625 C-141.5734082 372.67578613 -142.45931641 371.78907227 -143.37207031 370.87548828 C-149.24106279 364.95112795 -154.72209219 358.97312626 -159.75 352.3125 C-161.17913053 350.43111297 -162.61653039 348.55597615 -164.0625 346.6875 C-164.67738281 345.87023437 -165.29226562 345.05296875 -165.92578125 344.2109375 C-167.89200477 342.16471774 -168.97658308 341.66759532 -171.75 341.3125 C-172.03875 340.260625 -172.3275 339.20875 -172.625 338.125 C-173.52225193 335.08431289 -174.51423419 332.22537656 -175.75 329.3125 C-179.09321955 330.42690652 -179.81019619 331.28722343 -182 333.9375 C-187.76569726 340.70018241 -193.93648118 346.43005964 -200.875 351.9921875 C-202.73123405 353.49028944 -204.56656625 355.01484419 -206.375 356.5703125 C-220.6718417 368.78219812 -238.86486841 380.04385598 -258.26953125 379.5625 C-266.34214775 378.74888196 -273.18128618 375.23808521 -278.625 369.25 C-282.67926785 362.26764981 -281.63304557 352.59754295 -279.83203125 345.0234375 C-277.72992519 337.17750214 -275.13874968 329.47683598 -272.59838867 321.76472473 C-272.07487594 320.17524473 -271.55226822 318.58546639 -271.03051758 316.9954071 C-269.724459 313.01610338 -268.40795324 309.04113276 -267.06542969 305.07397461 C-264.42603635 297.18510124 -262.11547273 289.29049345 -260.3203125 281.1640625 C-260.05539505 280.01192764 -260.05539505 280.01192764 -259.78512573 278.83651733 C-258.71215347 273.67757642 -258.84857017 269.50694341 -259.75 264.3125 C-259.09 263.9825 -258.43 263.6525 -257.75 263.3125 C-257.69969228 259.15398622 -257.66386293 254.99564448 -257.64013672 250.83691406 C-257.63022187 249.42900499 -257.61668588 248.02111567 -257.59912109 246.61328125 C-256.9700875 231.03542627 -256.9700875 231.03542627 -260.75 216.3125 C-260.92088565 214.984285 -261.05345558 213.65099349 -261.1640625 212.31640625 C-261.70028704 207.15652909 -262.81128942 202.26283113 -264.125 197.25 C-264.37467529 196.29134033 -264.62435059 195.33268066 -264.8815918 194.3449707 C-270.91403774 171.8149255 -270.91403774 171.8149255 -279.75 150.3125 C-280.74 149.9825 -281.73 149.6525 -282.75 149.3125 C-282.75 147.9925 -282.75 146.6725 -282.75 145.3125 C-283.41 144.9825 -284.07 144.6525 -284.75 144.3125 C-283.76 144.3125 -282.77 144.3125 -281.75 144.3125 C-282.03721924 143.53237549 -282.32443848 142.75225098 -282.62036133 141.94848633 C-283.70565989 138.98911792 -284.78385959 136.02727651 -285.85766602 133.0637207 C-286.54373053 131.17662743 -287.23757828 129.29236952 -287.93164062 127.40820312 C-298.81482576 97.30070556 -298.81482576 97.30070556 -292.6875 83.8125 C-290.07561581 79.34441721 -287.09382403 76.11674083 -282.75 73.3125 C-282.20085937 72.93867188 -281.65171875 72.56484375 -281.0859375 72.1796875 C-274.71770987 68.84127742 -267.32951713 70.8979369 -260.73681641 72.69091797 C-242.49559529 78.39774384 -227.07304071 94.27852665 -213.75 107.3125 C-213.23646973 107.81088379 -212.72293945 108.30926758 -212.19384766 108.82275391 C-206.76540736 114.09859492 -201.65621653 119.55260179 -196.75 125.3125 C-195.87073263 126.31723049 -194.99043777 127.3210623 -194.109375 128.32421875 C-183.78385419 140.14082061 -174.26453694 152.57234469 -165.23828125 165.40625 C-163.8811737 167.42599373 -163.8811737 167.42599373 -161.75 168.3125 C-160.79306079 169.98347919 -159.83966161 171.65664891 -158.90966797 173.34277344 C-156.99462596 176.59552269 -154.66478093 179.49310433 -152.3125 182.4375 C-151.84779297 183.03175781 -151.38308594 183.62601563 -150.90429688 184.23828125 C-146.29714894 190.05986567 -142.14252848 195.21795026 -134.75 197.3125 C-126.78415844 196.31372476 -120.21917337 192.80006449 -113.23022461 189.08251953 C-111.32489552 188.06909306 -109.41245521 187.07036962 -107.49804688 186.07421875 C-101.33828679 182.85215428 -95.29065078 179.49780282 -89.35766602 175.87158203 C-84.41990586 172.91937378 -79.36182982 170.17706262 -74.31958008 167.40844727 C-72.44961354 166.38165153 -70.58112386 165.3522111 -68.71289062 164.32226562 C-65.06260071 162.31165566 -61.40734332 160.31024578 -57.75 158.3125 C-57.13610413 157.97659851 -56.52220825 157.64069702 -55.88970947 157.2946167 C-54.10117554 156.31727543 -52.31070713 155.343583 -50.51953125 154.37109375 C-49.48030518 153.80575928 -48.4410791 153.2404248 -47.37036133 152.65795898 C-44.75 151.3125 -44.75 151.3125 -41.75 150.3125 C-38.46092213 133.6395644 -36.92993379 118.24869988 -38.875 101.25 C-39.00044189 100.14253418 -39.12588379 99.03506836 -39.25512695 97.89404297 C-40.68733167 86.30093745 -43.33934881 75.0418643 -46.24682617 63.74072266 C-46.75 61.3125 -46.75 61.3125 -46.75 57.3125 C-47.41 56.9825 -48.07 56.6525 -48.75 56.3125 C-51.72110832 43.98863129 -52.3830797 28.69622995 -46.375 17.3125 C-45.52292346 15.96440195 -44.65056069 14.62870409 -43.75 13.3125 C-43.193125 12.425625 -42.63625 11.53875 -42.0625 10.625 C-30.86406283 -0.57343717 -14.91267797 -2.92622252 0 0 Z M-281.75 144.3125 C-280.75 146.3125 -280.75 146.3125 -280.75 146.3125 Z M-280.75 147.3125 C-279.75 149.3125 -279.75 149.3125 -279.75 149.3125 Z " fill="#ABBBD4" transform="translate(298.75,115.6875)"/>
<path d="M0 0 C0.96993896 0.18208008 1.93987793 0.36416016 2.93920898 0.55175781 C9.14818579 1.76392474 15.01116131 3.27175104 20.91015625 5.578125 C23.47190725 6.38214702 25.58109368 6.44570745 28.25 6.3125 C28.25 6.9725 28.25 7.6325 28.25 8.3125 C28.89437012 8.61430176 29.53874023 8.91610352 30.20263672 9.22705078 C33.17935821 10.62507056 36.15216628 12.03123307 39.125 13.4375 C40.13820313 13.911875 41.15140625 14.38625 42.1953125 14.875 C62.21816492 24.37301974 80.38824092 37.64488623 96.52734375 52.7734375 C98.85426731 54.9434523 101.21486966 57.04872073 103.625 59.125 C106.99390915 62.05693767 110.20628451 65.04050585 113.25 68.3125 C113.25 68.9725 113.25 69.6325 113.25 70.3125 C113.848125 70.374375 114.44625 70.43625 115.0625 70.5 C117.25 71.3125 117.25 71.3125 118.51953125 73.46484375 C120.65997199 76.98714917 123.28134555 79.72506882 126.125 82.6875 C127.1680828 83.77480326 128.20716861 84.8659553 129.2421875 85.9609375 C129.76176025 86.50073242 130.28133301 87.04052734 130.81665039 87.59667969 C132.25 89.3125 132.25 89.3125 133.24389648 91.28613281 C134.39151867 93.52558805 135.21834384 94.80426671 137.25 96.3125 C142.06353016 97.07871931 146.72081658 96.69027085 151.5625 96.3125 C152.85607422 96.24160156 154.14964844 96.17070312 155.48242188 96.09765625 C160.54506531 95.80244328 165.5838088 95.44563285 170.609375 94.7578125 C174.82862403 94.2417241 178.94272282 94.16529541 183.1875 94.1875 C183.95384766 94.18363281 184.72019531 94.17976563 185.50976562 94.17578125 C191.12322538 94.18572538 191.12322538 94.18572538 192.25 95.3125 C194.85412484 95.54385383 197.44121042 95.71659435 200.05078125 95.85546875 C201.72891937 95.95589531 203.40697647 96.05768261 205.08496094 96.16064453 C205.97662964 96.21496643 206.86829834 96.26928833 207.7869873 96.32525635 C239.76467213 98.33854112 270.31861707 104.04565529 301.30111694 112.09356689 C304.73127831 113.00533356 304.73127831 113.00533356 308.25 113.3125 C308.25 113.9725 308.25 114.6325 308.25 115.3125 C309.20519531 115.41046875 310.16039062 115.5084375 311.14453125 115.609375 C315.95543535 116.30061769 320.38049549 117.91930976 324.9375 119.5625 C326.25609009 120.02958374 326.25609009 120.02958374 327.60131836 120.50610352 C333.51047118 122.62136408 339.30238816 124.90689414 345.03515625 127.46484375 C347.32171787 128.49121666 347.32171787 128.49121666 350.25 128.3125 C350.25 128.9725 350.25 129.6325 350.25 130.3125 C355.58835539 132.23721317 360.59979382 133.71141424 366.25 134.3125 C366.25 134.9725 366.25 135.6325 366.25 136.3125 C366.90371582 136.63412109 367.55743164 136.95574219 368.23095703 137.28710938 C393.32941649 149.6620136 393.32941649 149.6620136 404.25 156.3125 C404.97493652 156.75029785 405.69987305 157.1880957 406.44677734 157.63916016 C420.36488985 166.08607378 433.11838385 175.26152142 445.06640625 186.33984375 C447.29353311 188.40510555 447.29353311 188.40510555 450.02734375 190.44140625 C450.76082031 191.05886719 451.49429688 191.67632812 452.25 192.3125 C452.25 192.9725 452.25 193.6325 452.25 194.3125 C453.24 194.6425 454.23 194.9725 455.25 195.3125 C457.017628 197.46975102 458.68015493 199.62013032 460.3125 201.875 C461.91012235 204.07662965 463.53459491 206.1969318 465.25 208.3125 C465.91 208.3125 466.57 208.3125 467.25 208.3125 C467.37375 209.3334375 467.37375 209.3334375 467.5 210.375 C468.17791968 213.03018543 468.93912448 214.68030566 470.3125 217 C472.25 220.3125 472.25 220.3125 472.25 222.3125 C472.91 222.6425 473.57 222.9725 474.25 223.3125 C475.03125 225.28125 475.03125 225.28125 475.75 227.8125 C475.9871875 228.6271875 476.224375 229.441875 476.46875 230.28125 C476.85546875 231.78171875 476.85546875 231.78171875 477.25 233.3125 C477.42354004 233.96597412 477.59708008 234.61944824 477.77587891 235.29272461 C481.42396397 250.05683567 480.1891597 266.02834143 475.25 280.3125 C475.00282227 281.04549316 474.75564453 281.77848633 474.50097656 282.53369141 C465.42599115 308.77414921 449.74688136 332.51358132 432.67578125 354.22265625 C430.91615587 356.46398263 429.18750694 358.71549073 427.48046875 360.99609375 C427.02373779 361.60275879 426.56700684 362.20942383 426.09643555 362.83447266 C425.21704333 364.00391283 424.34199921 365.17663888 423.47192383 366.35302734 C422.4448567 367.70967414 421.35282245 369.01668362 420.25 370.3125 C419.59 370.3125 418.93 370.3125 418.25 370.3125 C417.92153076 371.12883911 417.92153076 371.12883911 417.58642578 371.96166992 C415.80934561 375.0876299 413.40642685 377.42221815 410.8671875 379.92578125 C410.06754074 380.72474068 410.06754074 380.72474068 409.2517395 381.5398407 C408.12266483 382.66589921 406.99116559 383.7895312 405.85742188 384.91088867 C404.14664129 386.60358744 402.44382508 388.30397489 400.7421875 390.00585938 C394.5478763 396.18003431 388.32174854 402.26390702 381.47827148 407.72680664 C378.07379021 410.41998373 378.07379021 410.41998373 376.25 414.3125 C375.69570313 414.44398438 375.14140625 414.57546875 374.5703125 414.7109375 C371.16623898 415.59347508 368.81379753 417.77045676 366.125 419.9375 C364.97404004 420.8455068 363.82167943 421.75174083 362.66796875 422.65625 C362.0961084 423.10484375 361.52424805 423.5534375 360.93505859 424.015625 C357.14766027 426.93052791 353.19783444 429.62119977 349.25 432.3125 C349.90644861 435.99665037 350.92027433 439.39803466 352.125 442.9375 C357.77773395 461.09226599 358.14073079 477.85468784 354.25 496.3125 C353.59 496.3125 352.93 496.3125 352.25 496.3125 C352.023125 497.034375 351.79625 497.75625 351.5625 498.5 C348.50410752 505.05369817 341.24145399 510.78652329 334.51171875 513.359375 C332.10216908 514.08189909 329.69923332 514.74034303 327.25 515.3125 C327.25 515.9725 327.25 516.6325 327.25 517.3125 C326.71890625 517.16296875 326.1878125 517.0134375 325.640625 516.859375 C322.77223106 516.20320645 319.92306724 515.90239154 317 515.5625 C308.33888567 514.370687 299.11291938 512.24395969 291.25 508.3125 C290.92 508.9725 290.59 509.6325 290.25 510.3125 C290.25 509.3225 290.25 508.3325 290.25 507.3125 C289.70110107 507.14886963 289.15220215 506.98523926 288.58666992 506.81665039 C282.86317347 505.02253681 277.77344571 502.70411886 272.5625 499.75 C271.40391479 499.1000708 271.40391479 499.1000708 270.22192383 498.43701172 C253.2363142 488.72745013 253.2363142 488.72745013 247.0703125 481.8984375 C242.35565712 479.2472601 237.99797912 481.08593919 232.9375 482.3125 C230.67649013 482.81181459 228.41474925 483.30782887 226.15234375 483.80078125 C225.00233887 484.05682129 223.85233398 484.31286133 222.66748047 484.57666016 C201.84755782 489.05953249 180.56877606 491.90195925 159.25 491.3125 C158.92 491.9725 158.59 492.6325 158.25 493.3125 C75.08609453 491.19356466 75.08609453 491.19356466 38.25 476.3125 C35.82797256 475.70253816 35.82797256 475.70253816 33.25 476.3125 C30.82051521 478.00810875 28.6653499 479.69613325 26.4375 481.625 C14.44536142 491.59845451 1.46717773 500.00728136 -11.828125 508.13037109 C-13.65625913 509.25484079 -15.46973106 510.39979654 -17.28125 511.55078125 C-44.18498748 528.43529901 -80.91594963 546.7413064 -113.64453125 541.8828125 C-119.25329272 540.48708384 -122.87116633 537.97985672 -126.9609375 533.93359375 C-128.68045863 532.21191156 -128.68045863 532.21191156 -130.9296875 531.3125 C-131.53039062 530.9825 -132.13109375 530.6525 -132.75 530.3125 C-133.36238033 527.50575684 -133.62932014 525.15311836 -133.75 522.3125 C-133.82476562 521.48234375 -133.89953125 520.6521875 -133.9765625 519.796875 C-134.66814793 507.34833722 -128.57301122 497.25653219 -121.75 487.3125 C-120.71783321 485.76726784 -119.68583092 484.22192346 -118.65649414 482.67480469 C-117.86928876 481.49225171 -117.08065831 480.31064641 -116.29077148 479.12988281 C-111.95538342 472.64470896 -107.66656751 466.1289471 -103.38586426 459.60760498 C-102.55899375 458.34840664 -101.73146124 457.08964271 -100.90319824 455.83135986 C-93.88994178 445.17461724 -86.97043551 434.45744696 -80.75 423.3125 C-81.81476563 422.57386719 -82.87953125 421.83523438 -83.9765625 421.07421875 C-96.57820957 412.28665073 -108.80677396 403.28528312 -120.0546875 392.796875 C-122.15617926 390.85984781 -124.28322844 388.98752929 -126.44921875 387.125 C-131.39834873 382.80816845 -136.04734399 378.20704844 -140.6875 373.5625 C-141.5734082 372.67578613 -142.45931641 371.78907227 -143.37207031 370.87548828 C-149.24106279 364.95112795 -154.72209219 358.97312626 -159.75 352.3125 C-161.17913053 350.43111297 -162.61653039 348.55597615 -164.0625 346.6875 C-164.67738281 345.87023437 -165.29226562 345.05296875 -165.92578125 344.2109375 C-167.89200477 342.16471774 -168.97658308 341.66759532 -171.75 341.3125 C-172.03875 340.260625 -172.3275 339.20875 -172.625 338.125 C-173.52225193 335.08431289 -174.51423419 332.22537656 -175.75 329.3125 C-179.09321955 330.42690652 -179.81019619 331.28722343 -182 333.9375 C-187.76569726 340.70018241 -193.93648118 346.43005964 -200.875 351.9921875 C-202.73123405 353.49028944 -204.56656625 355.01484419 -206.375 356.5703125 C-220.6718417 368.78219812 -238.86486841 380.04385598 -258.26953125 379.5625 C-266.34214775 378.74888196 -273.18128618 375.23808521 -278.625 369.25 C-282.67926785 362.26764981 -281.63304557 352.59754295 -279.83203125 345.0234375 C-277.72992519 337.17750214 -275.13874968 329.47683598 -272.59838867 321.76472473 C-272.07487594 320.17524473 -271.55226822 318.58546639 -271.03051758 316.9954071 C-269.724459 313.01610338 -268.40795324 309.04113276 -267.06542969 305.07397461 C-264.42603635 297.18510124 -262.11547273 289.29049345 -260.3203125 281.1640625 C-260.05539505 280.01192764 -260.05539505 280.01192764 -259.78512573 278.83651733 C-258.71215347 273.67757642 -258.84857017 269.50694341 -259.75 264.3125 C-259.09 263.9825 -258.43 263.6525 -257.75 263.3125 C-257.69969228 259.15398622 -257.66386293 254.99564448 -257.64013672 250.83691406 C-257.63022187 249.42900499 -257.61668588 248.02111567 -257.59912109 246.61328125 C-256.9700875 231.03542627 -256.9700875 231.03542627 -260.75 216.3125 C-260.92088565 214.984285 -261.05345558 213.65099349 -261.1640625 212.31640625 C-261.70028704 207.15652909 -262.81128942 202.26283113 -264.125 197.25 C-264.37467529 196.29134033 -264.62435059 195.33268066 -264.8815918 194.3449707 C-270.91403774 171.8149255 -270.91403774 171.8149255 -279.75 150.3125 C-280.74 149.9825 -281.73 149.6525 -282.75 149.3125 C-282.75 147.9925 -282.75 146.6725 -282.75 145.3125 C-283.41 144.9825 -284.07 144.6525 -284.75 144.3125 C-283.76 144.3125 -282.77 144.3125 -281.75 144.3125 C-282.03721924 143.53237549 -282.32443848 142.75225098 -282.62036133 141.94848633 C-283.70565989 138.98911792 -284.78385959 136.02727651 -285.85766602 133.0637207 C-286.54373053 131.17662743 -287.23757828 129.29236952 -287.93164062 127.40820312 C-298.81482576 97.30070556 -298.81482576 97.30070556 -292.6875 83.8125 C-290.07561581 79.34441721 -287.09382403 76.11674083 -282.75 73.3125 C-282.20085937 72.93867188 -281.65171875 72.56484375 -281.0859375 72.1796875 C-274.71770987 68.84127742 -267.32951713 70.8979369 -260.73681641 72.69091797 C-242.49559529 78.39774384 -227.07304071 94.27852665 -213.75 107.3125 C-213.23646973 107.81088379 -212.72293945 108.30926758 -212.19384766 108.82275391 C-206.76540736 114.09859492 -201.65621653 119.55260179 -196.75 125.3125 C-195.87073263 126.31723049 -194.99043777 127.3210623 -194.109375 128.32421875 C-183.78385419 140.14082061 -174.26453694 152.57234469 -165.23828125 165.40625 C-163.8811737 167.42599373 -163.8811737 167.42599373 -161.75 168.3125 C-160.79306079 169.98347919 -159.83966161 171.65664891 -158.90966797 173.34277344 C-156.99462596 176.59552269 -154.66478093 179.49310433 -152.3125 182.4375 C-151.84779297 183.03175781 -151.38308594 183.62601563 -150.90429688 184.23828125 C-146.29714894 190.05986567 -142.14252848 195.21795026 -134.75 197.3125 C-126.78415844 196.31372476 -120.21917337 192.80006449 -113.23022461 189.08251953 C-111.32489552 188.06909306 -109.41245521 187.07036962 -107.49804688 186.07421875 C-101.33828679 182.85215428 -95.29065078 179.49780282 -89.35766602 175.87158203 C-84.41990586 172.91937378 -79.36182982 170.17706262 -74.31958008 167.40844727 C-72.44961354 166.38165153 -70.58112386 165.3522111 -68.71289062 164.32226562 C-65.06260071 162.31165566 -61.40734332 160.31024578 -57.75 158.3125 C-57.13610413 157.97659851 -56.52220825 157.64069702 -55.88970947 157.2946167 C-54.10117554 156.31727543 -52.31070713 155.343583 -50.51953125 154.37109375 C-49.48030518 153.80575928 -48.4410791 153.2404248 -47.37036133 152.65795898 C-44.75 151.3125 -44.75 151.3125 -41.75 150.3125 C-38.46092213 133.6395644 -36.92993379 118.24869988 -38.875 101.25 C-39.00044189 100.14253418 -39.12588379 99.03506836 -39.25512695 97.89404297 C-40.68733167 86.30093745 -43.33934881 75.0418643 -46.24682617 63.74072266 C-46.75 61.3125 -46.75 61.3125 -46.75 57.3125 C-47.41 56.9825 -48.07 56.6525 -48.75 56.3125 C-51.72110832 43.98863129 -52.3830797 28.69622995 -46.375 17.3125 C-45.52292346 15.96440195 -44.65056069 14.62870409 -43.75 13.3125 C-43.193125 12.425625 -42.63625 11.53875 -42.0625 10.625 C-30.86406283 -0.57343717 -14.91267797 -2.92622252 0 0 Z M-271.75 94.3125 C-272.59568349 104.1010434 -269.49062995 112.29392263 -266.3125 121.375 C-265.7580645 122.99681896 -265.20485479 124.61905744 -264.65283203 126.24169922 C-261.59650655 135.18495098 -258.39478163 144.07016896 -255.125 152.9375 C-251.47804124 162.84580865 -248.36056631 172.87722314 -245.375 183 C-245.16349304 183.71238831 -244.95198608 184.42477661 -244.73406982 185.15875244 C-241.98149553 194.466179 -239.5749542 203.77083643 -237.75 213.3125 C-237.44533813 214.83242554 -237.44533813 214.83242554 -237.13452148 216.38305664 C-235.5237015 225.35681161 -235.41122486 234.25112772 -235.43432617 243.33935547 C-235.43746992 245.91287317 -235.41399747 248.48521844 -235.38867188 251.05859375 C-235.34477338 262.73043671 -236.55371141 273.85622957 -238.75 285.3125 C-238.88127289 286.00244049 -239.01254578 286.69238098 -239.14779663 287.40322876 C-241.66169506 300.41275693 -246.13104636 312.85745816 -250.39654541 325.3742218 C-252.33495883 331.06724002 -254.2531813 336.76546342 -256.078125 342.49609375 C-256.55620605 343.99354126 -256.55620605 343.99354126 -257.04394531 345.52124023 C-258.07014768 349.57814607 -258.03209629 353.15157975 -257.75 357.3125 C-233.97793108 355.80316229 -214.988685 335.78390106 -199.19140625 319.671875 C-198.18384193 318.6485149 -197.17627353 317.62515882 -196.16870117 316.60180664 C-194.17834658 314.57898141 -192.20323893 312.54269726 -190.2355957 310.49780273 C-180.36983522 300.36987607 -169.92828981 292.42637369 -155.4375 291.875 C-138.90614144 292.33580442 -125.19860325 302.13984394 -112.109375 311.28515625 C-74.75029607 338.33574252 -74.75029607 338.33574252 -31.5 349.0625 C-30.5925 348.815 -29.685 348.5675 -28.75 348.3125 C-24.05271605 347.40600661 -20.99605338 346.88618379 -16.75 349.3125 C-14.05009404 353.36235894 -14.02886533 356.5548317 -14.75 361.3125 C-16.19635598 363.83836076 -17.45621186 365.64971294 -19.3125 367.8125 C-24.46203733 374.31052362 -28.79290313 381.10933845 -33 388.25 C-37.96499998 396.64808349 -42.99361019 404.99122264 -48.1875 413.25 C-53.51051904 421.7186938 -58.77371251 430.22127251 -64 438.75 C-70.66378648 449.60585622 -77.50411559 460.32408189 -84.49560547 470.97070312 C-91.13002973 481.07865699 -97.75706526 491.18230637 -104.0625 501.5 C-104.51238281 502.23597412 -104.96226562 502.97194824 -105.42578125 503.73022461 C-109.84923137 510.5047793 -109.84923137 510.5047793 -110.75 518.3125 C-108.08392988 520.97857012 -106.74108603 520.7051004 -103 520.8125 C-85.06029904 520.50098323 -67.70685814 512.91530745 -51.75 505.3125 C-50.80350586 504.86583984 -49.85701172 504.41917969 -48.88183594 503.95898438 C-24.19001049 492.14807482 -0.91869813 476.64978586 20.25 459.3125 C21.13582764 458.58788574 21.13582764 458.58788574 22.03955078 457.84863281 C37.73544986 444.90027089 53.30745721 430.82331624 66.51953125 415.3203125 C68.48427497 413.04067758 70.52348082 410.83838556 72.5625 408.625 C78.43803684 402.10651721 83.64857495 395.08577578 88.92919922 388.08691406 C90.73665528 385.69773096 92.55529291 383.31736041 94.375 380.9375 C94.93662842 380.18855469 95.49825684 379.43960937 96.0769043 378.66796875 C105.21664403 366.7524562 114.70088743 361.89890754 129.125 358.4296875 C131.24784149 357.90290681 133.37064265 357.37596358 135.4934082 356.84887695 C136.59528473 356.57838531 137.69716125 356.30789368 138.83242798 356.02920532 C170.7847741 348.15974138 201.83080917 338.50209284 233.01950073 328.04953003 C383.13587709 277.74766769 383.13587709 277.74766769 439.25 305.3125 C451.43015457 286.58551235 460.26314245 263.84770687 456.78125 241.2734375 C453.86132816 229.21137942 447.4907661 219.41504556 439.25 210.3125 C438.52296875 209.50296875 437.7959375 208.6934375 437.046875 207.859375 C407.22572682 176.41530719 362.23033472 156.80987363 322.25 142.3125 C321.36699219 141.98797852 320.48398437 141.66345703 319.57421875 141.32910156 C285.85451774 129.04474703 249.9115475 122.3328494 214.25 119.3125 C213.16001709 119.21678711 212.07003418 119.12107422 210.94702148 119.02246094 C198.91557839 118.08527308 186.87443532 118.06900649 174.8125 118.0625 C173.12133057 118.06148788 173.12133057 118.06148788 171.39599609 118.06045532 C143.51033323 118.08687342 116.55778784 120.34069031 89.25 126.3125 C88.16428711 126.5492041 87.07857422 126.7859082 85.95996094 127.02978516 C55.58247621 133.81567271 25.71769442 143.75233837 -2.75 156.3125 C-3.84973145 156.7976709 -4.94946289 157.2828418 -6.08251953 157.78271484 C-32.78847973 169.67981046 -58.69174697 183.22709193 -84.04394531 197.76855469 C-126.76803818 222.14487761 -126.76803818 222.14487761 -144.125 218.3125 C-160.24500615 213.41129869 -168.52285474 198.66387583 -177.43359375 185.54370117 C-185.71014758 173.42508089 -194.8231335 161.9517255 -204.42578125 150.86328125 C-205.70379591 149.36660921 -206.9464417 147.83995637 -208.1875 146.3125 C-214.65800829 138.39394212 -221.73096411 131.06608276 -228.91305542 123.79696655 C-230.03432767 122.66094308 -231.1523992 121.52174942 -232.26687622 120.37905884 C-248.62550751 103.05143597 -248.62550751 103.05143597 -269.37280273 94.26611328 C-270.54951538 94.28907471 -270.54951538 94.28907471 -271.75 94.3125 Z M-281.75 144.3125 C-280.75 146.3125 -280.75 146.3125 -280.75 146.3125 Z M-280.75 147.3125 C-279.75 149.3125 -279.75 149.3125 -279.75 149.3125 Z " fill="#304F75" transform="translate(298.75,115.6875)"/>
<path d="M0 0 C-8.07654045 13.50684239 -18.10555979 25.61135044 -28.54882812 37.34814453 C-29.94394142 38.93618904 -31.29173453 40.55630446 -32.640625 42.18359375 C-39.78339762 50.23525211 -46.73030852 52.43792487 -57 54 C-58.0607373 54.17080078 -59.12147461 54.34160156 -60.21435547 54.51757812 C-68.12760917 55.78475838 -76.05102748 56.97835647 -84 58 C-84.68093216 58.08808929 -85.36186432 58.17617859 -86.06343079 58.26693726 C-91.48939005 58.92546775 -96.8375642 59.17330122 -102.30078125 59.203125 C-103.1668248 59.21013931 -104.03286835 59.21715363 -104.92515564 59.22438049 C-107.72099035 59.2418411 -110.51661268 59.24823741 -113.3125 59.25 C-114.27063599 59.25067474 -115.22877197 59.25134949 -116.21594238 59.25204468 C-137.7269642 59.22803584 -158.58006007 57.76936747 -179.54785156 52.6262207 C-184.85836329 51.33515565 -189.52689527 50.59011991 -195 51 C-198.1866503 52.7698823 -198.1866503 52.7698823 -200 56 C-200.84231446 60.18920999 -200.78509718 63.64392305 -198.625 67.375 C-178.01192237 80.13547663 -142.65613084 79.21255181 -119.375 79.1875 C-118.32930344 79.18858765 -118.32930344 79.18858765 -117.26248169 79.18969727 C-102.44871113 79.18801734 -87.75862033 78.2670947 -73 77 C-97.66728855 103.02986258 -137.63649426 118.98476533 -171 130 C-171.84804199 130.28568848 -172.69608398 130.57137695 -173.56982422 130.86572266 C-208.07086658 142.38458546 -245.27281043 147.44556909 -281.5625 147.375 C-283.08363403 147.37468277 -283.08363403 147.37468277 -284.63549805 147.37435913 C-315.02644441 147.31164407 -344.87555077 144.04022285 -374 135 C-368.37478847 128.1552048 -362.07995117 122.02871185 -355.7487793 115.84472656 C-348.9973936 109.23968426 -342.87878825 102.3868349 -337 95 C-336.06435089 93.887255 -335.12288027 92.77933729 -334.171875 91.6796875 C-328.39155932 84.98570902 -322.93721895 78.11271413 -317.67871094 70.99951172 C-316.156787 68.96689774 -314.58835878 66.98097563 -313 65 C-312.53142578 64.36545898 -312.06285156 63.73091797 -311.58007812 63.07714844 C-306.64737022 57.17360821 -300.22925182 55.99693536 -293.00482178 54.4387207 C-289.82565248 53.74301428 -286.67550046 52.93406904 -283.51953125 52.140625 C-282.26986572 51.83447266 -281.0202002 51.52832031 -279.73266602 51.21289062 C-249.7311151 43.86120022 -220.48911155 34.64548503 -191.15670776 25.00305176 C-151.77813739 12.06763031 -112.25073563 -0.64672178 -71 -6 C-69.86546387 -6.15662109 -69.86546387 -6.15662109 -68.70800781 -6.31640625 C-46.62608658 -9.32801053 -19.8282522 -12.05900915 0 0 Z " fill="#DBE5EE" transform="translate(726,439)"/>
<path d="M0 0 C17.53872524 8.88396898 33.35296417 19.90897879 48 33 C48.52464844 33.46825195 49.04929687 33.93650391 49.58984375 34.41894531 C64.12512907 47.452725 64.12512907 47.452725 68 52 C68 52.66 68 53.32 68 54 C68.66 54 69.32 54 70 54 C71.60634015 55.73391951 73.1375287 57.538091 74.625 59.375 C75.44226563 60.37273437 76.25953125 61.37046875 77.1015625 62.3984375 C79 65 79 65 79 67 C78.05423096 67.16435547 78.05423096 67.16435547 77.08935547 67.33203125 C40.10026331 73.86068895 3.7180895 84.61569717 -31 99 C-32.61307324 99.65936327 -34.22636419 100.31819414 -35.83984375 100.9765625 C-39.8990467 102.63723833 -43.95129833 104.31389513 -48 106 C-47.9278125 105.23558594 -47.855625 104.47117187 -47.78125 103.68359375 C-45.34666267 75.58439834 -49.89285758 48.9348613 -56.56542969 21.69140625 C-61.47519927 1.58193085 -61.47519927 1.58193085 -58.05078125 -6.140625 C-45.8382033 -22.01312379 -13.84844698 -6.96727222 0 0 Z " fill="#ACBCD5" transform="translate(330,150)"/>
<path d="M0 0 C14.60007946 -1.09729198 24.07299519 7.19817113 35.3125 15.421875 C59.41835062 32.99495572 85.283393 46.70426083 114 55 C110.56424289 62.20391278 106.6841715 68.99637513 102.4375 75.75 C101.87353516 76.65621094 101.30957031 77.56242187 100.72851562 78.49609375 C97.88867445 83.04648253 95.00750244 87.55860275 92 92 C77.74266286 86.81785757 64.49689474 74.4444046 53.4765625 64.265625 C51.47772414 62.4370347 49.44995322 60.66960629 47.39453125 58.90625 C42.5671011 54.6915408 38.02133977 50.20741884 33.49145508 45.67675781 C32.07331716 44.26080053 30.64703335 42.85301711 29.22070312 41.4453125 C20.88114625 33.12314178 13.39121625 24.26854409 6.625 14.625 C6.21378906 14.04878906 5.80257812 13.47257812 5.37890625 12.87890625 C0.53974122 6.04805915 0.53974122 6.04805915 -1 3 C-0.67 2.01 -0.34 1.02 0 0 Z " fill="#DCE5EF" transform="translate(140,428)"/>
<path d="M0 0 C8.01167361 4.89361685 12.23086992 10.51292227 15.16796875 19.32421875 C16.12035281 28.70754366 14.09587014 35.76013718 9.04296875 43.63671875 C2.57661102 49.68135749 -5.35707761 52.71663081 -14.140625 52.6015625 C-21.43986661 51.84939101 -28.03530499 47.79373259 -32.83203125 42.32421875 C-37.85652126 34.27587153 -38.5830966 26.72296708 -37.83203125 17.32421875 C-36.94715639 14.26082046 -35.67962825 11.90843939 -33.83203125 9.32421875 C-33.06890625 8.25171875 -32.30578125 7.17921875 -31.51953125 6.07421875 C-28.4024428 2.88463987 -25.81345839 1.31493232 -21.83203125 -0.67578125 C-21.06890625 -1.08828125 -20.30578125 -1.50078125 -19.51953125 -1.92578125 C-12.67096852 -3.83700806 -6.32676384 -3.19137645 0 0 Z " fill="#2F4E75" transform="translate(533.83203125,361.67578125)"/>
<path d="M0 0 C3.95403662 0.26360244 5.65370756 0.86143155 8.75 3.25 C11.49172222 7.36258333 11.7145599 10.41989322 10.75 15.25 C9.22908121 18.10813109 7.47268623 20.69249361 5.6328125 23.35546875 C-0.83375993 33.29681765 -3.649652 44.56089337 -3.625 56.3125 C-3.62338867 57.12960449 -3.62177734 57.94670898 -3.62011719 58.78857422 C-3.42463418 68.67963132 -1.36513264 78.20765761 3 87.125 C5.21560568 91.75118467 5.90121403 96.20574919 4.75 101.25 C2.99995783 104.00801699 1.76876542 104.60340068 -1.25 106.25 C-6.33288373 106.96338719 -9.16025733 106.26892677 -13.25 103.25 C-18.60926178 94.82650148 -21.03644891 84.87610937 -23.25 75.25 C-23.426521 74.48888916 -23.60304199 73.72777832 -23.78491211 72.94360352 C-24.73832782 67.42180008 -24.47761095 61.77636618 -24.5 56.1875 C-24.520625 54.92744141 -24.54125 53.66738281 -24.5625 52.36914062 C-24.63360058 35.17168729 -18.86732366 17.8154482 -7.7265625 4.41796875 C-6.375 3.0625 -6.375 3.0625 -4.25 1.25 C-3.25 0.25 -3.25 0.25 0 0 Z " fill="#2E4D74" transform="translate(424.25,361.75)"/>
<path d="M0 0 C5.53846154 3.07692308 5.53846154 3.07692308 7 6 C7.54815976 11.82780371 6.05051403 15.54291729 3.25 20.5 C-6.37497677 38.84389863 -8.02386334 59.11368965 -2 79 C-1.29043337 80.98627791 -0.56214995 82.96600065 0.1875 84.9375 C1.78499828 89.16034429 2.80468101 92.44014094 2 97 C-0.44771444 101.00535091 -1.92602443 102.66804391 -6.4375 104.0625 C-10.57341357 103.98994011 -12.49386153 103.15159877 -16 101 C-28.45179078 84.06556453 -29.12692649 57.33379445 -26.68359375 37.42138672 C-25.88735683 33.11648928 -24.56610121 29.07902833 -23 25 C-22.62617188 23.94167969 -22.25234375 22.88335937 -21.8671875 21.79296875 C-18.05272878 11.75159563 -12.43988631 -1.50136559 0 0 Z " fill="#2E4D74" transform="translate(382,363)"/>
<path d="M0 0 C0.65256456 1.70577342 1.29673041 3.41476089 1.9375 5.125 C2.47697266 6.55199219 2.47697266 6.55199219 3.02734375 8.0078125 C5.11350631 14.42548528 5.21232951 20.68848756 5.25 27.375 C5.270625 28.2825 5.29125 29.19 5.3125 30.125 C5.35278685 37.11476818 4.53361544 42.92895099 -0.0625 48.5 C-8.24472615 52.67815804 -17.82258169 49.24923549 -26.09619141 46.6328125 C-36.8561329 43.05628411 -53.46834816 36.79747776 -60 27 C-58.28683594 26.34257813 -58.28683594 26.34257813 -56.5390625 25.671875 C-46.3881641 21.7227671 -36.40147753 17.47704784 -26.5 12.9375 C-25.43990723 12.45571289 -24.37981445 11.97392578 -23.28759766 11.47753906 C-16.74391133 8.44701538 -10.53895912 5.07694121 -4.38085938 1.32250977 C-2 0 -2 0 0 0 Z " fill="#AEBFD7" transform="translate(628,559)"/>
<path d="M0 0 C3.26617446 3.18096991 6.23489314 6.4259921 9.0625 10 C23.19026319 27.38268902 39.23125547 44.34380942 57 58 C59.35491324 59.97629645 61.67672045 61.98649105 64 64 C63.01 64.33 62.02 64.66 61 65 C58.88623154 63.51173445 57.04291577 62.02685871 55.125 60.3125 C54.54838623 59.80920166 53.97177246 59.30590332 53.37768555 58.78735352 C51.57386964 57.20377238 49.78552535 55.6041559 48 54 C47.47583496 53.53368164 46.95166992 53.06736328 46.41162109 52.58691406 C32.71328568 40.36675317 19.2191741 27.55958528 8 13 C7.23816406 12.0821875 6.47632813 11.164375 5.69140625 10.21875 C4.94761719 9.3215625 4.20382813 8.424375 3.4375 7.5 C2.44556641 6.30890625 2.44556641 6.30890625 1.43359375 5.09375 C0 3 0 3 0 0 Z " fill="#314765" transform="translate(131,455)"/>
<path d="M0 0 C5.15630729 0.45351842 8.34028416 3.07565162 12.3125 6.125 C13.00746582 6.65270996 13.70243164 7.18041992 14.41845703 7.72412109 C22.44644062 13.94323588 29.74847099 20.90580597 37 28 C37.51353027 28.49838379 38.02706055 28.99676758 38.55615234 29.51025391 C43.38053295 34.199016 48.03208473 38.99071395 52.390625 44.1171875 C53.50043701 45.4155598 54.63791648 46.69061393 55.796875 47.9453125 C56.35890625 48.56148437 56.9209375 49.17765625 57.5 49.8125 C58.0053125 50.35519531 58.510625 50.89789063 59.03125 51.45703125 C59.51078125 52.22080078 59.51078125 52.22080078 60 53 C59.67 53.99 59.34 54.98 59 56 C57.47816445 54.33424841 55.9575915 52.66734329 54.4375 51 C53.59058594 50.071875 52.74367187 49.14375 51.87109375 48.1875 C49.77434202 45.87812512 47.72871697 43.52986104 45.69140625 41.16796875 C41.79834015 36.70920723 37.682501 32.49874205 33.5 28.3125 C32.77941406 27.57966797 32.05882812 26.84683594 31.31640625 26.09179688 C28.02652915 22.79299606 24.81508118 19.74740297 20.96875 17.10546875 C19.9890625 16.41066406 19.009375 15.71585938 18 15 C18 14.34 18 13.68 18 13 C17.48953125 12.77441406 16.9790625 12.54882812 16.453125 12.31640625 C13.01318841 10.47045302 9.91693676 8.21293119 6.75 5.9375 C6.1003125 5.47794922 5.450625 5.01839844 4.78125 4.54492188 C3.16759306 3.39061476 1.58110319 2.19851004 0 1 C0 0.67 0 0.34 0 0 Z " fill="#354C6C" transform="translate(48,195)"/>
<path d="M0 0 C3.38493533 0.58872484 5.09736297 1.69552223 7.56640625 4.0546875 C8.5419043 4.97701172 8.5419043 4.97701172 9.53710938 5.91796875 C10.20548828 6.56378906 10.87386719 7.20960938 11.5625 7.875 C12.23474609 8.51308594 12.90699219 9.15117187 13.59960938 9.80859375 C15.4089752 11.52991694 17.21036841 13.25817997 19 15 C19.56581787 15.52223145 20.13163574 16.04446289 20.71459961 16.58251953 C22 18 22 18 22 20 C22.8971875 20.0928125 22.8971875 20.0928125 23.8125 20.1875 C26.88378877 21.3282644 27.3218751 23.20312516 29 26 C30.68982521 27.97190627 32.42131207 29.90868704 34.1875 31.8125 C34.65091797 32.31458984 35.11433594 32.81667969 35.59179688 33.33398438 C36.72400297 34.55956829 37.86146479 35.78029342 39 37 C38.67 37.99 38.34 38.98 38 40 C36.31129174 38.1677668 34.62377956 36.33446694 32.9375 34.5 C32.42872314 33.94683105 31.91994629 33.39366211 31.39575195 32.82373047 C28.77404272 29.96497173 26.19510712 27.08501047 23.6875 24.125 C20.27263936 20.18796406 16.61315571 16.50390647 12.9375 12.8125 C12.34735107 12.21775879 11.75720215 11.62301758 11.14916992 11.01025391 C8.38142102 8.25217568 5.59263716 5.61078902 2.56640625 3.13671875 C1.71949219 2.43160156 0.87257813 1.72648438 0 1 C0 0.67 0 0.34 0 0 Z " fill="#384F6D" transform="translate(390,166)"/>
<path d="M0 0 C0.97839844 0.00193359 1.95679688 0.00386719 2.96484375 0.00585938 C4.49431641 0.02422852 4.49431641 0.02422852 6.0546875 0.04296875 C7.08207031 0.04361328 8.10945313 0.04425781 9.16796875 0.04492188 C16.78944664 0.09022789 16.78944664 0.09022789 17.9296875 1.23046875 C20.61831414 1.63040561 23.29320967 1.98181418 25.9921875 2.29296875 C26.75080078 2.38384766 27.50941406 2.47472656 28.29101562 2.56835938 C30.1701176 2.79290615 32.04984845 3.01217853 33.9296875 3.23046875 C33.9296875 3.56046875 33.9296875 3.89046875 33.9296875 4.23046875 C23.0396875 4.23046875 12.1496875 4.23046875 0.9296875 4.23046875 C0.9296875 3.90046875 0.9296875 3.57046875 0.9296875 3.23046875 C-2.0403125 2.90046875 -5.0103125 2.57046875 -8.0703125 2.23046875 C-4.78564849 0.04069274 -3.80848155 -0.017395 0 0 Z " fill="#3E5472" transform="translate(473.0703125,209.76953125)"/>
<path d="M0 0 C0.66 0.33 1.32 0.66 2 1 C-1.51048175 4.81574104 -5.42970674 7.25919627 -9.85131836 9.90991211 C-12.56760641 11.53862167 -15.26950357 13.17332919 -17.93359375 14.88671875 C-18.80113281 15.43972656 -19.66867187 15.99273438 -20.5625 16.5625 C-21.32691406 17.05878906 -22.09132813 17.55507813 -22.87890625 18.06640625 C-25.39583513 19.17422578 -26.47234332 18.95718518 -29 18 C-28.16339844 17.53851562 -27.32679688 17.07703125 -26.46484375 16.6015625 C-17.33145724 11.50361192 -8.63337436 5.90068164 0 0 Z " fill="#2D4464" transform="translate(300,612)"/>
<path d="M0 0 C0.33 0 0.66 0 1 0 C1.91079025 5.45016888 2.19192975 10.72776065 2.1875 16.25 C2.1884668 17.49873901 2.1884668 17.49873901 2.18945312 18.77270508 C2.13613639 25.00773331 1.52606181 30.93662943 0 37 C-0.33 37 -0.66 37 -1 37 C-1.1574163 24.63407511 -0.67707648 12.34584137 0 0 Z " fill="#294160" transform="translate(262,219)"/>
<path d="M0 0 C-0.9590625 0.4640625 -0.9590625 0.4640625 -1.9375 0.9375 C-3.93610821 1.8345163 -3.93610821 1.8345163 -5 3 C-6.41618121 3.22734369 -7.84211406 3.39467661 -9.26953125 3.53515625 C-10.59561401 3.66591553 -10.59561401 3.66591553 -11.94848633 3.79931641 C-13.3661731 3.92959229 -13.3661731 3.92959229 -14.8125 4.0625 C-16.23888794 4.19664307 -16.23888794 4.19664307 -17.6940918 4.33349609 C-24.48941475 4.9407894 -31.17636135 5.25429709 -38 5 C-38 4.67 -38 4.34 -38 4 C-37.21753906 3.93941406 -36.43507813 3.87882813 -35.62890625 3.81640625 C-34.61699219 3.73261719 -33.60507812 3.64882813 -32.5625 3.5625 C-31.55316406 3.48128906 -30.54382813 3.40007813 -29.50390625 3.31640625 C-27.06359221 3.26788532 -27.06359221 3.26788532 -26 2 C-24.58630463 1.7734737 -23.16306305 1.60571813 -21.73828125 1.46484375 C-20.43020508 1.33432617 -20.43020508 1.33432617 -19.09570312 1.20117188 C-18.17724609 1.11416016 -17.25878906 1.02714844 -16.3125 0.9375 C-15.41337891 0.84662109 -14.51425781 0.75574219 -13.58789062 0.66210938 C-9.04013239 0.21834426 -4.57579119 -0.11382565 0 0 Z " fill="#3A4F6D" transform="translate(499,602)"/>
<path d="M0 0 C0.33 0 0.66 0 1 0 C2.27357771 6.853061 2.14728149 13.67317595 2.125 20.625 C2.12886719 21.83929688 2.13273437 23.05359375 2.13671875 24.3046875 C2.13478516 26.06039062 2.13478516 26.06039062 2.1328125 27.8515625 C2.13168457 28.91197754 2.13055664 29.97239258 2.12939453 31.06494141 C2.00795967 33.81945072 1.6230575 36.31905845 1 39 C2.98 38.505 2.98 38.505 5 38 C2.94766315 40.2477975 1.99332739 41.0022242 -1 42 C-0.9285376 41.23921143 -0.8570752 40.47842285 -0.78344727 39.69458008 C-0.03337786 31.00753167 0.119811 22.40318051 0.0625 13.6875 C0.05746607 12.34961108 0.05290657 11.0117203 0.04882812 9.67382812 C0.03718676 6.44916915 0.02083703 3.2246104 0 0 Z " fill="#D3E5F8" transform="translate(283,214)"/>
<path d="M0 0 C0.66 0.33 1.32 0.66 2 1 C1.52949219 1.47308594 1.05898438 1.94617188 0.57421875 2.43359375 C-8.84387131 12.43665835 -8.58964187 22.88269005 -9 36 C-9.33 36 -9.66 36 -10 36 C-10.14693721 32.35460079 -10.23461003 28.7099762 -10.3125 25.0625 C-10.35439453 24.04091797 -10.39628906 23.01933594 -10.43945312 21.96679688 C-10.55411709 14.78883242 -9.37200389 9.78111018 -5 4 C-2.1875 1.4375 -2.1875 1.4375 0 0 Z " fill="#243A59" transform="translate(260,125)"/>
<path d="M0 0 C3.66716259 1.45257739 5.08446425 3.23461054 7.125 6.5625 C9.01471763 9.87109122 9.01471763 9.87109122 12 12 C16.36052202 19.00326264 16.36052202 19.00326264 17 23 C12.71440585 18.95293613 9.20435478 14.53440101 5.6875 9.8125 C5.13771484 9.08869141 4.58792969 8.36488281 4.02148438 7.61914062 C3.50263672 6.92626953 2.98378906 6.23339844 2.44921875 5.51953125 C1.97830811 4.89151611 1.50739746 4.26350098 1.0222168 3.61645508 C0 2 0 2 0 0 Z " fill="#2F4766" transform="translate(125,272)"/>
<path d="M0 0 C0.33 0 0.66 0 1 0 C1.16916555 3.98325412 1.32953886 7.96676109 1.48217773 11.95068359 C1.56106542 13.96339868 1.64668151 15.97584644 1.73242188 17.98828125 C1.97642994 24.46262845 2.10102013 30.60592753 1 37 C0.34 37 -0.32 37 -1 37 C-1.144375 36.2575 -1.28875 35.515 -1.4375 34.75 C-1.90187492 32.47972261 -2.41863569 30.24240521 -3 28 C-2.34 27.67 -1.68 27.34 -1 27 C-0.67 18.09 -0.34 9.18 0 0 Z " fill="#4C617C" transform="translate(42,352)"/>
<path d="M0 0 C3.27381995 1.28117007 6.47069744 2.65271307 9.64453125 4.1640625 C10.90620117 4.76347656 10.90620117 4.76347656 12.19335938 5.375 C13.05767578 5.7875 13.92199219 6.2 14.8125 6.625 C15.69615234 7.04523437 16.57980469 7.46546875 17.49023438 7.8984375 C19.66081018 8.93092761 21.83070552 9.9648212 24 11 C24 11.33 24 11.66 24 12 C18.05674834 12.65404205 14.23142127 10.46101169 9.1875 7.6875 C8.02444336 7.08131836 8.02444336 7.08131836 6.83789062 6.46289062 C1.13069696 3.39209088 1.13069696 3.39209088 0 0 Z " fill="#314664" transform="translate(566,610)"/>
<path d="M0 0 C-6.72595291 5.69746982 -16.36812423 7.67700986 -25 7 C-20.91241625 4.27494416 -16.61868736 3.20668685 -11.9375 1.8125 C-11.01388672 1.52697266 -10.09027344 1.24144531 -9.13867188 0.94726562 C-8.25630859 0.68236328 -7.37394531 0.41746094 -6.46484375 0.14453125 C-5.656521 -0.09934326 -4.84819824 -0.34321777 -4.01538086 -0.59448242 C-2 -1 -2 -1 0 0 Z " fill="#314867" transform="translate(236,648)"/>
<path d="M0 0 C1 3 1 3 0.04370117 4.99291992 C-0.45154053 5.73131104 -0.94678223 6.46970215 -1.45703125 7.23046875 C-1.99263672 8.03291016 -2.52824219 8.83535156 -3.08007812 9.66210938 C-3.65177734 10.49548828 -4.22347656 11.32886719 -4.8125 12.1875 C-5.37259766 13.03248047 -5.93269531 13.87746094 -6.50976562 14.74804688 C-9.62273902 19.35614011 -9.62273902 19.35614011 -11 21 C-11.66 21 -12.32 21 -13 21 C-11.3518456 15.96617902 -8.39351949 11.9739509 -5.375 7.6875 C-4.859375 6.94693359 -4.34375 6.20636719 -3.8125 5.44335938 C-2.54605274 3.62577303 -1.27514241 1.81149162 0 0 Z " fill="#304563" transform="translate(750,439)"/>
<path d="M0 0 C0.66 0.33 1.32 0.66 2 1 C1.59248958 8.39139585 0.41492814 14.99822721 -2 22 C-2.33 22 -2.66 22 -3 22 C-3.16335585 16.76580643 -2.60552037 12.13693808 -1.5 7.0625 C-1.35691406 6.37865234 -1.21382812 5.69480469 -1.06640625 4.99023438 C-0.71716229 3.32550486 -0.35947054 1.66255125 0 0 Z " fill="#324A69" transform="translate(40,388)"/>
<path d="M0 0 C3 0 3 0 4.61328125 1.50390625 C5.17402344 2.18324219 5.73476562 2.86257812 6.3125 3.5625 C6.91707031 4.28953125 7.52164063 5.0165625 8.14453125 5.765625 C8.75683594 6.50296875 9.36914062 7.2403125 10 8 C10.60199219 8.65484375 11.20398438 9.3096875 11.82421875 9.984375 C12.37722656 10.58765625 12.93023437 11.1909375 13.5 11.8125 C14.0053125 12.35519531 14.510625 12.89789063 15.03125 13.45703125 C15.3509375 13.96621094 15.670625 14.47539062 16 15 C15.67 15.99 15.34 16.98 15 18 C9.62805961 12.23168342 4.38243882 6.57365823 0 0 Z " fill="#2C4362" transform="translate(92,233)"/>
<path d="M0 0 C6.6 0 13.2 0 20 0 C17 4 17 4 14.8125 4.75 C14.214375 4.8325 13.61625 4.915 13 5 C13 4.67 13 4.34 13 4 C12.39671875 3.96261719 11.7934375 3.92523437 11.171875 3.88671875 C10.37265625 3.82097656 9.5734375 3.75523437 8.75 3.6875 C7.96109375 3.62949219 7.1721875 3.57148437 6.359375 3.51171875 C4 3 4 3 0 0 Z " fill="#344A69" transform="translate(609,628)"/>
<path d="M0 0 C3 0 3 0 4.61328125 1.50390625 C5.17402344 2.18324219 5.73476563 2.86257812 6.3125 3.5625 C6.91707031 4.28953125 7.52164062 5.0165625 8.14453125 5.765625 C8.75683594 6.50296875 9.36914062 7.2403125 10 8 C10.60199219 8.65484375 11.20398438 9.3096875 11.82421875 9.984375 C12.37722656 10.58765625 12.93023437 11.1909375 13.5 11.8125 C14.0053125 12.35519531 14.510625 12.89789063 15.03125 13.45703125 C15.3509375 13.96621094 15.670625 14.47539062 16 15 C15.67 15.99 15.34 16.98 15 18 C13.24471987 16.12971875 11.49581545 14.2540838 9.75 12.375 C9.01330078 11.59189453 9.01330078 11.59189453 8.26171875 10.79296875 C5.1075409 7.38645667 2.47712115 3.9280064 0 0 Z " fill="#304867" transform="translate(413,188)"/>
<path d="M0 0 C0 3.86888016 -1.34970635 5.68397594 -3.3125 9 C-3.92738281 10.051875 -4.54226562 11.10375 -5.17578125 12.1875 C-6.65770186 14.47225983 -7.9788563 16.20895574 -10 18 C-9.48530403 13.24082493 -8.18574515 10.17417819 -5.5625 6.1875 C-4.94503906 5.23230469 -4.32757813 4.27710938 -3.69140625 3.29296875 C-2 1 -2 1 0 0 Z " fill="#2D4664" transform="translate(216,545)"/>
<path d="M0 0 C4.11196775 6.16795162 4.26793858 13.76565833 4 21 C3.690625 20.360625 3.38125 19.72125 3.0625 19.0625 C2.1654837 17.06389179 2.1654837 17.06389179 1 16 C-0.00581962 10.63562868 -0.11116338 5.44700547 0 0 Z " fill="#283E5D" transform="translate(258,194)"/>
<path d="M0 0 C5.65724629 0.60183471 10.65231022 2.09307186 16 4 C16.99 4.33 17.98 4.66 19 5 C18.34 5 17.68 5 17 5 C17.33 5.99 17.66 6.98 18 8 C11.79522136 6.06375702 5.89174281 3.74390859 0 1 C0 0.67 0 0.34 0 0 Z " fill="#304766" transform="translate(646,246)"/>
<path d="M0 0 C0.99 0.33 1.98 0.66 3 1 C2.56429688 1.37769531 2.12859375 1.75539063 1.6796875 2.14453125 C-3.65116666 7.07153282 -6.80374242 12.52552952 -10 19 C-11 16 -11 16 -9.70703125 13.22265625 C-9.08183594 12.17980469 -8.45664062 11.13695312 -7.8125 10.0625 C-6.89404297 8.50208984 -6.89404297 8.50208984 -5.95703125 6.91015625 C-4.16757811 4.249193 -2.35171156 2.16399179 0 0 Z " fill="#142B50" transform="translate(373,364)"/>
<path d="M0 0 C4.34863652 0.56444825 7.17827655 2.15427964 10.8125 4.5625 C12.27623047 5.52349609 12.27623047 5.52349609 13.76953125 6.50390625 C14.50558594 6.99761719 15.24164062 7.49132812 16 8 C15.67 8.99 15.34 9.98 15 11 C12.80017677 9.53345118 10.60056332 8.06660866 8.40234375 6.59765625 C6.96193257 5.63972426 5.51780095 4.68730122 4.06640625 3.74609375 C2.69497261 2.85482632 1.34477767 1.93099993 0 1 C0 0.67 0 0.34 0 0 Z " fill="#2F4766" transform="translate(701,273)"/>
<path d="M0 0 C0 0.99 0 1.98 0 3 C-2.07573081 4.20284401 -4.15883095 5.38705701 -6.25 6.5625 C-7.12978516 7.07586914 -7.12978516 7.07586914 -8.02734375 7.59960938 C-12.45794859 10.06382218 -12.45794859 10.06382218 -15.421875 9.71484375 C-15.94265625 9.47894531 -16.4634375 9.24304688 -17 9 C-14.91706723 7.8742531 -12.83367092 6.74937917 -10.75 5.625 C-9.58984375 4.99851562 -8.4296875 4.37203125 -7.234375 3.7265625 C-4.83763374 2.44714265 -2.43911709 1.19540887 0 0 Z " fill="#354A69" transform="translate(258,265)"/>
<path d="M0 0 C0.99 0.33 1.98 0.66 3 1 C2.38125 1.680625 1.7625 2.36125 1.125 3.0625 C-3.38682164 9.29942992 -3.48830361 16.55347091 -4 24 C-4.33 24 -4.66 24 -5 24 C-5.53873239 6.04225352 -5.53873239 6.04225352 0 0 Z " fill="#223856" transform="translate(10,194)"/>
<path d="M0 0 C0 0.66 0 1.32 0 2 C-1.74001935 3.55961601 -3.54303197 5.04949575 -5.375 6.5 C-9.31482541 9.60759138 -9.31482541 9.60759138 -13 13 C-13.99 12.67 -14.98 12.34 -16 12 C-14.41856529 10.56041153 -12.83477221 9.12341355 -11.25 7.6875 C-10.36828125 6.88699219 -9.4865625 6.08648437 -8.578125 5.26171875 C-2.58031088 0 -2.58031088 0 0 0 Z " fill="#2D4464" transform="translate(106,459)"/>
<path d="M0 0 C6.41481258 -0.42765417 11.88595404 1.14256832 18 3 C18 3.66 18 4.32 18 5 C11.80759538 4.31195504 5.98044406 2.71951285 0 1 C0 0.67 0 0.34 0 0 Z " fill="#304867" transform="translate(582,225)"/>
<path d="M0 0 C-0.33 0.99 -0.66 1.98 -1 3 C-6.74357537 4.94871307 -11.97314783 5.25111884 -18 5 C-14.72202643 2.81468429 -12.26369694 2.22146592 -8.4375 1.375 C-6.70306641 0.98441406 -6.70306641 0.98441406 -4.93359375 0.5859375 C-2 0 -2 0 0 0 Z " fill="#2E4361" transform="translate(542,593)"/>
<path d="M0 0 C2.02088013 1.67320183 2.9147728 2.65178602 3.546875 5.234375 C3.96170871 10.37193089 3.99108492 14.93445487 3 20 C2.67 20 2.34 20 2 20 C1.86722656 19.01257813 1.73445313 18.02515625 1.59765625 17.0078125 C1.42105469 15.72648437 1.24445312 14.44515625 1.0625 13.125 C0.88847656 11.84882813 0.71445312 10.57265625 0.53515625 9.2578125 C0.18566773 6.12440546 0.18566773 6.12440546 -1 4 C-0.5625 1.875 -0.5625 1.875 0 0 Z " fill="#415874" transform="translate(39,328)"/>
<path d="M0 0 C2.87310791 3.32588996 3.97084181 6.55462692 5.1875 10.75 C5.70376953 12.50570313 5.70376953 12.50570313 6.23046875 14.296875 C6.48441406 15.18890625 6.73835938 16.0809375 7 17 C4 16 4 16 2.83203125 13.671875 C2.49558594 12.70765625 2.15914062 11.7434375 1.8125 10.75 C1.46832031 9.79609375 1.12414062 8.8421875 0.76953125 7.859375 C0.02396609 5.08905165 -0.15085479 2.85063531 0 0 Z " fill="#2D435F" transform="translate(19,260)"/>
<path d="M0 0 C0.33 0 0.66 0 1 0 C1.04898437 0.81984375 1.09796875 1.6396875 1.1484375 2.484375 C1.22320313 3.56203125 1.29796875 4.6396875 1.375 5.75 C1.44460937 6.81734375 1.51421875 7.8846875 1.5859375 8.984375 C1.97855142 11.84378956 2.57422647 13.53730027 4 16 C4.67966676 17.66140763 5.34938905 19.32700041 6 21 C3 20 3 20 1 18 C-0.35944093 14.34062441 -0.0982257 10.60837513 -0.0625 6.75 C-0.05347656 5.48671875 -0.04445313 4.2234375 -0.03515625 2.921875 C-0.02355469 1.95765625 -0.01195313 0.9934375 0 0 Z " fill="#425670" transform="translate(18,465)"/>
<path d="M0 0 C3.03200339 1.0106678 3.99878825 1.63493157 6 4 C6.33 4.99 6.66 5.98 7 7 C7.99 8.485 7.99 8.485 9 10 C8.625 12.1875 8.625 12.1875 8 14 C6.66101601 12.04532248 5.32870953 10.0866421 4 8.125 C3.2575 7.03445313 2.515 5.94390625 1.75 4.8203125 C0 2 0 2 0 0 Z " fill="#324865" transform="translate(759,320)"/>
<path d="M0 0 C0.66 0 1.32 0 2 0 C0.52519903 3.82448388 -1.45294912 5.25042364 -4.9375 7.3125 C-5.81277344 7.84488281 -6.68804687 8.37726563 -7.58984375 8.92578125 C-10 10 -10 10 -13 9 C-11.71802734 8.15115234 -11.71802734 8.15115234 -10.41015625 7.28515625 C-9.2942305 6.54433159 -8.17834728 5.80344286 -7.0625 5.0625 C-6.49853516 4.68931641 -5.93457031 4.31613281 -5.35351562 3.93164062 C-2.53966389 2.14034283 -2.53966389 2.14034283 0 0 Z " fill="#2E4563" transform="translate(84,475)"/>
<path d="M0 0 C3.80421465 0.58325488 5.84791852 2.28269104 8.6875 4.8125 C9.86892578 5.84310547 9.86892578 5.84310547 11.07421875 6.89453125 C13.0229988 9.02514473 13.62649436 10.18288122 14 13 C12.34049923 11.57757077 10.68126579 10.15484775 9.0234375 8.73046875 C7.67961097 7.5812117 6.33066453 6.43791326 4.9765625 5.30078125 C4.34492187 4.76839844 3.71328125 4.23601562 3.0625 3.6875 C2.47597656 3.19636719 1.88945313 2.70523437 1.28515625 2.19921875 C0.86105469 1.80347656 0.43695312 1.40773438 0 1 C0 0.67 0 0.34 0 0 Z " fill="#2F4765" transform="translate(738,299)"/>
<path d="M0 0 C0.33 0.99 0.66 1.98 1 3 C-0.55164853 4.18106063 -2.11683106 5.34435453 -3.6875 6.5 C-4.99267578 7.47453125 -4.99267578 7.47453125 -6.32421875 8.46875 C-9.2094074 10.11983606 -10.73956555 10.32898077 -14 10 C-11.1738433 7.83996262 -8.28391676 5.8297502 -5.3125 3.875 C-2.51504182 2.11346037 -2.51504182 2.11346037 0 0 Z " fill="#2C425F" transform="translate(645,618)"/>
<path d="M0 0 C5.61 0 11.22 0 17 0 C12.44560358 3.41579732 12.44560358 3.41579732 7.9375 3.375 C7.08027344 3.38273437 6.22304688 3.39046875 5.33984375 3.3984375 C3 3 3 3 0 0 Z " fill="#344968" transform="translate(35,492)"/>
<path d="M0 0 C0 3.88291746 -1.37860494 5.46752535 -3.5 8.6875 C-4.1496875 9.68136719 -4.799375 10.67523437 -5.46875 11.69921875 C-6.22671875 12.83810547 -6.22671875 12.83810547 -7 14 C-7.67578125 12.29296875 -7.67578125 12.29296875 -8 10 C-6.85546875 7.67578125 -6.85546875 7.67578125 -5.1875 5.3125 C-4.64480469 4.52488281 -4.10210937 3.73726562 -3.54296875 2.92578125 C-2 1 -2 1 0 0 Z " fill="#2D4461" transform="translate(193,581)"/>
<path d="M0 0 C0.556875 0.721875 1.11375 1.44375 1.6875 2.1875 C3.98244648 4.97865112 6.4134273 7.47974967 9 10 C10 11 11 12 12 13 C9.20394902 12.91776321 7.47169095 12.41865393 5.3671875 10.55078125 C2.38533578 7.23041013 0.27999125 4.61985569 0 0 Z " fill="#263D5A" transform="translate(168,641)"/>
<path d="M0 0 C2.5625 2.1875 2.5625 2.1875 5 5 C4.8125 7.8125 4.8125 7.8125 4 10 C3.01 9.67 2.02 9.34 1 9 C0.67 6.03 0.34 3.06 0 0 Z " fill="#3B516E" transform="translate(126,448)"/>
<path d="M0 0 C0.80179687 0.00451172 1.60359375 0.00902344 2.4296875 0.01367188 C4.41149006 0.02546832 6.39325433 0.04340395 8.375 0.0625 C8.375 0.3925 8.375 0.7225 8.375 1.0625 C2.435 1.5575 2.435 1.5575 -3.625 2.0625 C-3.625 2.3925 -3.625 2.7225 -3.625 3.0625 C-5.935 3.0625 -8.245 3.0625 -10.625 3.0625 C-10.625 2.4025 -10.625 1.7425 -10.625 1.0625 C-7.31505287 -0.59247356 -3.63377 -0.03834335 0 0 Z " fill="#49607C" transform="translate(445.625,211.9375)"/>
<path d="M0 0 C5.35152885 0.32433508 8.28280043 3.49704824 12 7 C11.67 7.66 11.34 8.32 11 9 C9.16384919 7.69144447 7.33114211 6.37805538 5.5 5.0625 C4.4790625 4.33160156 3.458125 3.60070312 2.40625 2.84765625 C1.6121875 2.23792969 0.818125 1.62820313 0 1 C0 0.67 0 0.34 0 0 Z " fill="#2E4565" transform="translate(721,286)"/>
<path d="M0 0 C0 0.66 0 1.32 0 2 C-1.57914015 2.53341184 -3.16354387 3.05125763 -4.75 3.5625 C-5.63171875 3.85253906 -6.5134375 4.14257812 -7.421875 4.44140625 C-10.07834316 5.01697435 -11.47031106 4.89248371 -14 4 C-12.23141309 3.32739649 -10.46003984 2.66211605 -8.6875 2 C-7.70136719 1.62875 -6.71523438 1.2575 -5.69921875 0.875 C-3 0 -3 0 0 0 Z " fill="#3C516F" transform="translate(63,489)"/>
<path d="M0 0 C0.33 0 0.66 0 1 0 C1.23268915 6.28260706 0.40454548 11.88019467 -1 18 C-1.33 18 -1.66 18 -2 18 C-2.20852314 11.59370576 -2.1583195 6.07027358 0 0 Z " fill="#445973" transform="translate(777,372)"/>
<path d="M0 0 C3.39192363 0.59283621 5.2107757 1.76743189 7.75 4.0625 C8.67039062 4.88427734 8.67039062 4.88427734 9.609375 5.72265625 C10.29773438 6.35494141 10.29773438 6.35494141 11 7 C10.67 7.99 10.34 8.98 10 10 C8.33037631 8.52417192 6.6643694 7.04425109 5 5.5625 C4.071875 4.73878906 3.14375 3.91507813 2.1875 3.06640625 C1.465625 2.38449219 0.74375 1.70257813 0 1 C0 0.67 0 0.34 0 0 Z " fill="#2D4464" transform="translate(390,166)"/>
<path d="M0 0 C0.66 0.66 1.32 1.32 2 2 C1.96712417 4.72869407 1.43602229 7.2966618 1 10 C2.32 9.67 3.64 9.34 5 9 C2.94766315 11.2477975 1.99332739 12.0022242 -1 13 C-0.67 8.71 -0.34 4.42 0 0 Z " fill="#C5D8EE" transform="translate(283,243)"/>
<path d="M0 0 C0.33 1.32 0.66 2.64 1 4 C1.66 4 2.32 4 3 4 C2.67 8.62 2.34 13.24 2 18 C1.67 18 1.34 18 1 18 C0.67 12.06 0.34 6.12 0 0 Z " fill="#4F6682" transform="translate(260,211)"/>
<path d="M0 0 C-1.48781815 3.78717347 -3.61988409 5.77407001 -7 8 C-7.99 7.67 -8.98 7.34 -10 7 C-8.71372289 5.82739389 -7.42080217 4.6620717 -6.125 3.5 C-5.04605469 2.52546875 -5.04605469 2.52546875 -3.9453125 1.53125 C-2 0 -2 0 0 0 Z " fill="#2D4261" transform="translate(685,517)"/>
<path d="M0 0 C0.639375 0.268125 1.27875 0.53625 1.9375 0.8125 C5.91202261 2.35364142 9.94884495 3.67609312 14 5 C14 5.33 14 5.66 14 6 C4.82713348 5.80743982 4.82713348 5.80743982 1.375 2.4375 C0.92125 1.633125 0.4675 0.82875 0 0 Z " fill="#3D5270" transform="translate(153,309)"/>
<path d="M0 0 C4.05606165 0.46800711 7.46588679 0.87953208 11 3 C11 3.66 11 4.32 11 5 C6.87248551 4.39301257 3.6678852 2.96189209 0 1 C0 0.67 0 0.34 0 0 Z " fill="#314865" transform="translate(325,125)"/>
<path d="M0 0 C-3.69172595 3.53790403 -7.09390595 3.59115883 -12 4 C-11 2 -11 2 -9.00390625 1.11328125 C-7.79541016 0.71689453 -7.79541016 0.71689453 -6.5625 0.3125 C-5.75941406 0.04050781 -4.95632812 -0.23148438 -4.12890625 -0.51171875 C-2 -1 -2 -1 0 0 Z " fill="#2B415F" transform="translate(236,648)"/>
<path d="M0 0 C-1.44253657 3.36591866 -3.33264727 5.51047079 -6 8 C-6.99 7.67 -7.98 7.34 -9 7 C-7.88121617 5.82737096 -6.75476949 4.66204862 -5.625 3.5 C-4.68527344 2.52546875 -4.68527344 2.52546875 -3.7265625 1.53125 C-2 0 -2 0 0 0 Z " fill="#2E4362" transform="translate(697,506)"/>
<path d="M0 0 C4.83256305 0.41421969 6.82679218 2.46413986 10 6 C9.67 6.66 9.34 7.32 9 8 C7.49712782 6.85793642 5.99776716 5.71125043 4.5 4.5625 C3.6646875 3.92441406 2.829375 3.28632813 1.96875 2.62890625 C1.3190625 2.09136719 0.669375 1.55382812 0 1 C0 0.67 0 0.34 0 0 Z " fill="#2C4361" transform="translate(379,157)"/>
<path d="M0 0 C4.12989477 4.26311718 4.61271765 7.28758534 5 13 C2.94876752 10.94876752 2.35852882 9.72994937 1.375 7.0625 C0.98441406 6.02802734 0.98441406 6.02802734 0.5859375 4.97265625 C0 3 0 3 0 0 Z " fill="#213A59" transform="translate(645,548)"/>
<path d="M0 0 C1.21236328 0.01353516 1.21236328 0.01353516 2.44921875 0.02734375 C3.37154297 0.04474609 3.37154297 0.04474609 4.3125 0.0625 C1.27724514 2.08600324 0.11823798 2.38374018 -3.375 2.6875 C-4.18324219 2.76226562 -4.99148438 2.83703125 -5.82421875 2.9140625 C-6.43910156 2.96304688 -7.05398438 3.01203125 -7.6875 3.0625 C-7.6875 2.4025 -7.6875 1.7425 -7.6875 1.0625 C-4.80538698 0.10179566 -2.98899956 -0.04331883 0 0 Z " fill="#2E4462" transform="translate(276.6875,116.9375)"/>
<path d="M0 0 C0.66 0.66 1.32 1.32 2 2 C1.34 2 0.68 2 0 2 C-0.268125 2.78375 -0.53625 3.5675 -0.8125 4.375 C-2 7 -2 7 -5 9 C-4.37315423 6.07471973 -3.51695295 3.58774327 -2 1 C-1.34 0.67 -0.68 0.34 0 0 Z " fill="#3A506D" transform="translate(651,610)"/>
<path d="M0 0 C-1.44472346 3.80881639 -3.32603071 5.29742886 -7 7 C-7.99 6.67 -8.98 6.34 -10 6 C-8.71283353 4.99421411 -7.42011342 3.99553202 -6.125 3 C-5.40570312 2.443125 -4.68640625 1.88625 -3.9453125 1.3125 C-2 0 -2 0 0 0 Z " fill="#2F4664" transform="translate(663,535)"/>
<path d="M0 0 C2.39763185 2.39763185 2.34280586 3.33273498 2.625 6.625 C2.69976562 7.44226563 2.77453125 8.25953125 2.8515625 9.1015625 C2.90054688 9.72804688 2.94953125 10.35453125 3 11 C2.34 11 1.68 11 1 11 C0.67 7.37 0.34 3.74 0 0 Z " fill="#304561" transform="translate(36,312)"/>
<path d="M0 0 C3.87132028 0.57352893 6.08172796 2.48704352 9 5 C8.67 5.99 8.34 6.98 8 8 C6.66372225 6.85760183 5.33104612 5.71098945 4 4.5625 C3.2575 3.92441406 2.515 3.28632813 1.75 2.62890625 C1.1725 2.09136719 0.595 1.55382812 0 1 C0 0.67 0 0.34 0 0 Z " fill="#2F4564" transform="translate(68,210)"/>
<path d="M0 0 C3.99455527 0.61454696 6.74466336 2.70646737 10 5 C7 6 7 6 5.17578125 5.22265625 C3.45052083 4.1484375 1.72526042 3.07421875 0 2 C0 1.34 0 0.68 0 0 Z " fill="#304767" transform="translate(347,135)"/>
<path d="M0 0 C-3.79692186 2.82561627 -6.18569279 4.56638908 -11 4 C-3.77464789 -1.88732394 -3.77464789 -1.88732394 0 0 Z " fill="#2A4161" transform="translate(253,641)"/>
<path d="M0 0 C0 0.66 0 1.32 0 2 C0.66 2.33 1.32 2.66 2 3 C-1.63 2.34 -5.26 1.68 -9 1 C-4.82091936 -1.08954032 -4.19589427 -1.16552619 0 0 Z " fill="#405573" transform="translate(362,596)"/>
<path d="M0 0 C-0.53625 0.2475 -1.0725 0.495 -1.625 0.75 C-4.56424252 2.29696975 -7.25754408 4.13014369 -10 6 C-10 3 -10 3 -8.375 1.3125 C-5.41801336 -0.32162419 -3.32820054 -0.22692276 0 0 Z " fill="#3C5271" transform="translate(336,590)"/>
<path d="M0 0 C6.875 3.625 6.875 3.625 8 7 C5.05043472 5.63055898 2.47531189 4.12169591 0 2 C0 1.34 0 0.68 0 0 Z " fill="#2C4464" transform="translate(213,533)"/>
<path d="M0 0 C7.75 0.875 7.75 0.875 10 2 C10 2.66 10 3.32 10 4 C6.44219804 3.39009109 3.3171411 2.4216319 0 1 C0 0.67 0 0.34 0 0 Z " fill="#2F4665" transform="translate(631,240)"/>
<path d="M0 0 C2.39763185 2.39763185 2.34280586 3.33273498 2.625 6.625 C2.69976562 7.44226563 2.77453125 8.25953125 2.8515625 9.1015625 C2.90054688 9.72804687 2.94953125 10.35453125 3 11 C1.03553095 9.3655205 0.07682209 8.53570606 -0.29296875 5.95703125 C-0.1953125 3.97135417 -0.09765625 1.98567708 0 0 Z " fill="#253C5A" transform="translate(253,173)"/>
<path d="M0 0 C3.78786597 0.5260925 6.17152224 1.38103911 9 4 C9 4.66 9 5.32 9 6 C5.06326356 4.68775452 2.77280706 3.08089673 0 0 Z " fill="#2E4462" transform="translate(367,148)"/>
<path d="M0 0 C3.37503669 1.1858237 5.64722731 2.27573689 8 5 C4.62537285 4.45276317 2.91765 3.9451 0 2 C0 1.34 0 0.68 0 0 Z " fill="#2D4561" transform="translate(555,603)"/>
<path d="M0 0 C0.99 0.33 1.98 0.66 3 1 C-0.465 3.97 -0.465 3.97 -4 7 C-3.04065919 3.16263678 -2.76390737 2.40339772 0 0 Z " fill="#1A345C" transform="translate(373,364)"/>
<path d="M0 0 C0 0.33 0 0.66 0 1 C-6.93 0.505 -6.93 0.505 -14 0 C-14 -0.33 -14 -0.66 -14 -1 C-8.58264203 -1.93402724 -5.19548425 -2.20808081 0 0 Z " fill="#566A87" transform="translate(408,605)"/>
<path d="M0 0 C0.9075 0.226875 1.815 0.45375 2.75 0.6875 C2.75 1.0175 2.75 1.3475 2.75 1.6875 C-0.55 2.0175 -3.85 2.3475 -7.25 2.6875 C-3.25 -0.3125 -3.25 -0.3125 0 0 Z " fill="#3E5573" transform="translate(515.25,599.3125)"/>
<path d="M0 0 C2.97 0 5.94 0 9 0 C9.33 0.99 9.66 1.98 10 3 C6.7 2.34 3.4 1.68 0 1 C0 0.67 0 0.34 0 0 Z " fill="#435774" transform="translate(342,593)"/>
<path d="M0 0 C-0.99 0.495 -0.99 0.495 -2 1 C-1.01 2.32 -0.02 3.64 1 5 C-2.65316671 3.75023244 -3.78065836 3.32901247 -6 0 C-3.50907189 -1.24546405 -2.58919267 -0.7767578 0 0 Z " fill="#CBDEF2" transform="translate(574,586)"/>
<path d="M0 0 C0.33 0.99 0.66 1.98 1 3 C-0.28965176 4.37562854 -1.62689293 5.70766393 -3 7 C-3.66 7 -4.32 7 -5 7 C-3.70700306 4.11562221 -2.34058637 2.12780579 0 0 Z " fill="#2F4766" transform="translate(711,490)"/>
<path d="M0 0 C0.33 0.99 0.66 1.98 1 3 C-0.65 4.65 -2.3 6.3 -4 8 C-3.40072174 4.64404172 -2.15377564 2.62198774 0 0 Z " fill="#334964" transform="translate(735,461)"/>
<path d="M0 0 C1.485 0.99 1.485 0.99 3 2 C3.29296875 4.1640625 3.29296875 4.1640625 3.1875 6.625 C3.16042969 7.44226563 3.13335938 8.25953125 3.10546875 9.1015625 C3.07066406 9.72804688 3.03585937 10.35453125 3 11 C2.67 11 2.34 11 2 11 C1.34 7.37 0.68 3.74 0 0 Z " fill="#223A58" transform="translate(773,347)"/>
<path d="M0 0 C2.25 0.25 2.25 0.25 4 1 C2.02 2.32 0.04 3.64 -2 5 C-2.66 4.67 -3.32 4.34 -4 4 C-2.25 1.9375 -2.25 1.9375 0 0 Z " fill="#304664" transform="translate(208,292)"/>
<path d="M0 0 C5.75 0.875 5.75 0.875 8 2 C8 2.66 8 3.32 8 4 C4.31245243 3.50168276 2.39509338 2.89932357 0 0 Z " fill="#2D4464" transform="translate(665,254)"/>
<path d="M0 0 C3.23475448 1.61737724 4.70572021 2.47629223 7 5 C6.67 5.99 6.34 6.98 6 8 C4.02 5.36 2.04 2.72 0 0 Z " fill="#29405E" transform="translate(422,198)"/>
<path d="M0 0 C0.66 0.33 1.32 0.66 2 1 C-1.465 3.97 -1.465 3.97 -5 7 C-3.92643531 2.70574125 -3.4915227 2.25259529 0 0 Z " fill="#273E5D" transform="translate(260,125)"/>
<path d="M0 0 C1.32 0.66 2.64 1.32 4 2 C3.67 2.66 3.34 3.32 3 4 C1.68 3.67 0.36 3.34 -1 3 C-0.67 2.01 -0.34 1.02 0 0 Z " fill="#455A74" transform="translate(175,654)"/>
<path d="M0 0 C0.99 0 1.98 0 3 0 C3 1.65 3 3.3 3 5 C2.01 4.34 1.02 3.68 0 3 C0 2.01 0 1.02 0 0 Z M1 1 C2 3 2 3 2 3 Z " fill="#495B73" transform="translate(14,474)"/>
<path d="M0 0 C2 2 2 2 2.125 5.125 C2.08375 6.07375 2.0425 7.0225 2 8 C0 6 0 6 -0.125 2.875 C-0.08375 1.92625 -0.0425 0.9775 0 0 Z " fill="#4E617E" transform="translate(38,338)"/>
<path d="M0 0 C3.3 0 6.6 0 10 0 C10 0.33 10 0.66 10 1 C6.7 1 3.4 1 0 1 C0 0.67 0 0.34 0 0 Z " fill="#50617A" transform="translate(494,210)"/>
<path d="M0 0 C2.875 -0.125 2.875 -0.125 6 0 C6.66 0.66 7.32 1.32 8 2 C5.36 1.67 2.72 1.34 0 1 C0 0.67 0 0.34 0 0 Z " fill="#4C5F7A" transform="translate(563,218)"/>
<path d="M0 0 C1.32 0.33 2.64 0.66 4 1 C4 1.66 4 2.32 4 3 C2.68 2.67 1.36 2.34 0 2 C0 1.34 0 0.68 0 0 Z " fill="#4A607C" transform="translate(607,631)"/>
<path d="M0 0 C1.65 0 3.3 0 5 0 C4.67 0.66 4.34 1.32 4 2 C2.68 2 1.36 2 0 2 C0 1.34 0 0.68 0 0 Z " fill="#4E637F" transform="translate(414,608)"/>
<path d="M0 0 C1.98 0 3.96 0 6 0 C6 0.33 6 0.66 6 1 C4.02 1 2.04 1 0 1 C0 0.67 0 0.34 0 0 Z " fill="#4A617E" transform="translate(462,608)"/>
<path d="M0 0 C0.33 0.66 0.66 1.32 1 2 C0.01 3.485 0.01 3.485 -1 5 C-0.67 3.35 -0.34 1.7 0 0 Z " fill="#4E627E" transform="translate(39,385)"/>
<path d="M0 0 C1.65 0 3.3 0 5 0 C5 0.33 5 0.66 5 1 C3.35 1 1.7 1 0 1 C0 0.67 0 0.34 0 0 Z " fill="#485F7C" transform="translate(615,632)"/>
<path d="M0 0 C0.33 1.32 0.66 2.64 1 4 C0.34 3.01 -0.32 2.02 -1 1 C-0.67 0.67 -0.34 0.34 0 0 Z " fill="#4A607F" transform="translate(32,307)"/>
<path d="M0 0 C0.66 1.32 1.32 2.64 2 4 C1.34 3.67 0.68 3.34 0 3 C0 2.01 0 1.02 0 0 Z " fill="#49607F" transform="translate(23,280)"/>
<path d="M0 0 C0.66 0 1.32 0 2 0 C2.33 0.99 2.66 1.98 3 3 C2.34 3 1.68 3 1 3 C0.67 2.01 0.34 1.02 0 0 Z " fill="#4C6484" transform="translate(230,275)"/>
<path d="M0 0 C0.33 0.66 0.66 1.32 1 2 C1.66 2.33 2.32 2.66 3 3 C2.01 3 1.02 3 0 3 C0 2.01 0 1.02 0 0 Z " fill="#4D5D75" transform="translate(393,162)"/>
<path d="M0 0 C0.66 0 1.32 0 2 0 C2 0.66 2 1.32 2 2 C1.34 2 0.68 2 0 2 C0 1.34 0 0.68 0 0 Z " fill="#4A6180" transform="translate(584,623)"/>
<path d="M0 0 C4 1 4 1 4 1 Z " fill="#4B5D74" transform="translate(357,599)"/>
<path d="M0 0 C0.99 0.33 1.98 0.66 3 1 C2.01 1 1.02 1 0 1 C0 0.67 0 0.34 0 0 Z " fill="#4F627C" transform="translate(511,210)"/>
<path d="M0 0 C4 1 4 1 4 1 Z " fill="#526276" transform="translate(446,210)"/>
<path d="M0 0 C0 3 0 3 0 3 Z " fill="#4E6380" transform="translate(256,201)"/>
<path d="M0 0 C0.99 0.495 0.99 0.495 2 1 C1.67 1.66 1.34 2.32 1 3 C0.67 2.01 0.34 1.02 0 0 Z " fill="#4E6380" transform="translate(254,194)"/>
<path d="M0 0 C4 1 4 1 4 1 Z " fill="#4B5E74" transform="translate(33,186)"/>
<path d="M0 0 C0.33 0.99 0.66 1.98 1 3 C0.34 2.67 -0.32 2.34 -1 2 C-0.67 1.34 -0.34 0.68 0 0 Z " fill="#4D617B" transform="translate(247,157)"/>
<path d="M0 0 C3 1 3 1 3 1 Z " fill="#526379" transform="translate(449,609)"/>
<path d="M0 0 C3 1 3 1 3 1 Z " fill="#51627D" transform="translate(445,609)"/>
<path d="M0 0 C0.66 0 1.32 0 2 0 C1.67 0.66 1.34 1.32 1 2 C0.67 1.34 0.34 0.68 0 0 Z " fill="#4B607A" transform="translate(401,608)"/>
<path d="M0 0 C3 1 3 1 3 1 Z " fill="#506076" transform="translate(406,607)"/>
<path d="M0 0 C0.99 0.495 0.99 0.495 2 1 C1.01 1.495 1.01 1.495 0 2 C0 1.34 0 0.68 0 0 Z " fill="#4B607B" transform="translate(361,600)"/>
<path d="M0 0 C0.66 0 1.32 0 2 0 C1.67 0.66 1.34 1.32 1 2 C0.67 1.34 0.34 0.68 0 0 Z " fill="#4B5F7E" transform="translate(214,541)"/>
<path d="M0 0 C0.99 0.495 0.99 0.495 2 1 C1.01 1.495 1.01 1.495 0 2 C0 1.34 0 0.68 0 0 Z " fill="#4C5E7A" transform="translate(169,502)"/>
<path d="" fill="#4F627A" transform="translate(0,0)"/>
<path d="" fill="#4E6282" transform="translate(0,0)"/>
<path d="" fill="#4A617E" transform="translate(0,0)"/>
<path d="" fill="#4B6283" transform="translate(0,0)"/>
<path d="" fill="#52647C" transform="translate(0,0)"/>
<path d="M0 0 C0.66 0.66 1.32 1.32 2 2 C1.34 2 0.68 2 0 2 C0 1.34 0 0.68 0 0 Z " fill="#4C6078" transform="translate(22,283)"/>
<path d="M0 0 C0.33 0.66 0.66 1.32 1 2 C0.34 1.67 -0.32 1.34 -1 1 C-0.67 0.67 -0.34 0.34 0 0 Z " fill="#4C5D77" transform="translate(647,242)"/>
<path d="M0 0 C3 1 3 1 3 1 Z " fill="#4F6076" transform="translate(597,226)"/>
<path d="M0 0 C3 1 3 1 3 1 Z " fill="#47586D" transform="translate(19,186)"/>
<path d="M0 0 C0.66 0 1.32 0 2 0 C1.67 0.66 1.34 1.32 1 2 C0.67 1.34 0.34 0.68 0 0 Z " fill="#4B5D78" transform="translate(390,162)"/>
<path d="M0 0 C3 1 3 1 3 1 Z " fill="#506176" transform="translate(296,114)"/>
<path d="M0 0 C2 1 2 1 2 1 Z " fill="#4B5C74" transform="translate(210,657)"/>
<path d="M0 0 C2 1 2 1 2 1 Z " fill="#4D627B" transform="translate(582,622)"/>
<path d="M0 0 C2 1 2 1 2 1 Z " fill="#4D607B" transform="translate(568,615)"/>
<path d="" fill="#4B5E7B" transform="translate(0,0)"/>
<path d="M0 0 C2 1 2 1 2 1 Z " fill="#536278" transform="translate(442,609)"/>
<path d="M0 0 C2 1 2 1 2 1 Z " fill="#496381" transform="translate(471,608)"/>
<path d="M0 0 C2 1 2 1 2 1 Z " fill="#47617E" transform="translate(489,606)"/>
<path d="M0 0 C2 1 2 1 2 1 Z " fill="#4A5F80" transform="translate(395,606)"/>
<path d="M0 0 C2 1 2 1 2 1 Z " fill="#546272" transform="translate(388,605)"/>
<path d="M0 0 C2 1 2 1 2 1 Z " fill="#4E5F73" transform="translate(518,601)"/>
<path d="" fill="#516179" transform="translate(0,0)"/>
<path d="M0 0 C2 1 2 1 2 1 Z " fill="#506075" transform="translate(350,597)"/>
<path d="" fill="#4E5F74" transform="translate(0,0)"/>
<path d="M0 0 C2 1 2 1 2 1 Z " fill="#526174" transform="translate(210,537)"/>
<path d="M0 0 C2 1 2 1 2 1 Z " fill="#4D637E" transform="translate(190,520)"/>
<path d="" fill="#4C5D73" transform="translate(0,0)"/>
<path d="M0 0 C2 1 2 1 2 1 Z " fill="#4B5E7B" transform="translate(46,496)"/>
<path d="M0 0 C2 1 2 1 2 1 Z " fill="#515F77" transform="translate(59,493)"/>
<path d="" fill="#485C79" transform="translate(0,0)"/>
<path d="" fill="#4C5F73" transform="translate(0,0)"/>
<path d="" fill="#52607C" transform="translate(0,0)"/>
<path d="" fill="#4F6177" transform="translate(0,0)"/>
<path d="" fill="#4F5F77" transform="translate(0,0)"/>
<path d="" fill="#4D6177" transform="translate(0,0)"/>
<path d="M0 0 C2 1 2 1 2 1 Z " fill="#526276" transform="translate(32,411)"/>
<path d="" fill="#51647A" transform="translate(0,0)"/>
<path d="" fill="#4A6180" transform="translate(0,0)"/>
<path d="" fill="#4D6077" transform="translate(0,0)"/>
<path d="" fill="#525F71" transform="translate(0,0)"/>
<path d="" fill="#536072" transform="translate(0,0)"/>
<path d="" fill="#506076" transform="translate(0,0)"/>
<path d="M0 0 C2 1 2 1 2 1 Z " fill="#4F6178" transform="translate(179,306)"/>
<path d="" fill="#4E637E" transform="translate(0,0)"/>
<path d="M0 0 C2 1 2 1 2 1 Z " fill="#51627A" transform="translate(199,290)"/>
<path d="" fill="#4F5E73" transform="translate(0,0)"/>
<path d="M0 0 C2 1 2 1 2 1 Z " fill="#4F6077" transform="translate(24,286)"/>
<path d="M0 0 C2 1 2 1 2 1 Z " fill="#536376" transform="translate(222,282)"/>
<path d="M0 0 C2 1 2 1 2 1 Z " fill="#4D6381" transform="translate(130,275)"/>
<path d="M0 0 C2 1 2 1 2 1 Z " fill="#4F5E73" transform="translate(694,266)"/>
<path d="M0 0 C2 1 2 1 2 1 Z " fill="#4B5C74" transform="translate(679,258)"/>
<path d="" fill="#525E72" transform="translate(0,0)"/>
<path d="" fill="#4E6178" transform="translate(0,0)"/>
<path d="M0 0 C2 1 2 1 2 1 Z " fill="#4F617B" transform="translate(602,227)"/>
<path d="M0 0 C2 1 2 1 2 1 Z " fill="#4D6181" transform="translate(533,213)"/>
<path d="" fill="#4F6079" transform="translate(0,0)"/>
<path d="" fill="#4D5C71" transform="translate(0,0)"/>
<path d="" fill="#4F657E" transform="translate(0,0)"/>
<path d="M0 0 C2 1 2 1 2 1 Z " fill="#526177" transform="translate(462,210)"/>
<path d="M0 0 C2 1 2 1 2 1 Z " fill="#4B5E73" transform="translate(454,210)"/>
<path d="M0 0 C2 1 2 1 2 1 Z " fill="#526476" transform="translate(438,210)"/>
<path d="M0 0 C2 1 2 1 2 1 Z " fill="#4F607A" transform="translate(73,210)"/>
<path d="" fill="#4E5D6E" transform="translate(0,0)"/>
<path d="" fill="#51627D" transform="translate(0,0)"/>
<path d="M0 0 C2 1 2 1 2 1 Z " fill="#505E74" transform="translate(418,190)"/>
<path d="M0 0 C2 1 2 1 2 1 Z " fill="#465A75" transform="translate(14,188)"/>
<path d="" fill="#4C5E77" transform="translate(0,0)"/>
<path d="" fill="#506173" transform="translate(0,0)"/>
<path d="M0 0 C2 1 2 1 2 1 Z " fill="#4B6381" transform="translate(370,147)"/>
<path d="M0 0 C2 1 2 1 2 1 Z " fill="#4F5E73" transform="translate(372,146)"/>
<path d="M0 0 C2 1 2 1 2 1 Z " fill="#535D70" transform="translate(330,122)"/>
<path d="M0 0 C2 1 2 1 2 1 Z " fill="#4F5F6F" transform="translate(308,116)"/>
<path d="" fill="#515C6D" transform="translate(0,0)"/>
<path d="" fill="#556275" transform="translate(0,0)"/>
<path d="" fill="#495A70" transform="translate(0,0)"/>
<path d="" fill="#4C5D73" transform="translate(0,0)"/>
<path d="" fill="#485D76" transform="translate(0,0)"/>
<path d="" fill="#506071" transform="translate(0,0)"/>
<path d="" fill="#545E6F" transform="translate(0,0)"/>
<path d="" fill="#495A72" transform="translate(0,0)"/>
<path d="" fill="#505D6F" transform="translate(0,0)"/>
<path d="" fill="#4F5F70" transform="translate(0,0)"/>
<path d="" fill="#4B5972" transform="translate(0,0)"/>
<path d="" fill="#465F7D" transform="translate(0,0)"/>
<path d="" fill="#4A617D" transform="translate(0,0)"/>
<path d="" fill="#4B5D77" transform="translate(0,0)"/>
<path d="" fill="#4F5A6B" transform="translate(0,0)"/>
<path d="" fill="#4F5F77" transform="translate(0,0)"/>
<path d="" fill="#4E5E76" transform="translate(0,0)"/>
<path d="" fill="#4D6175" transform="translate(0,0)"/>
<path d="" fill="#52606D" transform="translate(0,0)"/>
<path d="" fill="#4E6277" transform="translate(0,0)"/>
<path d="" fill="#4A5D74" transform="translate(0,0)"/>
<path d="" fill="#545E6F" transform="translate(0,0)"/>
<path d="" fill="#4C5D75" transform="translate(0,0)"/>
<path d="" fill="#4B5C72" transform="translate(0,0)"/>
<path d="" fill="#515E70" transform="translate(0,0)"/>
<path d="" fill="#525F6F" transform="translate(0,0)"/>
<path d="" fill="#536274" transform="translate(0,0)"/>
<path d="" fill="#4E5E76" transform="translate(0,0)"/>
<path d="" fill="#4D6181" transform="translate(0,0)"/>
<path d="" fill="#4D6079" transform="translate(0,0)"/>
<path d="" fill="#4E617B" transform="translate(0,0)"/>
<path d="" fill="#556275" transform="translate(0,0)"/>
<path d="" fill="#526172" transform="translate(0,0)"/>
<path d="" fill="#4E5D6F" transform="translate(0,0)"/>
<path d="" fill="#4C5D75" transform="translate(0,0)"/>
<path d="" fill="#515E70" transform="translate(0,0)"/>
<path d="" fill="#4E6179" transform="translate(0,0)"/>
<path d="" fill="#4C5F78" transform="translate(0,0)"/>
<path d="" fill="#506179" transform="translate(0,0)"/>
<path d="" fill="#4C6382" transform="translate(0,0)"/>
<path d="" fill="#536178" transform="translate(0,0)"/>
<path d="" fill="#4E5F74" transform="translate(0,0)"/>
<path d="" fill="#475A72" transform="translate(0,0)"/>
<path d="" fill="#556373" transform="translate(0,0)"/>
<path d="" fill="#52626E" transform="translate(0,0)"/>
<path d="" fill="#576476" transform="translate(0,0)"/>
<path d="" fill="#546174" transform="translate(0,0)"/>
<path d="" fill="#536274" transform="translate(0,0)"/>
<path d="" fill="#525F71" transform="translate(0,0)"/>
<path d="" fill="#525F71" transform="translate(0,0)"/>
<path d="" fill="#545E6F" transform="translate(0,0)"/>
<path d="" fill="#4C5F76" transform="translate(0,0)"/>
<path d="" fill="#4E637E" transform="translate(0,0)"/>
<path d="" fill="#4B627F" transform="translate(0,0)"/>
<path d="" fill="#4D6077" transform="translate(0,0)"/>
<path d="" fill="#4F6075" transform="translate(0,0)"/>
<path d="" fill="#536072" transform="translate(0,0)"/>
<path d="" fill="#546176" transform="translate(0,0)"/>
<path d="" fill="#4E6179" transform="translate(0,0)"/>
<path d="" fill="#505C71" transform="translate(0,0)"/>
<path d="" fill="#4C5F76" transform="translate(0,0)"/>
<path d="" fill="#4B6185" transform="translate(0,0)"/>
<path d="" fill="#536072" transform="translate(0,0)"/>
<path d="" fill="#536072" transform="translate(0,0)"/>
<path d="" fill="#4F5F79" transform="translate(0,0)"/>
<path d="" fill="#51617C" transform="translate(0,0)"/>
<path d="" fill="#556275" transform="translate(0,0)"/>
<path d="" fill="#4B6183" transform="translate(0,0)"/>
<path d="" fill="#526477" transform="translate(0,0)"/>
<path d="" fill="#4E5E78" transform="translate(0,0)"/>
<path d="" fill="#536274" transform="translate(0,0)"/>
<path d="" fill="#495C71" transform="translate(0,0)"/>
<path d="" fill="#4B6181" transform="translate(0,0)"/>
<path d="" fill="#525F71" transform="translate(0,0)"/>
<path d="" fill="#556275" transform="translate(0,0)"/>
<path d="" fill="#576474" transform="translate(0,0)"/>
<path d="" fill="#4E6179" transform="translate(0,0)"/>
<path d="" fill="#4C5F76" transform="translate(0,0)"/>
<path d="" fill="#55606E" transform="translate(0,0)"/>
<path d="" fill="#516278" transform="translate(0,0)"/>
<path d="" fill="#4A617D" transform="translate(0,0)"/>
<path d="" fill="#4C6179" transform="translate(0,0)"/>
<path d="" fill="#576474" transform="translate(0,0)"/>
<path d="" fill="#516374" transform="translate(0,0)"/>
<path d="" fill="#51627A" transform="translate(0,0)"/>
<path d="" fill="#566172" transform="translate(0,0)"/>
<path d="" fill="#576476" transform="translate(0,0)"/>
<path d="" fill="#4F6073" transform="translate(0,0)"/>
<path d="" fill="#546176" transform="translate(0,0)"/>
<path d="" fill="#50627C" transform="translate(0,0)"/>
<path d="" fill="#4D617F" transform="translate(0,0)"/>
<path d="" fill="#506071" transform="translate(0,0)"/>
<path d="" fill="#4F5F77" transform="translate(0,0)"/>
<path d="" fill="#515D72" transform="translate(0,0)"/>
<path d="" fill="#4E5E76" transform="translate(0,0)"/>
<path d="" fill="#506071" transform="translate(0,0)"/>
<path d="" fill="#47607C" transform="translate(0,0)"/>
<path d="" fill="#48617F" transform="translate(0,0)"/>
<path d="" fill="#495F7C" transform="translate(0,0)"/>
<path d="" fill="#4A607F" transform="translate(0,0)"/>
<path d="" fill="#516278" transform="translate(0,0)"/>
<path d="" fill="#536072" transform="translate(0,0)"/>
<path d="" fill="#4E5D73" transform="translate(0,0)"/>
<path d="" fill="#505F75" transform="translate(0,0)"/>
<path d="" fill="#556373" transform="translate(0,0)"/>
<path d="" fill="#536276" transform="translate(0,0)"/>
<path d="" fill="#49607A" transform="translate(0,0)"/>
<path d="" fill="#506071" transform="translate(0,0)"/>
<path d="" fill="#4E5E76" transform="translate(0,0)"/>
<path d="" fill="#545E6F" transform="translate(0,0)"/>
<path d="" fill="#4B5A6C" transform="translate(0,0)"/>
<path d="" fill="#4A5B73" transform="translate(0,0)"/>
<path d="" fill="#485C7A" transform="translate(0,0)"/>
<path d="" fill="#47566C" transform="translate(0,0)"/>
<path d="" fill="#4F6075" transform="translate(0,0)"/>
<path d="" fill="#526172" transform="translate(0,0)"/>
<path d="" fill="#4E5D73" transform="translate(0,0)"/>
<path d="" fill="#4E5967" transform="translate(0,0)"/>
<path d="" fill="#556070" transform="translate(0,0)"/>
<path d="" fill="#4E5E76" transform="translate(0,0)"/>
<path d="" fill="#506179" transform="translate(0,0)"/>
<path d="" fill="#515F6C" transform="translate(0,0)"/>
<path d="" fill="#50637A" transform="translate(0,0)"/>
<path d="" fill="#505F75" transform="translate(0,0)"/>
<path d="" fill="#52606D" transform="translate(0,0)"/>
<path d="" fill="#536072" transform="translate(0,0)"/>
<path d="" fill="#4F5F7B" transform="translate(0,0)"/>
<path d="" fill="#495A72" transform="translate(0,0)"/>
<path d="" fill="#525F7B" transform="translate(0,0)"/>
<path d="" fill="#4C5D73" transform="translate(0,0)"/>
<path d="" fill="#4D617F" transform="translate(0,0)"/>
<path d="" fill="#4C5D75" transform="translate(0,0)"/>
<path d="" fill="#4E6277" transform="translate(0,0)"/>
<path d="" fill="#546174" transform="translate(0,0)"/>
<path d="" fill="#576275" transform="translate(0,0)"/>
<path d="" fill="#4E6277" transform="translate(0,0)"/>
<path d="" fill="#52647E" transform="translate(0,0)"/>
<path d="" fill="#4A5B73" transform="translate(0,0)"/>
<path d="" fill="#495F7C" transform="translate(0,0)"/>
<path d="" fill="#4F5F77" transform="translate(0,0)"/>
<path d="" fill="#4F5F77" transform="translate(0,0)"/>
<path d="" fill="#4C5D75" transform="translate(0,0)"/>
<path d="" fill="#55657D" transform="translate(0,0)"/>
<path d="" fill="#50637A" transform="translate(0,0)"/>
<path d="" fill="#516278" transform="translate(0,0)"/>
<path d="" fill="#4E6179" transform="translate(0,0)"/>
<path d="" fill="#576476" transform="translate(0,0)"/>
<path d="" fill="#506179" transform="translate(0,0)"/>
<path d="" fill="#536072" transform="translate(0,0)"/>
<path d="" fill="#536072" transform="translate(0,0)"/>
<path d="" fill="#525F71" transform="translate(0,0)"/>
<path d="" fill="#4D6077" transform="translate(0,0)"/>
<path d="" fill="#525F71" transform="translate(0,0)"/>
<path d="" fill="#4F6073" transform="translate(0,0)"/>
<path d="" fill="#536274" transform="translate(0,0)"/>
<path d="" fill="#4A5D72" transform="translate(0,0)"/>
<path d="" fill="#505F77" transform="translate(0,0)"/>
<path d="" fill="#525F71" transform="translate(0,0)"/>
<path d="" fill="#546174" transform="translate(0,0)"/>
<path d="" fill="#525E75" transform="translate(0,0)"/>
<path d="" fill="#4B5D77" transform="translate(0,0)"/>
<path d="" fill="#505D6F" transform="translate(0,0)"/>
<path d="" fill="#525F71" transform="translate(0,0)"/>
<path d="" fill="#555F72" transform="translate(0,0)"/>
<path d="" fill="#4C5F78" transform="translate(0,0)"/>
<path d="" fill="#55657F" transform="translate(0,0)"/>
<path d="" fill="#52657C" transform="translate(0,0)"/>
<path d="" fill="#4D6175" transform="translate(0,0)"/>
<path d="" fill="#556275" transform="translate(0,0)"/>
<path d="" fill="#4B6181" transform="translate(0,0)"/>
<path d="" fill="#546272" transform="translate(0,0)"/>
<path d="" fill="#4E5E76" transform="translate(0,0)"/>
<path d="" fill="#4B6384" transform="translate(0,0)"/>
<path d="" fill="#4A6281" transform="translate(0,0)"/>
<path d="" fill="#556275" transform="translate(0,0)"/>
<path d="" fill="#545E6F" transform="translate(0,0)"/>
<path d="" fill="#516278" transform="translate(0,0)"/>
<path d="" fill="#525F71" transform="translate(0,0)"/>
<path d="" fill="#50627C" transform="translate(0,0)"/>
<path d="" fill="#52637B" transform="translate(0,0)"/>
<path d="" fill="#495F7E" transform="translate(0,0)"/>
<path d="" fill="#52647E" transform="translate(0,0)"/>
<path d="" fill="#52637B" transform="translate(0,0)"/>
<path d="" fill="#556373" transform="translate(0,0)"/>
<path d="" fill="#51617C" transform="translate(0,0)"/>
<path d="" fill="#505F75" transform="translate(0,0)"/>
<path d="" fill="#555F72" transform="translate(0,0)"/>
<path d="" fill="#576476" transform="translate(0,0)"/>
<path d="" fill="#545E6F" transform="translate(0,0)"/>
<path d="" fill="#53647E" transform="translate(0,0)"/>
<path d="" fill="#4E5C75" transform="translate(0,0)"/>
<path d="" fill="#4B5D77" transform="translate(0,0)"/>
<path d="" fill="#4D617D" transform="translate(0,0)"/>
<path d="" fill="#55697E" transform="translate(0,0)"/>
<path d="" fill="#51677D" transform="translate(0,0)"/>
<path d="" fill="#566074" transform="translate(0,0)"/>
<path d="" fill="#556070" transform="translate(0,0)"/>
<path d="" fill="#4C5D75" transform="translate(0,0)"/>
<path d="" fill="#515E6E" transform="translate(0,0)"/>
<path d="" fill="#495F7C" transform="translate(0,0)"/>
<path d="" fill="#536072" transform="translate(0,0)"/>
<path d="" fill="#4C5F7F" transform="translate(0,0)"/>
<path d="" fill="#4B627F" transform="translate(0,0)"/>
<path d="" fill="#526172" transform="translate(0,0)"/>
<path d="" fill="#4E6179" transform="translate(0,0)"/>
<path d="" fill="#556275" transform="translate(0,0)"/>
<path d="" fill="#505F73" transform="translate(0,0)"/>
<path d="" fill="#536070" transform="translate(0,0)"/>
<path d="" fill="#525F71" transform="translate(0,0)"/>
<path d="" fill="#536276" transform="translate(0,0)"/>
<path d="" fill="#515E6E" transform="translate(0,0)"/>
<path d="" fill="#4C5D77" transform="translate(0,0)"/>
<path d="" fill="#52627D" transform="translate(0,0)"/>
<path d="" fill="#505D6F" transform="translate(0,0)"/>
<path d="" fill="#506177" transform="translate(0,0)"/>
<path d="" fill="#4E5E78" transform="translate(0,0)"/>
<path d="" fill="#506071" transform="translate(0,0)"/>
<path d="" fill="#50637A" transform="translate(0,0)"/>
<path d="" fill="#536072" transform="translate(0,0)"/>
<path d="" fill="#48617F" transform="translate(0,0)"/>
<path d="" fill="#515E6E" transform="translate(0,0)"/>
<path d="" fill="#526172" transform="translate(0,0)"/>
<path d="" fill="#4F6383" transform="translate(0,0)"/>
<path d="" fill="#566074" transform="translate(0,0)"/>
<path d="" fill="#50637A" transform="translate(0,0)"/>
<path d="" fill="#52637B" transform="translate(0,0)"/>
<path d="" fill="#4C5F76" transform="translate(0,0)"/>
<path d="" fill="#50607B" transform="translate(0,0)"/>
<path d="" fill="#4C5D73" transform="translate(0,0)"/>
<path d="" fill="#506179" transform="translate(0,0)"/>
<path d="" fill="#4D627B" transform="translate(0,0)"/>
<path d="" fill="#4B6181" transform="translate(0,0)"/>
<path d="" fill="#536075" transform="translate(0,0)"/>
<path d="" fill="#556478" transform="translate(0,0)"/>
<path d="" fill="#4F6073" transform="translate(0,0)"/>
<path d="" fill="#50627C" transform="translate(0,0)"/>
<path d="" fill="#4E5F74" transform="translate(0,0)"/>
<path d="" fill="#4E617D" transform="translate(0,0)"/>
<path d="" fill="#505D6F" transform="translate(0,0)"/>
<path d="" fill="#546272" transform="translate(0,0)"/>
<path d="" fill="#506482" transform="translate(0,0)"/>
<path d="" fill="#52647E" transform="translate(0,0)"/>
<path d="" fill="#515C6F" transform="translate(0,0)"/>
<path d="" fill="#4F6075" transform="translate(0,0)"/>
<path d="" fill="#525E75" transform="translate(0,0)"/>
<path d="" fill="#4E5969" transform="translate(0,0)"/>
<path d="" fill="#546375" transform="translate(0,0)"/>
<path d="" fill="#566170" transform="translate(0,0)"/>
<path d="" fill="#4D5F7B" transform="translate(0,0)"/>
<path d="" fill="#506177" transform="translate(0,0)"/>
<path d="" fill="#495B77" transform="translate(0,0)"/>
<path d="" fill="#505F77" transform="translate(0,0)"/>
<path d="" fill="#4A617D" transform="translate(0,0)"/>
<path d="" fill="#4C5A67" transform="translate(0,0)"/>
<path d="" fill="#526170" transform="translate(0,0)"/>
<path d="" fill="#526170" transform="translate(0,0)"/>
<path d="" fill="#525F6F" transform="translate(0,0)"/>
<path d="" fill="#546174" transform="translate(0,0)"/>
<path d="" fill="#506179" transform="translate(0,0)"/>
<path d="" fill="#506177" transform="translate(0,0)"/>
<path d="" fill="#546174" transform="translate(0,0)"/>
<path d="" fill="#505D6D" transform="translate(0,0)"/>
<path d="" fill="#4E5E76" transform="translate(0,0)"/>
<path d="" fill="#526079" transform="translate(0,0)"/>
<path d="" fill="#4F5F77" transform="translate(0,0)"/>
<path d="" fill="#526175" transform="translate(0,0)"/>
<path d="" fill="#536072" transform="translate(0,0)"/>
<path d="" fill="#4A5C78" transform="translate(0,0)"/>
<path d="" fill="#4E617B" transform="translate(0,0)"/>
<path d="" fill="#4E5F74" transform="translate(0,0)"/>
<path d="" fill="#4B5B76" transform="translate(0,0)"/>
<path d="" fill="#505D6F" transform="translate(0,0)"/>
<path d="" fill="#536070" transform="translate(0,0)"/>
<path d="" fill="#506179" transform="translate(0,0)"/>
<path d="" fill="#51627A" transform="translate(0,0)"/>
<path d="" fill="#4C5D75" transform="translate(0,0)"/>
<path d="" fill="#51647B" transform="translate(0,0)"/>
<path d="" fill="#515C6D" transform="translate(0,0)"/>
<path d="" fill="#515E70" transform="translate(0,0)"/>
<path d="" fill="#4E5F74" transform="translate(0,0)"/>
<path d="" fill="#4C607D" transform="translate(0,0)"/>
<path d="" fill="#505B6A" transform="translate(0,0)"/>
<path d="" fill="#4B5D77" transform="translate(0,0)"/>
<path d="" fill="#506179" transform="translate(0,0)"/>
<path d="" fill="#505F77" transform="translate(0,0)"/>
<path d="" fill="#535C6B" transform="translate(0,0)"/>
<path d="" fill="#4A5D74" transform="translate(0,0)"/>
<path d="" fill="#4E5E76" transform="translate(0,0)"/>
<path d="" fill="#4C5D73" transform="translate(0,0)"/>
</svg>
