<?xml version="1.0" encoding="UTF-8"?>
<svg version="1.1" xmlns="http://www.w3.org/2000/svg" width="822" height="822">
<path d="M0 0 C1.55044476 -0.00417935 3.10088646 -0.00966016 4.65132254 -0.01631981 C8.88649453 -0.03071444 13.12147092 -0.02654851 17.35665333 -0.019153 C21.93415767 -0.01440871 26.51162046 -0.02694235 31.08911133 -0.03717041 C40.04727312 -0.05433951 49.00536471 -0.05520228 57.96353868 -0.04995751 C65.24767933 -0.04591079 72.53179929 -0.04736533 79.81593895 -0.05270576 C80.85394227 -0.05345419 81.89194558 -0.05420261 82.96140354 -0.05497371 C85.07033844 -0.05650524 87.17927333 -0.05804359 89.28820821 -0.05958868 C109.0520944 -0.07330707 128.81594098 -0.06788084 148.57982626 -0.05640347 C166.64364989 -0.04647343 184.70737105 -0.05940898 202.77117888 -0.08333766 C221.33770912 -0.10774617 239.90419168 -0.11733212 258.47073764 -0.11068493 C268.88696344 -0.1071964 279.30311047 -0.10940054 289.71932411 -0.12693596 C298.58708214 -0.1416799 307.45470594 -0.14226481 316.3224614 -0.12486505 C320.8427261 -0.11637044 325.36275122 -0.11416768 329.88300323 -0.1295166 C334.02901735 -0.1434199 338.17458793 -0.13852873 342.32057675 -0.11927737 C343.81241054 -0.11553423 345.30428034 -0.11839016 346.79608188 -0.12888902 C364.82230253 -0.24663072 380.04927861 4.57196537 393.21965027 17.1181488 C394.34693542 18.24156677 394.34693542 18.24156677 395.49699402 19.38768005 C396.13507996 20.00256287 396.77316589 20.61744568 397.43058777 21.2509613 C408.06887437 32.3157271 413.01739944 47.82117622 412.83757019 62.90794373 C412.83800827 63.89466064 412.83844635 64.88137756 412.83889771 65.897995 C412.8368293 69.11742346 412.81359106 72.33631279 412.78996277 75.5556488 C412.78435988 77.80436926 412.78009306 80.0530934 412.77709961 82.30181885 C412.76570545 88.18890183 412.73628538 94.07575889 412.70298767 99.9627533 C412.67216924 105.98261968 412.65856921 112.00252296 412.64347839 118.02244568 C412.61141017 129.8109558 412.56028008 141.59929906 412.49699402 153.38768005 C411.83699402 153.38768005 411.17699402 153.38768005 410.49699402 153.38768005 C410.43511902 154.19205505 410.37324402 154.99643005 410.30949402 155.82518005 C408.0317393 165.81225845 401.41909074 173.61667216 392.89543152 178.99705505 C386.70765678 182.58475506 381.73575262 185.00374462 374.49699402 184.38768005 C374.16699402 185.04768005 373.83699402 185.70768005 373.49699402 186.38768005 C371.18699402 186.05768005 368.87699402 185.72768005 366.49699402 185.38768005 C366.49699402 186.04768005 366.49699402 186.70768005 366.49699402 187.38768005 C365.17699402 187.38768005 363.85699402 187.38768005 362.49699402 187.38768005 C363.52850431 197.41822844 366.11637091 207.13924721 373.49699402 214.38768005 C373.49699402 215.04768005 373.49699402 215.70768005 373.49699402 216.38768005 C374.06933777 216.65580505 374.64168152 216.92393005 375.23136902 217.20018005 C377.57729169 218.42976711 379.60545015 219.8301936 381.74699402 221.38768005 C386.35816895 224.65679661 391.08033473 227.70566463 395.87199402 230.70018005 C396.56196472 231.13266052 397.25193542 231.56514099 397.96281433 232.01072693 C401.70968212 234.34648563 401.70968212 234.34648563 405.60905457 236.41062927 C407.97858807 237.63691572 409.23790937 239.15095657 410.93449402 241.20018005 C412.88136319 243.50177539 414.80044777 245.6911338 416.93449402 247.82518005 C423.88208189 254.77276792 429.07500538 261.64319717 433.73527527 270.2509613 C435.3557269 273.30436212 435.3557269 273.30436212 437.13761902 275.5478363 C439.723123 279.04718222 440.40530362 283.2317761 441.49699402 287.38768005 C441.74117535 288.31437076 441.74117535 288.31437076 441.99028963 289.25978249 C444.96857102 300.80948731 446.07473426 311.59194396 446.00492859 323.48985291 C446.0095511 325.23735524 446.01591297 326.98485367 446.02383757 328.73234415 C446.04036886 333.47989901 446.03235925 338.22712779 446.01989269 342.97468305 C446.01077738 348.11588457 446.02484381 353.25703315 446.03581238 358.39822388 C446.0535335 368.44833323 446.04978628 378.49832261 446.03816181 388.54843652 C446.02910244 396.72148961 446.02791429 404.89450924 446.03225708 413.06756592 C446.03287001 414.23390789 446.03348294 415.40024987 446.03411445 416.60193554 C446.03539344 418.97185577 446.0366903 421.34177599 446.03800482 423.71169621 C446.04939185 445.8978863 446.03632641 468.08401012 446.01480335 490.27018934 C445.9969341 509.27797332 446.00003873 528.28565956 446.01847839 547.29344177 C446.03991831 569.40404858 446.04829339 591.5145974 446.03602934 613.62521315 C446.03475524 615.98607349 446.03349775 618.34693383 446.03225708 620.70779419 C446.03163998 621.86917024 446.03102288 623.03054628 446.03038707 624.22711554 C446.02694353 632.38370406 446.03274098 640.54025559 446.04217529 648.69683838 C446.05343139 658.64651056 446.0502796 668.59605663 446.02905232 678.5457145 C446.01859036 683.61535713 446.01433661 688.68479002 446.02764893 693.75443077 C446.03968005 698.4067635 446.03283615 703.05869461 446.01173872 707.71099156 C446.0073176 709.38236036 446.00943599 711.053764 446.01924187 712.72510988 C446.16504164 739.66975995 437.71076745 763.20817054 419.49699402 783.38768005 C406.95621276 795.92846132 392.0158308 804.33613821 374.91862488 808.79051208 C373.09714019 809.271803 371.294592 809.82368633 369.49699402 810.38768005 C369.16699402 811.04768005 368.83699402 811.70768005 368.49699402 812.38768005 C368.16699402 812.05768005 367.83699402 811.72768005 367.49699402 811.38768005 C366.08319882 811.28836386 364.66426553 811.2579871 363.24699402 811.26268005 C362.09457214 811.25881287 362.09457214 811.25881287 360.91886902 811.25486755 C358.50589964 811.32157744 358.50589964 811.32157744 356.23327196 811.88811576 C353.19666273 812.44251176 350.38177189 812.5130592 347.29467201 812.51352119 C345.41040597 812.51743282 345.41040597 812.51743282 343.48807395 812.52142346 C342.09664815 812.51926146 340.7052225 812.51700481 339.313797 812.5146637 C337.83366685 812.51581588 336.35353699 812.51740406 334.87340772 812.51939094 C330.80504602 812.52357098 326.73670773 812.52149951 322.66834593 812.51840472 C318.28107258 812.51614544 313.8938033 812.51963291 309.50653076 812.52238464 C300.91086411 812.52683586 292.31520618 812.52586868 283.71953918 812.522972 C276.73363773 812.52071514 269.74773872 812.52040668 262.76183701 812.52149582 C261.76818083 812.52164905 260.77452466 812.52180229 259.75075769 812.52196016 C257.73224247 812.52227988 255.71372726 812.5226041 253.69521205 812.52293275 C234.75803168 812.52578572 215.82085615 812.52250354 196.88367657 812.51713239 C180.63303517 812.51266589 164.38240092 812.51343936 148.13175964 812.51805115 C129.2662028 812.52340251 110.40065021 812.5255096 91.53509271 812.52243888 C89.52332266 812.52212033 87.51155261 812.52180596 85.49978256 812.52149582 C84.5099269 812.52134154 83.52007124 812.52118727 82.50021995 812.52102832 C75.5233504 812.52016475 68.54648354 812.52162263 61.56961441 812.52397537 C53.06606705 812.52677985 44.56252893 812.52602144 36.05898263 812.52069463 C31.71995458 812.51806619 27.38094192 812.51703807 23.04191399 812.52034378 C19.06949524 812.52332441 15.09710615 812.5216844 11.1246901 812.51636623 C9.68798188 812.51524959 8.25127115 812.51581655 6.81456454 812.51824202 C4.8600442 812.52128841 2.90551684 812.51756188 0.95099831 812.51352119 C-0.13419008 812.51335884 -1.21937846 812.51319649 -2.33745134 812.51302922 C-5.78067218 812.37668507 -9.09897892 811.91054556 -12.50300598 811.38768005 C-14.10559503 811.30524733 -15.71080812 811.2570594 -17.31550598 811.26268005 C-18.06445129 811.26010193 -18.81339661 811.2575238 -19.58503723 811.25486755 C-21.5881951 811.27012574 -21.5881951 811.27012574 -23.50300598 812.38768005 C-25.19588383 811.43272332 -26.86157635 810.42858665 -28.50300598 809.38768005 C-29.49300598 809.05768005 -30.48300598 808.72768005 -31.50300598 808.38768005 C-31.83300598 809.04768005 -32.16300598 809.70768005 -32.50300598 810.38768005 C-33.49300598 810.05768005 -34.48300598 809.72768005 -35.50300598 809.38768005 C-35.50300598 808.72768005 -35.50300598 808.06768005 -35.50300598 807.38768005 C-36.31382629 807.09635193 -37.12464661 806.8050238 -37.96003723 806.50486755 C-51.59904334 801.45573607 -61.79624162 795.03945032 -72.50300598 785.38768005 C-73.50654114 784.52723083 -73.50654114 784.52723083 -74.53034973 783.6493988 C-85.4682493 773.68947613 -91.43613497 759.94731781 -96.50300598 746.38768005 C-96.87425598 745.48275818 -97.24550598 744.5778363 -97.62800598 743.64549255 C-99.41540364 739.03336824 -99.62974096 735.0717561 -99.63443375 730.10421753 C-99.63648638 729.36537801 -99.63853901 728.62653849 -99.64065385 727.86530989 C-99.64633303 725.37592384 -99.64486546 722.88659295 -99.64344788 720.39720154 C-99.646031 718.59976322 -99.64904401 716.80232548 -99.65245128 715.00488853 C-99.66053099 710.05460267 -99.66231139 705.1043313 -99.66304874 700.15403962 C-99.66489766 694.81912995 -99.67244426 689.48422783 -99.67918396 684.14932251 C-99.69277559 672.4776393 -99.69879354 660.80595952 -99.70319462 649.13426971 C-99.70595613 641.84681119 -99.71019336 634.55935399 -99.71469879 627.27189636 C-99.72689347 607.0971739 -99.73719179 586.92245251 -99.74057388 566.74772644 C-99.74079345 565.45603955 -99.74101302 564.16435266 -99.74123923 562.83352375 C-99.74145751 561.53872939 -99.74167579 560.24393503 -99.74190068 558.90990448 C-99.74234415 556.28612264 -99.74279071 553.6623408 -99.74324036 551.03855896 C-99.74346179 549.73707004 -99.74368322 548.43558111 -99.74391136 547.09465313 C-99.74785818 526.01242219 -99.76530778 504.93022585 -99.78859988 483.84800828 C-99.81231767 462.20582482 -99.82477596 440.56365872 -99.8259418 418.92146206 C-99.82685842 406.76922155 -99.83260727 394.61702608 -99.85076141 382.46479797 C-99.86616827 372.1149971 -99.87127945 361.76525519 -99.86302331 351.41544503 C-99.85911866 346.1360415 -99.86003743 340.85675668 -99.87408066 335.57736778 C-99.88683066 330.73982461 -99.88561231 325.90248922 -99.87348995 321.06494629 C-99.87153484 319.31923608 -99.87460272 317.57351109 -99.88333431 315.82782161 C-99.9279198 306.30756734 -99.46093323 297.546405 -96.50300598 288.38768005 C-97.16300598 288.05768005 -97.82300598 287.72768005 -98.50300598 287.38768005 C-97.51300598 287.38768005 -96.52300598 287.38768005 -95.50300598 287.38768005 C-95.37538879 286.15018005 -95.37538879 286.15018005 -95.24519348 284.88768005 C-94.3401773 280.61981426 -92.6423965 277.22874011 -90.62800598 273.38768005 C-90.27609192 272.7018988 -89.92417786 272.01611755 -89.56159973 271.30955505 C-88.87047795 269.96328065 -88.17535334 268.61905232 -87.47590637 267.27708435 C-86.58300658 265.54304383 -85.7303732 263.78842329 -84.88191223 262.0322113 C-83.20035938 258.80725017 -81.13607231 256.90372121 -78.50300598 254.38768005 C-77.28964516 252.975317 -76.08184844 251.55816491 -74.87800598 250.13768005 C-65.33431894 239.36312496 -52.932874 231.32702614 -40.75300598 223.82518005 C-29.74915808 216.80962637 -22.52983638 209.33062776 -19.47175598 196.2822113 C-18.70276962 192.66865216 -18.07155123 189.03833899 -17.50300598 185.38768005 C-17.83300598 187.03768005 -18.16300598 188.68768005 -18.50300598 190.38768005 C-18.83300598 189.39768005 -19.16300598 188.40768005 -19.50300598 187.38768005 C-23.13300598 187.71768005 -26.76300598 188.04768005 -30.50300598 188.38768005 C-30.17300598 187.72768005 -29.84300598 187.06768005 -29.50300598 186.38768005 C-30.66316223 186.02416443 -30.66316223 186.02416443 -31.84675598 185.65330505 C-46.25975964 181.01545734 -55.607095 175.90629669 -63.16706848 162.2743988 C-64.7612375 158.82968856 -65.25298734 156.13795962 -65.50300598 152.38768005 C-66.16300598 152.05768005 -66.82300598 151.72768005 -67.50300598 151.38768005 C-67.57261886 138.37438647 -67.62587467 125.36113744 -67.6584425 112.34769535 C-67.67407604 106.30456003 -67.6952723 100.26155243 -67.72932434 94.2184906 C-67.7619999 88.382967 -67.77987638 82.54756599 -67.78763771 76.71195793 C-67.79316648 74.48929859 -67.80396278 72.26664571 -67.82019615 70.04403877 C-67.84207908 66.92284443 -67.84496833 63.80215207 -67.84358215 60.68089294 C-67.85436798 59.76882584 -67.86515381 58.85675873 -67.87626648 57.91705322 C-67.80349333 42.70240016 -59.78470747 28.58323022 -49.26081848 18.01268005 C-34.9473901 4.38856692 -19.46606017 -0.08593447 0 0 Z " fill="#294061" transform="translate(240.5030059814453,1.6123199462890625)"/>
<path d="M0 0 C161.7 0 323.4 0 490 0 C490 78.54 490 157.08 490 238 C328.3 238 166.6 238 0 238 C0 159.46 0 80.92 0 0 Z " fill="#93ACD9" transform="translate(168,369)"/>
<path d="M0 0 C161.7 0 323.4 0 490 0 C490 115.02370084 490 115.02370084 470.90234375 134.3359375 C466.62398028 138.26304906 462.08529122 141.22762071 457 144 C455.96939453 144.59554687 455.96939453 144.59554687 454.91796875 145.203125 C444.49629141 150.89153544 433.73576789 151.43760301 422.11735535 151.38768005 C420.52566269 151.39185907 418.93397301 151.3973397 417.34228879 151.40399987 C412.99310272 151.41839883 408.64410704 151.41422718 404.29491079 151.40683305 C399.59470638 151.40208985 394.89454249 151.41462145 390.1943512 151.42485046 C380.99555523 151.44202166 371.79682763 151.4428819 362.5980198 151.43763756 C355.11841783 151.43359125 347.63883601 151.4350449 340.159235 151.44038582 C338.56059961 151.44150845 338.56059961 151.44150845 336.92966855 151.44265376 C334.76436366 151.44418529 332.59905877 151.44572364 330.43375389 151.44726873 C310.14051681 151.46098788 289.84731832 151.45556035 269.55408213 151.44408352 C251.00527005 151.43415333 232.45655775 151.44708916 213.90776106 151.47101771 C194.84402564 151.4954245 175.78033666 151.50501259 156.71658593 151.49836498 C146.02090415 151.49487608 135.32529908 151.49708306 124.62962914 151.51461601 C115.52398658 151.5293578 106.41847475 151.52994766 97.3128347 151.5125451 C92.67105622 151.50404875 88.02951106 151.50185207 83.3877449 151.51719666 C79.13070944 151.53109466 74.87410607 151.52621543 70.61709527 151.50695742 C69.08488487 151.50321268 67.55263943 151.50607491 66.02046039 151.51656907 C46.9370516 151.63788231 31.54517226 146.10204577 17.609375 132.87109375 C-14.50023052 97.54091403 0 42.46548163 0 0 Z " fill="#CFDEF1" transform="translate(168,634)"/>
<path d="M0 0 C107.58 0 215.16 0 326 0 C326.66 6.6 327.32 13.2 328 20 C334.5424388 40.71772286 347.60386129 55.01286511 365.8125 66.375 C385.53562277 78.96806595 401.04282277 93.57516748 407 117 C409.19267139 130.15602832 408 143.66250065 408 157 C246.3 157 84.6 157 -82 157 C-82 114.72232555 -82 114.72232555 -75.5 102.0625 C-75.15888184 101.39283203 -74.81776367 100.72316406 -74.46630859 100.03320312 C-65.77086122 83.73165363 -51.78949693 74.14209265 -36.69555664 64.21875 C-30.24666423 59.93832289 -24.38824344 55.59200055 -19 50 C-18.17242187 49.16855469 -18.17242187 49.16855469 -17.328125 48.3203125 C-4.47699603 34.47553953 -1.22139768 18.32096526 0 0 Z " fill="#CEDDF0" transform="translate(250,185)"/>
<path d="M0 0 C1.86398438 0.02707031 1.86398438 0.02707031 3.765625 0.0546875 C6.80290966 0.10141496 9.83852939 0.16691409 12.875 0.25 C12.87642502 1.54181686 12.87785004 2.83363373 12.87931824 4.16459656 C12.89598125 16.33346428 12.93873386 28.50199729 13.00709057 40.67068768 C13.04139429 46.9269103 13.06647588 53.18288785 13.07055664 59.43920898 C13.07483222 65.47594291 13.10323437 71.51212365 13.14843178 77.54868507 C13.16143033 79.85274853 13.16570617 82.15687811 13.16115379 84.46097374 C13.15626482 87.68642427 13.18226662 90.91024742 13.21557617 94.13549805 C13.20263771 95.56724869 13.20263771 95.56724869 13.18943787 97.02792358 C13.26934317 101.63771769 13.36737787 103.60575885 16.30293274 107.33137512 C20.8009772 110.68667618 25.3335527 110.85742788 30.875 110.25 C34.8976217 108.68564712 36.46649109 107.86276337 38.875 104.25 C39.18442625 102.22582899 39.18442625 102.22582899 39.1534729 99.97895813 C39.16463638 99.10817627 39.17579987 98.23739441 39.18730164 97.34022522 C39.18946182 96.38788498 39.19162201 95.43554474 39.19384766 94.4543457 C39.20389328 93.44928986 39.2139389 92.44423401 39.22428894 91.40872192 C39.25522125 88.08108094 39.27218408 84.75352078 39.2890625 81.42578125 C39.30776605 79.12077636 39.32733885 76.81577838 39.3477478 74.51078796 C39.39916079 68.43960636 39.43873747 62.36840253 39.47589111 56.29711914 C39.5229011 49.01497532 39.58453812 41.73294255 39.64373779 34.45088959 C39.7320617 23.38397098 39.80174641 12.31707487 39.875 1.25 C62.645 1.25 85.415 1.25 108.875 1.25 C108.92398438 8.55511719 108.97296875 15.86023438 109.0234375 23.38671875 C109.05881952 28.01238372 109.09477708 32.63802982 109.1328125 37.26367188 C109.19313965 44.60698763 109.25132586 51.95027695 109.296875 59.29370117 C109.33372746 65.21357286 109.38008765 71.13330049 109.43306351 77.05304909 C109.45160759 79.31246223 109.46671549 81.57190626 109.47834396 83.83136559 C109.49520589 86.99409132 109.52424142 90.1564871 109.55615234 93.3190918 C109.55831253 94.25489075 109.56047272 95.1906897 109.56269836 96.15484619 C109.63760753 102.43320091 109.63760753 102.43320091 111.875 108.25 C115.32477883 109.90166298 119.61772577 109.49223601 123.375 109.5625 C124.6846875 109.59988281 125.994375 109.63726562 127.34375 109.67578125 C130.91599117 109.55561239 130.91599117 109.55561239 133.28125 107.35546875 C135.51946946 104.3986053 136.00188463 102.78084426 136.03321838 99.13717651 C136.0430072 98.27618347 136.05279602 97.41519043 136.06288147 96.52810669 C136.06863693 95.58152191 136.0743924 94.63493713 136.08032227 93.65966797 C136.09022186 92.66451172 136.10012146 91.66935547 136.11032104 90.64404297 C136.14199494 87.34344896 136.16671675 84.04284055 136.19140625 80.7421875 C136.21197069 78.45817686 136.23296702 76.17417008 136.25437927 73.89016724 C136.3096526 67.86992505 136.35903865 61.84964822 136.40722656 55.8293457 C136.4662206 48.61066384 136.53247745 41.39204549 136.59752655 34.17341614 C136.69560222 23.19898278 136.78441308 12.22450925 136.875 1.25 C159.315 1.25 181.755 1.25 204.875 1.25 C204.91238281 8.39914063 204.94976562 15.54828125 204.98828125 22.9140625 C205.01855834 27.4440345 205.04970457 31.97396709 205.08398438 36.50390625 C205.13830796 43.69350198 205.18941817 50.88301973 205.22143555 58.07275391 C205.24745094 63.86948918 205.28784138 69.66596261 205.33818626 75.46253586 C205.35486681 77.67366656 205.36637367 79.88484256 205.37261391 82.09602737 C205.38224182 85.19401731 205.41028638 88.29133556 205.44262695 91.38916016 C205.44119186 92.30266235 205.43975677 93.21616455 205.4382782 94.15734863 C205.51335825 99.24524345 205.98066879 102.87715841 208.875 107.25 C212.57583888 109.71722592 215.52279838 109.6529366 219.8125 109.6875 C220.88661133 109.73680664 220.88661133 109.73680664 221.98242188 109.78710938 C224.3800108 109.86637547 224.3800108 109.86637547 227.875 109.25 C231.41879239 105.76290829 232.99109231 103.03583737 233.03321838 98.13717651 C233.0430072 97.27618347 233.05279602 96.41519043 233.06288147 95.52810669 C233.06863693 94.58152191 233.0743924 93.63493713 233.08032227 92.65966797 C233.09022186 91.66451172 233.10012146 90.66935547 233.11032104 89.64404297 C233.14199494 86.34344896 233.16671675 83.04284055 233.19140625 79.7421875 C233.21197069 77.45817686 233.23296702 75.17417008 233.25437927 72.89016724 C233.3096526 66.86992505 233.35903865 60.84964822 233.40722656 54.8293457 C233.4662206 47.61066384 233.53247745 40.39204549 233.59752655 33.17341614 C233.69560222 22.19898278 233.78441308 11.22450925 233.875 0.25 C256.315 0.25 278.755 0.25 301.875 0.25 C301.92398437 7.63890625 301.97296875 15.0278125 302.0234375 22.640625 C302.05881514 27.31642011 302.09477018 31.99219642 302.1328125 36.66796875 C302.1931643 44.09258357 302.251356 51.51717203 302.296875 58.94189453 C302.33369919 64.92659964 302.38005154 70.91116148 302.43306351 76.89574432 C302.45162267 79.18110394 302.46672497 81.46649428 302.47834396 83.75189972 C302.49518017 86.94835642 302.52420931 90.14448392 302.55615234 93.34082031 C302.55831253 94.28956528 302.56047272 95.23831024 302.56269836 96.21580505 C302.57386185 97.08796158 302.58502533 97.9601181 302.5965271 98.85870361 C302.60205786 99.61457386 302.60758862 100.37044411 302.61328697 101.14921951 C302.91693721 103.5866316 303.58239601 105.16734375 304.875 107.25 C309.90872331 110.77360632 314.94220969 110.97423694 320.875 110.25 C325.16860602 108.51428693 326.93828624 106.40799406 328.875 102.25 C329.32631516 98.97156815 329.31249331 95.71636812 329.30737305 92.41088867 C329.3175647 91.42504791 329.32775635 90.43920715 329.33825684 89.42349243 C329.3684017 86.1715935 329.37765524 82.91998909 329.38671875 79.66796875 C329.40356429 77.41065999 329.42171436 75.15336062 329.44111633 72.89607239 C329.48863578 66.95971612 329.51843274 61.02339791 329.54455566 55.08691406 C329.57435122 49.02726728 329.62088505 42.96775167 329.66601562 36.90820312 C329.75207099 25.022204 329.81940649 13.1361779 329.875 1.25 C334.35394321 1.13287989 338.83248714 1.0624392 343.3125 1 C344.57255859 0.96648438 345.83261719 0.93296875 347.13085938 0.8984375 C358.01162995 0.78480021 365.13975084 2.94612305 373.08984375 10.40625 C384.06431251 21.74093108 383.3382372 35.00521396 383.30859375 49.88671875 C383.31316078 51.89590124 383.3184679 53.90508217 383.32447815 55.91426086 C383.33337918 60.10932801 383.33101838 64.30420443 383.32104492 68.49926758 C383.30952679 73.86589948 383.32982571 79.23187616 383.35896206 84.59842205 C383.37732879 88.74121755 383.37703119 92.88385589 383.37132454 97.0266819 C383.37117156 99.0053684 383.3771968 100.98406571 383.38961601 102.96271324 C383.40454269 105.72905833 383.39383876 108.49419018 383.37670898 111.26049805 C383.38637695 112.07053787 383.39604492 112.8805777 383.40600586 113.71516418 C383.33333967 119.3372872 382.34051902 122.74818115 378.875 127.25 C373.96787038 129.80994853 370.33856425 130.62558466 364.73662472 130.63031673 C364.04993079 130.63497665 363.36323687 130.63963657 362.65573403 130.6444377 C360.36167735 130.65635984 358.06821598 130.64700345 355.77415466 130.63768005 C354.11009123 130.64185418 352.44603064 130.64733213 350.78197533 130.65399987 C346.21448344 130.66846248 341.64717187 130.66420722 337.07967007 130.65683305 C332.15187134 130.65210581 327.22411186 130.6646072 322.29632568 130.67485046 C312.64513476 130.69205152 302.9940089 130.69287589 293.34280663 130.68763756 C285.50024492 130.68359766 277.65770246 130.68503727 269.81514168 130.69038582 C268.14145696 130.69150845 268.14145696 130.69150845 266.43396043 130.69265376 C264.16733455 130.69418522 261.90070867 130.69572357 259.6340828 130.69726873 C238.37635187 130.71099809 217.11865774 130.70555264 195.86092765 130.69408352 C176.40437813 130.684147 156.94792365 130.6970983 137.49138879 130.72101771 C117.51928913 130.74538627 97.54723379 130.75502233 77.57511955 130.74836498 C66.35984505 130.74486825 55.1446437 130.74713497 43.92938042 130.76461601 C34.38387456 130.77930979 24.83849336 130.78001028 15.29299002 130.7625451 C10.42135393 130.75401011 5.54994081 130.75194644 0.67831612 130.76719666 C-3.77953391 130.78097911 -8.23696857 130.77636412 -12.69479417 130.75695742 C-14.30908084 130.75317727 -15.92340028 130.75617701 -17.53765792 130.76656907 C-19.72976359 130.77967983 -21.92042302 130.76821074 -24.11246586 130.75057125 C-25.33061137 130.75046391 -26.54875689 130.75035658 -27.8038159 130.75024599 C-32.53295293 130.03793021 -35.49078301 127.73319075 -38.97276306 124.57299805 C-40.81694351 120.85498881 -40.56716215 117.1767588 -40.56079102 113.08203125 C-40.57086685 112.15462631 -40.58094269 111.22722137 -40.59132385 110.27171326 C-40.61984487 107.20185307 -40.62568395 104.13248451 -40.62890625 101.0625 C-40.63854957 98.92219848 -40.64864221 96.78189894 -40.65916443 94.64160156 C-40.67713979 90.14920475 -40.68268451 85.65698102 -40.6809082 81.16455078 C-40.68060445 75.43257608 -40.72144173 69.7017256 -40.77322483 63.97001648 C-40.8067441 59.54476932 -40.81266085 55.11978855 -40.81107903 50.69442749 C-40.81460004 48.58308055 -40.82776163 46.4717253 -40.85107613 44.36050415 C-40.9866322 30.80904635 -40.5158754 21.1664392 -31.703125 10.25 C-30.93484375 9.59 -30.1665625 8.93 -29.375 8.25 C-28.61703125 7.569375 -27.8590625 6.88875 -27.078125 6.1875 C-18.28887072 0.42100513 -10.35555703 -0.28827032 0 0 Z " fill="#92ABD8" transform="translate(242.125,28.75)"/>
<path d="M0 0 C1.64849442 -0.01913956 1.64849442 -0.01913956 3.33029175 -0.03866577 C4.5208316 -0.04089142 5.71137146 -0.04311707 6.93798828 -0.04541016 C8.16808624 -0.05206696 9.3981842 -0.05872375 10.66555786 -0.06558228 C13.27653507 -0.07572211 15.88753827 -0.08039889 18.49853516 -0.08007812 C22.45783292 -0.0798372 26.41637372 -0.1206325 30.37548828 -0.15869141 C32.91715116 -0.1645663 35.45881931 -0.16853119 38.00048828 -0.17041016 C39.17078583 -0.18478119 40.34108337 -0.19915222 41.54684448 -0.21395874 C55.24642566 -0.13939373 67.94246878 3.82318961 77.91845703 13.50927734 C88.11784157 25.25286777 89.88196733 37.89748119 88.87255859 52.91455078 C87.68404384 64.71722999 81.37861188 74.6881717 72.30908203 82.13427734 C69.30154425 84.20940831 67.34008697 85.29052734 63.63330078 85.29052734 C65.25892297 88.22082792 66.8849911 91.1508793 68.51171875 94.08056641 C69.88875962 96.56073971 71.26384225 99.04198539 72.63769531 101.52392578 C75.58330862 106.84013107 78.53071434 112.15255609 81.59814453 117.39990234 C82.01394775 118.11597656 82.42975098 118.83205078 82.8581543 119.56982422 C83.59779961 120.8371596 84.34630784 122.09938574 85.10571289 123.35498047 C87.40310386 127.30860366 88.40512961 130.72167132 88.63330078 135.29052734 C86.65391611 139.03721976 85.16314025 140.93730103 81.63330078 143.29052734 C75.6347838 143.9313627 69.75703153 144.1627739 64.13330078 141.85302734 C58.10050669 135.6694134 54.20494369 127.86719839 50.32080078 120.22802734 C46.4699657 112.74786833 42.50427817 105.3624353 38.2746582 98.08911133 C35.63330078 93.49732543 35.63330078 93.49732543 35.63330078 91.29052734 C29.69330078 91.29052734 23.75330078 91.29052734 17.63330078 91.29052734 C17.65424805 92.62229004 17.67519531 93.95405273 17.69677734 95.32617188 C17.76932257 100.27967525 17.81515364 105.2331319 17.85302734 110.18701172 C17.87310966 112.32869368 17.90038116 114.47032104 17.93505859 116.61181641 C17.98372477 119.6949615 18.00630368 122.77737997 18.02392578 125.86083984 C18.04457092 126.8141922 18.06521606 127.76754456 18.08648682 128.74978638 C18.08844814 134.59551799 17.48079133 137.81414166 13.63330078 142.29052734 C10.3580807 144.69327865 7.18024953 144.58920845 3.19580078 144.60302734 C2.08333984 144.61978516 0.97087891 144.63654297 -0.17529297 144.65380859 C-4.89831874 144.11618143 -8.33709231 141.92605564 -11.36669922 138.29052734 C-12.36707523 135.2893993 -12.49939642 133.28493387 -12.51387024 130.14872742 C-12.52102554 129.08467682 -12.52818085 128.02062622 -12.53555298 126.92433167 C-12.53824188 125.75699997 -12.54093079 124.58966827 -12.54370117 123.38696289 C-12.55027237 122.15745911 -12.55684357 120.92795532 -12.56361389 119.66119385 C-12.58336177 115.5832088 -12.59501367 111.50526308 -12.60498047 107.42724609 C-12.60902875 106.02230116 -12.6131457 104.61735642 -12.61733055 103.21241188 C-12.63637677 96.61189692 -12.6506094 90.0113931 -12.65894252 83.41085595 C-12.66871542 75.79603669 -12.69503838 68.18150808 -12.73544341 60.56679124 C-12.76561672 54.67793587 -12.7804125 48.78916377 -12.78372353 42.90023261 C-12.78607252 39.38438853 -12.79501275 35.86885515 -12.82018471 32.3530941 C-12.84782423 28.42939349 -12.84363053 24.50607459 -12.83666992 20.58227539 C-12.84947998 19.42101639 -12.86229004 18.25975739 -12.87548828 17.06330872 C-12.83524729 10.84786976 -12.6424407 6.95981782 -8.36669922 2.29052734 C-5.02274351 0.06122354 -3.90761359 0.03081541 0 0 Z " fill="#284061" transform="translate(394.36669921875,416.70947265625)"/>
<path d="M0 0 C0.75990234 -0.02900391 1.51980469 -0.05800781 2.30273438 -0.08789062 C6.1874302 -0.13176642 8.21082718 0.02343335 11.60546875 2.08203125 C14.89971383 5.61113808 15.94042548 8.26836137 15.91455078 13.08105469 C15.91430908 14.0347998 15.91406738 14.98854492 15.91381836 15.97119141 C15.89847046 17.46271729 15.89847046 17.46271729 15.8828125 18.984375 C15.88079834 19.90428223 15.87878418 20.82418945 15.87670898 21.77197266 C15.86625959 25.20219929 15.83833698 28.63235475 15.8125 32.0625 C15.77125 39.735 15.73 47.4075 15.6875 55.3125 C34.4975 55.3125 53.3075 55.3125 72.6875 55.3125 C72.56890438 40.06978566 72.56890438 40.06978566 72.41723633 24.82739258 C72.40847204 22.91227724 72.40082797 20.9971563 72.39453125 19.08203125 C72.3715094 17.59817932 72.3715094 17.59817932 72.34802246 16.08435059 C72.34564507 9.83101825 72.97335529 6.22461762 77.34765625 1.53125 C80.84177581 -0.28872547 84.27736768 -0.20064307 88.125 -0.1875 C88.87587891 -0.21585937 89.62675781 -0.24421875 90.40039062 -0.2734375 C94.66357022 -0.28843549 96.22537692 -0.06157072 99.66015625 2.71875 C102.45403139 6.29318756 102.81441935 7.94755433 102.83467102 12.40997314 C102.84182632 13.48947739 102.84898163 14.56898163 102.85635376 15.68119812 C102.85904266 16.87082657 102.86173157 18.06045502 102.86450195 19.28613281 C102.87107315 20.53499771 102.87764435 21.78386261 102.88441467 23.0705719 C102.90418607 27.21892533 102.91581881 31.36724006 102.92578125 35.515625 C102.9298287 36.94378428 102.93394562 38.37194336 102.93813133 39.80010223 C102.95718601 46.5106115 102.97141561 53.22110974 102.9797433 59.93164086 C102.98951275 67.67607923 103.01582315 75.42023155 103.05624419 83.16456914 C103.08641705 89.15106804 103.10121333 95.13748502 103.10452431 101.12405849 C103.10687381 104.69916007 103.11582029 108.27395617 103.14098549 111.84897614 C103.16862335 115.83983992 103.16443143 119.83032836 103.1574707 123.82128906 C103.17028076 125.00282059 103.18309082 126.18435211 103.19628906 127.40168762 C103.15224659 134.3201881 102.68536033 138.31463967 97.6875 143.3125 C94.61469621 143.64576675 91.5260507 143.63746457 88.4375 143.6875 C87.14779297 143.74357422 87.14779297 143.74357422 85.83203125 143.80078125 C81.31146931 143.86347009 79.33262844 143.80709847 75.640625 140.9765625 C72.94792344 137.30371757 72.56303579 134.72050577 72.57397461 130.2902832 C72.57409546 129.2552063 72.57421631 128.22012939 72.57434082 127.15368652 C72.57945679 126.06785278 72.58457275 124.98201904 72.58984375 123.86328125 C72.59085083 122.86373413 72.59185791 121.86418701 72.59289551 120.83435059 C72.59813043 117.09788873 72.61209168 113.36144322 72.625 109.625 C72.645625 101.271875 72.66625 92.91875 72.6875 84.3125 C53.8775 84.3125 35.0675 84.3125 15.6875 84.3125 C15.80606448 100.82656459 15.80606448 100.82656459 15.95776367 117.34033203 C15.96652893 119.41698748 15.97417277 121.4936481 15.98046875 123.5703125 C15.99581665 124.64079834 16.01116455 125.71128418 16.02697754 126.81420898 C16.02892162 132.36262704 15.97940823 136.59684266 12.6875 141.3125 C8.64592649 144.00688234 5.55646317 143.67995793 0.8125 143.6875 C0.00941406 143.71199219 -0.79367188 143.73648438 -1.62109375 143.76171875 C-5.70400156 143.78189787 -7.78864106 143.64314343 -11.3203125 141.4140625 C-14.35036945 138.21764948 -14.44045973 136.43768462 -14.45967102 132.13237 C-14.46682632 131.03459229 -14.47398163 129.93681458 -14.48135376 128.80577087 C-14.48404266 127.5958699 -14.48673157 126.38596893 -14.48950195 125.1394043 C-14.49607315 123.86942596 -14.50264435 122.59944763 -14.50941467 121.29098511 C-14.52682832 117.80121601 -14.53737742 114.31146063 -14.5456202 110.82165885 C-14.55076964 108.64163522 -14.55684539 106.46161585 -14.56313133 104.28159523 C-14.58218452 97.4616311 -14.59641533 90.6416778 -14.6047433 83.82169217 C-14.61451699 75.94763487 -14.64083909 68.07385859 -14.68124419 60.19990033 C-14.71139833 54.11490409 -14.72621149 48.02998844 -14.72952431 41.94491893 C-14.73187564 38.31004774 -14.74084617 34.67547673 -14.76598549 31.04068565 C-14.79358331 26.98487008 -14.7894373 22.92968276 -14.7824707 18.8737793 C-14.79528076 17.66995102 -14.80809082 16.46612274 -14.82128906 15.22581482 C-14.77020212 7.08702344 -14.77020212 7.08702344 -12.40812683 3.08992004 C-8.50443261 -0.22102457 -4.92069377 0.06166283 0 0 Z " fill="#284061" transform="translate(247.3125,416.6875)"/>
<path d="M0 0 C1.26166992 -0.01029488 1.26166992 -0.01029488 2.54882812 -0.02079773 C5.32772733 -0.03909089 8.1060633 -0.03522462 10.88500977 -0.02954102 C12.81787805 -0.03410169 14.75074471 -0.03940693 16.68360901 -0.04542542 C20.73461494 -0.05436152 24.78542379 -0.05192779 28.83642578 -0.04199219 C34.02631832 -0.03050338 39.21553039 -0.05071015 44.40533352 -0.07990932 C48.3970827 -0.09826092 52.38866852 -0.09798091 56.3804493 -0.0922718 C58.29380307 -0.09211845 60.20716782 -0.0981741 62.12048149 -0.11056328 C64.7969002 -0.12545141 67.47205808 -0.11481253 70.1484375 -0.09765625 C71.33231804 -0.1121582 71.33231804 -0.1121582 72.54011536 -0.12695312 C76.2836211 -0.07673769 78.42594916 0.26727051 81.60707092 2.31040955 C85.0658365 5.87437267 84.88355431 8.97075748 84.95141602 13.71655273 C85.00749023 15.69075195 85.00749023 15.69075195 85.06469727 17.70483398 C84.58110938 21.90628105 83.60820445 23.46781761 80.63891602 26.40405273 C77.7687316 27.83914494 75.30347879 27.51563779 72.09985352 27.50170898 C70.14692383 27.496875 70.14692383 27.496875 68.15454102 27.49194336 C66.77433203 27.48358739 65.39412369 27.47512244 64.01391602 27.46655273 C62.62589676 27.46153775 61.23787579 27.45697484 59.84985352 27.45288086 C56.4461647 27.4410625 53.04256163 27.42458707 49.63891602 27.40405273 C49.64168139 27.95512506 49.64444677 28.5061974 49.64729595 29.07396889 C49.71360655 42.49512389 49.76302962 55.91625012 49.79435253 69.33753395 C49.81000934 75.82803069 49.83124826 82.3184092 49.86523438 88.80883789 C49.89782672 95.07228127 49.91576891 101.33561091 49.92354774 107.59913254 C49.92909143 109.98894415 49.93991681 112.37874952 49.95610619 114.76851273 C49.9778783 118.11542471 49.98088296 121.4618665 49.97949219 124.80883789 C49.99027802 125.797146 50.00106384 126.7854541 50.01217651 127.80371094 C49.98839404 133.0917836 49.64537579 136.84999172 46.63891602 141.40405273 C41.82251734 145.35233102 36.94529677 144.89324423 30.97094727 144.75561523 C26.52253601 144.28626352 24.74129095 143.59260475 21.63891602 140.40405273 C18.88514772 135.54054922 19.37256342 130.34386676 19.41186523 124.92236328 C19.41157318 123.86824753 19.41128113 122.81413177 19.41098022 121.72807312 C19.41237195 118.24888842 19.427926 114.76991871 19.44360352 111.29077148 C19.4473342 108.87653216 19.45018091 106.46229131 19.45217896 104.04804993 C19.45981103 97.69733492 19.47945599 91.34671155 19.50158691 84.99603271 C19.52205443 78.51421346 19.53118262 72.03237938 19.54125977 65.55053711 C19.56270218 52.83500325 19.59644803 40.11953287 19.63891602 27.40405273 C18.82213379 27.43023682 18.00535156 27.4564209 17.16381836 27.48339844 C13.44738148 27.58761486 9.73125241 27.65246073 6.01391602 27.71655273 C4.7287207 27.75844727 3.44352539 27.8003418 2.11938477 27.84350586 C-8.54660096 27.9816663 -8.54660096 27.9816663 -12.19702148 25.07202148 C-16.26334202 20.05885014 -15.86981935 14.5997227 -15.36108398 8.40405273 C-12.27416545 0.99544826 -7.52393099 -0.04280429 0 0 Z " fill="#283F60" transform="translate(511.361083984375,416.595947265625)"/>
<path d="M0 0 C4.08375 -0.0825 8.1675 -0.165 12.375 -0.25 C14.27451416 -0.30462402 14.27451416 -0.30462402 16.21240234 -0.36035156 C23.93566977 -0.4352058 31.6332445 0.14683125 37.68139648 5.48364258 C42.16919585 10.61402944 42.41499399 15.37599783 42.3359375 21.921875 C41.72701956 27.50126266 39.39047957 31.07219389 35.0625 34.5625 C29.57772543 38.21901638 24.83845172 39.13282595 18.26171875 39.09765625 C17.29967529 39.09515869 16.33763184 39.09266113 15.34643555 39.09008789 C14.13898682 39.08098389 12.93153809 39.07187988 11.6875 39.0625 C7.830625 39.041875 3.97375 39.02125 0 39 C0 26.13 0 13.26 0 0 Z " fill="#96AFDA" transform="translate(412,443)"/>
<path d="M0 0 C1.86149782 2.79224673 2.69297883 5.09916236 3.59643555 8.29174805 C10.1873631 31.52197723 25.13524413 50.02002814 46.09082031 61.99072266 C61.17550489 69.96515821 77.33219647 72.45824128 94.1857605 72.39872742 C95.77352185 72.40417913 97.36127915 72.41093574 98.94903004 72.41886932 C103.27284852 72.43676047 107.59649409 72.43635419 111.92034078 72.43273985 C116.59773945 72.43211264 121.27508177 72.44876741 125.95245361 72.46325684 C134.04332784 72.48598628 142.13415918 72.49791816 150.22506332 72.50238609 C161.92294789 72.50886167 173.62075511 72.53182377 185.31860842 72.55872939 C204.30044809 72.60194441 223.2822845 72.63194131 242.26416016 72.65356445 C260.69646815 72.67459 279.12874943 72.70187885 297.56103516 72.73754883 C299.26706643 72.74084707 299.26706643 72.74084707 301.00756298 72.74421193 C306.71368952 72.75528198 312.41981581 72.76647472 318.12594199 72.77772844 C365.41727103 72.87083868 412.7086152 72.94247131 460 73 C455.01610068 75.76883296 450.43208528 76.12499794 444.79767799 76.12584114 C442.91341195 76.12975276 442.91341195 76.12975276 440.99107993 76.13374341 C439.59965413 76.13158141 438.20822848 76.12932476 436.81680298 76.12698364 C435.33667283 76.12813583 433.85654297 76.12972401 432.3764137 76.13171089 C428.308052 76.13589093 424.23971371 76.13381946 420.17135191 76.13072467 C415.78407856 76.12846538 411.39680929 76.13195286 407.00953674 76.13470459 C398.41387009 76.13915581 389.81821216 76.13818862 381.22254516 76.13529195 C374.23664371 76.13303509 367.2507447 76.13272663 360.26484299 76.13381577 C359.27118681 76.133969 358.27753064 76.13412223 357.25376367 76.13428011 C355.23524846 76.13459983 353.21673324 76.13492404 351.19821803 76.1352527 C332.26103766 76.13810567 313.32386213 76.13482348 294.38668256 76.12945233 C278.13604115 76.12498584 261.8854069 76.12575931 245.63476562 76.13037109 C226.76920878 76.13572245 207.90365619 76.13782954 189.03809869 76.13475883 C187.02632864 76.13444028 185.01455859 76.13412591 183.00278854 76.13381577 C182.01293288 76.13366149 181.02307722 76.13350721 180.00322593 76.13334826 C173.02635638 76.1324847 166.04948952 76.13394258 159.07262039 76.13629532 C150.56907303 76.1390998 142.06553491 76.13834139 133.56198861 76.13301457 C129.22296056 76.13038613 124.8839479 76.12935801 120.54491997 76.13266373 C116.57250122 76.13564436 112.60011214 76.13400435 108.62769608 76.12868617 C107.19098786 76.12756953 105.75427713 76.1281365 104.31757052 76.13056196 C102.36305018 76.13360836 100.40852282 76.12988183 98.45400429 76.12584114 C97.3688159 76.12567879 96.28362752 76.12551644 95.16555464 76.12534916 C91.7223338 75.98900502 88.40402706 75.52286551 85 75 C83.39741095 74.91756728 81.79219786 74.86937934 80.1875 74.875 C79.43855469 74.87242187 78.68960938 74.86984375 77.91796875 74.8671875 C75.91481088 74.88244569 75.91481088 74.88244569 74 76 C72.30712215 75.04504326 70.64142963 74.0409066 69 73 C67.515 72.505 67.515 72.505 66 72 C65.67 72.66 65.34 73.32 65 74 C63.515 73.505 63.515 73.505 62 73 C62 72.34 62 71.68 62 71 C61.18917969 70.70867187 60.37835938 70.41734375 59.54296875 70.1171875 C45.90396264 65.06805602 35.70676436 58.65177027 25 49 C24.33097656 48.42636719 23.66195312 47.85273437 22.97265625 47.26171875 C11.56783633 36.8766239 1.67833395 19.39710052 0.0625 3.9375 C0.041875 2.638125 0.02125 1.33875 0 0 Z " fill="#1C2D4A" transform="translate(143,738)"/>
<path d="M0 0 C107.25 0 214.5 0 325 0 C325 3.3 325 6.6 325 10 C324.67 10 324.34 10 324 10 C324 7.36 324 4.72 324 2 C217.74 2 111.48 2 2 2 C2 3.65 2 5.3 2 7 C1.67 7 1.34 7 1 7 C0.67 4.69 0.34 2.38 0 0 Z " fill="#F3FAFE" transform="translate(250,185)"/>
<path d="M0 0 C22.44 0 44.88 0 68 0 C68.06058594 7.38890625 68.12117187 14.7778125 68.18359375 22.390625 C68.22407973 27.0664122 68.26484871 31.74219349 68.30664062 36.41796875 C68.37297456 43.84259042 68.43824989 51.26721101 68.49731445 58.69189453 C68.54498883 64.67655319 68.59733292 70.66115431 68.65294075 76.64574432 C68.67335033 78.93111492 68.69206573 81.21650128 68.70907402 83.50189972 C68.73314878 86.69826465 68.7631994 89.89452093 68.79467773 93.09082031 C68.8004332 94.03956528 68.80618866 94.98831024 68.81211853 95.96580505 C68.82190735 96.83796158 68.83169617 97.7101181 68.84178162 98.60870361 C68.84823417 99.36457386 68.85468672 100.12044411 68.8613348 100.89921951 C69.00261592 103.03963119 69.41496512 104.94025703 70 107 C67 105 67 105 66.32001591 103.13996506 C65.99657281 100.97708218 65.87697059 98.94717512 65.87974548 96.76055908 C65.87768349 95.50280922 65.87768349 95.50280922 65.87557983 94.21965027 C65.88097275 92.85263725 65.88097275 92.85263725 65.88647461 91.45800781 C65.88632858 90.49182022 65.88618256 89.52563263 65.8860321 88.53016663 C65.88672856 85.33779655 65.8945085 82.14548488 65.90234375 78.953125 C65.90420888 76.73923779 65.90563233 74.52535017 65.90663147 72.3114624 C65.91044918 66.48519755 65.92027313 60.65895764 65.93133545 54.83270264 C65.94336432 47.84178686 65.94795536 40.85086274 65.95378876 33.85993958 C65.96348525 23.23994237 65.98264706 12.61999989 66 2 C44.55 2 23.1 2 1 2 C1.04640625 9.22132812 1.0928125 16.44265625 1.140625 23.8828125 C1.16106375 28.45834771 1.18031959 33.03382662 1.1953125 37.609375 C1.21922152 44.87153822 1.24750262 52.13349965 1.30175781 59.39550781 C1.34522702 65.25047898 1.36913972 71.10523376 1.37950897 76.96035385 C1.38689833 79.19388104 1.40132799 81.42739641 1.42292023 83.66083145 C1.45196775 86.78993552 1.45595534 89.91814603 1.45410156 93.04736328 C1.46848267 93.97021622 1.48286377 94.89306915 1.49768066 95.84388733 C1.46162466 101.47050647 0.84257162 104.76795727 -3 109 C-3.99 109 -4.98 109 -6 109 C-5.0409375 107.824375 -5.0409375 107.824375 -4.0625 106.625 C-1.51772098 103.38619033 -0.87629548 101.90064571 -0.84178162 97.88717651 C-0.8319928 97.02618347 -0.82220398 96.16519043 -0.81211853 95.27810669 C-0.80636307 94.33152191 -0.8006076 93.38493713 -0.79467773 92.40966797 C-0.77982834 90.91693359 -0.77982834 90.91693359 -0.76467896 89.39404297 C-0.73300506 86.09344896 -0.70828325 82.79284055 -0.68359375 79.4921875 C-0.66302931 77.20817686 -0.64203298 74.92417008 -0.62062073 72.64016724 C-0.5653474 66.61992505 -0.51596135 60.59964822 -0.46777344 54.5793457 C-0.4087794 47.36066384 -0.34252255 40.14204549 -0.27747345 32.92341614 C-0.17939778 21.94898278 -0.09058692 10.97450925 0 0 Z " fill="#AFC5E5" transform="translate(476,29)"/>
<path d="M0 0 C-1.05058594 0.49628906 -2.10117188 0.99257812 -3.18359375 1.50390625 C-11.06780192 5.29148248 -18.54612993 8.97549343 -25 15 C-25.60972656 15.56847656 -26.21945313 16.13695313 -26.84765625 16.72265625 C-32.3823387 22.4519649 -36.10220203 29.62590348 -39 37 C-39.26148331 37.65967773 -39.52296661 38.31935547 -39.79237366 38.99902344 C-43.12809847 49.11736021 -42.48068838 59.7664826 -42.51171875 70.29296875 C-42.52858542 72.45202137 -42.5467383 74.61106429 -42.56611633 76.77009583 C-42.6134065 82.42030811 -42.64335129 88.07048103 -42.66955566 93.7208252 C-42.69946751 99.49950935 -42.74596113 105.27805821 -42.79101562 111.05664062 C-42.8768098 122.37102267 -42.94426086 133.68543274 -43 145 C-43.33 145 -43.66 145 -44 145 C-45.18847446 140.30813915 -45.15478933 135.75190359 -45.16113281 130.94628906 C-45.16609772 130.04317993 -45.17106262 129.1400708 -45.17617798 128.20959473 C-45.19075669 125.22826366 -45.19759471 122.24698582 -45.203125 119.265625 C-45.20888029 117.18682861 -45.21463797 115.10803222 -45.22039795 113.02923584 C-45.23089595 108.67150628 -45.23674637 104.31379511 -45.24023438 99.95605469 C-45.24571441 94.38671448 -45.26973718 88.81761932 -45.29820633 83.24835587 C-45.3168796 78.95366722 -45.32204082 74.65903703 -45.32357025 70.36431122 C-45.32658706 68.31191418 -45.33458259 66.25951793 -45.34775543 64.20716095 C-45.3649129 61.32835025 -45.36291197 58.4501309 -45.35644531 55.57128906 C-45.3656601 54.73253235 -45.37487488 53.89377563 -45.3843689 53.02960205 C-45.27966292 38.06251762 -37.08670267 23.99968675 -26.7578125 13.625 C-9.48859806 -2.81255255 -9.48859806 -2.81255255 0 0 Z " fill="#1A2C4A" transform="translate(218,6)"/>
<path d="M0 0 C1.25167969 0.01353516 2.50335938 0.02707031 3.79296875 0.04101562 C6.86243116 0.07616214 9.93098509 0.12536774 13 0.1875 C13.00142502 1.47931686 13.00285004 2.77113373 13.00431824 4.10209656 C13.02098125 16.27096428 13.06373386 28.43949729 13.13209057 40.60818768 C13.16639429 46.8644103 13.19147588 53.12038785 13.19555664 59.37670898 C13.19983222 65.41344291 13.22823437 71.44962365 13.27343178 77.48618507 C13.28643033 79.79024853 13.29070617 82.09437811 13.28615379 84.39847374 C13.28126482 87.62392427 13.30726662 90.84774742 13.34057617 94.07299805 C13.32763771 95.50474869 13.32763771 95.50474869 13.31443787 96.96542358 C13.39383359 101.54581919 13.46565212 103.52246468 16.41621399 107.19465637 C17.69518806 108.18111397 17.69518806 108.18111397 19 109.1875 C19.99 110.1775 19.99 110.1775 21 111.1875 C17.46491897 110.89290991 16.23796556 110.43868587 13.75 107.8125 C11.5071475 104.44822125 10.87478438 101.98435087 10.87974548 98.03034973 C10.87837082 97.18481033 10.87699615 96.33927094 10.87557983 95.46810913 C10.88097275 94.08167709 10.88097275 94.08167709 10.88647461 92.66723633 C10.88632858 91.69144119 10.88618256 90.71564606 10.8860321 89.71028137 C10.88672962 86.48000884 10.89451455 83.24979373 10.90234375 80.01953125 C10.9042085 77.78179455 10.90563213 75.54405744 10.90663147 73.30632019 C10.91045216 67.41263708 10.92027865 61.51897856 10.93133545 55.62530518 C10.94155919 49.61283704 10.94613116 43.60036494 10.95117188 37.58789062 C10.96190129 25.78774961 10.97897237 13.98762685 11 2.1875 C6.83256983 2.26899361 2.66653745 2.38178454 -1.5 2.5 C-2.67304688 2.52255859 -3.84609375 2.54511719 -5.0546875 2.56835938 C-11.69984477 2.77368727 -16.94524923 3.39242322 -23 6.1875 C-22 3.1875 -22 3.1875 -18.8125 1.51171875 C-12.70212736 -0.57917439 -6.37700481 -0.13131108 0 0 Z " fill="#A6BBDD" transform="translate(242,28.8125)"/>
<path d="M0 0 C0.33 0 0.66 0 1 0 C1.95472934 8.40161816 -1.93530228 16.32222149 -6.5625 23.1875 C-12.64728714 30.66221313 -21.19946889 35.60995773 -29.4375 40.375 C-37.05235478 44.79599492 -43.51063924 50.07380139 -50 56 C-51.21623047 57.07507813 -51.21623047 57.07507813 -52.45703125 58.171875 C-62.0711201 67.12930979 -69.23902907 78.81483302 -74 91 C-74.36738281 91.90234375 -74.73476562 92.8046875 -75.11328125 93.734375 C-77.56965465 100.05841998 -79.01425452 106.29433667 -80 113 C-80.33 113 -80.66 113 -81 113 C-81.21755666 107.5610835 -81.10428384 103.12919186 -79 98 C-79.66 97.67 -80.32 97.34 -81 97 C-80.01 97 -79.02 97 -78 97 C-77.91492188 96.175 -77.82984375 95.35 -77.7421875 94.5 C-76.83717132 90.23213421 -75.13939052 86.84106006 -73.125 83 C-72.77308594 82.31421875 -72.42117187 81.6284375 -72.05859375 80.921875 C-71.36747197 79.5756006 -70.67234736 78.23137226 -69.97290039 76.8894043 C-69.0800006 75.15536378 -68.22736722 73.40074323 -67.37890625 71.64453125 C-65.6973534 68.41957011 -63.63306633 66.51604116 -61 64 C-59.78663918 62.58763694 -58.57884245 61.17048486 -57.375 59.75 C-47.83131296 48.97544491 -35.42986802 40.93934608 -23.25 33.4375 C-9.98463023 24.98010268 -3.84162264 15.2316968 0 0 Z " fill="#172742" transform="translate(223,192)"/>
<path d="M0 0 C0.75990234 -0.02900391 1.51980469 -0.05800781 2.30273438 -0.08789062 C6.29027719 -0.13292803 8.21520488 0.0122862 11.66796875 2.20703125 C14.61028979 5.27455744 14.81163839 6.89852595 14.80102539 11.03759766 C14.80094986 12.01846344 14.80087433 12.99932922 14.80079651 14.00991821 C14.79563522 15.07141083 14.79047394 16.13290344 14.78515625 17.2265625 C14.7837413 18.31133881 14.78232635 19.39611511 14.78086853 20.51376343 C14.77525802 23.98837 14.76270372 27.46291281 14.75 30.9375 C14.74498635 33.28906157 14.74042321 35.64062415 14.73632812 37.9921875 C14.72528518 43.76564686 14.70853679 49.53906888 14.6875 55.3125 C14.3575 55.3125 14.0275 55.3125 13.6875 55.3125 C13.67870064 54.42380219 13.67870064 54.42380219 13.66972351 53.51715088 C13.60580627 47.3525899 13.52139098 41.1885518 13.42504883 35.02441406 C13.39178749 32.72370292 13.36375937 30.42290994 13.34106445 28.12207031 C13.30754127 24.81540032 13.2552254 21.50948112 13.19921875 18.203125 C13.19282883 17.17382874 13.1864389 16.14453247 13.17985535 15.08404541 C13.15016411 13.64300446 13.15016411 13.64300446 13.11987305 12.17285156 C13.10876999 11.32901917 13.09766693 10.48518677 13.08622742 9.61578369 C12.59427535 6.77397967 11.6564989 5.39800568 9.6875 3.3125 C6.39657406 2.21552469 3.77637841 2.0753017 0.3125 2 C-0.80898437 1.96261719 -1.93046875 1.92523438 -3.0859375 1.88671875 C-6.96635586 2.39878364 -8.54812425 3.60341177 -11.3125 6.3125 C-12.56911447 8.82572894 -12.45129388 10.56064273 -12.47071838 13.37442017 C-12.4805072 14.44576706 -12.49029602 15.51711395 -12.50038147 16.6209259 C-12.50613693 17.80127914 -12.5118924 18.98163239 -12.51782227 20.19775391 C-12.52772186 21.43674942 -12.53762146 22.67574493 -12.54782104 23.95228577 C-12.5740444 27.35494628 -12.59589171 30.75758289 -12.61582303 34.16028261 C-12.63766629 37.71441474 -12.66506308 41.26850386 -12.69187927 44.82260132 C-12.74182865 51.55508659 -12.78675913 58.2875957 -12.82990164 65.02012765 C-12.87925485 72.68390177 -12.93418007 80.34763276 -12.98958123 88.01136518 C-13.10343573 103.77837027 -13.2102672 119.54541501 -13.3125 135.3125 C-13.6425 135.3125 -13.9725 135.3125 -14.3125 135.3125 C-14.40595015 118.57937995 -14.47648242 101.84634457 -14.51974869 85.11302662 C-14.54037214 77.34341012 -14.56848841 69.57395578 -14.61425781 61.80444336 C-14.65413245 55.03235903 -14.6799344 48.26039215 -14.68885398 41.48819369 C-14.69406774 37.90245601 -14.70631689 34.31705431 -14.73542023 30.73142433 C-14.7676501 26.72810602 -14.76845903 22.72537145 -14.76660156 18.72192383 C-14.78817322 16.93952049 -14.78817322 16.93952049 -14.81018066 15.12110901 C-14.76972338 7.08433661 -14.76972338 7.08433661 -12.40911865 3.09941101 C-8.50886982 -0.22470211 -4.92492597 0.06171586 0 0 Z " fill="#000425" transform="translate(247.3125,416.6875)"/>
<path d="M0 0 C3.68144382 1.84072191 4.76735619 6.51382515 6.46484375 10.1171875 C7.81122694 12.64551013 8.96777092 14.07089896 11 16 C11 16.66 11 17.32 11 18 C11.57234375 18.268125 12.1446875 18.53625 12.734375 18.8125 C15.08029768 20.04208706 17.10845613 21.44251355 19.25 23 C23.86117493 26.26911656 28.58334071 29.31798458 33.375 32.3125 C34.40995605 32.9612207 34.40995605 32.9612207 35.46582031 33.62304688 C39.21268811 35.95880558 39.21268811 35.95880558 43.11206055 38.02294922 C45.48159405 39.24923567 46.74091535 40.76327651 48.4375 42.8125 C50.38436917 45.11409534 52.30345375 47.30345375 54.4375 49.4375 C61.38508787 56.38508787 66.57801137 63.25551711 71.23828125 71.86328125 C72.85139827 74.91194098 72.85139827 74.91194098 74.625 77.109375 C76.23535309 79.3236105 76.92358963 81.31433689 77.6875 83.9375 C77.93886719 84.77152344 78.19023438 85.60554688 78.44921875 86.46484375 C79.0121497 89.05592311 79.09927943 91.35727613 79 94 C76.87037985 90.80556978 75.76980868 87.84837217 74.4375 84.25 C65.07820087 60.27081003 47.77857254 43.59719252 26.04638672 30.3527832 C14.70345248 23.41281939 3.44609146 16.13380749 0.125 2.375 C0.08375 1.59125 0.0425 0.8075 0 0 Z " fill="#14253F" transform="translate(603,200)"/>
<path d="M0 0 C1.86149782 2.79224673 2.69297883 5.09916236 3.59643555 8.29174805 C10.1873631 31.52197723 25.13524413 50.02002814 46.09082031 61.99072266 C56.08062023 67.27177545 66.93653874 70.02932096 78 72 C78 72.66 78 73.32 78 74 C76.3125 75.1875 76.3125 75.1875 74 76 C71.4375 74.6875 71.4375 74.6875 69 73 C67.515 72.505 67.515 72.505 66 72 C65.67 72.66 65.34 73.32 65 74 C63.515 73.505 63.515 73.505 62 73 C62 72.34 62 71.68 62 71 C61.18917969 70.70867187 60.37835938 70.41734375 59.54296875 70.1171875 C45.90396264 65.06805602 35.70676436 58.65177027 25 49 C24.33097656 48.42636719 23.66195312 47.85273437 22.97265625 47.26171875 C11.56783633 36.8766239 1.67833395 19.39710052 0.0625 3.9375 C0.041875 2.638125 0.02125 1.33875 0 0 Z " fill="#12233E" transform="translate(143,738)"/>
<path d="M0 0 C-1.05058594 0.49628906 -2.10117188 0.99257812 -3.18359375 1.50390625 C-11.06780192 5.29148248 -18.54612993 8.97549343 -25 15 C-25.60972656 15.56847656 -26.21945313 16.13695313 -26.84765625 16.72265625 C-36.10238723 26.30282832 -41.30447847 40.02920208 -42.5625 53.125 C-42.706875 54.40375 -42.85125 55.6825 -43 57 C-43.99 57.495 -43.99 57.495 -45 58 C-45.35055799 50.32667506 -45.11790518 44.05160633 -42 37 C-41.54753906 35.92878906 -41.09507812 34.85757813 -40.62890625 33.75390625 C-33.5690971 18.29681811 -21.94952681 6.89299939 -6.48046875 -0.25 C-3.74807047 -1.07617397 -2.66436522 -0.78975494 0 0 Z " fill="#14243D" transform="translate(218,6)"/>
<path d="M0 0 C1.12631836 -0.0299707 1.12631836 -0.0299707 2.27539062 -0.06054688 C6.21684522 -0.05708034 8.13203639 0.16202592 11.53515625 2.33984375 C14.49110654 5.39831255 14.68664158 7.02228571 14.67602539 11.16259766 C14.67594986 12.14346344 14.67587433 13.12432922 14.67579651 14.13491821 C14.67063522 15.19641083 14.66547394 16.25790344 14.66015625 17.3515625 C14.6587413 18.43633881 14.65732635 19.52111511 14.65586853 20.63876343 C14.65025802 24.11337 14.63770372 27.58791281 14.625 31.0625 C14.61998635 33.41406157 14.61542321 35.76562415 14.61132812 38.1171875 C14.60028518 43.89064686 14.58353679 49.66406888 14.5625 55.4375 C14.2325 55.4375 13.9025 55.4375 13.5625 55.4375 C13.55370064 54.54880219 13.55370064 54.54880219 13.54472351 53.64215088 C13.48080627 47.4775899 13.39639098 41.3135518 13.30004883 35.14941406 C13.26678749 32.84870292 13.23875937 30.54790994 13.21606445 28.24707031 C13.18254127 24.94040032 13.1302254 21.63448112 13.07421875 18.328125 C13.06782883 17.29882874 13.0614389 16.26953247 13.05485535 15.20904541 C13.02516411 13.76800446 13.02516411 13.76800446 12.99487305 12.29785156 C12.98376999 11.45401917 12.97266693 10.61018677 12.96122742 9.74078369 C12.46927535 6.89897967 11.5314989 5.52300568 9.5625 3.4375 C6.27157406 2.34052469 3.65137841 2.2003017 0.1875 2.125 C-0.93398437 2.08761719 -2.05546875 2.05023438 -3.2109375 2.01171875 C-7.09135586 2.52378364 -8.67312425 3.72841177 -11.4375 6.4375 C-11.7675 7.0975 -12.0975 7.7575 -12.4375 8.4375 C-13.0975 8.4375 -13.7575 8.4375 -14.4375 8.4375 C-11.91676906 0.66524626 -7.68996169 -0.07223704 0 0 Z " fill="#051738" transform="translate(247.4375,416.5625)"/>
<path d="M0 0 C2.19228255 2.19228255 2.4573682 3.20852147 3.25 6.125 C6.15383352 15.13988614 13.06590969 22.72533478 21.3359375 27.2890625 C27.94884788 30.34286497 34.11064191 31.16990541 41.3125 31.5625 C42.05306641 31.60568359 42.79363281 31.64886719 43.55664062 31.69335938 C45.37091464 31.79870432 47.1854355 31.89978316 49 32 C49 32.33 49 32.66 49 33 C27.11310325 33.96465265 27.11310325 33.96465265 18 28 C17.278125 27.56558594 16.55625 27.13117188 15.8125 26.68359375 C8.23226656 21.64446129 2.85780109 13.57340327 0 5 C-0.1875 2.0625 -0.1875 2.0625 0 0 Z " fill="#0F203A" transform="translate(175,153)"/>
<path d="M0 0 C11.55355596 1.72253016 20.70046835 10.44747788 28 19 C38.76039047 33.63570478 38.76039047 33.63570478 38 42 C36.19717507 39.2957626 35.02040237 36.84774154 33.75 33.875 C26.42027754 17.62959173 15.26068565 9.47815869 0 1 C0 0.67 0 0.34 0 0 Z " fill="#112139" transform="translate(612,6)"/>
<path d="M0 0 C0.33 0 0.66 0 1 0 C0.43468526 16.11147006 -9.19539543 32.45418246 -20 44 C-20.66 44 -21.32 44 -22 44 C-20.44689118 40.48506951 -18.30010895 37.84089979 -15.875 34.875 C-8.08356711 24.89192884 -2.95776301 12.26239246 0 0 Z " fill="#13223C" transform="translate(682,739)"/>
<path d="M0 0 C4.10812962 0.58860941 7.78854638 1.52791922 11.6875 2.9375 C17.3947141 4.90181023 23.03874528 6.10815874 29 7 C29 7.66 29 8.32 29 9 C27.3125 10.1875 27.3125 10.1875 25 11 C22.4375 9.6875 22.4375 9.6875 20 8 C19.01 7.67 18.02 7.34 17 7 C16.67 7.66 16.34 8.32 16 9 C15.01 8.67 14.02 8.34 13 8 C13 7.34 13 6.68 13 6 C8.71 4.35 4.42 2.7 0 1 C0 0.67 0 0.34 0 0 Z " fill="#1B2A44" transform="translate(192,803)"/>
<path d="M0 0 C0.66 0.33 1.32 0.66 2 1 C1.33411865 1.65802612 1.33411865 1.65802612 0.65478516 2.3293457 C-1.35777029 4.32109614 -3.3664162 6.31674474 -5.375 8.3125 C-6.07367188 9.00279297 -6.77234375 9.69308594 -7.4921875 10.40429688 C-8.1625 11.07138672 -8.8328125 11.73847656 -9.5234375 12.42578125 C-10.14138184 13.03848877 -10.75932617 13.65119629 -11.39599609 14.2824707 C-13.19289347 16.11329165 -13.19289347 16.11329165 -15 19 C-15.66 18.67 -16.32 18.34 -17 18 C-15.29820279 15.93180162 -13.58895895 13.87058283 -11.875 11.8125 C-11.400625 11.23435547 -10.92625 10.65621094 -10.4375 10.06054688 C-7.24230362 6.23926472 -3.91404836 3.0836197 0 0 Z " fill="#E1ECF5" transform="translate(196,261)"/>
<path d="M0 0 C4.33199676 0.59254669 7.43569062 2.16586006 11.1875 4.375 C12.23292969 4.98085937 13.27835938 5.58671875 14.35546875 6.2109375 C17 8 17 8 19 11 C15.54676556 10.34603874 13.03876137 8.9685394 10.0625 7.125 C9.22847656 6.61195312 8.39445313 6.09890625 7.53515625 5.5703125 C6.28025391 4.79300781 6.28025391 4.79300781 5 4 C4.07058594 3.46117187 3.14117188 2.92234375 2.18359375 2.3671875 C1.46300781 1.91601562 0.74242187 1.46484375 0 1 C0 0.67 0 0.34 0 0 Z " fill="#162740" transform="translate(612,6)"/>
<path d="M0 0 C0.66 0.99 1.32 1.98 2 3 C1.56948999 4.92073697 1.12469544 6.84061564 0.57421875 8.73046875 C-0.21972204 11.86842521 -0.43515549 14.99239132 -0.65625 18.21484375 C-0.7696875 18.80394531 -0.883125 19.39304687 -1 20 C-1.66 20.33 -2.32 20.66 -3 21 C-3.34855655 13.37048445 -3.0017506 7.07555499 0 0 Z " fill="#192B46" transform="translate(176,43)"/>
<path d="M0 0 C2.99220268 1.36370299 5.29026529 2.94908083 7.75 5.125 C8.67039063 5.93324219 8.67039063 5.93324219 9.609375 6.7578125 C10.06828125 7.16773438 10.5271875 7.57765625 11 8 C10.67 8.66 10.34 9.32 10 10 C8.7010161 9.09373216 7.41106833 8.17450463 6.125 7.25 C5.40570313 6.73953125 4.68640625 6.2290625 3.9453125 5.703125 C1.91429435 3.92496453 1.02144988 2.47298393 0 0 Z " fill="#192943" transform="translate(183,171)"/>
<path d="M0 0 C3.33333333 3.33333333 6.66666667 6.66666667 10 10 C7 10 7 10 4.95703125 8.25 C4.24933594 7.5075 3.54164063 6.765 2.8125 6 C2.09707031 5.2575 1.38164062 4.515 0.64453125 3.75 C0.10183594 3.1725 -0.44085938 2.595 -1 2 C-0.67 1.34 -0.34 0.68 0 0 Z " fill="#1C2B45" transform="translate(163,779)"/>
<path d="M0 0 C0 0.66 0 1.32 0 2 C-1.65002828 3.35386936 -3.3174387 4.68678142 -5 6 C-5.33 6.66 -5.66 7.32 -6 8 C-6.66 8 -7.32 8 -8 8 C-6.65580512 3.85539913 -4.87800266 0 0 0 Z " fill="#192949" transform="translate(241,417)"/>
<path d="M0 0 C0.99 0.33 1.98 0.66 3 1 C3 1.66 3 2.32 3 3 C3.639375 3.28875 4.27875 3.5775 4.9375 3.875 C7 5 7 5 8 7 C4.21388773 6.45912682 2.44599233 4.88277668 0 2 C0 1.34 0 0.68 0 0 Z " fill="#1B2B46" transform="translate(611,215)"/>
<path d="M0 0 C1.98 0 3.96 0 6 0 C6 0.33 6 0.66 6 1 C4.02 1 2.04 1 0 1 C0 0.67 0 0.34 0 0 Z " fill="#38455C" transform="translate(602,813)"/>
<path d="M0 0 C1.98 0.99 1.98 0.99 4 2 C3.01 2 2.02 2 1 2 C0.67 1.34 0.34 0.68 0 0 Z " fill="#334662" transform="translate(173,793)"/>
<path d="M0 0 C0.66 0.66 1.32 1.32 2 2 C1.01 2.33 0.02 2.66 -1 3 C-0.67 2.01 -0.34 1.02 0 0 Z " fill="#30435F" transform="translate(150,765)"/>
<path d="M0 0 C0.99 0 1.98 0 3 0 C2.67 0.66 2.34 1.32 2 2 C1.34 1.34 0.68 0.68 0 0 Z " fill="#344660" transform="translate(211,812)"/>
<path d="M0 0 C0.99 0.495 0.99 0.495 2 1 C1.67 1.66 1.34 2.32 1 3 C0.67 2.01 0.34 1.02 0 0 Z " fill="#33445C" transform="translate(157,776)"/>
<path d="M0 0 C0.99 0.33 1.98 0.66 3 1 C2.01 1 1.02 1 0 1 C0 0.67 0 0.34 0 0 Z " fill="#394B67" transform="translate(205,187)"/>
<path d="M0 0 C3 1 3 1 3 1 Z " fill="#34455D" transform="translate(614,811)"/>
<path d="M0 0 C0.66 0.66 1.32 1.32 2 2 C1.34 2 0.68 2 0 2 C0 1.34 0 0.68 0 0 Z " fill="#354258" transform="translate(178,796)"/>
<path d="M0 0 C0.99 0.495 0.99 0.495 2 1 C1.01 1.495 1.01 1.495 0 2 C0 1.34 0 0.68 0 0 Z " fill="#36445D" transform="translate(166,787)"/>
<path d="M0 0 C0.66 0.66 1.32 1.32 2 2 C1.34 2 0.68 2 0 2 C0 1.34 0 0.68 0 0 Z " fill="#35445C" transform="translate(145,756)"/>
<path d="" fill="#324661" transform="translate(0,0)"/>
<path d="" fill="#36455C" transform="translate(0,0)"/>
<path d="" fill="#354864" transform="translate(0,0)"/>
<path d="" fill="#384965" transform="translate(0,0)"/>
<path d="" fill="#374961" transform="translate(0,0)"/>
<path d="" fill="#394B69" transform="translate(0,0)"/>
<path d="" fill="#334663" transform="translate(0,0)"/>
<path d="M0 0 C0.66 0 1.32 0 2 0 C1.67 0.66 1.34 1.32 1 2 C0.67 1.34 0.34 0.68 0 0 Z " fill="#32435E" transform="translate(175,39)"/>
<path d="M0 0 C2 1 2 1 2 1 Z " fill="#3C475C" transform="translate(226,813)"/>
<path d="" fill="#374457" transform="translate(0,0)"/>
<path d="M0 0 C2 1 2 1 2 1 Z " fill="#364154" transform="translate(174,797)"/>
<path d="" fill="#31415F" transform="translate(0,0)"/>
<path d="" fill="#34435B" transform="translate(0,0)"/>
<path d="" fill="#3C4A61" transform="translate(0,0)"/>
<path d="" fill="#364660" transform="translate(0,0)"/>
<path d="" fill="#334967" transform="translate(0,0)"/>
<path d="M0 0 C2 1 2 1 2 1 Z " fill="#3C4C62" transform="translate(635,230)"/>
<path d="M0 0 C2 1 2 1 2 1 Z " fill="#39495F" transform="translate(189,230)"/>
<path d="M0 0 C2 1 2 1 2 1 Z " fill="#3A495F" transform="translate(202,222)"/>
<path d="M0 0 C2 1 2 1 2 1 Z " fill="#394C68" transform="translate(608,188)"/>
<path d="" fill="#344662" transform="translate(0,0)"/>
<path d="" fill="#33445E" transform="translate(0,0)"/>
<path d="" fill="#334561" transform="translate(0,0)"/>
<path d="" fill="#314462" transform="translate(0,0)"/>
<path d="" fill="#344966" transform="translate(0,0)"/>
<path d="" fill="#2F4461" transform="translate(0,0)"/>
<path d="" fill="#314463" transform="translate(0,0)"/>
<path d="" fill="#30425D" transform="translate(0,0)"/>
<path d="M0 0 C2 1 2 1 2 1 Z " fill="#35445F" transform="translate(639,23)"/>
<path d="" fill="#333E4D" transform="translate(0,0)"/>
<path d="" fill="#354458" transform="translate(0,0)"/>
<path d="M0 0 C2 1 2 1 2 1 Z " fill="#324664" transform="translate(585,0)"/>
<path d="M0 0 C2 1 2 1 2 1 Z " fill="#2F4663" transform="translate(563,0)"/>
<path d="" fill="#37435B" transform="translate(0,0)"/>
<path d="" fill="#35485F" transform="translate(0,0)"/>
<path d="" fill="#324762" transform="translate(0,0)"/>
<path d="" fill="#384353" transform="translate(0,0)"/>
<path d="" fill="#3C4456" transform="translate(0,0)"/>
<path d="" fill="#3A4355" transform="translate(0,0)"/>
<path d="" fill="#3B4660" transform="translate(0,0)"/>
<path d="" fill="#394251" transform="translate(0,0)"/>
<path d="" fill="#354156" transform="translate(0,0)"/>
<path d="" fill="#34435B" transform="translate(0,0)"/>
<path d="" fill="#314561" transform="translate(0,0)"/>
<path d="" fill="#384257" transform="translate(0,0)"/>
<path d="" fill="#34435B" transform="translate(0,0)"/>
<path d="" fill="#37455E" transform="translate(0,0)"/>
<path d="" fill="#354156" transform="translate(0,0)"/>
<path d="" fill="#344660" transform="translate(0,0)"/>
<path d="" fill="#344359" transform="translate(0,0)"/>
<path d="" fill="#354051" transform="translate(0,0)"/>
<path d="" fill="#344359" transform="translate(0,0)"/>
<path d="" fill="#38475B" transform="translate(0,0)"/>
<path d="" fill="#334258" transform="translate(0,0)"/>
<path d="" fill="#34435B" transform="translate(0,0)"/>
<path d="" fill="#344357" transform="translate(0,0)"/>
<path d="" fill="#354158" transform="translate(0,0)"/>
<path d="" fill="#344662" transform="translate(0,0)"/>
<path d="" fill="#373F51" transform="translate(0,0)"/>
<path d="" fill="#37455C" transform="translate(0,0)"/>
<path d="" fill="#344359" transform="translate(0,0)"/>
<path d="" fill="#35465C" transform="translate(0,0)"/>
<path d="" fill="#3A465B" transform="translate(0,0)"/>
<path d="" fill="#384152" transform="translate(0,0)"/>
<path d="" fill="#354158" transform="translate(0,0)"/>
<path d="" fill="#3A465D" transform="translate(0,0)"/>
<path d="" fill="#35465E" transform="translate(0,0)"/>
<path d="" fill="#31435F" transform="translate(0,0)"/>
<path d="" fill="#36475D" transform="translate(0,0)"/>
<path d="" fill="#344359" transform="translate(0,0)"/>
<path d="" fill="#3D4859" transform="translate(0,0)"/>
<path d="" fill="#3D4557" transform="translate(0,0)"/>
<path d="" fill="#394452" transform="translate(0,0)"/>
<path d="" fill="#394961" transform="translate(0,0)"/>
<path d="" fill="#3B455B" transform="translate(0,0)"/>
<path d="" fill="#364866" transform="translate(0,0)"/>
<path d="" fill="#3D4957" transform="translate(0,0)"/>
<path d="" fill="#3A4757" transform="translate(0,0)"/>
<path d="" fill="#38465F" transform="translate(0,0)"/>
<path d="" fill="#37455C" transform="translate(0,0)"/>
<path d="" fill="#36475D" transform="translate(0,0)"/>
<path d="" fill="#3A495F" transform="translate(0,0)"/>
<path d="" fill="#3A465D" transform="translate(0,0)"/>
<path d="" fill="#39485E" transform="translate(0,0)"/>
<path d="" fill="#38465F" transform="translate(0,0)"/>
<path d="" fill="#35465E" transform="translate(0,0)"/>
<path d="" fill="#364761" transform="translate(0,0)"/>
<path d="" fill="#384860" transform="translate(0,0)"/>
<path d="" fill="#37455C" transform="translate(0,0)"/>
<path d="" fill="#3B4655" transform="translate(0,0)"/>
<path d="" fill="#3B4153" transform="translate(0,0)"/>
<path d="" fill="#3A465B" transform="translate(0,0)"/>
<path d="" fill="#3B4856" transform="translate(0,0)"/>
<path d="" fill="#3A4B5E" transform="translate(0,0)"/>
<path d="" fill="#364768" transform="translate(0,0)"/>
<path d="" fill="#344966" transform="translate(0,0)"/>
<path d="" fill="#384860" transform="translate(0,0)"/>
<path d="" fill="#36475D" transform="translate(0,0)"/>
<path d="" fill="#39485E" transform="translate(0,0)"/>
<path d="" fill="#3B4C62" transform="translate(0,0)"/>
<path d="" fill="#3F4D68" transform="translate(0,0)"/>
<path d="" fill="#3C495B" transform="translate(0,0)"/>
<path d="" fill="#394A5F" transform="translate(0,0)"/>
<path d="" fill="#35465C" transform="translate(0,0)"/>
<path d="" fill="#3B4A62" transform="translate(0,0)"/>
<path d="" fill="#3D4C60" transform="translate(0,0)"/>
<path d="" fill="#334765" transform="translate(0,0)"/>
<path d="" fill="#374A61" transform="translate(0,0)"/>
<path d="" fill="#3E4B60" transform="translate(0,0)"/>
<path d="" fill="#384A68" transform="translate(0,0)"/>
<path d="" fill="#3D4957" transform="translate(0,0)"/>
<path d="" fill="#384860" transform="translate(0,0)"/>
<path d="" fill="#394B6A" transform="translate(0,0)"/>
<path d="" fill="#3F4A5A" transform="translate(0,0)"/>
<path d="" fill="#3C4D63" transform="translate(0,0)"/>
<path d="" fill="#3B4C64" transform="translate(0,0)"/>
<path d="" fill="#3A4A5B" transform="translate(0,0)"/>
<path d="" fill="#3C495B" transform="translate(0,0)"/>
<path d="" fill="#3D4859" transform="translate(0,0)"/>
<path d="" fill="#3A495F" transform="translate(0,0)"/>
<path d="" fill="#394961" transform="translate(0,0)"/>
<path d="" fill="#3B4C62" transform="translate(0,0)"/>
<path d="" fill="#374A5F" transform="translate(0,0)"/>
<path d="" fill="#354763" transform="translate(0,0)"/>
<path d="" fill="#37455E" transform="translate(0,0)"/>
<path d="" fill="#304363" transform="translate(0,0)"/>
<path d="" fill="#3B4657" transform="translate(0,0)"/>
<path d="" fill="#39485E" transform="translate(0,0)"/>
<path d="" fill="#39485E" transform="translate(0,0)"/>
<path d="" fill="#34425D" transform="translate(0,0)"/>
<path d="" fill="#374560" transform="translate(0,0)"/>
<path d="" fill="#36445B" transform="translate(0,0)"/>
<path d="" fill="#38485E" transform="translate(0,0)"/>
<path d="" fill="#324664" transform="translate(0,0)"/>
<path d="" fill="#324157" transform="translate(0,0)"/>
<path d="" fill="#324155" transform="translate(0,0)"/>
<path d="" fill="#384257" transform="translate(0,0)"/>
<path d="" fill="#38445E" transform="translate(0,0)"/>
<path d="" fill="#333F54" transform="translate(0,0)"/>
<path d="" fill="#364357" transform="translate(0,0)"/>
<path d="" fill="#333F54" transform="translate(0,0)"/>
<path d="" fill="#344359" transform="translate(0,0)"/>
<path d="" fill="#33435B" transform="translate(0,0)"/>
<path d="" fill="#314056" transform="translate(0,0)"/>
<path d="" fill="#33435B" transform="translate(0,0)"/>
<path d="" fill="#354053" transform="translate(0,0)"/>
<path d="" fill="#37455C" transform="translate(0,0)"/>
<path d="" fill="#38445E" transform="translate(0,0)"/>
<path d="" fill="#37465A" transform="translate(0,0)"/>
</svg>
