<?xml version="1.0" encoding="UTF-8"?>
<svg version="1.1" xmlns="http://www.w3.org/2000/svg" width="891" height="891">
<path d="M0 0 C1.62360727 0.72936848 3.24730062 1.45854539 4.87109375 2.1875 C16.76460225 7.60349428 28.06098705 13.96879837 39.37451172 20.49560547 C42.34351213 22.19683111 45.33534719 23.85276999 48.33276367 25.50317383 C76.94537556 41.31243436 103.82717893 60.60817275 130.05859375 80.0390625 C131.09862549 80.80138184 131.09862549 80.80138184 132.15966797 81.57910156 C134 83 134 83 136.53515625 85.4609375 C139.48678004 87.30394823 141.29127944 87.1915606 144.66552734 86.56445312 C149.41753137 85.41546407 154.11279503 84.09500001 158.8125 82.75 C192.45865628 73.44951419 226.97726502 69.76794539 261.8125 69.8125 C263.23654648 69.81390488 263.23654648 69.81390488 264.68936157 69.81533813 C301.96973885 69.89482387 343.89130888 72.63658472 379.01977539 86.56005859 C382.4201802 87.31551778 385.03036224 86.572002 387.99438477 84.82348633 C388.63690186 84.33130615 389.27941895 83.83912598 389.94140625 83.33203125 C391.04778442 82.49792725 391.04778442 82.49792725 392.17651367 81.64697266 C392.96388916 81.04159668 393.75126465 80.4362207 394.5625 79.8125 C396.27719133 78.5228035 397.99338333 77.23510019 399.7109375 75.94921875 C400.58975586 75.28970215 401.46857422 74.63018555 402.37402344 73.95068359 C516.15766559 -10.57249424 516.15766559 -10.57249424 577 -18 C577.80695312 -18.10054688 578.61390625 -18.20109375 579.4453125 -18.3046875 C589.10121838 -18.89304019 598.8208756 -15.14504916 606.0703125 -8.91796875 C621.85463923 6.77050174 624.63714724 30.64260976 626.453125 51.82299805 C626.62180861 53.77555871 626.80684272 55.72668475 626.9921875 57.67773438 C629.23537649 82.15998037 629.24330438 106.80874485 629.25 131.375 C629.25044186 132.12452438 629.25088371 132.87404877 629.25133896 133.64628601 C629.27077398 196.88930815 623.06448672 259.46150028 606.84448242 320.68310547 C605.15434674 327.00698943 605.15434674 327.00698943 605.85546875 333.38671875 C606.06397461 334.23016846 606.27248047 335.07361816 606.48730469 335.94262695 C606.83390137 337.30133911 606.83390137 337.30133911 607.1875 338.6875 C609.28148261 347.34757183 610.92358393 356.00225181 612.25 364.8125 C612.49399536 366.42934692 612.49399536 366.42934692 612.74291992 368.07885742 C614.22584567 378.15881903 615.11719141 387.80434702 615 398 C615.85480957 397.83201904 616.70961914 397.66403809 617.59033203 397.4909668 C629.50357805 395.20019392 641.46479639 393.24754588 653.44726562 391.35571289 C656.89050561 390.81004274 660.33191731 390.2536659 663.7734375 389.69726562 C665.99208285 389.34569314 668.21082949 388.99475909 670.4296875 388.64453125 C671.44344452 388.47895218 672.45720154 388.31337311 673.50167847 388.14277649 C689.91066644 385.59361287 689.91066644 385.59361287 695.875 388.5625 C700.12959227 391.88108197 702.45540966 394.82790163 703.37890625 400.20703125 C703.66906972 405.70141687 702.62085076 409.82153346 699 414 C691.6064554 418.75840359 683.35835737 419.54741963 674.828125 420.796875 C673.25713624 421.03668517 671.68631722 421.27760964 670.11566162 421.51959229 C666.83885931 422.02170037 663.5609207 422.51514659 660.28173828 423.00146484 C656.0813025 423.62442857 651.88321432 424.26173893 647.68577957 424.90458298 C643.67140476 425.51899134 639.65610978 426.12726902 635.640625 426.734375 C634.87723061 426.8501162 634.11383621 426.96585739 633.32730865 427.0851059 C631.16692935 427.41130256 629.00596285 427.73324752 626.84472656 428.05371094 C625.00228363 428.32873444 625.00228363 428.32873444 623.12261963 428.60931396 C620 429 620 429 616 429 C616.03480469 429.86496094 616.06960938 430.72992187 616.10546875 431.62109375 C616.39201903 444.95250446 616.2391362 460.28259141 612 473 C613.01441162 473.10449463 614.02882324 473.20898926 615.07397461 473.31665039 C627.21281494 474.59932128 639.29194335 476.22483339 651.37133789 477.97680664 C654.58825263 478.44121779 657.80674162 478.89348818 661.02539062 479.34570312 C663.10166957 479.64509172 665.17784547 479.94519603 667.25390625 480.24609375 C668.67444054 480.44313148 668.67444054 480.44313148 670.12367249 480.64414978 C684.75012209 482.80781127 684.75012209 482.80781127 689.4375 487.375 C692.43977074 492.41881484 693.52189629 496.05038234 693 502 C690.95682161 507.67549553 687.40252559 511.29873721 682 514 C673.40987484 514.81795735 664.82842564 513.12241506 656.3671875 511.8125 C654.87942019 511.58765563 653.39155407 511.36346423 651.90359497 511.13989258 C648.01962281 510.55454259 644.13704211 509.96043039 640.25469971 509.36437988 C636.2799889 508.75577172 632.30400477 508.15560283 628.328125 507.5546875 C620.55082455 506.37797053 612.774976 505.19197838 605 504 C604.88204575 504.57889984 604.76409149 505.15779968 604.64256287 505.75424194 C603.66355945 510.38165539 602.5128133 514.70784372 600.72265625 519.1015625 C600.29146484 520.16890625 599.86027344 521.23625 599.41601562 522.3359375 C598.96935547 523.42132812 598.52269531 524.50671875 598.0625 525.625 C597.61970703 526.718125 597.17691406 527.81125 596.72070312 528.9375 C594.53603839 534.31613807 592.31168537 539.6747314 590 545 C599.07642347 549.32112773 608.38754365 553.00584143 617.72958374 556.70172119 C624.73543315 559.4778754 631.72792906 562.28772744 638.72357178 565.08947754 C640.75701389 565.90281077 642.79160349 566.71317872 644.82666016 567.52246094 C647.7878156 568.70586729 650.73927206 569.90983352 653.6875 571.125 C654.8938208 571.60018066 654.8938208 571.60018066 656.12451172 572.08496094 C661.76182736 574.45000568 665.20378246 577.40756492 668 583 C668.76038689 589.81855126 668.2542913 594.54578038 664 600 C660.06996115 603.35296986 656.60543846 604.44606486 651.36621094 604.31958008 C646.38903096 603.64736293 641.86075519 601.53510708 637.25 599.625 C636.08218994 599.15473389 634.91437988 598.68446777 633.71118164 598.19995117 C629.46529471 596.48800147 625.23273739 594.74415426 621 593 C619.14637112 592.23734712 617.29268998 591.47482123 615.43896484 590.71240234 C614.4653299 590.31186646 613.49169495 589.91133057 612.48855591 589.49865723 C609.47876117 588.26101658 606.46838708 587.02479228 603.45800781 585.78857422 C599.46557811 584.14878301 595.47720654 582.49960231 591.49121094 580.84423828 C589.6387302 580.07961128 587.78619367 579.31511943 585.93359375 578.55078125 C585.0754155 578.1919133 584.21723724 577.83304535 583.33305359 577.46330261 C582.54179581 577.13808121 581.75053802 576.8128598 580.93530273 576.4777832 C580.24476303 576.19119339 579.55422333 575.90460358 578.84275818 575.60932922 C576.84876027 574.8430281 576.84876027 574.8430281 574 575 C572.20169674 577.33900931 570.594482 579.65200623 569 582.125 C561.76169074 592.99336861 553.89296412 603.15489893 545.046875 612.76953125 C543.15328813 614.83296274 541.32173836 616.93574581 539.5 619.0625 C533.20770112 626.27030657 526.33117796 632.86145386 519 639 C518.47615723 639.4429541 517.95231445 639.8859082 517.41259766 640.34228516 C500.13135182 654.90320232 481.82718984 667.18447432 462 678 C460.81954102 678.65693848 460.81954102 678.65693848 459.61523438 679.32714844 C421.41948617 700.58097463 378.57317232 712.9668921 335.6875 720.3125 C334.97706543 720.43614929 334.26663086 720.55979858 333.53466797 720.68719482 C311.760094 724.42993693 289.99352359 725.33340436 267.92797852 725.26074219 C264.06966411 725.25001991 260.21181609 725.2607111 256.35351562 725.2734375 C234.94622872 725.28674434 213.78168134 724.08846315 192.625 720.75 C191.9406488 720.64362213 191.25629761 720.53724426 190.5512085 720.42764282 C121.21661463 709.59777597 53.58262352 682.25445812 1 635 C0.42491699 634.48663086 -0.15016602 633.97326172 -0.74267578 633.44433594 C-6.5580852 628.23674724 -12.28144394 623.02476728 -17.2890625 617.015625 C-18.53242529 615.55084144 -19.8263806 614.12854409 -21.1484375 612.734375 C-26.62210296 606.95956937 -31.4658145 600.89844005 -36.1875 594.5 C-36.75734619 593.72938232 -37.32719238 592.95876465 -37.91430664 592.16479492 C-42.20731822 586.27282711 -46.14430705 580.1854322 -50 574 C-63.69404152 579.17149204 -77.30499954 584.48677449 -90.8125 590.125 C-99.47558812 593.72842018 -108.13832449 597.32799839 -116.875 600.75 C-118.12180542 601.25297607 -118.12180542 601.25297607 -119.39379883 601.76611328 C-125.19777409 604.0046774 -130.06731887 605.05576521 -136.125 602.875 C-140.41090933 600.07984174 -143.34925239 596.95224283 -145 592 C-145.58771481 586.00530894 -144.47378088 581.82135278 -141 577 C-135.6645506 572.67835758 -129.21005619 570.26875171 -122.859375 567.85546875 C-121.41597748 567.29524773 -121.41597748 567.29524773 -119.94342041 566.72370911 C-116.88187241 565.53723171 -113.81615821 564.36200517 -110.75 563.1875 C-107.73884167 562.02553285 -104.72859362 560.86122963 -101.71838379 559.69680786 C-99.73757471 558.93088016 -97.7563764 558.16595826 -95.77478027 557.40206909 C-86.14873617 553.68696588 -76.56968788 549.85757418 -67 546 C-67 542.66682014 -67.73516341 540.9237208 -69.046875 537.87890625 C-69.48 536.85990234 -69.913125 535.84089844 -70.359375 534.79101562 C-70.81828125 533.72560547 -71.2771875 532.66019531 -71.75 531.5625 C-81 510.06431686 -81 510.06431686 -81 504 C-82.20697037 504.18792114 -82.20697037 504.18792114 -83.43832397 504.37963867 C-91.0570266 505.56446719 -98.67680709 506.74198856 -106.29787254 507.91151428 C-110.214996 508.51289267 -114.13165746 509.11699269 -118.04736328 509.72753906 C-121.83298395 510.31769595 -125.61968525 510.90040756 -129.40721512 511.47817993 C-130.84514058 511.69882637 -132.28267172 511.9220601 -133.71976852 512.14804077 C-154.79703489 515.45748537 -154.79703489 515.45748537 -160.875 512.375 C-165.5736809 508.80400251 -167.97976702 505.43632707 -169 499.625 C-169.33784471 494.7386119 -168.11517742 490.7984017 -165 487 C-159.3432268 482.07384243 -152.91890339 481.6811554 -145.67578125 480.67578125 C-144.37859665 480.48404831 -143.08141205 480.29231537 -141.74491882 480.09477234 C-138.30364318 479.58669778 -134.85994339 479.0973947 -131.41546631 478.61157227 C-128.62948675 478.21536562 -125.8455703 477.80568839 -123.06165791 477.39524555 C-99.25630972 473.88809177 -99.25630972 473.88809177 -88 473 C-88.09432816 472.40030396 -88.18865631 471.80060791 -88.2858429 471.18273926 C-90.19565785 459.01541609 -92.0621661 447.00330318 -92.01953125 434.65625 C-92.01671143 433.59212891 -92.0138916 432.52800781 -92.01098633 431.43164062 C-92.00736084 430.62919922 -92.00373535 429.82675781 -92 429 C-92.83087883 428.88177887 -92.83087883 428.88177887 -93.67854309 428.76116943 C-96.37555578 428.37735471 -99.07254511 427.99337617 -101.76953125 427.609375 C-102.78521683 427.46480362 -103.8009024 427.32023224 -104.84736633 427.17127991 C-110.42916773 426.37626029 -116.0105689 425.57856362 -121.59130859 424.77612305 C-123.83560522 424.45356626 -126.07990857 424.13105621 -128.32421875 423.80859375 C-129.98324219 423.57018013 -129.98324219 423.57018013 -131.67578125 423.32695007 C-137.11726143 422.54737021 -142.55970876 421.78012966 -148.00852966 421.05355835 C-149.9264432 420.79758042 -151.84349681 420.53518381 -153.76049805 420.27246094 C-155.92834318 419.97609491 -158.09773478 419.69072874 -160.26879883 419.41894531 C-167.35448756 418.43077834 -172.37266551 416.76206959 -177.4375 411.4375 C-179.66124598 406.54525884 -179.88215857 402.28528046 -179 397 C-177.28711666 392.9692575 -174.86316816 390.63710031 -171.375 388.0625 C-161.79911207 385.04786861 -151.18415594 387.65705182 -141.48828125 389.1875 C-140.02437659 389.41241978 -138.56035958 389.63660941 -137.09623718 389.86010742 C-133.27954317 390.44469833 -129.464437 391.03906575 -125.64959717 391.63562012 C-121.74193397 392.24486901 -117.83282159 392.84466906 -113.92382812 393.4453125 C-106.2811191 394.62106807 -98.64006581 395.80717611 -91 397 C-91.00770416 396.35416962 -91.01540833 395.70833923 -91.02334595 395.04293823 C-91.07457153 387.61419504 -90.36924551 380.48596422 -89.375 373.125 C-89.11855713 371.17750854 -89.11855713 371.17750854 -88.85693359 369.19067383 C-87.42890052 358.72311988 -85.33035267 348.47731236 -82.75537109 338.22509766 C-81.12489745 331.36688594 -80.86915992 326.68933606 -83 320 C-83.50131702 318.11273894 -83.9941515 316.22321305 -84.48046875 314.33203125 C-84.75391113 313.29473877 -85.02735352 312.25744629 -85.30908203 311.1887207 C-93.69439514 278.95956702 -98.71867525 246.11310747 -102 213 C-102.0835675 212.168172 -102.16713501 211.33634399 -102.25323486 210.47930908 C-119.4955977 36.52766089 -119.4955977 36.52766089 -85 -6 C-61.96070775 -30.28906518 -24.82106052 -11.38426209 0 0 Z " fill="#C8E5F5" transform="translate(184,93)"/>
<path d="M0 0 C1.62360727 0.72936848 3.24730062 1.45854539 4.87109375 2.1875 C16.76460225 7.60349428 28.06098705 13.96879837 39.37451172 20.49560547 C42.34351213 22.19683111 45.33534719 23.85276999 48.33276367 25.50317383 C76.94537556 41.31243436 103.82717893 60.60817275 130.05859375 80.0390625 C131.09862549 80.80138184 131.09862549 80.80138184 132.15966797 81.57910156 C134 83 134 83 136.53515625 85.4609375 C139.48678004 87.30394823 141.29127944 87.1915606 144.66552734 86.56445312 C149.41753137 85.41546407 154.11279503 84.09500001 158.8125 82.75 C192.45865628 73.44951419 226.97726502 69.76794539 261.8125 69.8125 C263.23654648 69.81390488 263.23654648 69.81390488 264.68936157 69.81533813 C301.96973885 69.89482387 343.89130888 72.63658472 379.01977539 86.56005859 C382.4201802 87.31551778 385.03036224 86.572002 387.99438477 84.82348633 C388.63690186 84.33130615 389.27941895 83.83912598 389.94140625 83.33203125 C391.04778442 82.49792725 391.04778442 82.49792725 392.17651367 81.64697266 C392.96388916 81.04159668 393.75126465 80.4362207 394.5625 79.8125 C396.27719133 78.5228035 397.99338333 77.23510019 399.7109375 75.94921875 C400.58975586 75.28970215 401.46857422 74.63018555 402.37402344 73.95068359 C516.15766559 -10.57249424 516.15766559 -10.57249424 577 -18 C577.80695312 -18.10054688 578.61390625 -18.20109375 579.4453125 -18.3046875 C589.10121838 -18.89304019 598.8208756 -15.14504916 606.0703125 -8.91796875 C621.85463923 6.77050174 624.63714724 30.64260976 626.453125 51.82299805 C626.62180861 53.77555871 626.80684272 55.72668475 626.9921875 57.67773438 C629.23537649 82.15998037 629.24330438 106.80874485 629.25 131.375 C629.25044186 132.12452438 629.25088371 132.87404877 629.25133896 133.64628601 C629.27077398 196.88930815 623.06448672 259.46150028 606.84448242 320.68310547 C605.15434674 327.00698943 605.15434674 327.00698943 605.85546875 333.38671875 C606.06397461 334.23016846 606.27248047 335.07361816 606.48730469 335.94262695 C606.83390137 337.30133911 606.83390137 337.30133911 607.1875 338.6875 C609.28148261 347.34757183 610.92358393 356.00225181 612.25 364.8125 C612.49399536 366.42934692 612.49399536 366.42934692 612.74291992 368.07885742 C614.22584567 378.15881903 615.11719141 387.80434702 615 398 C615.85480957 397.83201904 616.70961914 397.66403809 617.59033203 397.4909668 C629.50357805 395.20019392 641.46479639 393.24754588 653.44726562 391.35571289 C656.89050561 390.81004274 660.33191731 390.2536659 663.7734375 389.69726562 C665.99208285 389.34569314 668.21082949 388.99475909 670.4296875 388.64453125 C671.44344452 388.47895218 672.45720154 388.31337311 673.50167847 388.14277649 C689.91066644 385.59361287 689.91066644 385.59361287 695.875 388.5625 C700.12959227 391.88108197 702.45540966 394.82790163 703.37890625 400.20703125 C703.66906972 405.70141687 702.62085076 409.82153346 699 414 C691.6064554 418.75840359 683.35835737 419.54741963 674.828125 420.796875 C673.25713624 421.03668517 671.68631722 421.27760964 670.11566162 421.51959229 C666.83885931 422.02170037 663.5609207 422.51514659 660.28173828 423.00146484 C656.0813025 423.62442857 651.88321432 424.26173893 647.68577957 424.90458298 C643.67140476 425.51899134 639.65610978 426.12726902 635.640625 426.734375 C634.87723061 426.8501162 634.11383621 426.96585739 633.32730865 427.0851059 C631.16692935 427.41130256 629.00596285 427.73324752 626.84472656 428.05371094 C625.00228363 428.32873444 625.00228363 428.32873444 623.12261963 428.60931396 C620 429 620 429 616 429 C616.03480469 429.86496094 616.06960938 430.72992187 616.10546875 431.62109375 C616.39201903 444.95250446 616.2391362 460.28259141 612 473 C613.01441162 473.10449463 614.02882324 473.20898926 615.07397461 473.31665039 C627.21281494 474.59932128 639.29194335 476.22483339 651.37133789 477.97680664 C654.58825263 478.44121779 657.80674162 478.89348818 661.02539062 479.34570312 C663.10166957 479.64509172 665.17784547 479.94519603 667.25390625 480.24609375 C668.67444054 480.44313148 668.67444054 480.44313148 670.12367249 480.64414978 C684.75012209 482.80781127 684.75012209 482.80781127 689.4375 487.375 C692.43977074 492.41881484 693.52189629 496.05038234 693 502 C690.95682161 507.67549553 687.40252559 511.29873721 682 514 C673.40987484 514.81795735 664.82842564 513.12241506 656.3671875 511.8125 C654.87942019 511.58765563 653.39155407 511.36346423 651.90359497 511.13989258 C648.01962281 510.55454259 644.13704211 509.96043039 640.25469971 509.36437988 C636.2799889 508.75577172 632.30400477 508.15560283 628.328125 507.5546875 C620.55082455 506.37797053 612.774976 505.19197838 605 504 C604.88204575 504.57889984 604.76409149 505.15779968 604.64256287 505.75424194 C603.66355945 510.38165539 602.5128133 514.70784372 600.72265625 519.1015625 C600.29146484 520.16890625 599.86027344 521.23625 599.41601562 522.3359375 C598.96935547 523.42132812 598.52269531 524.50671875 598.0625 525.625 C597.61970703 526.718125 597.17691406 527.81125 596.72070312 528.9375 C594.53603839 534.31613807 592.31168537 539.6747314 590 545 C599.07642347 549.32112773 608.38754365 553.00584143 617.72958374 556.70172119 C624.73543315 559.4778754 631.72792906 562.28772744 638.72357178 565.08947754 C640.75701389 565.90281077 642.79160349 566.71317872 644.82666016 567.52246094 C647.7878156 568.70586729 650.73927206 569.90983352 653.6875 571.125 C654.8938208 571.60018066 654.8938208 571.60018066 656.12451172 572.08496094 C661.76182736 574.45000568 665.20378246 577.40756492 668 583 C668.76038689 589.81855126 668.2542913 594.54578038 664 600 C660.06996115 603.35296986 656.60543846 604.44606486 651.36621094 604.31958008 C646.38903096 603.64736293 641.86075519 601.53510708 637.25 599.625 C636.08218994 599.15473389 634.91437988 598.68446777 633.71118164 598.19995117 C629.46529471 596.48800147 625.23273739 594.74415426 621 593 C619.14637112 592.23734712 617.29268998 591.47482123 615.43896484 590.71240234 C614.4653299 590.31186646 613.49169495 589.91133057 612.48855591 589.49865723 C609.47876117 588.26101658 606.46838708 587.02479228 603.45800781 585.78857422 C599.46557811 584.14878301 595.47720654 582.49960231 591.49121094 580.84423828 C589.6387302 580.07961128 587.78619367 579.31511943 585.93359375 578.55078125 C585.0754155 578.1919133 584.21723724 577.83304535 583.33305359 577.46330261 C582.54179581 577.13808121 581.75053802 576.8128598 580.93530273 576.4777832 C580.24476303 576.19119339 579.55422333 575.90460358 578.84275818 575.60932922 C576.84876027 574.8430281 576.84876027 574.8430281 574 575 C572.20169674 577.33900931 570.594482 579.65200623 569 582.125 C561.76169074 592.99336861 553.89296412 603.15489893 545.046875 612.76953125 C543.15328813 614.83296274 541.32173836 616.93574581 539.5 619.0625 C533.20770112 626.27030657 526.33117796 632.86145386 519 639 C518.47615723 639.4429541 517.95231445 639.8859082 517.41259766 640.34228516 C500.13135182 654.90320232 481.82718984 667.18447432 462 678 C460.81954102 678.65693848 460.81954102 678.65693848 459.61523438 679.32714844 C421.41948617 700.58097463 378.57317232 712.9668921 335.6875 720.3125 C334.97706543 720.43614929 334.26663086 720.55979858 333.53466797 720.68719482 C311.760094 724.42993693 289.99352359 725.33340436 267.92797852 725.26074219 C264.06966411 725.25001991 260.21181609 725.2607111 256.35351562 725.2734375 C234.94622872 725.28674434 213.78168134 724.08846315 192.625 720.75 C191.9406488 720.64362213 191.25629761 720.53724426 190.5512085 720.42764282 C121.21661463 709.59777597 53.58262352 682.25445812 1 635 C0.42491699 634.48663086 -0.15016602 633.97326172 -0.74267578 633.44433594 C-6.5580852 628.23674724 -12.28144394 623.02476728 -17.2890625 617.015625 C-18.53242529 615.55084144 -19.8263806 614.12854409 -21.1484375 612.734375 C-26.62210296 606.95956937 -31.4658145 600.89844005 -36.1875 594.5 C-36.75734619 593.72938232 -37.32719238 592.95876465 -37.91430664 592.16479492 C-42.20731822 586.27282711 -46.14430705 580.1854322 -50 574 C-63.69404152 579.17149204 -77.30499954 584.48677449 -90.8125 590.125 C-99.47558812 593.72842018 -108.13832449 597.32799839 -116.875 600.75 C-118.12180542 601.25297607 -118.12180542 601.25297607 -119.39379883 601.76611328 C-125.19777409 604.0046774 -130.06731887 605.05576521 -136.125 602.875 C-140.41090933 600.07984174 -143.34925239 596.95224283 -145 592 C-145.58771481 586.00530894 -144.47378088 581.82135278 -141 577 C-135.6645506 572.67835758 -129.21005619 570.26875171 -122.859375 567.85546875 C-121.41597748 567.29524773 -121.41597748 567.29524773 -119.94342041 566.72370911 C-116.88187241 565.53723171 -113.81615821 564.36200517 -110.75 563.1875 C-107.73884167 562.02553285 -104.72859362 560.86122963 -101.71838379 559.69680786 C-99.73757471 558.93088016 -97.7563764 558.16595826 -95.77478027 557.40206909 C-86.14873617 553.68696588 -76.56968788 549.85757418 -67 546 C-67 542.66682014 -67.73516341 540.9237208 -69.046875 537.87890625 C-69.48 536.85990234 -69.913125 535.84089844 -70.359375 534.79101562 C-70.81828125 533.72560547 -71.2771875 532.66019531 -71.75 531.5625 C-81 510.06431686 -81 510.06431686 -81 504 C-82.20697037 504.18792114 -82.20697037 504.18792114 -83.43832397 504.37963867 C-91.0570266 505.56446719 -98.67680709 506.74198856 -106.29787254 507.91151428 C-110.214996 508.51289267 -114.13165746 509.11699269 -118.04736328 509.72753906 C-121.83298395 510.31769595 -125.61968525 510.90040756 -129.40721512 511.47817993 C-130.84514058 511.69882637 -132.28267172 511.9220601 -133.71976852 512.14804077 C-154.79703489 515.45748537 -154.79703489 515.45748537 -160.875 512.375 C-165.5736809 508.80400251 -167.97976702 505.43632707 -169 499.625 C-169.33784471 494.7386119 -168.11517742 490.7984017 -165 487 C-159.3432268 482.07384243 -152.91890339 481.6811554 -145.67578125 480.67578125 C-144.37859665 480.48404831 -143.08141205 480.29231537 -141.74491882 480.09477234 C-138.30364318 479.58669778 -134.85994339 479.0973947 -131.41546631 478.61157227 C-128.62948675 478.21536562 -125.8455703 477.80568839 -123.06165791 477.39524555 C-99.25630972 473.88809177 -99.25630972 473.88809177 -88 473 C-88.09432816 472.40030396 -88.18865631 471.80060791 -88.2858429 471.18273926 C-90.19565785 459.01541609 -92.0621661 447.00330318 -92.01953125 434.65625 C-92.01671143 433.59212891 -92.0138916 432.52800781 -92.01098633 431.43164062 C-92.00736084 430.62919922 -92.00373535 429.82675781 -92 429 C-92.83087883 428.88177887 -92.83087883 428.88177887 -93.67854309 428.76116943 C-96.37555578 428.37735471 -99.07254511 427.99337617 -101.76953125 427.609375 C-102.78521683 427.46480362 -103.8009024 427.32023224 -104.84736633 427.17127991 C-110.42916773 426.37626029 -116.0105689 425.57856362 -121.59130859 424.77612305 C-123.83560522 424.45356626 -126.07990857 424.13105621 -128.32421875 423.80859375 C-129.98324219 423.57018013 -129.98324219 423.57018013 -131.67578125 423.32695007 C-137.11726143 422.54737021 -142.55970876 421.78012966 -148.00852966 421.05355835 C-149.9264432 420.79758042 -151.84349681 420.53518381 -153.76049805 420.27246094 C-155.92834318 419.97609491 -158.09773478 419.69072874 -160.26879883 419.41894531 C-167.35448756 418.43077834 -172.37266551 416.76206959 -177.4375 411.4375 C-179.66124598 406.54525884 -179.88215857 402.28528046 -179 397 C-177.28711666 392.9692575 -174.86316816 390.63710031 -171.375 388.0625 C-161.79911207 385.04786861 -151.18415594 387.65705182 -141.48828125 389.1875 C-140.02437659 389.41241978 -138.56035958 389.63660941 -137.09623718 389.86010742 C-133.27954317 390.44469833 -129.464437 391.03906575 -125.64959717 391.63562012 C-121.74193397 392.24486901 -117.83282159 392.84466906 -113.92382812 393.4453125 C-106.2811191 394.62106807 -98.64006581 395.80717611 -91 397 C-91.00770416 396.35416962 -91.01540833 395.70833923 -91.02334595 395.04293823 C-91.07457153 387.61419504 -90.36924551 380.48596422 -89.375 373.125 C-89.11855713 371.17750854 -89.11855713 371.17750854 -88.85693359 369.19067383 C-87.42890052 358.72311988 -85.33035267 348.47731236 -82.75537109 338.22509766 C-81.12489745 331.36688594 -80.86915992 326.68933606 -83 320 C-83.50131702 318.11273894 -83.9941515 316.22321305 -84.48046875 314.33203125 C-84.75391113 313.29473877 -85.02735352 312.25744629 -85.30908203 311.1887207 C-93.69439514 278.95956702 -98.71867525 246.11310747 -102 213 C-102.0835675 212.168172 -102.16713501 211.33634399 -102.25323486 210.47930908 C-119.4955977 36.52766089 -119.4955977 36.52766089 -85 -6 C-61.96070775 -30.28906518 -24.82106052 -11.38426209 0 0 Z M226.12939453 102.73535156 C223.43999445 102.9627903 220.75020198 103.1683085 218.05859375 103.3671875 C180.50267584 106.42572643 143.91959696 118.00821845 110 134 C109.29246582 134.33112793 108.58493164 134.66225586 107.85595703 135.00341797 C78.95244292 148.62827296 52.96959872 167.90046184 30 190 C29.21882813 190.74830078 29.21882813 190.74830078 28.421875 191.51171875 C21.39559167 198.27712522 15.02751485 205.31543639 9 213 C8.11842219 214.09214363 7.23555319 215.18324596 6.3515625 216.2734375 C-0.29369899 224.52026325 -6.34940296 233.04327445 -12 242 C-12.60062256 242.94770264 -12.60062256 242.94770264 -13.21337891 243.91455078 C-42.36513187 290.39533611 -59.84655389 348.15363725 -61 403 C-60.21351074 403.09498779 -59.42702148 403.18997559 -58.61669922 403.2878418 C-55.0330928 403.73295287 -51.4544124 404.20987902 -47.875 404.6875 C-46.6375 404.83638672 -45.4 404.98527344 -44.125 405.13867188 C-37.26913672 406.07858861 -32.68850991 406.73469626 -28 412 C-25.53782919 415.85383258 -25.83375598 419.40217839 -26.4609375 423.78515625 C-27.52415416 428.15358992 -29.66861577 431.02963015 -33.26171875 433.6484375 C-36.46546007 435.22974206 -38.50720011 435.33811152 -42.0625 435.25 C-43.19171875 435.22421875 -44.3209375 435.1984375 -45.484375 435.171875 C-50.67158014 434.9182783 -55.83198902 434.50517572 -61 434 C-61.19110626 441.82763511 -60.66444597 449.36913394 -59.625 457.125 C-59.49867187 458.16398437 -59.37234375 459.20296875 -59.2421875 460.2734375 C-59.11328125 461.25828125 -58.984375 462.243125 -58.8515625 463.2578125 C-58.73635254 464.1461377 -58.62114258 465.03446289 -58.50244141 465.94970703 C-58.33663574 466.62630371 -58.17083008 467.30290039 -58 468 C-55.27824503 469.36087749 -53.20492561 468.66519348 -50.27734375 468.2734375 C-43.04998201 467.40565822 -37.00693967 467.3897077 -31 472 C-28.18954574 475.19837611 -27.0837118 478.31834676 -26.5625 482.5625 C-27.19700894 487.54792737 -28.68606713 490.64852619 -32.1875 494.25 C-37.31017628 497.43744302 -43.09542415 498.11431362 -49 499 C-48.4712501 505.55467543 -46.17068162 511.04067401 -43.625 517.0625 C-43.22539062 518.02994141 -42.82578125 518.99738281 -42.4140625 519.99414062 C-40.43335519 524.75370209 -38.38859057 529.4308574 -36 534 C-35.45472656 533.84402344 -34.90945312 533.68804688 -34.34765625 533.52734375 C-27.56914752 531.7776774 -21.79768744 531.56531808 -15.1875 534.0625 C-11.41685015 537.40221844 -9.23750631 541.24306406 -8.80078125 546.3125 C-9.13938928 552.03981302 -10.82745887 555.11195031 -15 559 C-17.8125 560.375 -17.8125 560.375 -20 561 C-16.58347552 581.45169515 17.01133931 608.58422438 33 621 C34.50820312 622.19882813 34.50820312 622.19882813 36.046875 623.421875 C65.17628205 646.42279244 98.81774321 663.45204501 134 675 C135.04478516 675.34901367 136.08957031 675.69802734 137.16601562 676.05761719 C205.88516117 698.85892389 284.53282467 702.23292348 355 685 C356.07910645 684.73735352 357.15821289 684.47470703 358.27001953 684.20410156 C407.64018912 672.00811317 454.66182379 651.73319023 494 619 C494.5779834 618.52353027 495.1559668 618.04706055 495.75146484 617.55615234 C508.07743071 607.36010263 519.05956167 596.55634315 529 584 C530.54012535 582.14455287 532.08179521 580.2903867 533.625 578.4375 C541.1153648 570.48391357 541.1153648 570.48391357 545 561 C544.45730469 560.75765625 543.91460938 560.5153125 543.35546875 560.265625 C536.12749316 556.87954634 536.12749316 556.87954634 534 553 C532.75800152 549.27400457 532.46491445 545.87020783 533 542 C535.02693372 538.16330403 537.10071426 535.00233592 541 533 C546.12537554 531.64235432 550.26675878 531.87435016 555.3046875 533.4921875 C556.18882324 533.77175293 557.07295898 534.05131836 557.98388672 534.33935547 C558.6492041 534.55736816 559.31452148 534.77538086 560 535 C569.38039602 517.61647495 569.38039602 517.61647495 574 499 C572.69675781 498.85304688 572.69675781 498.85304688 571.3671875 498.703125 C563.73889884 497.71332468 558.69408175 497.0048819 553.375 491.23828125 C551.60872933 488.3630736 551.59960825 486.41844269 551.625 483.0625 C551.61726562 482.04285156 551.60953125 481.02320313 551.6015625 479.97265625 C552.14654876 475.90663133 553.48185056 473.19871981 556.7265625 470.63671875 C563.74774643 467.12612679 569.65486571 467.74091914 577.2890625 468.51953125 C578.1754541 468.60952393 579.0618457 468.6995166 579.97509766 468.79223633 C580.64331543 468.86079834 581.3115332 468.92936035 582 469 C584.68929551 451.58300684 584.68929551 451.58300684 585 434 C584.28457031 434.0721875 583.56914063 434.144375 582.83203125 434.21875 C562.48496334 436.11394908 562.48496334 436.11394908 556.375 433.375 C552.21940832 429.21940832 550.83228946 425.75024192 550.625 419.9375 C550.78603865 415.80623915 551.0720924 413.11090183 554 410 C560.54028847 406.07885483 566.47914718 405.05009073 574 404.25 C575.06089844 404.12496094 576.12179687 403.99992187 577.21484375 403.87109375 C579.80866585 403.56731278 582.4032378 403.27731171 585 403 C586.17494001 336.441824 557.15644345 263.70992473 515 213 C513.74703125 211.46859375 513.74703125 211.46859375 512.46875 209.90625 C500.97740387 196.04909797 488.29213934 182.97469386 474 172 C472.94971747 171.15103563 471.90166294 170.29930993 470.85546875 169.4453125 C456.27512592 157.62101008 440.5967847 147.73534895 424 139 C423.33822754 138.6498584 422.67645508 138.2997168 421.99462891 137.93896484 C387.57469518 119.86006974 350.54369155 108.83434907 312 104 C311.24460937 103.90235352 310.48921875 103.80470703 309.7109375 103.70410156 C281.86127988 100.15111689 254.07485459 100.35548013 226.12939453 102.73535156 Z " fill="#3A5284" transform="translate(184,93)"/>
<path d="M0 0 C1.27460083 0.45596558 1.27460083 0.45596558 2.57495117 0.92114258 C48.1708468 17.72940553 91.21316792 43.40643118 130.40332031 71.88037109 C132.50021981 73.40345337 134.60541686 74.91464429 136.7109375 76.42578125 C138.09951045 77.42892369 139.48755211 78.43280207 140.875 79.4375 C141.83817139 80.13033081 141.83817139 80.13033081 142.82080078 80.8371582 C147.2590407 84.0805814 147.2590407 84.0805814 148.375 86.3125 C147.24449219 86.84875 146.11398437 87.385 144.94921875 87.9375 C115.72336848 102.04451006 88.69729777 119.31570956 64.6953125 141.2109375 C62.68102269 143.03532794 60.63351386 144.80343802 58.5625 146.5625 C49.82669747 154.20190626 41.72123274 162.50318641 34.52734375 171.609375 C33.10028135 173.40162034 31.63382659 175.16323818 30.12890625 176.890625 C10.49008675 199.46398075 -6.30866948 227.61626056 -17.625 255.3125 C-20.69493744 250.70759384 -21.05674123 245.64837656 -22 240.25 C-22.21696533 239.01427246 -22.43393066 237.77854492 -22.6574707 236.50537109 C-24.29901832 226.84602648 -25.64515133 217.16488195 -26.8125 207.4375 C-26.96702637 206.17800537 -27.12155273 204.91851074 -27.28076172 203.62084961 C-27.78849594 199.18878744 -28.22446047 194.75536553 -28.625 190.3125 C-28.71327057 189.35424316 -28.80154114 188.39598633 -28.89248657 187.40869141 C-30.92276668 164.45147309 -30.9677444 141.50487761 -30.94067383 118.47412109 C-30.93604202 114.20676128 -30.94298323 109.93968647 -30.96118164 105.67236328 C-31.35150842 13.2520955 -31.35150842 13.2520955 -17.8125 -1.6875 C-11.87341401 -4.40251074 -5.75646838 -2.08696401 0 0 Z " fill="#8DB9E7" transform="translate(140.625,108.6875)"/>
<path d="M0 0 C5.52622067 3.12804944 6.62963515 6.1865982 8.29711914 12.11865234 C9.52705461 17.16057607 10.31652693 22.24221411 11.0625 27.375 C11.30323242 28.88707031 11.30323242 28.88707031 11.54882812 30.4296875 C15.28956087 55.66836628 15.32373227 81.11169544 15.26074219 106.56054688 C15.24939904 111.17852641 15.25610613 115.79627412 15.26761055 120.41424561 C15.33244787 151.01185645 14.27128793 181.34487395 10.625 211.75 C10.46359024 213.13309357 10.46359024 213.13309357 10.29891968 214.54412842 C5.77997646 253.22002354 5.77997646 253.22002354 2 257 C1.72961914 256.41323486 1.45923828 255.82646973 1.18066406 255.22192383 C-11.34251814 228.18896074 -25.98316806 203.00530614 -45 180 C-45.48855469 179.40848145 -45.97710938 178.81696289 -46.48046875 178.20751953 C-52.96483958 170.40418767 -59.71021388 163.06237512 -67 156 C-69.37667183 153.63802166 -71.74085641 151.26794469 -74.0703125 148.859375 C-79.69212411 143.08793342 -85.64472247 137.94203027 -92 133 C-92.69496582 132.45569336 -93.38993164 131.91138672 -94.10595703 131.35058594 C-112.04411602 117.36954149 -130.84049559 105.8239039 -151.11547852 95.57983398 C-152.21303467 95.02497314 -153.31059082 94.4701123 -154.44140625 93.8984375 C-155.90622437 93.16633057 -155.90622437 93.16633057 -157.40063477 92.41943359 C-159.79207391 91.11354206 -161.87382576 89.69679321 -164 88 C-154.88164056 81.00580384 -145.5201104 74.43338519 -136 68 C-134.92806396 67.27441895 -134.92806396 67.27441895 -133.83447266 66.53417969 C-128.58099796 62.98500949 -123.30204797 59.47617714 -118 56 C-117.27538574 55.52481934 -116.55077148 55.04963867 -115.80419922 54.56005859 C-25.82007449 -4.10773912 -25.82007449 -4.10773912 0 0 Z " fill="#8DB9E7" transform="translate(767,106)"/>
<path d="M0 0 C0.99087616 -0.0098568 0.99087616 -0.0098568 2.00177002 -0.01991272 C4.18713503 -0.0396151 6.3724313 -0.05130344 8.55786133 -0.0612793 C9.30637171 -0.06535482 10.05488209 -0.06943035 10.8260746 -0.07362938 C14.79045967 -0.09448037 18.75481026 -0.10878441 22.71923828 -0.11816406 C26.80018263 -0.12920678 30.88057846 -0.16358409 34.96132946 -0.20333576 C38.11077335 -0.22957317 41.26008817 -0.23786232 44.40963173 -0.24144554 C45.91303511 -0.24629573 47.41643333 -0.25786479 48.91972923 -0.27648354 C58.40927647 -0.38667797 65.36175577 -0.13045996 72.88989258 6.23950195 C75.39047702 9.34022666 75.63133771 12.13477516 75.70239258 15.98950195 C75.74106445 17.23666992 75.74106445 17.23666992 75.78051758 18.5090332 C74.98520196 24.9757066 70.97633551 29.09100187 66.54223633 33.45043945 C65.97412735 34.01904694 65.40601837 34.58765442 64.82069397 35.17349243 C63.62657095 36.3652872 62.4287835 37.55342057 61.22753906 38.73803711 C59.38331084 40.55849887 57.55294427 42.39210214 55.72387695 44.2277832 C54.55995617 45.3861324 53.39526941 46.54371257 52.22973633 47.70043945 C51.40625954 48.52528336 51.40625954 48.52528336 50.56614685 49.36679077 C46.68346777 53.17700195 46.68346777 53.17700195 44.45239258 53.17700195 C44.45239258 61.75700195 44.45239258 70.33700195 44.45239258 79.17700195 C46.51489258 79.38325195 48.57739258 79.58950195 50.70239258 79.80200195 C84.36489363 83.97344669 115.89475863 103.92586826 136.57739258 130.42700195 C155.25667785 155.03492994 155.25667785 155.03492994 156.01489258 167.42700195 C155.25230206 172.51093877 153.86485637 176.10655834 149.90942383 179.5012207 C145.39346123 182.4464137 141.76343115 182.76711735 136.45239258 182.17700195 C128.51357289 179.37506559 125.01994113 172.72633436 121.32739258 165.67700195 C107.73118019 140.66148249 85.7317663 122.44252648 58.45239258 114.17700195 C30.23716856 106.11068791 1.73756415 110.09070853 -23.80541992 124.18041992 C-43.84457535 135.64340093 -57.75713927 153.34763101 -68.36010742 173.42700195 C-70.8087069 177.96080451 -73.60644911 180.52994918 -78.54760742 182.17700195 C-84.16636466 182.54544505 -87.70472121 182.36890423 -92.54760742 179.17700195 C-96.68797884 174.58902281 -98.14956094 171.46966303 -98.07885742 165.3449707 C-94.03604733 141.23674286 -69.49924434 116.86822937 -50.39672852 103.12158203 C-31.03000554 89.62571896 -10.14742688 81.15755485 13.45239258 79.17700195 C14.92374 63.49214657 14.92374 63.49214657 10.03051758 49.31762695 C7.14331179 46.50306423 3.81211348 44.3868062 0.45239258 42.17700195 C-1.19280623 40.61494489 -2.80098707 39.01248409 -4.36010742 37.36450195 C-6.9424911 34.73056434 -9.55129546 32.30333581 -12.42260742 29.98950195 C-16.19804538 26.77468588 -18.24631377 23.81226047 -18.82495117 18.7512207 C-19.00958128 13.7662077 -18.91255435 10.10277336 -15.54760742 6.17700195 C-10.5229973 1.35831848 -6.92507962 0.0570483 0 0 Z " fill="#395183" transform="translate(417.547607421875,491.822998046875)"/>
<path d="M0 0 C3.93916706 1.9199869 6.35114936 4.5758338 8.25805664 8.41430664 C9.83428166 13.0397765 9.42332217 17.0166475 7.66430664 21.59008789 C4.13012159 27.14380725 0.01799504 29.53807591 -5.77319336 32.27758789 C-7.20492883 32.97266818 -8.63592337 33.66927678 -10.06616211 34.36743164 C-10.75500488 34.70242676 -11.44384766 35.03742188 -12.15356445 35.38256836 C-15.87556857 37.2271097 -19.48986071 39.2624957 -23.08569336 41.34008789 C-22.5790918 42.70327148 -22.5790918 42.70327148 -22.06225586 44.09399414 C-14.27147459 65.75219147 -13.3192682 88.45528182 -23.1940918 109.57983398 C-30.80613954 124.60800054 -43.85673901 134.12757942 -59.47631836 139.50805664 C-73.4947197 142.73957123 -88.69834665 140.49601305 -100.96069336 133.02758789 C-102.69124459 131.82990434 -104.4013886 130.60197971 -106.08569336 129.34008789 C-106.81530273 128.79352539 -107.54491211 128.24696289 -108.29663086 127.68383789 C-118.84901816 119.11255012 -125.73069135 106.6137356 -128.08569336 93.34008789 C-128.91069336 93.83508789 -129.73569336 94.33008789 -130.58569336 94.84008789 C-134.6742925 96.59234466 -137.70947857 97.11905412 -142.08569336 96.34008789 C-146.89317829 93.93634543 -149.81919162 91.22178394 -152.08569336 86.34008789 C-152.84508124 81.63319235 -153.54508969 76.90459502 -151.09912109 72.60644531 C-146.83957832 66.9974966 -141.16265943 64.43766254 -134.89819336 61.52758789 C-132.92419483 60.58638752 -130.95158524 59.64226969 -128.98022461 58.69555664 C-127.90466309 58.18041504 -126.82910156 57.66527344 -125.72094727 57.13452148 C-121.48229228 55.06804634 -117.32451918 52.85176683 -113.15991211 50.64086914 C-101.63678249 44.52981914 -89.9566842 38.74322992 -78.27416992 32.94458008 C-63.53640009 25.62442778 -48.87118629 18.18577822 -34.45019531 10.25579834 C-31.66905492 8.72929381 -28.875792 7.22514128 -26.08569336 5.71508789 C-24.42086914 4.78116211 -24.42086914 4.78116211 -22.72241211 3.82836914 C-15.2444025 -0.16986162 -8.40919828 -2.66066522 0 0 Z " fill="#395184" transform="translate(659.085693359375,359.659912109375)"/>
<path d="M0 0 C2.49600421 1.08915257 4.8473967 2.214592 7.24609375 3.484375 C8.67312218 4.21901021 10.10037657 4.95320661 11.52783203 5.68701172 C12.26398743 6.06903748 13.00014282 6.45106323 13.75860596 6.84466553 C17.40872366 8.72613158 21.09021995 10.543679 24.76953125 12.3671875 C26.25949038 13.10902865 27.74923451 13.85130178 29.23876953 14.59399414 C29.98596252 14.96654327 30.73315552 15.33909241 31.50299072 15.72293091 C42.28504093 21.10141841 53.05813935 26.47873662 63.68286133 32.16357422 C71.71013082 36.43068742 79.86232564 40.44901458 88 44.5 C99.4678729 50.21043639 110.90137341 55.96375443 122.18408203 62.03466797 C123.91176426 62.95309436 125.6567139 63.8388184 127.40234375 64.72265625 C137.10402583 69.70735756 137.10402583 69.70735756 140 75 C141.02651238 80.61562653 140.72159857 85.49072589 137.875 90.5 C135.39013888 93.90621411 133.08276345 95.6935157 129 97 C124.15823785 97.43230019 120.51337356 96.76131651 116 95 C115.90460938 95.83273437 115.80921875 96.66546875 115.7109375 97.5234375 C112.74076573 112.04790384 102.5582722 124.90236546 90.4375 133 C77.24884984 140.74691485 63.59712618 143.15097536 48.50390625 140.3515625 C31.84890005 135.1759032 19.20140079 124.28741108 11 109 C2.30184443 90.59481187 2.3079697 68.64085409 8.7109375 49.4765625 C9.765873 46.63143342 10.84143916 43.8043669 12 41 C11.36835938 40.75765625 10.73671875 40.5153125 10.0859375 40.265625 C5.87807354 38.53986814 1.75189819 36.6601278 -2.375 34.75 C-3.2 34.38003906 -4.025 34.01007813 -4.875 33.62890625 C-11.13634247 30.71688507 -17.16035211 27.44933979 -20.5 21.1875 C-21.29807979 16.09974131 -21.50974977 11.45276271 -18.73046875 6.9375 C-13.42489738 0.4902234 -8.26459727 -1.39863389 0 0 Z " fill="#395184" transform="translate(245,359)"/>
<path d="M0 0 C0.66 0.33 1.32 0.66 2 1 C-9.55 12.55 -21.1 24.1 -33 36 C-33 32.424357 -32.4879109 32.08790672 -30.10546875 29.59375 C-29.48478516 28.93745605 -28.86410156 28.28116211 -28.22460938 27.60498047 C-27.55236328 26.91033691 -26.88011719 26.21569336 -26.1875 25.5 C-25.50623047 24.78602051 -24.82496094 24.07204102 -24.12304688 23.33642578 C-22.0915684 21.21481833 -20.04854431 19.10512266 -18 17 C-17.44650879 16.42991211 -16.89301758 15.85982422 -16.32275391 15.27246094 C-11.09444826 9.90828979 -5.7870496 4.75824078 0 0 Z " fill="#2D487C" transform="translate(208,246)"/>
<path d="M0 0 C3.56935418 1.5054419 5.77091235 3.59287562 8.4375 6.375 C10.75693407 8.78721144 12.83454797 10.88841104 15.61425781 12.76318359 C18 15 18 15 18.56762695 17.84082031 C18.54144287 18.90913086 18.51525879 19.97744141 18.48828125 21.078125 C18.47216797 22.23828125 18.45605469 23.3984375 18.43945312 24.59375 C18.39755859 25.8003125 18.35566406 27.006875 18.3125 28.25 C18.28994141 29.47203125 18.26738281 30.6940625 18.24414062 31.953125 C18.18521758 34.96998502 18.10299265 37.98437515 18 41 C16.68 40.67 15.36 40.34 14 40 C14.99 40 15.98 40 17 40 C17 32.08 17 24.16 17 16 C16.01 15.67 15.02 15.34 14 15 C14 14.34 14 13.68 14 13 C13.44828125 12.77441406 12.8965625 12.54882812 12.328125 12.31640625 C9.30047473 10.60446306 7.18674251 8.41342989 4.75 5.9375 C3.85796875 5.03902344 2.9659375 4.14054688 2.046875 3.21484375 C0 1 0 1 0 0 Z " fill="#DCF4FB" transform="translate(413,530)"/>
<path d="M0 0 C-1.48653506 3.46629835 -3.45722351 5.69022036 -6.1328125 8.328125 C-7.34130859 9.52695312 -7.34130859 9.52695312 -8.57421875 10.75 C-9.41597656 11.575 -10.25773438 12.4 -11.125 13.25 C-11.97449219 14.09046875 -12.82398438 14.9309375 -13.69921875 15.796875 C-15.79504923 17.86915683 -17.89540713 19.93662393 -20 22 C-20.66 21.34 -21.32 20.68 -22 20 C-19.19469153 17.1453424 -16.38292304 14.29722769 -13.56494141 11.45507812 C-12.60675044 10.48681462 -11.65036018 9.51676574 -10.69580078 8.54492188 C-9.3253618 7.1502903 -7.94793633 5.76253479 -6.5703125 4.375 C-5.74289551 3.53710938 -4.91547852 2.69921875 -4.06298828 1.8359375 C-2 0 -2 0 0 0 Z " fill="#D1EAF8" transform="translate(224,275)"/>
<path d="M0 0 C0.51949219 0.42152344 1.03898438 0.84304688 1.57421875 1.27734375 C6.70146308 5.43428979 6.70146308 5.43428979 13 7 C13 7.66 13 8.32 13 9 C6.8847608 8.63308565 4.16739794 7.26904179 0 3 C0 2.01 0 1.02 0 0 Z " fill="#465A88" transform="translate(7,502)"/>
<path d="M0 0 C0 3.96130371 -1.34877125 4.82914401 -4 7.6875 C-4.7425 8.49574219 -5.485 9.30398438 -6.25 10.13671875 C-6.8275 10.75160156 -7.405 11.36648438 -8 12 C-8.66 11.67 -9.32 11.34 -10 11 C-6.7 7.37 -3.4 3.74 0 0 Z " fill="#D9F0FB" transform="translate(202,296)"/>
<path d="M0 0 C0.33 0.99 0.66 1.98 1 3 C-0.43011973 3.86646667 -1.86940619 4.71781829 -3.3125 5.5625 C-4.51326172 6.27599609 -4.51326172 6.27599609 -5.73828125 7.00390625 C-8 8 -8 8 -11 7 C-7.37 4.69 -3.74 2.38 0 0 Z " fill="#465B8D" transform="translate(630,137)"/>
<path d="M0 0 C0.99 0 1.98 0 3 0 C3 2 3 2 1.1875 3.9375 C0.465625 4.618125 -0.25625 5.29875 -1 6 C-1.5775 6.5775 -2.155 7.155 -2.75 7.75 C-3.36875 8.36875 -3.36875 8.36875 -4 9 C-3.3543999 5.51375944 -2.07639763 2.87501211 0 0 Z " fill="#4D6391" transform="translate(757,665)"/>
<path d="M0 0 C0 4.38968456 -2.12805101 5.76905739 -5 9 C-5.66 8.67 -6.32 8.34 -7 8 C-4.69 5.36 -2.38 2.72 0 0 Z " fill="#2D4471" transform="translate(709,681)"/>
<path d="M0 0 C0 4.38968456 -2.12805101 5.76905739 -5 9 C-5.66 8.67 -6.32 8.34 -7 8 C-4.69 5.36 -2.38 2.72 0 0 Z " fill="#2C487A" transform="translate(173,282)"/>
<path d="M0 0 C3.25543229 0.34879632 4.01873107 1.02133261 6.25 3.5625 C6.8275 4.366875 7.405 5.17125 8 6 C5 6 5 6 3.3125 4.625 C2 3 2 3 2 1 C1.34 0.67 0.68 0.34 0 0 Z " fill="#4C6090" transform="translate(786,83)"/>
<path d="M0 0 C0 0.66 0 1.32 0 2 C-1.96147874 3.38938077 -3.96166576 4.7260411 -6 6 C-6 3 -6 3 -4.6875 1.3125 C-3 0 -3 0 0 0 Z " fill="#2D4575" transform="translate(726,626)"/>
</svg>
