<?xml version="1.0" encoding="UTF-8"?>
<svg version="1.1" xmlns="http://www.w3.org/2000/svg" width="836" height="836">
<path d="M0 0 C21.78 0 43.56 0 66 0 C66 0.33 66 0.66 66 1 C66.68288086 1.06993164 67.36576172 1.13986328 68.06933594 1.21191406 C80.66623839 2.52435516 93.14088012 3.91185871 105.50292969 6.72949219 C110.45657354 7.83006356 114.92139121 8.16698374 120 8 C120.33 8.66 120.66 9.32 121 10 C123.00095688 10.8255804 123.00095688 10.8255804 125.4609375 11.48046875 C126.39736084 11.75342773 127.33378418 12.02638672 128.29858398 12.30761719 C129.31380127 12.59797852 130.32901855 12.88833984 131.375 13.1875 C154.27375693 19.97886036 175.69295189 29.21647485 197 40 C197.66 40.33 198.32 40.66 199 41 C200.39795895 41.86269709 201.78886144 42.73685294 203.17578125 43.6171875 C204.41811523 44.40416016 204.41811523 44.40416016 205.68554688 45.20703125 C206.55244141 45.75746094 207.41933594 46.30789062 208.3125 46.875 C216.79378429 52.67031375 216.79378429 52.67031375 226 57 C226 57.66 226 58.32 226 59 C227.72094171 60.3298432 227.72094171 60.3298432 229.875 61.5625 C230.59429688 61.99691406 231.31359375 62.43132812 232.0546875 62.87890625 C233.34834796 63.62444953 234.66451742 64.33225871 236 65 C237.66666667 66.66666667 239.33333333 68.33333333 241 70 C243.77260299 71.93798263 243.77260299 71.93798263 246 73 C247.69382072 74.64542584 249.35261127 76.30902956 251 78 C256.53037295 83.6652601 262.21612912 89.10472089 268.51171875 93.921875 C270.97388423 95.97818903 272.75208877 98.01413857 274.6875 100.5625 C277.57862651 104.27656889 280.58858366 107.75889056 283.8125 111.1875 C296.08519629 124.56736614 325 157.30641615 325 176 C325.66 176.33 326.32 176.66 327 177 C328.00219727 178.88818359 328.00219727 178.88818359 329.06640625 181.3984375 C329.46504883 182.33872803 329.86369141 183.27901855 330.27441406 184.24780273 C330.69948242 185.27977783 331.12455078 186.31175293 331.5625 187.375 C332.00432617 188.4462915 332.44615234 189.51758301 332.90136719 190.62133789 C344.78173037 219.92580975 352.37837003 249.60490936 356 281 C356.16991455 282.45043701 356.16991455 282.45043701 356.34326172 283.93017578 C358.040019 299.2599623 358.25538208 314.66937038 358.54467773 330.07519531 C358.57689495 331.75460386 358.57689495 331.75460386 358.60976303 333.46793985 C359.11333178 360.35293696 359.13254808 387.235794 359.10353855 414.12461756 C359.09616883 421.14738049 359.09486901 428.1701416 359.09374207 435.19290784 C359.09158555 447.70364124 359.08502095 460.21436789 359.07543945 472.72509766 C359.06617508 484.83479785 359.05913922 496.94449617 359.05493164 509.05419922 C359.05466892 509.80819546 359.05440619 510.5621917 359.05413551 511.33903632 C359.05282991 515.12386963 359.05156633 518.90870295 359.05032361 522.69353628 C359.04005761 553.79569575 359.02245832 584.89784682 359 616 C359.67524216 615.99655579 360.35048431 615.99311157 361.04618835 615.98956299 C361.93804337 615.98688416 362.82989838 615.98420532 363.7487793 615.98144531 C365.07101753 615.97627899 365.07101753 615.97627899 366.41996765 615.9710083 C380.60081665 616.13035782 395.01435718 618.62904484 406 628 C406.66 628.33 407.32 628.66 408 629 C408 629.66 408 630.32 408 631 C408.59683594 631.25265625 409.19367187 631.5053125 409.80859375 631.765625 C415.24376806 634.82714921 418.5216011 641.49244689 421 647 C421.66 646.67 422.32 646.34 423 646 C423.22786458 647.92057292 423.45572917 649.84114583 423.68359375 651.76171875 C423.96338359 653.98320088 423.96338359 653.98320088 424.48461914 656.06469727 C428.31310259 677.86946115 426.08190455 701.67094134 426 723.75 C425.97629992 730.22806709 425.95603927 736.70611157 425.94406128 743.18421173 C425.93760194 745.75628427 425.92511636 748.32828174 425.91235352 750.90032959 C425.90872455 752.4631748 425.90537238 754.02602069 425.90234375 755.58886719 C425.89717743 756.29935715 425.89201111 757.00984711 425.88668823 757.74186707 C425.88635968 760.78262481 426.02971088 763.08913263 427 766 C426.67 766.66 426.34 767.32 426 768 C425.92684288 769.69907421 425.91640104 771.40104494 425.9375 773.1015625 C425.94620117 774.1419165 425.95490234 775.18227051 425.96386719 776.25415039 C425.97579102 777.36653076 425.98771484 778.47891113 426 779.625 C426.11889941 811.68897032 426.11889941 811.68897032 419.54296875 818.51171875 C414.10579075 823.3157064 410.03010019 824.29560065 402.91318703 824.26450634 C401.67390275 824.27094983 401.67390275 824.27094983 400.40958244 824.27752349 C397.62094993 824.28956185 394.83250892 824.28730899 392.04385376 824.28520203 C390.02897175 824.29091913 388.01409206 824.29750702 385.99921548 824.30489284 C380.43961434 824.32270569 374.8800595 824.32800696 369.32043338 824.33133328 C363.31891125 824.33707479 357.31742065 824.35427125 351.31591797 824.37002563 C340.17561163 824.39751349 329.0353109 824.41588826 317.89498156 824.42978399 C307.46901401 824.4428385 297.04306212 824.45994333 286.61710739 824.48087502 C285.92038163 824.48226901 285.22365588 824.483663 284.50581722 824.48509923 C281.67386305 824.4907719 278.84190892 824.49646449 276.00995485 824.50218589 C249.29675717 824.55610728 222.58355186 824.59882553 195.87032655 824.63626824 C173.39728893 824.66782186 150.92427841 824.7064687 128.45126776 824.75347573 C124.79945743 824.76110743 121.14764696 824.76867285 117.4958365 824.77623832 C116.41258194 824.77848251 116.41258194 824.77848251 115.30744346 824.78077203 C56.08345683 824.90339679 -3.14034622 824.98451734 -62.36447 824.98693747 C-68.00619435 824.98717865 -73.6479187 824.98758195 -79.28964305 824.98805132 C-80.69473282 824.98816386 -82.0998226 824.98826435 -83.50491238 824.98835275 C-105.90880486 824.9898383 -128.31254894 825.01904061 -150.71639567 825.06271645 C-173.94745108 825.10779843 -197.17828534 825.11991365 -220.40939248 825.0940662 C-233.86523636 825.08001368 -247.3205288 825.09085212 -260.77630481 825.13666801 C-269.78733176 825.16482725 -278.79795728 825.16027097 -287.80897287 825.12895896 C-292.95498848 825.11199637 -298.0999259 825.10939159 -303.24586153 825.14624619 C-307.93105624 825.17950071 -312.61428127 825.17131466 -317.29939575 825.13007078 C-318.98489849 825.12249048 -320.67055365 825.13000646 -322.3558964 825.15443488 C-330.38369186 825.26303103 -336.56077485 825.23014762 -342.94527245 819.68009472 C-347.15888199 815.30694561 -349.23849963 812.00823943 -349.28520203 805.91049194 C-349.29781067 804.88238403 -349.31041931 803.85427612 -349.32341003 802.79501343 C-349.32714127 801.67204865 -349.3308725 800.54908386 -349.3347168 799.39208984 C-349.34636871 798.20431946 -349.35802063 797.01654907 -349.37002563 795.79278564 C-349.39987644 792.53104989 -349.42088991 789.26940429 -349.43764853 786.00757933 C-349.45709132 782.56836748 -349.48680863 779.12924239 -349.51509094 775.69009399 C-349.56120875 769.89124741 -349.59955067 764.09238943 -349.63305664 758.29345703 C-349.67145816 751.65912325 -349.72070541 745.02494384 -349.77638692 738.39073408 C-349.83022268 731.9558552 -349.87704568 725.52094344 -349.92057228 719.08598709 C-349.93894112 716.37776865 -349.95969462 713.66960206 -349.98166466 710.96140671 C-350.08619349 697.5544533 -350.08871582 684.15501627 -349.69067383 670.75244141 C-349.66802051 669.71133902 -349.64536718 668.67023663 -349.6220274 667.59758568 C-349.04811636 651.80210352 -342.76112638 641.21113712 -332 630 C-331.47664063 629.43667969 -330.95328125 628.87335937 -330.4140625 628.29296875 C-328.27028071 626.03874972 -327.01494879 625.00498293 -324 624 C-322.15927585 623.2043858 -320.32665829 622.38989764 -318.5 621.5625 C-317.5409375 621.13066406 -316.581875 620.69882812 -315.59375 620.25390625 C-312.85849351 619.00479522 -312.85849351 619.00479522 -310 617 C-309.34 616.67 -308.68 616.34 -308 616 C-308 616.66 -308 617.32 -308 618 C-307.2783667 617.84080078 -306.5567334 617.68160156 -305.81323242 617.51757812 C-303.16170887 617.02975118 -300.67898033 616.81568426 -297.98828125 616.71875 C-297.06595703 616.68136719 -296.14363281 616.64398437 -295.19335938 616.60546875 C-293.26108335 616.5347278 -291.3287914 616.46442045 -289.39648438 616.39453125 C-288.47802734 616.35714844 -287.55957031 616.31976562 -286.61328125 616.28125 C-285.77579346 616.25095703 -284.93830566 616.22066406 -284.07543945 616.18945312 C-281.93953965 616.12145884 -281.93953965 616.12145884 -280 615 C-279.97665537 591.73038348 -279.95901312 568.46076888 -279.94818783 545.19114304 C-279.94302821 534.38702758 -279.93599183 523.58291939 -279.92456055 512.77880859 C-279.91460355 503.36362333 -279.90814414 493.94844333 -279.90591151 484.53325295 C-279.90460613 479.54649215 -279.90153117 474.5597464 -279.89426994 469.57299042 C-279.88749374 464.88141769 -279.88538632 460.18986626 -279.88689232 455.49828911 C-279.88661671 453.77453178 -279.88462107 452.05077375 -279.88079453 450.32702065 C-279.87583232 447.97683752 -279.8770111 445.62673522 -279.87974548 443.27655029 C-279.87882369 441.96022991 -279.8779019 440.64390953 -279.87695217 439.28770065 C-279.97705275 436.61312499 -280.34288874 434.55246067 -281 432 C-280.67 431.34 -280.34 430.68 -280 430 C-279.915085 428.1136088 -279.892807 426.22421485 -279.90234375 424.3359375 C-279.90556641 423.21445312 -279.90878906 422.09296875 -279.91210938 420.9375 C-279.92048828 419.761875 -279.92886719 418.58625 -279.9375 417.375 C-279.94201172 416.19164062 -279.94652344 415.00828125 -279.95117188 413.7890625 C-279.96298533 410.85932493 -279.97945742 407.92968728 -280 405 C-280.33 405 -280.66 405 -281 405 C-281 400.05 -281 395.1 -281 390 C-280.67 390 -280.34 390 -280 390 C-279.85024761 382.94348748 -279.85024761 382.94348748 -281 376 C-280.34 376 -279.68 376 -279 376 C-279.10828125 375.14728516 -279.10828125 375.14728516 -279.21875 374.27734375 C-279.795616 369.47813911 -280 364.83857661 -280 360 C-280.165 359.34 -280.33 358.68 -280.5 358 C-281.39336086 354.42655657 -281.42310772 350.63623689 -280.5 347.06640625 C-279.94955266 344.7915106 -279.86708811 342.7754632 -279.875 340.4375 C-279.87242187 339.67308594 -279.86984375 338.90867187 -279.8671875 338.12109375 C-279.92092616 335.81001505 -279.92092616 335.81001505 -281 333 C-280.78310166 330.92245418 -280.55895477 328.84540348 -280.29785156 326.77294922 C-279.70160997 321.22203773 -279.57811144 315.63910387 -279.375 310.0625 C-279.29765625 308.21688477 -279.29765625 308.21688477 -279.21875 306.33398438 C-279.17492187 305.16287109 -279.13109375 303.99175781 -279.0859375 302.78515625 C-279.0451709 301.72176025 -279.0044043 300.65836426 -278.96240234 299.56274414 C-278.81443069 297.00943456 -278.81443069 297.00943456 -280 295 C-279.34 295 -278.68 295 -278 295 C-278.02936646 294.04818848 -278.02936646 294.04818848 -278.05932617 293.07714844 C-278.19068701 285.34006485 -277.40484837 277.90208515 -276.3125 270.25 C-276.13460937 268.98518799 -275.95671875 267.72037598 -275.7734375 266.41723633 C-274.07890476 254.80311343 -271.72292213 243.41086192 -269 232 C-268.62060615 230.35297683 -268.24168154 228.70584548 -267.86328125 227.05859375 C-265.96484371 219.00828999 -265.96484371 219.00828999 -265 216 C-264.34 215.67 -263.68 215.34 -263 215 C-262.66309304 213.00059889 -262.33081282 211.00041845 -262 209 C-255.41113989 187.53142489 -244.85665444 166.89081795 -233.01293945 147.90258789 C-232.48788818 147.05172607 -231.96283691 146.20086426 -231.421875 145.32421875 C-230.95362305 144.58260498 -230.48537109 143.84099121 -230.00292969 143.0769043 C-228.71010019 140.78406169 -228.71010019 140.78406169 -229 137 C-228.01 137 -227.02 137 -226 137 C-224.30342781 134.9086659 -222.80506527 132.85513533 -221.3125 130.625 C-220.41357548 129.325356 -219.51251769 128.02718503 -218.609375 126.73046875 C-218.16529297 126.09028809 -217.72121094 125.45010742 -217.26367188 124.79052734 C-214.37618682 120.6991797 -211.18735262 116.85837423 -208 113 C-207.27296875 112.08734375 -206.5459375 111.1746875 -205.796875 110.234375 C-199.68022509 102.73282322 -193.03071529 95.84233015 -186.1875 89 C-185.2797583 88.09145264 -184.3720166 87.18290527 -183.43676758 86.24682617 C-176.22876503 79.09872945 -176.22876503 79.09872945 -172.36328125 76 C-171.19345703 75.01 -171.19345703 75.01 -170 74 C-170 73.34 -170 72.68 -170 72 C-169.28457031 71.75507812 -168.56914062 71.51015625 -167.83203125 71.2578125 C-164.63577893 69.83823561 -162.39816431 68.08702205 -159.6875 65.875 C-153.21401393 60.72357777 -146.38920917 56.13671594 -139.5 51.5625 C-138.44901123 50.86431152 -137.39802246 50.16612305 -136.31518555 49.44677734 C-123.53601559 41 -123.53601559 41 -121 41 C-120.67 40.34 -120.34 39.68 -120 39 C-117.87369811 37.76507357 -115.76540369 36.6467353 -113.5625 35.5625 C-112.86729248 35.21904541 -112.17208496 34.87559082 -111.45581055 34.52172852 C-90.49291025 24.35511402 -68.66086005 15.57234264 -46 10 C-46 9.34 -46 8.68 -46 8 C-44.18822266 8.07347656 -44.18822266 8.07347656 -42.33984375 8.1484375 C-35.94117791 8.1459346 -29.82046319 6.85516836 -23.5625 5.625 C-22.39912109 5.40328125 -21.23574219 5.1815625 -20.03710938 4.953125 C-13.35050776 3.67375272 -6.67335031 2.34667009 0 1 C0 0.67 0 0.34 0 0 Z M-280 354 C-279 356 -279 356 -279 356 Z M-280 377 C-279 380 -279 380 -279 380 Z M-280 393 C-279 396 -279 396 -279 396 Z " fill="#CCD7E7" transform="translate(379,8)"/>
<path d="M0 0 C21.78 0 43.56 0 66 0 C66 0.33 66 0.66 66 1 C66.68288086 1.06993164 67.36576172 1.13986328 68.06933594 1.21191406 C80.66623839 2.52435516 93.14088012 3.91185871 105.50292969 6.72949219 C110.45657354 7.83006356 114.92139121 8.16698374 120 8 C120.33 8.66 120.66 9.32 121 10 C123.00095688 10.8255804 123.00095688 10.8255804 125.4609375 11.48046875 C126.39736084 11.75342773 127.33378418 12.02638672 128.29858398 12.30761719 C129.31380127 12.59797852 130.32901855 12.88833984 131.375 13.1875 C154.27375693 19.97886036 175.69295189 29.21647485 197 40 C197.66 40.33 198.32 40.66 199 41 C200.39795895 41.86269709 201.78886144 42.73685294 203.17578125 43.6171875 C204.41811523 44.40416016 204.41811523 44.40416016 205.68554688 45.20703125 C206.55244141 45.75746094 207.41933594 46.30789062 208.3125 46.875 C216.79378429 52.67031375 216.79378429 52.67031375 226 57 C226 57.66 226 58.32 226 59 C227.72094171 60.3298432 227.72094171 60.3298432 229.875 61.5625 C230.59429688 61.99691406 231.31359375 62.43132812 232.0546875 62.87890625 C233.34834796 63.62444953 234.66451742 64.33225871 236 65 C237.66666667 66.66666667 239.33333333 68.33333333 241 70 C243.77260299 71.93798263 243.77260299 71.93798263 246 73 C247.69382072 74.64542584 249.35261127 76.30902956 251 78 C256.53037295 83.6652601 262.21612912 89.10472089 268.51171875 93.921875 C270.97388423 95.97818903 272.75208877 98.01413857 274.6875 100.5625 C277.57862651 104.27656889 280.58858366 107.75889056 283.8125 111.1875 C296.08519629 124.56736614 325 157.30641615 325 176 C325.66 176.33 326.32 176.66 327 177 C328.00219727 178.88818359 328.00219727 178.88818359 329.06640625 181.3984375 C329.46504883 182.33872803 329.86369141 183.27901855 330.27441406 184.24780273 C330.69948242 185.27977783 331.12455078 186.31175293 331.5625 187.375 C332.00432617 188.4462915 332.44615234 189.51758301 332.90136719 190.62133789 C344.78173037 219.92580975 352.37837003 249.60490936 356 281 C356.16991455 282.45043701 356.16991455 282.45043701 356.34326172 283.93017578 C358.040019 299.2599623 358.25538208 314.66937038 358.54467773 330.07519531 C358.57689495 331.75460386 358.57689495 331.75460386 358.60976303 333.46793985 C359.11333178 360.35293696 359.13254808 387.235794 359.10353855 414.12461756 C359.09616883 421.14738049 359.09486901 428.1701416 359.09374207 435.19290784 C359.09158555 447.70364124 359.08502095 460.21436789 359.07543945 472.72509766 C359.06617508 484.83479785 359.05913922 496.94449617 359.05493164 509.05419922 C359.05466892 509.80819546 359.05440619 510.5621917 359.05413551 511.33903632 C359.05282991 515.12386963 359.05156633 518.90870295 359.05032361 522.69353628 C359.04005761 553.79569575 359.02245832 584.89784682 359 616 C359.67524216 615.99655579 360.35048431 615.99311157 361.04618835 615.98956299 C361.93804337 615.98688416 362.82989838 615.98420532 363.7487793 615.98144531 C365.07101753 615.97627899 365.07101753 615.97627899 366.41996765 615.9710083 C380.60081665 616.13035782 395.01435718 618.62904484 406 628 C406.66 628.33 407.32 628.66 408 629 C408 629.66 408 630.32 408 631 C408.59683594 631.25265625 409.19367187 631.5053125 409.80859375 631.765625 C415.24376806 634.82714921 418.5216011 641.49244689 421 647 C421.66 646.67 422.32 646.34 423 646 C423.22786458 647.92057292 423.45572917 649.84114583 423.68359375 651.76171875 C423.96338359 653.98320088 423.96338359 653.98320088 424.48461914 656.06469727 C428.31310259 677.86946115 426.08190455 701.67094134 426 723.75 C425.97629992 730.22806709 425.95603927 736.70611157 425.94406128 743.18421173 C425.93760194 745.75628427 425.92511636 748.32828174 425.91235352 750.90032959 C425.90872455 752.4631748 425.90537238 754.02602069 425.90234375 755.58886719 C425.89717743 756.29935715 425.89201111 757.00984711 425.88668823 757.74186707 C425.88635968 760.78262481 426.02971088 763.08913263 427 766 C426.67 766.66 426.34 767.32 426 768 C425.92684288 769.69907421 425.91640104 771.40104494 425.9375 773.1015625 C425.94620117 774.1419165 425.95490234 775.18227051 425.96386719 776.25415039 C425.97579102 777.36653076 425.98771484 778.47891113 426 779.625 C426.11889941 811.68897032 426.11889941 811.68897032 419.54296875 818.51171875 C414.10579075 823.3157064 410.03010019 824.29560065 402.91318703 824.26450634 C401.67390275 824.27094983 401.67390275 824.27094983 400.40958244 824.27752349 C397.62094993 824.28956185 394.83250892 824.28730899 392.04385376 824.28520203 C390.02897175 824.29091913 388.01409206 824.29750702 385.99921548 824.30489284 C380.43961434 824.32270569 374.8800595 824.32800696 369.32043338 824.33133328 C363.31891125 824.33707479 357.31742065 824.35427125 351.31591797 824.37002563 C340.17561163 824.39751349 329.0353109 824.41588826 317.89498156 824.42978399 C307.46901401 824.4428385 297.04306212 824.45994333 286.61710739 824.48087502 C285.92038163 824.48226901 285.22365588 824.483663 284.50581722 824.48509923 C281.67386305 824.4907719 278.84190892 824.49646449 276.00995485 824.50218589 C249.29675717 824.55610728 222.58355186 824.59882553 195.87032655 824.63626824 C173.39728893 824.66782186 150.92427841 824.7064687 128.45126776 824.75347573 C124.79945743 824.76110743 121.14764696 824.76867285 117.4958365 824.77623832 C116.41258194 824.77848251 116.41258194 824.77848251 115.30744346 824.78077203 C56.08345683 824.90339679 -3.14034622 824.98451734 -62.36447 824.98693747 C-68.00619435 824.98717865 -73.6479187 824.98758195 -79.28964305 824.98805132 C-80.69473282 824.98816386 -82.0998226 824.98826435 -83.50491238 824.98835275 C-105.90880486 824.9898383 -128.31254894 825.01904061 -150.71639567 825.06271645 C-173.94745108 825.10779843 -197.17828534 825.11991365 -220.40939248 825.0940662 C-233.86523636 825.08001368 -247.3205288 825.09085212 -260.77630481 825.13666801 C-269.78733176 825.16482725 -278.79795728 825.16027097 -287.80897287 825.12895896 C-292.95498848 825.11199637 -298.0999259 825.10939159 -303.24586153 825.14624619 C-307.93105624 825.17950071 -312.61428127 825.17131466 -317.29939575 825.13007078 C-318.98489849 825.12249048 -320.67055365 825.13000646 -322.3558964 825.15443488 C-330.38369186 825.26303103 -336.56077485 825.23014762 -342.94527245 819.68009472 C-347.15888199 815.30694561 -349.23849963 812.00823943 -349.28520203 805.91049194 C-349.29781067 804.88238403 -349.31041931 803.85427612 -349.32341003 802.79501343 C-349.32714127 801.67204865 -349.3308725 800.54908386 -349.3347168 799.39208984 C-349.34636871 798.20431946 -349.35802063 797.01654907 -349.37002563 795.79278564 C-349.39987644 792.53104989 -349.42088991 789.26940429 -349.43764853 786.00757933 C-349.45709132 782.56836748 -349.48680863 779.12924239 -349.51509094 775.69009399 C-349.56120875 769.89124741 -349.59955067 764.09238943 -349.63305664 758.29345703 C-349.67145816 751.65912325 -349.72070541 745.02494384 -349.77638692 738.39073408 C-349.83022268 731.9558552 -349.87704568 725.52094344 -349.92057228 719.08598709 C-349.93894112 716.37776865 -349.95969462 713.66960206 -349.98166466 710.96140671 C-350.08619349 697.5544533 -350.08871582 684.15501627 -349.69067383 670.75244141 C-349.66802051 669.71133902 -349.64536718 668.67023663 -349.6220274 667.59758568 C-349.04811636 651.80210352 -342.76112638 641.21113712 -332 630 C-331.47664063 629.43667969 -330.95328125 628.87335937 -330.4140625 628.29296875 C-328.27028071 626.03874972 -327.01494879 625.00498293 -324 624 C-322.15927585 623.2043858 -320.32665829 622.38989764 -318.5 621.5625 C-317.5409375 621.13066406 -316.581875 620.69882812 -315.59375 620.25390625 C-312.85849351 619.00479522 -312.85849351 619.00479522 -310 617 C-309.34 616.67 -308.68 616.34 -308 616 C-308 616.66 -308 617.32 -308 618 C-307.2783667 617.84080078 -306.5567334 617.68160156 -305.81323242 617.51757812 C-303.16170887 617.02975118 -300.67898033 616.81568426 -297.98828125 616.71875 C-297.06595703 616.68136719 -296.14363281 616.64398437 -295.19335938 616.60546875 C-293.26108335 616.5347278 -291.3287914 616.46442045 -289.39648438 616.39453125 C-288.47802734 616.35714844 -287.55957031 616.31976562 -286.61328125 616.28125 C-285.77579346 616.25095703 -284.93830566 616.22066406 -284.07543945 616.18945312 C-281.93953965 616.12145884 -281.93953965 616.12145884 -280 615 C-279.97665537 591.73038348 -279.95901312 568.46076888 -279.94818783 545.19114304 C-279.94302821 534.38702758 -279.93599183 523.58291939 -279.92456055 512.77880859 C-279.91460355 503.36362333 -279.90814414 493.94844333 -279.90591151 484.53325295 C-279.90460613 479.54649215 -279.90153117 474.5597464 -279.89426994 469.57299042 C-279.88749374 464.88141769 -279.88538632 460.18986626 -279.88689232 455.49828911 C-279.88661671 453.77453178 -279.88462107 452.05077375 -279.88079453 450.32702065 C-279.87583232 447.97683752 -279.8770111 445.62673522 -279.87974548 443.27655029 C-279.87882369 441.96022991 -279.8779019 440.64390953 -279.87695217 439.28770065 C-279.97705275 436.61312499 -280.34288874 434.55246067 -281 432 C-280.67 431.34 -280.34 430.68 -280 430 C-279.915085 428.1136088 -279.892807 426.22421485 -279.90234375 424.3359375 C-279.90556641 423.21445312 -279.90878906 422.09296875 -279.91210938 420.9375 C-279.92048828 419.761875 -279.92886719 418.58625 -279.9375 417.375 C-279.94201172 416.19164062 -279.94652344 415.00828125 -279.95117188 413.7890625 C-279.96298533 410.85932493 -279.97945742 407.92968728 -280 405 C-280.33 405 -280.66 405 -281 405 C-281 400.05 -281 395.1 -281 390 C-280.67 390 -280.34 390 -280 390 C-279.85024761 382.94348748 -279.85024761 382.94348748 -281 376 C-280.34 376 -279.68 376 -279 376 C-279.10828125 375.14728516 -279.10828125 375.14728516 -279.21875 374.27734375 C-279.795616 369.47813911 -280 364.83857661 -280 360 C-280.165 359.34 -280.33 358.68 -280.5 358 C-281.39336086 354.42655657 -281.42310772 350.63623689 -280.5 347.06640625 C-279.94955266 344.7915106 -279.86708811 342.7754632 -279.875 340.4375 C-279.87242187 339.67308594 -279.86984375 338.90867187 -279.8671875 338.12109375 C-279.92092616 335.81001505 -279.92092616 335.81001505 -281 333 C-280.78310166 330.92245418 -280.55895477 328.84540348 -280.29785156 326.77294922 C-279.70160997 321.22203773 -279.57811144 315.63910387 -279.375 310.0625 C-279.29765625 308.21688477 -279.29765625 308.21688477 -279.21875 306.33398438 C-279.17492187 305.16287109 -279.13109375 303.99175781 -279.0859375 302.78515625 C-279.0451709 301.72176025 -279.0044043 300.65836426 -278.96240234 299.56274414 C-278.81443069 297.00943456 -278.81443069 297.00943456 -280 295 C-279.34 295 -278.68 295 -278 295 C-278.02936646 294.04818848 -278.02936646 294.04818848 -278.05932617 293.07714844 C-278.19068701 285.34006485 -277.40484837 277.90208515 -276.3125 270.25 C-276.13460937 268.98518799 -275.95671875 267.72037598 -275.7734375 266.41723633 C-274.07890476 254.80311343 -271.72292213 243.41086192 -269 232 C-268.62060615 230.35297683 -268.24168154 228.70584548 -267.86328125 227.05859375 C-265.96484371 219.00828999 -265.96484371 219.00828999 -265 216 C-264.34 215.67 -263.68 215.34 -263 215 C-262.66309304 213.00059889 -262.33081282 211.00041845 -262 209 C-255.41113989 187.53142489 -244.85665444 166.89081795 -233.01293945 147.90258789 C-232.48788818 147.05172607 -231.96283691 146.20086426 -231.421875 145.32421875 C-230.95362305 144.58260498 -230.48537109 143.84099121 -230.00292969 143.0769043 C-228.71010019 140.78406169 -228.71010019 140.78406169 -229 137 C-228.01 137 -227.02 137 -226 137 C-224.30342781 134.9086659 -222.80506527 132.85513533 -221.3125 130.625 C-220.41357548 129.325356 -219.51251769 128.02718503 -218.609375 126.73046875 C-218.16529297 126.09028809 -217.72121094 125.45010742 -217.26367188 124.79052734 C-214.37618682 120.6991797 -211.18735262 116.85837423 -208 113 C-207.27296875 112.08734375 -206.5459375 111.1746875 -205.796875 110.234375 C-199.68022509 102.73282322 -193.03071529 95.84233015 -186.1875 89 C-185.2797583 88.09145264 -184.3720166 87.18290527 -183.43676758 86.24682617 C-176.22876503 79.09872945 -176.22876503 79.09872945 -172.36328125 76 C-171.19345703 75.01 -171.19345703 75.01 -170 74 C-170 73.34 -170 72.68 -170 72 C-169.28457031 71.75507812 -168.56914062 71.51015625 -167.83203125 71.2578125 C-164.63577893 69.83823561 -162.39816431 68.08702205 -159.6875 65.875 C-153.21401393 60.72357777 -146.38920917 56.13671594 -139.5 51.5625 C-138.44901123 50.86431152 -137.39802246 50.16612305 -136.31518555 49.44677734 C-123.53601559 41 -123.53601559 41 -121 41 C-120.67 40.34 -120.34 39.68 -120 39 C-117.87369811 37.76507357 -115.76540369 36.6467353 -113.5625 35.5625 C-112.86729248 35.21904541 -112.17208496 34.87559082 -111.45581055 34.52172852 C-90.49291025 24.35511402 -68.66086005 15.57234264 -46 10 C-46 9.34 -46 8.68 -46 8 C-44.18822266 8.07347656 -44.18822266 8.07347656 -42.33984375 8.1484375 C-35.94117791 8.1459346 -29.82046319 6.85516836 -23.5625 5.625 C-22.39912109 5.40328125 -21.23574219 5.1815625 -20.03710938 4.953125 C-13.35050776 3.67375272 -6.67335031 2.34667009 0 1 C0 0.67 0 0.34 0 0 Z M-1.79931641 36.69677734 C-4.00283049 37.00039 -6.20879499 37.2607465 -8.41796875 37.51953125 C-77.88074479 46.39033502 -144.78793772 86.24951836 -187.92211914 141.11962891 C-199.31320952 155.91329681 -209.3857963 171.43362452 -218 188 C-218.31775391 188.60811523 -218.63550781 189.21623047 -218.96289062 189.84277344 C-228.16544019 207.73661982 -234.57435707 227.40893499 -239 247 C-239.18401367 247.81275391 -239.36802734 248.62550781 -239.55761719 249.46289062 C-242.16875733 261.22897065 -244.05008256 272.98016664 -245 285 C-245.08340071 286.02442514 -245.16680141 287.04885029 -245.25272942 288.10431862 C-246.15339165 300.59574699 -246.14112128 313.06071907 -246.12939453 325.57958984 C-246.13075234 328.02968369 -246.13253439 330.47977734 -246.13470459 332.92987061 C-246.13877321 338.86943145 -246.13820034 344.80898065 -246.13529195 350.74854116 C-246.13301441 355.60654827 -246.13273549 360.46455186 -246.13381577 365.32255936 C-246.133969 366.01968879 -246.13412223 366.71681822 -246.13428011 367.43507279 C-246.13459994 368.85274183 -246.13492415 370.27041087 -246.1352527 371.68807991 C-246.13809905 384.96375062 -246.13483836 398.23941441 -246.12945233 411.51508398 C-246.12502646 422.76803478 -246.12572656 434.02097519 -246.13037109 445.27392578 C-246.1358045 458.44364899 -246.1377815 471.61336606 -246.13475883 484.78309023 C-246.13444043 486.20778632 -246.13412606 487.63248241 -246.13381577 489.0571785 C-246.13366149 489.75743784 -246.13350721 490.45769718 -246.13334826 491.1791765 C-246.13250577 495.97817017 -246.13389608 500.77715977 -246.13629532 505.5761528 C-246.13928254 512.14440076 -246.13701029 518.71263012 -246.13140106 525.28087616 C-246.13012696 527.63343653 -246.13036977 529.9859986 -246.13266373 532.3385582 C-246.15754851 560.56714878 -245.48671424 588.77057413 -245 617 C-57.89 617 129.22 617 322 617 C322.84771516 609.57687284 322.84771516 609.57687284 323.12863445 602.22868824 C323.1318589 601.17031751 323.13508335 600.11194679 323.1384055 599.02150422 C323.1360826 597.31725055 323.1360826 597.31725055 323.13371277 595.5785675 C323.13597833 594.35064474 323.13824388 593.12272197 323.14057809 591.85758942 C323.14579269 588.46974589 323.14656647 585.08195566 323.14538372 581.69411194 C323.14517881 578.0310816 323.15070745 574.36805903 323.15544128 570.70503235 C323.16373322 563.53129998 323.16649559 556.35757582 323.16705366 549.18383906 C323.16753015 543.33953499 323.16959154 537.49523362 323.17275429 531.6509304 C323.18156208 515.03346362 323.18617425 498.41600327 323.18542381 481.79853413 C323.18538386 480.90345781 323.1853439 480.00838149 323.18530273 479.08618164 C323.18526185 478.18999358 323.18522097 477.29380551 323.18517885 476.37046023 C323.18477384 461.89980233 323.19430648 447.42917062 323.2084411 432.95852027 C323.2228835 418.05322507 323.22970678 403.14794256 323.22884732 388.2426402 C323.22851773 379.89387385 323.23115842 371.54513487 323.24202538 363.19637489 C323.25123516 356.07550651 323.25322193 348.95467784 323.24651595 341.83380602 C323.24330066 338.21489796 323.24300681 334.59606558 323.2518692 330.97716522 C323.44708017 245.64791406 301.870308 175.17476112 240.9375 113.75 C234.57007083 107.39438546 228.1808405 101.43306986 221 96 C219.8028477 95.06318674 218.60627509 94.12563242 217.41015625 93.1875 C195.30121627 76.02824012 170.3030576 62.51283039 144 53 C143.23880859 52.72462402 142.47761719 52.44924805 141.69335938 52.16552734 C96.53136393 36.05982003 45.8388742 30.12777603 -1.79931641 36.69677734 Z M-280 354 C-279 356 -279 356 -279 356 Z M-280 377 C-279 380 -279 380 -279 380 Z M-280 393 C-279 396 -279 396 -279 396 Z " fill="#2D4A6F" transform="translate(379,8)"/>
<path d="M0 0 C1.73745725 -0.00872064 1.73745725 -0.00872064 3.51001465 -0.01761746 C6.72154573 -0.02968908 9.93246765 -0.0238896 13.14397503 -0.01050565 C16.63915389 -0.00034843 20.13425946 -0.01340259 23.62942791 -0.02347898 C29.75397208 -0.03792352 35.87837521 -0.03748893 42.00292587 -0.02729034 C51.11029021 -0.01216596 60.21753547 -0.01989244 69.32489899 -0.03212357 C85.59020211 -0.05319439 101.85544242 -0.05135785 118.12075153 -0.03980792 C132.35469294 -0.02974995 146.58861131 -0.02711691 160.82255554 -0.0318985 C161.76633313 -0.03220404 162.71011072 -0.03250958 163.68248763 -0.03282438 C167.51348526 -0.03406971 171.34448289 -0.03534331 175.1754805 -0.03666343 C211.12104552 -0.04890239 247.06657051 -0.0378009 283.01212935 -0.01627585 C314.95511391 0.0027069 346.89803468 0.00100841 378.84101868 -0.01811981 C414.72038788 -0.03953336 450.59972171 -0.04803445 486.47909641 -0.03567076 C490.30315716 -0.03438787 494.12721792 -0.03313651 497.95127869 -0.0318985 C498.89287593 -0.03158219 499.83447317 -0.03126588 500.80460366 -0.03093999 C515.03040526 -0.02638804 529.25618131 -0.03171503 543.48197937 -0.04181671 C559.6556166 -0.05324421 575.82918113 -0.05041482 592.00280929 -0.02869374 C601.05721743 -0.01693521 610.11146819 -0.01620106 619.1658723 -0.03127843 C625.21122636 -0.04023587 631.25645402 -0.03468776 637.30178932 -0.01725936 C640.74799756 -0.00772922 644.19389273 -0.00452127 647.6400913 -0.01888329 C651.35164251 -0.03098978 655.06232869 -0.01862879 658.77383423 0 C659.84469493 -0.00936466 660.91555563 -0.01872933 662.01886666 -0.02837777 C667.99175742 0.03182537 673.74029147 0.37027221 678.38691711 4.50336456 C700.72296747 43.59145268 682.38691711 94.48361581 682.38691711 139.50336456 C449.40691711 139.50336456 216.42691711 139.50336456 -23.61308289 139.50336456 C-23.61308289 10.50336456 -23.61308289 10.50336456 -19.61308289 4.50336456 C-13.91244549 -0.24589626 -7.06622197 -0.06179403 0 0 Z " fill="#8BA0C1" transform="translate(88.61308288574219,657.4966354370117)"/>
<path d="M0 0 C1.25570801 -0.00945648 2.51141602 -0.01891296 3.80517578 -0.02865601 C5.16569331 -0.02328106 6.52620796 -0.01712682 7.88671875 -0.01025391 C9.30192209 -0.0122789 10.71712441 -0.01519386 12.13232422 -0.01895142 C15.09792011 -0.02336636 18.06324439 -0.01697853 21.02880859 -0.00292969 C24.78956657 0.01403659 28.54967612 0.00439669 32.31040955 -0.01364708 C35.23623312 -0.02461553 38.16190941 -0.02097757 41.08773804 -0.0132637 C42.47171102 -0.01129093 43.8556983 -0.01361554 45.23965454 -0.02070236 C63.85304179 -0.09502046 79.50043486 3.58267498 93.16796875 16.75927734 C103.43539659 27.97677562 107.96827142 42.85087426 107.78125 57.82958984 C106.70109987 76.39594405 98.44294689 90.70105103 84.76171875 102.88818359 C82.50461607 104.80532759 80.2564294 106.13144281 77.57421875 107.38818359 C79.23485876 113.02497944 81.77197891 118.11423502 84.37109375 123.36083984 C84.8423468 124.32034042 85.31359985 125.279841 85.7991333 126.26841736 C87.30392148 129.33094619 88.81376177 132.39094722 90.32421875 135.45068359 C94.08801945 143.08980952 97.84029073 150.73441128 101.57421875 158.38818359 C101.92546814 159.10383484 102.27671753 159.81948608 102.63861084 160.55682373 C103.51497288 162.34871263 104.37732624 164.14743504 105.23828125 165.94677734 C105.6863916 166.87675537 106.13450195 167.8067334 106.59619141 168.76489258 C108.28311952 173.28961615 108.50564007 177.66739005 107.57421875 182.38818359 C105.26586994 186.57740922 103.04890966 187.97834947 98.57421875 189.38818359 C95.88071802 189.6026609 93.32606034 189.71316893 90.63671875 189.70068359 C89.6012793 189.72485352 89.6012793 189.72485352 88.54492188 189.74951172 C83.76586214 189.75404163 80.49078982 189.14993816 76.57421875 186.38818359 C71.83212701 179.48225996 68.23702108 171.97116059 64.5234375 164.48193359 C63.85832808 163.1479772 63.1928608 161.81419919 62.52705383 160.48059082 C60.78915156 156.99720828 59.05607075 153.51144923 57.32403564 150.02514648 C55.5503502 146.45719045 53.77204266 142.89153984 51.99414062 139.32568359 C48.5163443 132.34874416 45.04407675 125.36907545 41.57421875 118.38818359 C34.64421875 118.05818359 27.71421875 117.72818359 20.57421875 117.38818359 C20.60040283 119.2955127 20.62658691 121.2028418 20.65356445 123.16796875 C20.73431366 129.48222905 20.79169766 135.79636681 20.83327961 142.11100197 C20.85933184 145.93822798 20.89464766 149.76489345 20.95141602 153.59179688 C21.00589531 157.28767754 21.03567218 160.98302038 21.04860497 164.6792717 C21.05781662 166.08668862 21.07580554 167.49407735 21.10286903 168.90126419 C21.33203142 181.31471397 21.33203142 181.31471397 18.15356445 185.21508789 C12.98036097 189.5735057 9.31366628 189.72739784 2.69921875 189.70068359 C1.90902344 189.71679688 1.11882812 189.73291016 0.3046875 189.74951172 C-4.68852804 189.75366581 -8.09141079 189.12462946 -12.42578125 186.38818359 C-16.33336597 182.07636597 -16.55346421 178.28266863 -16.57295227 172.61393738 C-16.57662896 171.9214036 -16.58030565 171.22886982 -16.58409375 170.51535016 C-16.59512744 168.18934381 -16.59897386 165.86338213 -16.6027832 163.53735352 C-16.60904803 161.87178912 -16.61569485 160.20622613 -16.62269592 158.54066467 C-16.6437341 153.06667046 -16.65409715 147.59267597 -16.6640625 142.11865234 C-16.66810996 140.23451536 -16.67222688 138.35037852 -16.67641258 136.46624184 C-16.69546265 127.61571973 -16.70969483 118.76520597 -16.71802455 109.91466731 C-16.72780079 99.69577811 -16.75413116 89.47710531 -16.79452544 79.25829238 C-16.82467277 71.36096168 -16.83949206 63.46369307 -16.84280556 55.56630594 C-16.84515738 50.84883133 -16.85413509 46.13158795 -16.87926674 41.41417503 C-16.9025287 36.97606878 -16.90678832 32.53834632 -16.89650536 28.10019493 C-16.89600945 26.47240422 -16.90234615 24.84459473 -16.9160614 23.21686172 C-16.93375818 20.9919082 -16.92668664 18.7683354 -16.91352844 16.54338074 C-16.9159168 15.29916949 -16.91830515 14.05495825 -16.92076588 12.77304363 C-16.32687701 8.71184539 -14.98203638 6.56451244 -12.42578125 3.38818359 C-8.22400108 0.6580799 -4.96359803 0.01077817 0 0 Z " fill="#2D496D" transform="translate(227.42578125,267.61181640625)"/>
<path d="M0 0 C1.803265 -0.00945648 1.803265 -0.00945648 3.64295959 -0.019104 C4.93568283 -0.01505554 6.22840607 -0.01100708 7.56030273 -0.00683594 C8.91446502 -0.00818541 10.26862683 -0.01012829 11.62278748 -0.01263428 C14.46146252 -0.0155793 17.30001153 -0.01131272 20.13867188 -0.00195312 C23.74371588 0.00936474 27.3484595 0.00292719 30.95349216 -0.00909805 C33.75310946 -0.01639918 36.55265815 -0.01399005 39.35227776 -0.00884247 C41.31725639 -0.0068911 43.28223789 -0.01288205 45.24720764 -0.019104 C61.92312387 0.06676983 77.22041756 2.80135836 89.93139648 14.25878906 C90.53338867 14.73445313 91.13538086 15.21011719 91.75561523 15.70019531 C102.697595 25.11767453 107.14132221 41.35785825 108.23999023 55.12597656 C108.97539736 71.52997597 104.44722343 87.9447019 93.68139648 100.57128906 C85.30652042 109.26666787 76.50119658 113.89737815 64.93139648 117.25878906 C63.67584961 117.63132812 62.42030273 118.00386719 61.12670898 118.38769531 C53.54438323 120.01448978 45.58532819 119.46596949 37.86889648 119.38378906 C36.22371963 119.3737407 34.57853685 119.36461813 32.93334961 119.35644531 C28.93255033 119.33457529 24.93203982 119.3001476 20.93139648 119.25878906 C20.93805832 119.99714996 20.94472015 120.73551086 20.95158386 121.49624634 C21.01180627 128.46977999 21.05742738 135.44327454 21.086833 142.41700172 C21.10245927 146.00190999 21.12364128 149.58660257 21.15771484 153.17138672 C21.19041777 156.63381431 21.20827234 160.09603502 21.21602821 163.55860519 C21.22423241 165.51615986 21.24763442 167.47363182 21.27128601 169.43106079 C21.2715126 170.63185272 21.2717392 171.83264465 21.27197266 173.06982422 C21.27863449 174.1223941 21.28529633 175.17496399 21.29216003 176.25942993 C20.76081212 180.6770137 19.24112996 184.0718431 15.93139648 187.07128906 C11.78389954 189.53386537 7.79647426 189.47486284 3.11889648 189.50878906 C2.06992187 189.53972656 2.06992187 189.53972656 0.99975586 189.57128906 C-3.81213624 189.60729948 -7.04341972 188.90013649 -11.06860352 186.25878906 C-14.99434523 182.28282848 -15.56994043 179.65709307 -15.57653809 174.13014221 C-15.58277805 173.42364892 -15.58901801 172.71715564 -15.59544706 171.98925346 C-15.61137093 169.62766621 -15.59877604 167.26711203 -15.58618164 164.90551758 C-15.59160311 163.21009724 -15.59872591 161.51468161 -15.60742188 159.8192749 C-15.62565667 155.2179577 -15.61858672 150.61699926 -15.60590553 146.01567578 C-15.59577702 141.19915632 -15.60517095 136.38266753 -15.6114502 131.56614685 C-15.61872773 123.47657763 -15.60913684 115.38715447 -15.59008789 107.29760742 C-15.5683263 97.94817851 -15.5753649 88.59909862 -15.59739351 79.24967819 C-15.61555326 71.22064497 -15.6181028 63.19171673 -15.60763884 55.1626696 C-15.60140612 50.36813414 -15.60056203 45.57376264 -15.61378479 40.77923775 C-15.62535076 36.27046525 -15.61730399 31.762142 -15.59420776 27.25341797 C-15.58892433 25.5998452 -15.59042822 23.94623455 -15.59925842 22.29267693 C-15.61021281 20.03274964 -15.59645367 17.77425584 -15.57653809 15.51441956 C-15.57502998 14.25068292 -15.57352188 12.98694628 -15.57196808 11.68491459 C-14.97379832 7.61350225 -13.62979086 5.44323458 -11.06860352 2.25878906 C-7.40382032 0.15823828 -4.17517635 0.00630236 0 0 Z " fill="#2D496D" transform="translate(524.068603515625,267.7412109375)"/>
<path d="M0 0 C0.8379007 -0.00511093 1.67580139 -0.01022186 2.53909302 -0.01548767 C5.30827994 -0.02938402 8.0772179 -0.02842653 10.84643555 -0.02612305 C12.77451164 -0.03001064 14.70258688 -0.03434544 16.63066101 -0.03910828 C20.67323582 -0.04657108 24.71572331 -0.04627926 28.75830078 -0.04101562 C33.92994297 -0.03522829 39.10122617 -0.05213392 44.27280903 -0.0753603 C48.25603819 -0.09012004 52.23918142 -0.09096616 56.22243309 -0.08785057 C58.12854916 -0.0883629 60.03467016 -0.09358399 61.94075966 -0.10366249 C64.61178237 -0.11604966 67.28211271 -0.10922108 69.953125 -0.09765625 C70.73518814 -0.10529999 71.51725128 -0.11294373 72.32301331 -0.12081909 C77.48931593 -0.07157412 81.08468214 0.84611466 85.6706543 3.2746582 C89.6266407 7.68587157 90.27555124 11.5291632 90.1081543 17.2746582 C90.11524414 17.96043945 90.12233398 18.6462207 90.12963867 19.3527832 C90.07127323 24.05793583 89.29552255 27.36787755 86.6706543 31.2746582 C80.9356274 36.76082423 74.29082248 35.78487494 66.7409668 35.6652832 C65.38191564 35.65781427 64.02285365 35.65212442 62.66378784 35.64813232 C59.10267929 35.63292688 55.54223287 35.59369084 51.98138428 35.54931641 C48.34144202 35.50825258 44.70138862 35.48987792 41.0612793 35.4699707 C33.93048795 35.42931625 26.80151011 35.35101478 19.6706543 35.2746582 C19.6706543 47.8146582 19.6706543 60.3546582 19.6706543 73.2746582 C22.99385742 73.23985352 26.31706055 73.20504883 29.7409668 73.16918945 C32.96784608 73.14577757 36.19471582 73.12757023 39.42163086 73.10986328 C41.66028088 73.09479856 43.89890149 73.07434287 46.13745117 73.04833984 C49.35953031 73.01185538 52.58121841 72.99490837 55.8034668 72.98168945 C57.29911667 72.95846367 57.29911667 72.95846367 58.82498169 72.93476868 C64.20441326 72.93347265 68.03739509 73.21197173 72.6706543 76.2746582 C76.6109836 80.66388579 76.11849323 85.69034025 76.0456543 91.2746582 C76.05725586 92.16411133 76.06885742 93.05356445 76.08081055 93.9699707 C76.05880989 98.88345025 75.8785652 102.29997836 72.6706543 106.2746582 C68.99702581 109.48908313 65.93084737 110.40139846 61.10742188 110.38818359 C60.18669388 110.38810806 59.26596588 110.38803253 58.31733704 110.38795471 C57.32662704 110.38279343 56.33591705 110.37763214 55.31518555 110.37231445 C54.29841232 110.37089951 53.2816391 110.36948456 52.23405457 110.36802673 C48.98372466 110.36242527 45.73346341 110.34987253 42.4831543 110.3371582 C40.28068133 110.33214339 38.07820729 110.32758045 35.87573242 110.32348633 C30.47399192 110.31330589 25.07240005 110.29373067 19.6706543 110.2746582 C19.6706543 124.4646582 19.6706543 138.6546582 19.6706543 153.2746582 C24.01608398 153.23985352 28.36151367 153.20504883 32.83862305 153.16918945 C36.30916841 153.14988891 39.77969855 153.13362323 43.25026703 153.11940765 C46.91076981 153.10358279 50.57106332 153.08244469 54.23144531 153.04833984 C57.75870645 153.01568196 61.28576497 152.99779176 64.81316566 152.99002647 C66.81009738 152.98180687 68.80694788 152.9583976 70.80375671 152.93476868 C72.02464493 152.93454208 73.24553314 152.93431549 74.50341797 152.93408203 C75.57597336 152.9274202 76.64852875 152.92075836 77.75358582 152.91389465 C82.42857859 153.49206654 84.93047802 155.41428236 87.95581055 158.9309082 C90.09668696 163.10537337 90.23373393 166.16467043 90.1081543 170.7746582 C90.11524414 171.50813477 90.12233398 172.24161133 90.12963867 172.99731445 C90.07385738 177.79450558 89.25102141 181.10443165 86.6706543 185.2746582 C82.02620968 189.48368614 77.45207149 189.43129214 71.45483398 189.45166016 C70.61707932 189.45823135 69.77932465 189.46480255 68.91618347 189.47157288 C66.14163116 189.49129519 63.36713297 189.50296648 60.5925293 189.51293945 C59.17001232 189.51905274 59.17001232 189.51905274 57.71875763 189.52528954 C52.69865639 189.54614634 47.67858245 189.5604494 42.65844727 189.56982422 C37.47887472 189.58088409 32.29973232 189.61528031 27.12031174 189.65499592 C23.13280449 189.68116869 19.14539961 189.68951668 15.15781403 189.6931057 C13.24888455 189.69797042 11.33995962 189.70958115 9.4311142 189.72814369 C6.75508255 189.75254787 4.0801621 189.75156782 1.40405273 189.74462891 C0.62041855 189.75743896 -0.16321564 189.77024902 -0.97059631 189.78344727 C-6.51489432 189.73123294 -9.80561807 188.53707474 -14.3293457 185.2746582 C-16.77003069 181.74986885 -16.58571756 178.41970484 -16.59677124 174.22157288 C-16.60130235 173.51114489 -16.60583347 172.80071691 -16.61050189 172.06876081 C-16.62316243 169.68818979 -16.62152448 167.30784706 -16.61987305 164.92724609 C-16.62585721 163.22050176 -16.63266249 161.51376015 -16.64022827 159.80702209 C-16.65790539 155.17069301 -16.66258433 150.53443773 -16.66385984 145.8980782 C-16.66575849 142.02868476 -16.67311551 138.15930852 -16.68020403 134.2899217 C-16.69649155 125.16218503 -16.7013726 116.03448781 -16.69995117 106.90673828 C-16.69874913 97.48746531 -16.71986253 88.06842125 -16.7514385 78.64920622 C-16.77757715 70.56417768 -16.78831951 62.47922402 -16.78704035 54.39415354 C-16.78653007 49.56439986 -16.79224969 44.73484965 -16.81339645 39.90513802 C-16.83273866 35.36358859 -16.83293098 30.8224376 -16.81836319 26.28087425 C-16.81626909 24.61396835 -16.82101169 22.94703776 -16.83308411 21.28017426 C-16.84849832 19.00455499 -16.83925548 16.73031624 -16.82382202 14.45472717 C-16.82491156 13.18139558 -16.82600109 11.90806398 -16.82712364 10.59614658 C-16.15452983 6.1081764 -14.18950453 3.66791862 -10.59992981 0.97932434 C-7.10418586 -0.10556495 -3.62467878 -0.01139377 0 0 Z " fill="#2C496D" transform="translate(385.329345703125,267.725341796875)"/>
<path d="M0 0 C7.8890625 -0.0928125 7.8890625 -0.0928125 15.9375 -0.1875 C17.578396 -0.21481201 19.21929199 -0.24212402 20.90991211 -0.27026367 C30.06150023 -0.32230903 37.42721596 -0.01976305 45.3125 5.1875 C50.81880586 10.94991311 53.3480969 17.6762377 53.20703125 25.6015625 C52.53880567 33.34289276 48.62735661 38.85015132 43 44 C34.6356321 50.17816739 25.80984738 49.58963976 15.875 49.3125 C10.63625 49.209375 5.3975 49.10625 0 49 C0 32.83 0 16.66 0 0 Z " fill="#CDDAE8" transform="translate(545,303)"/>
<path d="M0 0 C4.929375 -0.0825 9.85875 -0.165 14.9375 -0.25 C16.47398193 -0.28641602 18.01046387 -0.32283203 19.59350586 -0.36035156 C28.71121427 -0.43403001 35.58506307 0.36994074 42.8125 6.3125 C47.75984338 12.39066472 49.72717398 16.34275216 49.37109375 24.23046875 C48.30612861 32.17847176 44.61529884 36.94521654 38.8046875 42.2734375 C30.51571365 47.37612057 21.85534296 47.39196852 12.375 47.1875 C8.29125 47.125625 4.2075 47.06375 0 47 C0 31.49 0 15.98 0 0 Z " fill="#CBD7E6" transform="translate(248,303)"/>
<path d="M0 0 C0.66 0 1.32 0 2 0 C6.00051079 25.73254323 8.05588038 51.04533126 8.54467773 77.07519531 C8.56615588 78.19480101 8.58763403 79.31440671 8.60976303 80.46793985 C9.11333178 107.35293696 9.13254808 134.235794 9.10353855 161.12461756 C9.09616883 168.14738049 9.09486901 175.1701416 9.09374207 182.19290784 C9.09158555 194.70364124 9.08502095 207.21436789 9.07543945 219.72509766 C9.06617508 231.83479785 9.05913922 243.94449617 9.05493164 256.05419922 C9.05466892 256.80819546 9.05440619 257.5621917 9.05413551 258.33903632 C9.05282991 262.12386963 9.05156633 265.90870295 9.05032361 269.69353628 C9.04005761 300.79569575 9.02245832 331.89784682 9 363 C10.01286324 362.99483368 10.01286324 362.99483368 11.04618835 362.98956299 C12.38397087 362.98554474 12.38397087 362.98554474 13.7487793 362.98144531 C14.63027145 362.9780011 15.51176361 362.97455688 16.41996765 362.9710083 C30.60081665 363.13035782 45.01435718 365.62904484 56 375 C56.66 375.33 57.32 375.66 58 376 C58 376.66 58 377.32 58 378 C58.59683594 378.25265625 59.19367187 378.5053125 59.80859375 378.765625 C65.24376806 381.82714921 68.5216011 388.49244689 71 394 C71.66 393.67 72.32 393.34 73 393 C73.22786458 394.92057292 73.45572917 396.84114583 73.68359375 398.76171875 C73.96338359 400.98320088 73.96338359 400.98320088 74.48461914 403.06469727 C78.31310259 424.86946115 76.08190455 448.67094134 76 470.75 C75.97629992 477.22806709 75.95603927 483.70611157 75.94406128 490.18421173 C75.93760194 492.75628427 75.92511636 495.32828174 75.91235352 497.90032959 C75.90872455 499.4631748 75.90537238 501.02602069 75.90234375 502.58886719 C75.89717743 503.29935715 75.89201111 504.00984711 75.88668823 504.74186707 C75.88635968 507.78262481 76.02971088 510.08913263 77 513 C76.67 513.66 76.34 514.32 76 515 C75.92684288 516.69907421 75.91640104 518.40104494 75.9375 520.1015625 C75.94620117 521.1419165 75.95490234 522.18227051 75.96386719 523.25415039 C75.97579102 524.36653076 75.98771484 525.47891113 76 526.625 C76.11889941 558.68897032 76.11889941 558.68897032 69.54296875 565.51171875 C64.10579075 570.3157064 60.03010019 571.29560065 52.91318703 571.26450634 C51.67390275 571.27094983 51.67390275 571.27094983 50.40958244 571.27752349 C47.62094993 571.28956185 44.83250892 571.28730899 42.04385376 571.28520203 C40.02897175 571.29091913 38.01409206 571.29750702 35.99921548 571.30489284 C30.43961434 571.32270569 24.8800595 571.32800696 19.32043338 571.33133328 C13.31891125 571.33707479 7.31742065 571.35427125 1.31591797 571.37002563 C-9.82438837 571.39751349 -20.9646891 571.41588826 -32.10501844 571.42978399 C-42.53098599 571.4428385 -52.95693788 571.45994333 -63.38289261 571.48087502 C-64.07961837 571.48226901 -64.77634412 571.483663 -65.49418278 571.48509923 C-68.32613695 571.4907719 -71.15809108 571.49646449 -73.99004515 571.50218589 C-100.70324283 571.55610728 -127.41644814 571.59882553 -154.12967345 571.63626824 C-176.60271107 571.66782186 -199.07572159 571.7064687 -221.54873224 571.75347573 C-225.20054257 571.76110743 -228.85235304 571.76867285 -232.5041635 571.77623832 C-233.58741806 571.77848251 -233.58741806 571.77848251 -234.69255654 571.78077203 C-293.91654317 571.90339679 -353.14034622 571.98451734 -412.36447 571.98693747 C-418.00619435 571.98717865 -423.6479187 571.98758195 -429.28964305 571.98805132 C-430.69473282 571.98816386 -432.0998226 571.98826435 -433.50491238 571.98835275 C-455.90880486 571.9898383 -478.31254894 572.01904061 -500.71639567 572.06271645 C-523.94745108 572.10779843 -547.17828534 572.11991365 -570.40939248 572.0940662 C-583.86523636 572.08001368 -597.3205288 572.09085212 -610.77630481 572.13666801 C-619.78733176 572.16482725 -628.79795728 572.16027097 -637.80897287 572.12895896 C-642.95498848 572.11199637 -648.0999259 572.10939159 -653.24586153 572.14624619 C-657.93105624 572.17950071 -662.61428127 572.17131466 -667.29939575 572.13007078 C-668.98489849 572.12249048 -670.67055365 572.13000646 -672.3558964 572.15443488 C-680.332816 572.2623428 -686.58728233 572.20443968 -693.00777245 566.80509472 C-696.49074532 563.35133987 -697.54729098 560.87919995 -698 556 C-697.608125 556.53625 -697.21625 557.0725 -696.8125 557.625 C-696.214375 558.40875 -695.61625 559.1925 -695 560 C-693.9171875 561.5159375 -693.9171875 561.5159375 -692.8125 563.0625 C-689.22885988 567.25352526 -684.64059507 568.73601337 -679.27275981 569.27264875 C-676.00704327 569.38772078 -672.75441588 569.40123258 -669.48669624 569.38311005 C-668.23106493 569.38806956 -666.97543361 569.39302908 -665.68175286 569.39813888 C-662.19738077 569.41146767 -658.71324914 569.40616883 -655.22887079 569.39780539 C-651.43776235 569.39199749 -647.6467 569.40354786 -643.85560405 569.41286707 C-637.21142859 569.42678356 -630.56732122 569.42951188 -623.92313385 569.42490768 C-614.0429547 569.41807881 -604.16284456 569.42832906 -594.282675 569.44186524 C-575.61082705 569.46678831 -556.93900768 569.47129364 -538.26714577 569.46939927 C-523.84998729 569.46802679 -509.43283875 569.47184099 -495.01568222 569.47932434 C-492.94518104 569.48037467 -490.87467986 569.48142229 -488.80417868 569.4824672 C-487.77640887 569.48298655 -486.74863907 569.48350589 -485.68972472 569.48404097 C-484.66008639 569.48456112 -483.63044806 569.48508126 -482.56960857 569.48561716 C-481.53826151 569.48614115 -480.50691446 569.48666514 -479.44431446 569.48720502 C-450.43254753 569.50179055 -421.42078426 569.51006979 -392.40901375 569.50545502 C-391.31507747 569.50528306 -390.22114119 569.50511111 -389.09405532 569.50493394 C-383.54941509 569.50404504 -378.00477486 569.50310023 -372.46013464 569.50213593 C-371.35892998 569.5019449 -370.25772532 569.50175387 -369.12315082 569.50155704 C-366.89624727 569.50116995 -364.66934371 569.50077963 -362.44244016 569.50038607 C-327.78728309 569.49441526 -293.13219279 569.50985699 -258.47705078 569.54199219 C-219.55132869 569.57805672 -180.62564894 569.59740355 -141.69990909 569.59245348 C-137.55058917 569.59198349 -133.40126924 569.59157324 -129.25194931 569.59120178 C-128.23026419 569.5910994 -127.20857906 569.59099701 -126.15593379 569.59089152 C-110.72319032 569.58969598 -95.29049254 569.60167309 -79.85776138 569.62034607 C-62.30956459 569.64156826 -44.76146374 569.64544803 -27.21326269 569.62604648 C-17.39050629 569.61570856 -7.56798383 569.61922013 2.2547515 569.64257733 C8.8148102 569.65679487 15.37469554 569.65286176 21.9347425 569.63413157 C25.67333232 569.6239684 29.41146637 569.62168368 33.15002798 569.64145225 C37.17871937 569.66256292 41.20632416 569.64496396 45.23501396 569.62361908 C46.39367267 569.63589661 47.55233138 569.64817413 48.74610096 569.6608237 C56.12053645 569.57893775 61.87745893 568.27631665 68 564 C74.76035681 556.44838245 73.14886624 544.44567399 73.14526367 534.99145508 C73.14862228 533.71540405 73.1519809 532.43935303 73.15544128 531.12463379 C73.16421807 527.64706004 73.16661676 524.16951095 73.16725707 520.69192719 C73.16797134 518.51162798 73.17011278 516.3313349 73.17275429 514.15103722 C73.18198783 506.52280662 73.1860918 498.89459342 73.18530273 491.26635742 C73.18470295 484.19151253 73.19524035 477.11674413 73.2110464 470.04191858 C73.22418837 463.93880511 73.22948383 457.83571643 73.22884732 451.73258895 C73.22859422 448.10042892 73.23134006 444.46833692 73.24202538 440.83619118 C73.25364554 436.77591481 73.24891911 432.7158062 73.24291992 428.65551758 C73.25134918 426.88675514 73.25134918 426.88675514 73.25994873 425.08226013 C73.19633617 408.01591977 70.65537353 392.82277366 58.44140625 380.03515625 C45.27810042 369.06222451 31.20948441 366.9684305 14.56640625 366.39453125 C13.60863281 366.35714844 12.65085937 366.31976562 11.6640625 366.28125 C10.79217285 366.25095703 9.9202832 366.22066406 9.02197266 366.18945312 C7 366 7 366 6 365 C5.89966718 363.37374816 5.86969033 361.74312163 5.86692142 360.11378002 C5.86268038 359.04920391 5.85843933 357.9846278 5.85406977 356.88779181 C5.8544559 355.70361003 5.85484203 354.51942826 5.85523987 353.29936218 C5.8499496 351.42886246 5.8499496 351.42886246 5.84455246 349.52057487 C5.83481723 346.04240195 5.83129782 342.56424545 5.82870948 339.08606088 C5.8248257 335.33976028 5.81518663 331.59347432 5.80615234 327.84718323 C5.79118298 321.34457891 5.77965082 314.84197576 5.77020454 308.33936119 C5.75632663 298.90708081 5.73513358 289.47482721 5.71177601 280.04256604 C5.67380321 264.7005029 5.63886545 249.35843482 5.60717773 234.01635742 C5.60527724 233.09717704 5.60337675 232.17799665 5.60141867 231.23096231 C5.5746967 218.24206215 5.55079971 205.2531583 5.52803367 192.26425067 C5.52643637 191.35325645 5.52483906 190.44226222 5.52319336 189.50366211 C5.52159989 188.59378749 5.52000643 187.68391288 5.51836468 186.7464663 C5.49145924 171.49563282 5.45699337 156.24482712 5.41653961 140.99402362 C5.39193848 131.60692181 5.37351555 122.2198497 5.363384 112.83272091 C5.35590905 106.37042183 5.34125972 99.9081626 5.32131977 93.44589009 C5.31009113 89.73413592 5.30178353 86.02244545 5.30232811 82.31067276 C5.30238318 58.11626039 4.45752893 34.1130627 0.5859375 10.1953125 C0.05692479 6.76823019 -0.12289848 3.47467511 0 0 Z " fill="#112340" transform="translate(729,261)"/>
<path d="M0 0 C21.78 0 43.56 0 66 0 C66 0.33 66 0.66 66 1 C66.68288086 1.06993164 67.36576172 1.13986328 68.06933594 1.21191406 C80.66623839 2.52435516 93.14088012 3.91185871 105.50292969 6.72949219 C110.45657354 7.83006356 114.92139121 8.16698374 120 8 C120.33 8.66 120.66 9.32 121 10 C123.00095688 10.8255804 123.00095688 10.8255804 125.4609375 11.48046875 C126.39736084 11.75342773 127.33378418 12.02638672 128.29858398 12.30761719 C129.31380127 12.59797852 130.32901855 12.88833984 131.375 13.1875 C154.27375693 19.97886036 175.69295189 29.21647485 197 40 C197.66 40.33 198.32 40.66 199 41 C200.39795895 41.86269709 201.78886144 42.73685294 203.17578125 43.6171875 C204.00400391 44.14183594 204.83222656 44.66648438 205.68554688 45.20703125 C206.55244141 45.75746094 207.41933594 46.30789062 208.3125 46.875 C216.79378429 52.67031375 216.79378429 52.67031375 226 57 C226 57.66 226 58.32 226 59 C227.72094171 60.3298432 227.72094171 60.3298432 229.875 61.5625 C230.59429688 61.99691406 231.31359375 62.43132812 232.0546875 62.87890625 C233.34834796 63.62444953 234.66451742 64.33225871 236 65 C237.66666667 66.66666667 239.33333333 68.33333333 241 70 C243.77260299 71.93798263 243.77260299 71.93798263 246 73 C247.69382072 74.64542584 249.35261127 76.30902956 251 78 C256.53037295 83.6652601 262.21612912 89.10472089 268.51171875 93.921875 C270.97388423 95.97818903 272.75208877 98.01413857 274.6875 100.5625 C277.57862651 104.27656889 280.58858366 107.75889056 283.8125 111.1875 C296.08519629 124.56736614 325 157.30641615 325 176 C325.66 176.33 326.32 176.66 327 177 C328.77159557 180.33776374 330.12371171 183.88306027 331.5625 187.375 C332.00287598 188.43976563 332.44325195 189.50453125 332.89697266 190.6015625 C350.45683673 233.82584329 350.45683673 233.82584329 350 252 C349.67 252 349.34 252 349 252 C348.82460693 251.26177002 348.64921387 250.52354004 348.46850586 249.76293945 C332.44826969 182.81215657 298.96107512 119.22039151 244 76 C242.76164248 74.97588884 241.52616288 73.94829165 240.29296875 72.91796875 C231.55952101 65.64686575 222.62833211 59.03589953 213 53 C212.40396973 52.62423828 211.80793945 52.24847656 211.19384766 51.86132812 C178.71617555 31.51981734 143.61267477 17.5742545 106.125 9.625 C105.05902588 9.39828613 103.99305176 9.17157227 102.89477539 8.93798828 C83.16788537 5.01357591 63.62345067 3.52267113 43.52709961 3.66381836 C39.93645779 3.68750688 36.34656038 3.68433358 32.75585938 3.67773438 C12.83719 3.70014918 -6.8226116 4.69748718 -26.375 8.6875 C-27.01822205 8.81594299 -27.66144409 8.94438599 -28.32415771 9.07672119 C-75.27602181 18.47683952 -117.58290393 37.67864889 -155.74438477 66.44262695 C-156.51451904 67.01972412 -157.28465332 67.59682129 -158.078125 68.19140625 C-158.76293945 68.70904541 -159.44775391 69.22668457 -160.15332031 69.76000977 C-162 71 -162 71 -165 72 C-163.86918192 68.60754576 -163.14223171 68.08452695 -160.34375 66.03125 C-159.57627441 65.46510986 -158.80879883 64.89896973 -158.01806641 64.31567383 C-157.18710449 63.71650146 -156.35614258 63.1173291 -155.5 62.5 C-154.65228027 61.88213623 -153.80456055 61.26427246 -152.93115234 60.62768555 C-144.82250798 54.77043742 -136.49112639 49.28429303 -128 44 C-127.05898437 43.40574219 -126.11796875 42.81148437 -125.1484375 42.19921875 C-123 41 -123 41 -121 41 C-120.505 40.01 -120.505 40.01 -120 39 C-117.87369811 37.76507357 -115.76540369 36.6467353 -113.5625 35.5625 C-112.86729248 35.21904541 -112.17208496 34.87559082 -111.45581055 34.52172852 C-90.49291025 24.35511402 -68.66086005 15.57234264 -46 10 C-46 9.34 -46 8.68 -46 8 C-44.18822266 8.07347656 -44.18822266 8.07347656 -42.33984375 8.1484375 C-35.94117791 8.1459346 -29.82046319 6.85516836 -23.5625 5.625 C-22.39912109 5.40328125 -21.23574219 5.1815625 -20.03710938 4.953125 C-13.35050776 3.67375272 -6.67335031 2.34667009 0 1 C0 0.67 0 0.34 0 0 Z " fill="#152642" transform="translate(379,8)"/>
<path d="M0 0 C0.391875 0.53625 0.78375 1.0725 1.1875 1.625 C1.785625 2.40875 2.38375 3.1925 3 4 C3.721875 5.010625 4.44375 6.02125 5.1875 7.0625 C8.77315987 11.25556093 13.36165438 12.73644072 18.73207599 13.27292254 C22.00546714 13.38842815 25.26582929 13.40238969 28.54123688 13.38476086 C29.79986416 13.38991076 31.05849144 13.39506067 32.35525894 13.40036663 C35.84796232 13.41423783 39.34042971 13.40950809 42.83314282 13.40173779 C46.63313946 13.3965899 50.43308663 13.4088326 54.23306799 13.41886932 C60.89254466 13.43406391 67.55195647 13.43815906 74.21144867 13.43499184 C84.11385202 13.43033257 94.01618185 13.44281617 103.9185707 13.45882157 C120.57598741 13.48525922 137.23338747 13.49778046 153.89082336 13.50238609 C170.38512764 13.50699204 186.87940882 13.5177737 203.373703 13.53681374 C204.3990497 13.53799386 205.4243964 13.53917399 206.48081421 13.54038988 C211.68797589 13.54641525 216.89513742 13.55255106 222.10229892 13.55872939 C258.99006817 13.60229825 295.87783687 13.63200469 332.765625 13.65356445 C368.60287302 13.67454191 404.44010729 13.701795 440.27734375 13.73754883 C441.38189292 13.73864831 442.48644208 13.73974778 443.62446243 13.74088058 C454.71674154 13.75192886 465.80902051 13.76310477 476.90129939 13.7743742 C499.49779751 13.79732867 522.09429643 13.81943122 544.6907959 13.84101868 C545.72975938 13.8420123 546.76872287 13.84300591 547.83917009 13.84402964 C617.22610213 13.9102906 686.61305031 13.95669213 756 14 C756 14.33 756 14.66 756 15 C709.27219691 15.1140682 662.54438925 15.22603839 615.81655884 15.32835388 C615.10991477 15.32990168 614.40327071 15.33144947 613.67521319 15.33304417 C598.26853477 15.36677904 582.86185565 15.4001814 567.45517578 15.4332476 C559.88515612 15.44949656 552.31513661 15.46581797 544.74511719 15.48217773 C543.99234297 15.48380334 543.23956875 15.48542894 542.46398319 15.4871038 C520.82868986 15.53385503 499.19340718 15.58400146 477.55812934 15.63743596 C412.82619903 15.79724516 348.09440146 15.92663109 283.36227036 15.96409035 C281.9548714 15.96491405 280.54747245 15.9657386 279.14007349 15.96656399 C277.73450856 15.96738587 276.32894364 15.96820772 274.92337871 15.96902955 C274.22831076 15.96943702 273.53324282 15.96984449 272.81711222 15.97026431 C269.31448698 15.97231416 265.81186173 15.97432759 262.30923644 15.97627245 C246.92816615 15.98496631 231.54713475 15.99965855 216.16609192 16.03072357 C215.47283687 16.03212275 214.77958183 16.03352193 214.06531905 16.0349635 C210.57390473 16.04204871 207.08249064 16.04924431 203.59107663 16.05648424 C178.28539235 16.10892368 152.98001751 16.13187522 127.67426121 16.10291308 C114.21388269 16.08835562 100.7540543 16.09848798 87.29374054 16.14358677 C78.27670147 16.17125348 69.26006758 16.16611534 60.24304375 16.13413052 C55.09236116 16.11676198 49.94275099 16.11371365 44.79214334 16.15005183 C40.10188316 16.18282304 35.41359668 16.17412621 30.72342475 16.13235401 C29.03592883 16.12457752 27.34827899 16.13189442 25.66093902 16.1561181 C17.67928581 16.26297574 11.41530363 16.20750427 4.99098778 10.80497074 C1.50880059 7.35126551 0.45278629 4.87853766 0 0 Z " fill="#000D23" transform="translate(31,817)"/>
<path d="M0 0 C0.99 0 1.98 0 3 0 C3.15373631 28.79752158 3.30177391 57.59506752 3.4429636 86.39265347 C3.50864932 99.76284269 3.57619353 113.13301707 3.64819336 126.50317383 C3.71089227 138.15197512 3.77010009 149.80078792 3.82505554 161.44962841 C3.85429717 167.62175969 3.88532771 173.79387062 3.92053413 179.96597099 C3.95357472 185.76802349 3.98196932 191.57007965 4.00670624 197.37217331 C4.01665018 199.50840064 4.02833279 201.64462064 4.04183006 203.78082848 C4.05991927 206.68379688 4.07191318 209.58672619 4.08229065 212.48973083 C4.08909444 213.34671757 4.09589823 214.2037043 4.10290819 215.08666033 C4.10671999 217.05806832 4.05922363 219.02947809 4 221 C2.35387376 222.64612624 0.41199572 222.16722831 -1.85546875 222.2109375 C-21.10921723 222.70777866 -38.04282868 223.69679062 -52.859375 237.52734375 C-62.42918462 248.58152165 -65.29617034 259.8874496 -65.30297852 274.16455078 C-65.31141785 275.48093033 -65.31985718 276.79730988 -65.32855225 278.15357971 C-65.3467675 281.00725959 -65.35884674 283.86087479 -65.36609077 286.71460342 C-65.37763675 291.23867027 -65.4031229 295.76259518 -65.43040466 300.28659058 C-65.47199745 307.45320519 -65.50442901 314.61982687 -65.53287882 321.78650463 C-65.58382032 334.59239967 -65.64647986 347.3982321 -65.71821922 360.20402706 C-65.74293328 364.68877068 -65.76245836 369.17349672 -65.77760136 373.65828252 C-65.78791385 376.46575679 -65.80206036 379.2732034 -65.81707764 382.08065605 C-65.82602287 383.97579099 -65.83028671 385.87094629 -65.83433533 387.76609802 C-65.88060944 395.55051762 -66.29954437 403.24716686 -67 411 C-67.33 411 -67.66 411 -68 411 C-68.15527025 395.41189635 -68.30324111 379.82374063 -68.4429636 364.2354908 C-68.50802952 356.9945228 -68.57531679 349.75358926 -68.64819336 342.51269531 C-68.71184657 336.18761973 -68.77096588 329.86251918 -68.82505554 323.53735435 C-68.85373478 320.20088174 -68.88507856 316.86449131 -68.92053413 313.52807999 C-69.06000094 300.27561079 -69.08992776 287.03329215 -68.69506836 273.78466797 C-68.67214753 272.74163073 -68.6492267 271.69859348 -68.62561131 270.62394905 C-68.04692539 254.81511834 -61.77200504 244.2224707 -51 233 C-50.21496094 232.15501953 -50.21496094 232.15501953 -49.4140625 231.29296875 C-47.27028071 229.03874972 -46.01494879 228.00498293 -43 227 C-41.15927585 226.2043858 -39.32665829 225.38989764 -37.5 224.5625 C-36.5409375 224.13066406 -35.581875 223.69882812 -34.59375 223.25390625 C-31.85849351 222.00479522 -31.85849351 222.00479522 -29 220 C-28.34 219.67 -27.68 219.34 -27 219 C-27 219.66 -27 220.32 -27 221 C-26.2783667 220.84080078 -25.5567334 220.68160156 -24.81323242 220.51757812 C-22.16170887 220.02975118 -19.67898033 219.81568426 -16.98828125 219.71875 C-15.60479492 219.66267578 -15.60479492 219.66267578 -14.19335938 219.60546875 C-12.26108335 219.5347278 -10.3287914 219.46442045 -8.39648438 219.39453125 C-7.01879883 219.33845703 -7.01879883 219.33845703 -5.61328125 219.28125 C-4.77579346 219.25095703 -3.93830566 219.22066406 -3.07543945 219.18945312 C-0.93953965 219.12145884 -0.93953965 219.12145884 1 218 C1.02334463 194.73038348 1.04098688 171.46076888 1.05181217 148.19114304 C1.05697179 137.38702758 1.06400817 126.58291939 1.07543945 115.77880859 C1.08539645 106.36362333 1.09185586 96.94844333 1.09408849 87.53325295 C1.09539387 82.54649215 1.09846883 77.5597464 1.10573006 72.57299042 C1.11250626 67.88141769 1.11461368 63.18986626 1.11310768 58.49828911 C1.11338329 56.77453178 1.11537893 55.05077375 1.11920547 53.32702065 C1.12416768 50.97683752 1.1229889 48.62673522 1.12025452 46.27655029 C1.12117631 44.96022991 1.1220981 43.64390953 1.12304783 42.28770065 C1.02294725 39.61312499 0.65711126 37.55246067 0 35 C0.495 34.01 0.495 34.01 1 33 C1.084915 31.1136088 1.107193 29.22421485 1.09765625 27.3359375 C1.09443359 26.21445312 1.09121094 25.09296875 1.08789062 23.9375 C1.07951172 22.761875 1.07113281 21.58625 1.0625 20.375 C1.05798828 19.19164062 1.05347656 18.00828125 1.04882812 16.7890625 C1.03701467 13.85932493 1.02054258 10.92968728 1 8 C0.67 8 0.34 8 0 8 C0 5.36 0 2.72 0 0 Z " fill="#0E1B37" transform="translate(98,405)"/>
<path d="M0 0 C0.99 0.495 0.99 0.495 2 1 C0.04244491 2.81334649 -1.91597547 4.62574195 -3.875 6.4375 C-4.75986084 7.25686035 -4.75986084 7.25686035 -5.66259766 8.09277344 C-9.19529524 11.35710443 -12.76599561 14.56984335 -16.375 17.75 C-19.91700477 20.92755412 -23.10463409 24.21820722 -26.16796875 27.85546875 C-28.31369097 30.36719902 -30.56214129 32.76915184 -32.8125 35.1875 C-67.75605045 73.7459005 -89.68195007 122.27951599 -101.41748047 172.52490234 C-102.24150408 176.02613932 -103.11895961 179.51271922 -104 183 C-104.33 183 -104.66 183 -105 183 C-105.14614264 178.17424038 -104.72291211 174.0685243 -103.50390625 169.40234375 C-103.19259766 168.18869141 -102.88128906 166.97503906 -102.56054688 165.72460938 C-102.23119141 164.47486328 -101.90183594 163.22511719 -101.5625 161.9375 C-100.91590513 159.44714947 -100.27130227 156.95628069 -99.62890625 154.46484375 C-99.1968689 152.81923462 -99.1968689 152.81923462 -98.75610352 151.14038086 C-98.02520705 148.10469433 -97.4732601 145.08533084 -97 142 C-96.34 142 -95.68 142 -95 142 C-94.90332031 141.20207031 -94.80664062 140.40414062 -94.70703125 139.58203125 C-90.24725414 116.98746989 -77.05473456 94.20838645 -65.01293945 74.90258789 C-64.48788818 74.05172607 -63.96283691 73.20086426 -63.421875 72.32421875 C-62.95362305 71.58260498 -62.48537109 70.84099121 -62.00292969 70.0769043 C-60.71010019 67.78406169 -60.71010019 67.78406169 -61 64 C-60.01 64 -59.02 64 -58 64 C-56.30342781 61.9086659 -54.80506527 59.85513533 -53.3125 57.625 C-52.41357548 56.325356 -51.51251769 55.02718503 -50.609375 53.73046875 C-50.16529297 53.09028809 -49.72121094 52.45010742 -49.26367188 51.79052734 C-46.37618682 47.6991797 -43.18735262 43.85837423 -40 40 C-39.27296875 39.08734375 -38.5459375 38.1746875 -37.796875 37.234375 C-31.70913992 29.76828481 -25.10402371 22.89295038 -18.3125 16.0625 C-17.42151611 15.16233154 -16.53053223 14.26216309 -15.61254883 13.3347168 C-10.68833306 8.43340649 -5.72065805 3.95302202 0 0 Z " fill="#14243F" transform="translate(211,81)"/>
<path d="M0 0 C1.89547722 1.41905566 3.68805052 2.90577636 5.48828125 4.44140625 C6.14828125 4.77140625 6.80828125 5.10140625 7.48828125 5.44140625 C7.48828125 6.10140625 7.48828125 6.76140625 7.48828125 7.44140625 C8.08511719 7.6940625 8.68195312 7.94671875 9.296875 8.20703125 C14.73204931 11.26855546 18.00988235 17.93385314 20.48828125 23.44140625 C21.47828125 22.94640625 21.47828125 22.94640625 22.48828125 22.44140625 C22.84030311 25.10671459 23.17126921 27.7718312 23.48828125 30.44140625 C23.606875 31.39015625 23.72546875 32.33890625 23.84765625 33.31640625 C23.9559375 34.28578125 24.06421875 35.25515625 24.17578125 36.25390625 C24.33626953 37.62482422 24.33626953 37.62482422 24.5 39.0234375 C24.48828125 41.44140625 24.48828125 41.44140625 22.48828125 44.44140625 C22.42511719 43.59320312 22.36195313 42.745 22.296875 41.87109375 C20.92249205 28.70595178 15.89624835 16.11748763 5.48828125 7.44140625 C-6.75414888 -0.97641369 -18.23373606 -3.53707004 -32.94921875 -4.12109375 C-33.96693359 -4.16427734 -34.98464844 -4.20746094 -36.03320312 -4.25195312 C-38.52592903 -4.35727957 -41.01874213 -4.45941047 -43.51171875 -4.55859375 C-43.84171875 -5.21859375 -44.17171875 -5.87859375 -44.51171875 -6.55859375 C-31.80009906 -10.0739753 -11.14559716 -6.91616371 0 0 Z " fill="#142642" transform="translate(779.51171875,631.55859375)"/>
<path d="M0 0 C1.35608038 2.71216077 0.85448205 4.38780237 0.4765625 7.390625 C0.3425 8.4940625 0.2084375 9.5975 0.0703125 10.734375 C-0.07664062 11.89453125 -0.22359375 13.0546875 -0.375 14.25 C-2.2852577 29.53206158 -3.16094036 44.73301983 -3.55224609 60.11645508 C-3.78560642 69.10296844 -4.21088362 78.04295445 -5 87 C-5.33 87 -5.66 87 -6 87 C-6.22786458 85.01432292 -6.45572917 83.02864583 -6.68359375 81.04296875 C-6.97170735 78.80603607 -6.97170735 78.80603607 -8 76 C-7.78310166 73.92245418 -7.55895477 71.84540348 -7.29785156 69.77294922 C-6.70160997 64.22203773 -6.57811144 58.63910387 -6.375 53.0625 C-6.3234375 51.83208984 -6.271875 50.60167969 -6.21875 49.33398438 C-6.17492187 48.16287109 -6.13109375 46.99175781 -6.0859375 45.78515625 C-6.0451709 44.72176025 -6.0044043 43.65836426 -5.96240234 42.56274414 C-5.81443069 40.00943456 -5.81443069 40.00943456 -7 38 C-6.34 38 -5.68 38 -5 38 C-5.01595215 37.35095703 -5.0319043 36.70191406 -5.04833984 36.03320312 C-5.14780137 28.75313592 -4.55598913 21.71516577 -3.625 14.5 C-3.49867187 13.43007813 -3.37234375 12.36015625 -3.2421875 11.2578125 C-3.11328125 10.23429687 -2.984375 9.21078125 -2.8515625 8.15625 C-2.73635254 7.23650391 -2.62114258 6.31675781 -2.50244141 5.36914062 C-2 3 -2 3 0 0 Z " fill="#162743" transform="translate(106,265)"/>
<path d="M0 0 C-0.97888184 0.45101074 -0.97888184 0.45101074 -1.97753906 0.91113281 C-26.69341537 12.36440929 -49.36164974 25.6296852 -70.46875 42.92578125 C-72 44 -72 44 -74 44 C-72.86918192 40.60754576 -72.14223171 40.08452695 -69.34375 38.03125 C-68.19253662 37.18203979 -68.19253662 37.18203979 -67.01806641 36.31567383 C-66.18710449 35.71650146 -65.35614258 35.1173291 -64.5 34.5 C-63.65228027 33.88213623 -62.80456055 33.26427246 -61.93115234 32.62768555 C-53.82250798 26.77043742 -45.49112639 21.28429303 -37 16 C-36.05898437 15.40574219 -35.11796875 14.81148437 -34.1484375 14.19921875 C-32 13 -32 13 -30 13 C-29.67 12.34 -29.34 11.68 -29 11 C-26.51823463 9.63502904 -24.0457139 8.35934604 -21.5 7.125 C-20.40993652 6.59144897 -20.40993652 6.59144897 -19.29785156 6.04711914 C-17.85450063 5.34363853 -16.40954136 4.64344695 -14.96289062 3.94677734 C-13.32939725 3.15888091 -11.7028406 2.35662281 -10.078125 1.55078125 C-9.30984375 1.18339844 -8.5415625 0.81601562 -7.75 0.4375 C-7.10546875 0.12683594 -6.4609375 -0.18382812 -5.796875 -0.50390625 C-3.55224568 -1.12361913 -2.20955591 -0.62154476 0 0 Z " fill="#12223D" transform="translate(288,36)"/>
<path d="M0 0 C7.610625 -0.061875 7.610625 -0.061875 15.375 -0.125 C16.97520996 -0.14320801 18.57541992 -0.16141602 20.22412109 -0.18017578 C22.10478271 -0.18766846 22.10478271 -0.18766846 24.0234375 -0.1953125 C25.31169434 -0.20578613 26.59995117 -0.21625977 27.92724609 -0.22705078 C31 0 31 0 33 2 C22.77 2 12.54 2 2 2 C2.02320313 4.85269531 2.04640625 7.70539063 2.0703125 10.64453125 C2.08590601 13.40469925 2.09805247 16.16486236 2.10986328 18.92504883 C2.11992639 20.84466749 2.13357816 22.76427081 2.15087891 24.68383789 C2.17511364 27.44160752 2.18647992 30.19917464 2.1953125 32.95703125 C2.20563507 33.81649857 2.21595764 34.67596588 2.22659302 35.56147766 C2.22674408 36.36208115 2.22689514 37.16268463 2.22705078 37.98754883 C2.231492 38.6914827 2.23593323 39.39541656 2.24050903 40.12068176 C2 42 2 42 0 45 C0 30.15 0 15.3 0 0 Z " fill="#EDF4FB" transform="translate(248,303)"/>
<path d="M0 0 C1.26567508 3.8584555 0.4641755 5.88204775 -1.29907227 9.53369141 C-1.65412842 10.22382324 -2.00918457 10.91395508 -2.375 11.625 C-2.737146 12.3370459 -3.09929199 13.0490918 -3.47241211 13.78271484 C-8.74794637 23.74673482 -16.64511308 31.76340872 -26 38 C-24.31163821 43.50158867 -21.8357954 48.32323302 -19.14453125 53.390625 C-18.76683594 54.25171875 -18.38914062 55.1128125 -18 56 C-18.33 56.66 -18.66 57.32 -19 58 C-20.70385928 54.90454428 -22.38517398 51.79740166 -24.0625 48.6875 C-24.54783203 47.80642578 -25.03316406 46.92535156 -25.53320312 46.01757812 C-26.21479492 44.74624023 -26.21479492 44.74624023 -26.91015625 43.44921875 C-27.33433838 42.66893311 -27.75852051 41.88864746 -28.19555664 41.0847168 C-29 39 -29 39 -28 36 C-26.21484375 34.67578125 -26.21484375 34.67578125 -23.9375 33.3125 C-11.82280043 25.43411151 -4.37238392 13.66369974 0 0 Z " fill="#E9F2F9" transform="translate(333,338)"/>
<path d="M0 0 C0.66 0.33 1.32 0.66 2 1 C1.25556641 1.73089844 1.25556641 1.73089844 0.49609375 2.4765625 C-13.91710366 17.51879889 -15.21870014 34.15909577 -16 54 C-16.33 54 -16.66 54 -17 54 C-17.08821107 50.04181074 -17.14079412 46.08387938 -17.1875 42.125 C-17.21263672 41.01640625 -17.23777344 39.9078125 -17.26367188 38.765625 C-17.40882714 22.3146944 -11.17919042 11.66630112 0 0 Z " fill="#0C1A33" transform="translate(47,638)"/>
<path d="M0 0 C0.391875 0.53625 0.78375 1.0725 1.1875 1.625 C1.785625 2.40875 2.38375 3.1925 3 4 C3.721875 5.010625 4.44375 6.02125 5.1875 7.0625 C8.61932146 11.10486589 13.21572011 12.6533255 18.37329102 13.29550171 C20.9813342 13.43931347 23.57559249 13.49315963 26.1875 13.51171875 C27.60216553 13.53864555 27.60216553 13.53864555 29.04541016 13.56611633 C32.03022921 13.61989644 35.01489135 13.65401089 38 13.6875 C40.03517793 13.72070161 42.07033525 13.75519387 44.10546875 13.79101562 C49.07019868 13.87560416 54.03488468 13.94256864 59 14 C59 14.33 59 14.66 59 15 C52.34784857 15.22955805 45.69672929 15.38636098 39.04150391 15.49438477 C36.78135008 15.53944571 34.52145569 15.60071625 32.26220703 15.67895508 C11.06476593 16.39426352 11.06476593 16.39426352 4.5234375 10.83984375 C1.36512831 7.37992299 0.4807874 4.63544499 0 0 Z " fill="#08162D" transform="translate(31,817)"/>
<path d="M0 0 C0.33 0 0.66 0 1 0 C1 11.55 1 23.1 1 35 C0.01 35 -0.98 35 -2 35 C-2 33.68 -2 32.36 -2 31 C-1.34 31 -0.68 31 0 31 C-0.0721875 30.43152344 -0.144375 29.86304688 -0.21875 29.27734375 C-0.795616 24.47813911 -1 19.83857661 -1 15 C-1.165 14.34 -1.33 13.68 -1.5 13 C-2.47984903 9.08060388 -2.53663539 5.30804877 -1 1.5625 C-0.67 1.046875 -0.34 0.53125 0 0 Z M-1 9 C0 11 0 11 0 11 Z " fill="#162643" transform="translate(100,353)"/>
<path d="M0 0 C0.33 0 0.66 0 1 0 C1.1050173 10.39671302 1.02472362 20.64297197 0 31 C-0.33 31 -0.66 31 -1 31 C-1.22786458 29.01432292 -1.45572917 27.02864583 -1.68359375 25.04296875 C-1.97170735 22.80603607 -1.97170735 22.80603607 -3 20 C-2.81827111 13.29001029 -1.26502882 6.57078076 0 0 Z " fill="#1A2E4D" transform="translate(101,321)"/>
<path d="M0 0 C3.4124089 0.44872655 6.68113934 0.68671793 10.125 0.625 C10.455 1.285 10.785 1.945 11.125 2.625 C13.14169827 3.75850534 13.14169827 3.75850534 15.125 4.625 C11.95040369 5.63998547 9.81622329 5.56966465 6.578125 4.84765625 C5.31162109 4.57211914 5.31162109 4.57211914 4.01953125 4.29101562 C3.14683594 4.09185547 2.27414062 3.89269531 1.375 3.6875 C0.48683594 3.49220703 -0.40132813 3.29691406 -1.31640625 3.09570312 C-3.50449322 2.61338288 -5.6904173 2.12290968 -7.875 1.625 C-4.47000069 -0.64499954 -3.86398529 -0.52850863 0 0 Z " fill="#192B47" transform="translate(488.875,15.375)"/>
<path d="M0 0 C0.99 0.495 0.99 0.495 2 1 C3.28571429 7.42857143 3.28571429 7.42857143 2 10 C1.93049459 11.54023996 1.91547643 13.08334988 1.9375 14.625 C1.94652344 15.44226563 1.95554687 16.25953125 1.96484375 17.1015625 C1.97644531 17.72804688 1.98804688 18.35453125 2 19 C1.34 19 0.68 19 0 19 C0 12.73 0 6.46 0 0 Z " fill="#1A2846" transform="translate(803,766)"/>
<path d="M0 0 C-2.91850212 1.94566808 -4.57622848 2.5152457 -7.9375 3.1875 C-8.79214844 3.36667969 -9.64679688 3.54585937 -10.52734375 3.73046875 C-13.01134859 4.00123705 -14.64449502 3.77059444 -17 3 C-11.72346191 -0.51769206 -6.13607598 -0.10579441 0 0 Z " fill="#10203C" transform="translate(365,13)"/>
<path d="M0 0 C5.24972347 4.10037573 9.20962911 8.52964787 13 14 C12.01 14.495 12.01 14.495 11 15 C9.5369343 13.25395451 8.0797192 11.50300547 6.625 9.75 C5.81289063 8.77546875 5.00078125 7.8009375 4.1640625 6.796875 C2.42148243 4.5447318 1.123584 2.59288614 0 0 Z " fill="#0C1C38" transform="translate(653,110)"/>
<path d="M0 0 C0.66 0.66 1.32 1.32 2 2 C0.02 4.97 -1.96 7.94 -4 11 C-4.66 10.34 -5.32 9.68 -6 9 C-5.625 5.875 -5.625 5.875 -5 3 C-4.01 3 -3.02 3 -2 3 C-1.34 2.01 -0.68 1.02 0 0 Z " fill="#1D2E4B" transform="translate(155,142)"/>
<path d="M0 0 C0.33 0 0.66 0 1 0 C1 4.95 1 9.9 1 15 C0.67 15 0.34 15 0 15 C0 10.05 0 5.1 0 0 Z " fill="#3A4C66" transform="translate(98,309)"/>
<path d="M0 0 C0.33 0 0.66 0 1 0 C1 2.97 1 5.94 1 9 C0.34 8.67 -0.32 8.34 -1 8 C-0.67 5.36 -0.34 2.72 0 0 Z " fill="#3A4C68" transform="translate(98,497)"/>
<path d="M0 0 C0.33 0 0.66 0 1 0 C1 2.64 1 5.28 1 8 C0.67 8 0.34 8 0 8 C0 5.36 0 2.72 0 0 Z " fill="#3A4C66" transform="translate(98,533)"/>
<path d="M0 0 C0.33 0 0.66 0 1 0 C1 2.31 1 4.62 1 7 C0.67 7 0.34 7 0 7 C0 4.69 0 2.38 0 0 Z " fill="#394C67" transform="translate(98,561)"/>
<path d="M0 0 C0.33 0 0.66 0 1 0 C1 2.31 1 4.62 1 7 C0.67 7 0.34 7 0 7 C0 4.69 0 2.38 0 0 Z " fill="#3B4C66" transform="translate(98,485)"/>
<path d="M0 0 C0.33 0 0.66 0 1 0 C1 2.31 1 4.62 1 7 C0.67 7 0.34 7 0 7 C0 4.69 0 2.38 0 0 Z " fill="#3A4B64" transform="translate(98,421)"/>
<path d="M0 0 C0.33 0 0.66 0 1 0 C1 2.31 1 4.62 1 7 C0.67 7 0.34 7 0 7 C0 4.69 0 2.38 0 0 Z " fill="#394B64" transform="translate(98,389)"/>
<path d="M0 0 C0.33 0 0.66 0 1 0 C1 1.98 1 3.96 1 6 C0.67 6 0.34 6 0 6 C0 4.02 0 2.04 0 0 Z " fill="#3B4E65" transform="translate(98,518)"/>
<path d="M0 0 C0.33 0 0.66 0 1 0 C1 1.98 1 3.96 1 6 C0.67 6 0.34 6 0 6 C0 4.02 0 2.04 0 0 Z " fill="#394B66" transform="translate(98,414)"/>
<path d="M0 0 C0.33 0 0.66 0 1 0 C1 1.65 1 3.3 1 5 C0.67 5 0.34 5 0 5 C0 3.35 0 1.7 0 0 Z " fill="#3A4C66" transform="translate(98,461)"/>
<path d="M0 0 C0.33 0 0.66 0 1 0 C1 1.65 1 3.3 1 5 C0.67 5 0.34 5 0 5 C0 3.35 0 1.7 0 0 Z " fill="#394D65" transform="translate(98,446)"/>
<path d="M0 0 C0.33 0 0.66 0 1 0 C1 1.65 1 3.3 1 5 C0.67 5 0.34 5 0 5 C0 3.35 0 1.7 0 0 Z " fill="#3A4D65" transform="translate(98,430)"/>
<path d="M0 0 C0.33 0 0.66 0 1 0 C1 1.65 1 3.3 1 5 C0.67 5 0.34 5 0 5 C0 3.35 0 1.7 0 0 Z " fill="#3A4C66" transform="translate(98,327)"/>
<path d="M0 0 C4 1 4 1 4 1 Z " fill="#394D67" transform="translate(760,624)"/>
<path d="M0 0 C1 4 1 4 1 4 Z " fill="#3D4F69" transform="translate(98,600)"/>
<path d="M0 0 C1 4 1 4 1 4 Z " fill="#3C4E66" transform="translate(98,584)"/>
<path d="M0 0 C1 4 1 4 1 4 Z " fill="#384B66" transform="translate(98,455)"/>
<path d="M0 0 C1 4 1 4 1 4 Z " fill="#384B62" transform="translate(737,305)"/>
<path d="M0 0 C0.33 0.99 0.66 1.98 1 3 C0.34 2.67 -0.32 2.34 -1 2 C-0.67 1.34 -0.34 0.68 0 0 Z " fill="#384C68" transform="translate(99,296)"/>
<path d="M0 0 C1 4 1 4 1 4 Z " fill="#384B64" transform="translate(100,283)"/>
<path d="M0 0 C0.33 0.66 0.66 1.32 1 2 C0.01 1.67 -0.98 1.34 -2 1 C-1.34 0.67 -0.68 0.34 0 0 Z " fill="#334966" transform="translate(140,162)"/>
<path d="M0 0 C0.99 0.33 1.98 0.66 3 1 C2.01 1 1.02 1 0 1 C0 0.67 0 0.34 0 0 Z " fill="#374B63" transform="translate(168,120)"/>
<path d="M0 0 C4 1 4 1 4 1 Z " fill="#364A60" transform="translate(306,24)"/>
<path d="M0 0 C1.485 0.99 1.485 0.99 3 2 C2.01 2 1.02 2 0 2 C0 1.34 0 0.68 0 0 Z " fill="#334861" transform="translate(511,19)"/>
<path d="M0 0 C4 1 4 1 4 1 Z " fill="#34475F" transform="translate(446,8)"/>
<path d="" fill="#324259" transform="translate(0,0)"/>
<path d="" fill="#3D4E68" transform="translate(0,0)"/>
<path d="" fill="#3C4D65" transform="translate(0,0)"/>
<path d="" fill="#394C67" transform="translate(0,0)"/>
<path d="" fill="#3B4D69" transform="translate(0,0)"/>
<path d="" fill="#3B4D67" transform="translate(0,0)"/>
<path d="" fill="#3C4E67" transform="translate(0,0)"/>
<path d="" fill="#394D66" transform="translate(0,0)"/>
<path d="" fill="#3B4D67" transform="translate(0,0)"/>
<path d="" fill="#384D66" transform="translate(0,0)"/>
<path d="M0 0 C0.66 0 1.32 0 2 0 C1.67 0.66 1.34 1.32 1 2 C0.67 1.34 0.34 0.68 0 0 Z " fill="#344B68" transform="translate(130,179)"/>
<path d="M0 0 C0.66 0.66 1.32 1.32 2 2 C1.34 2 0.68 2 0 2 C0 1.34 0 0.68 0 0 Z " fill="#384A5D" transform="translate(154,138)"/>
<path d="M0 0 C3 1 3 1 3 1 Z " fill="#364C66" transform="translate(322,19)"/>
<path d="M0 0 C3 1 3 1 3 1 Z " fill="#364962" transform="translate(477,12)"/>
<path d="M0 0 C3 1 3 1 3 1 Z " fill="#324968" transform="translate(460,9)"/>
<path d="M0 0 C2 1 2 1 2 1 Z " fill="#2F4059" transform="translate(39,831)"/>
<path d="" fill="#2C405F" transform="translate(0,0)"/>
<path d="M0 0 C2 1 2 1 2 1 Z " fill="#38485F" transform="translate(27,791)"/>
<path d="" fill="#3C485C" transform="translate(0,0)"/>
<path d="M0 0 C2 1 2 1 2 1 Z " fill="#36475F" transform="translate(806,745)"/>
<path d="M0 0 C2 1 2 1 2 1 Z " fill="#374A60" transform="translate(27,743)"/>
<path d="" fill="#374C68" transform="translate(0,0)"/>
<path d="M0 0 C2 1 2 1 2 1 Z " fill="#384C60" transform="translate(774,628)"/>
<path d="M0 0 C2 1 2 1 2 1 Z " fill="#41556E" transform="translate(74,624)"/>
<path d="" fill="#3F4E62" transform="translate(0,0)"/>
<path d="" fill="#3D4F69" transform="translate(0,0)"/>
<path d="" fill="#3B4C64" transform="translate(0,0)"/>
<path d="" fill="#3B4C63" transform="translate(0,0)"/>
<path d="" fill="#3C485C" transform="translate(0,0)"/>
<path d="" fill="#3B4D63" transform="translate(0,0)"/>
<path d="" fill="#3B4C62" transform="translate(0,0)"/>
<path d="" fill="#3A4D67" transform="translate(0,0)"/>
<path d="" fill="#3D4A60" transform="translate(0,0)"/>
<path d="M0 0 C2 1 2 1 2 1 Z " fill="#394963" transform="translate(106,234)"/>
<path d="" fill="#3B4D67" transform="translate(0,0)"/>
<path d="" fill="#394C63" transform="translate(0,0)"/>
<path d="" fill="#384A65" transform="translate(0,0)"/>
<path d="" fill="#364B6A" transform="translate(0,0)"/>
<path d="" fill="#374C64" transform="translate(0,0)"/>
<path d="" fill="#374A64" transform="translate(0,0)"/>
<path d="" fill="#364966" transform="translate(0,0)"/>
<path d="M0 0 C2 1 2 1 2 1 Z " fill="#3B4B63" transform="translate(219,72)"/>
<path d="M0 0 C2 1 2 1 2 1 Z " fill="#344D6B" transform="translate(237,59)"/>
<path d="M0 0 C2 1 2 1 2 1 Z " fill="#364962" transform="translate(591,56)"/>
<path d="M0 0 C2 1 2 1 2 1 Z " fill="#334967" transform="translate(551,35)"/>
<path d="M0 0 C2 1 2 1 2 1 Z " fill="#3D4C60" transform="translate(544,32)"/>
<path d="" fill="#36475D" transform="translate(0,0)"/>
<path d="M0 0 C2 1 2 1 2 1 Z " fill="#314A68" transform="translate(475,11)"/>
<path d="M0 0 C2 1 2 1 2 1 Z " fill="#304965" transform="translate(373,9)"/>
<path d="" fill="#303E4E" transform="translate(0,0)"/>
<path d="" fill="#333F52" transform="translate(0,0)"/>
<path d="" fill="#333F52" transform="translate(0,0)"/>
<path d="" fill="#31445D" transform="translate(0,0)"/>
<path d="" fill="#2F4056" transform="translate(0,0)"/>
<path d="" fill="#32425C" transform="translate(0,0)"/>
<path d="" fill="#34435B" transform="translate(0,0)"/>
<path d="" fill="#2F4056" transform="translate(0,0)"/>
<path d="" fill="#314159" transform="translate(0,0)"/>
<path d="" fill="#394455" transform="translate(0,0)"/>
<path d="" fill="#37465A" transform="translate(0,0)"/>
<path d="" fill="#3A495D" transform="translate(0,0)"/>
<path d="" fill="#384558" transform="translate(0,0)"/>
<path d="" fill="#3D4A5A" transform="translate(0,0)"/>
<path d="" fill="#3B475C" transform="translate(0,0)"/>
<path d="" fill="#384656" transform="translate(0,0)"/>
<path d="" fill="#3A4A59" transform="translate(0,0)"/>
<path d="" fill="#3E4C5C" transform="translate(0,0)"/>
<path d="" fill="#394A5F" transform="translate(0,0)"/>
<path d="" fill="#3B485A" transform="translate(0,0)"/>
<path d="" fill="#32455F" transform="translate(0,0)"/>
<path d="" fill="#3B4856" transform="translate(0,0)"/>
<path d="" fill="#36485B" transform="translate(0,0)"/>
<path d="" fill="#3D4960" transform="translate(0,0)"/>
<path d="" fill="#3C4959" transform="translate(0,0)"/>
<path d="" fill="#394357" transform="translate(0,0)"/>
<path d="" fill="#3E4C5C" transform="translate(0,0)"/>
<path d="" fill="#3E4B5E" transform="translate(0,0)"/>
<path d="" fill="#3D4A5C" transform="translate(0,0)"/>
<path d="" fill="#3A4A5B" transform="translate(0,0)"/>
<path d="" fill="#364357" transform="translate(0,0)"/>
<path d="" fill="#3D4C5E" transform="translate(0,0)"/>
<path d="" fill="#3B4D5E" transform="translate(0,0)"/>
<path d="" fill="#35465E" transform="translate(0,0)"/>
<path d="" fill="#3F4D5D" transform="translate(0,0)"/>
<path d="" fill="#3C4959" transform="translate(0,0)"/>
<path d="" fill="#3D4A5C" transform="translate(0,0)"/>
<path d="" fill="#3D4A5C" transform="translate(0,0)"/>
<path d="" fill="#384558" transform="translate(0,0)"/>
<path d="" fill="#3C495B" transform="translate(0,0)"/>
<path d="" fill="#33435B" transform="translate(0,0)"/>
<path d="" fill="#35485F" transform="translate(0,0)"/>
<path d="" fill="#364960" transform="translate(0,0)"/>
<path d="" fill="#364962" transform="translate(0,0)"/>
<path d="" fill="#384857" transform="translate(0,0)"/>
<path d="" fill="#3C4D63" transform="translate(0,0)"/>
<path d="" fill="#38485E" transform="translate(0,0)"/>
<path d="" fill="#384B62" transform="translate(0,0)"/>
<path d="" fill="#374A61" transform="translate(0,0)"/>
<path d="" fill="#344660" transform="translate(0,0)"/>
<path d="" fill="#3A495D" transform="translate(0,0)"/>
<path d="" fill="#38495C" transform="translate(0,0)"/>
<path d="" fill="#384B64" transform="translate(0,0)"/>
<path d="" fill="#394C68" transform="translate(0,0)"/>
<path d="" fill="#334E6C" transform="translate(0,0)"/>
<path d="" fill="#344962" transform="translate(0,0)"/>
<path d="" fill="#354761" transform="translate(0,0)"/>
<path d="" fill="#384B64" transform="translate(0,0)"/>
<path d="" fill="#344F6D" transform="translate(0,0)"/>
<path d="" fill="#394E65" transform="translate(0,0)"/>
<path d="" fill="#3C4E68" transform="translate(0,0)"/>
<path d="" fill="#404F63" transform="translate(0,0)"/>
<path d="" fill="#3D4C5E" transform="translate(0,0)"/>
<path d="" fill="#3E4D61" transform="translate(0,0)"/>
<path d="" fill="#3C4E68" transform="translate(0,0)"/>
<path d="" fill="#3C4E68" transform="translate(0,0)"/>
<path d="" fill="#3E4D61" transform="translate(0,0)"/>
<path d="" fill="#384B64" transform="translate(0,0)"/>
<path d="" fill="#384B64" transform="translate(0,0)"/>
<path d="" fill="#3F4C5F" transform="translate(0,0)"/>
<path d="" fill="#3C4E61" transform="translate(0,0)"/>
<path d="" fill="#354A63" transform="translate(0,0)"/>
<path d="" fill="#384B64" transform="translate(0,0)"/>
<path d="" fill="#3B4D67" transform="translate(0,0)"/>
<path d="" fill="#3B4D67" transform="translate(0,0)"/>
<path d="" fill="#3B4B5C" transform="translate(0,0)"/>
<path d="" fill="#394C66" transform="translate(0,0)"/>
<path d="" fill="#3C4E68" transform="translate(0,0)"/>
<path d="" fill="#3A4A5B" transform="translate(0,0)"/>
<path d="" fill="#364962" transform="translate(0,0)"/>
<path d="" fill="#3D4C5E" transform="translate(0,0)"/>
<path d="" fill="#3F4C5F" transform="translate(0,0)"/>
<path d="" fill="#384A66" transform="translate(0,0)"/>
<path d="" fill="#38495C" transform="translate(0,0)"/>
<path d="" fill="#374C64" transform="translate(0,0)"/>
<path d="" fill="#3B485A" transform="translate(0,0)"/>
<path d="" fill="#414E5E" transform="translate(0,0)"/>
<path d="" fill="#3A4F68" transform="translate(0,0)"/>
<path d="" fill="#36475F" transform="translate(0,0)"/>
<path d="" fill="#3F4C5F" transform="translate(0,0)"/>
<path d="" fill="#354B6A" transform="translate(0,0)"/>
<path d="" fill="#3D4A5E" transform="translate(0,0)"/>
<path d="" fill="#3A4A5B" transform="translate(0,0)"/>
<path d="" fill="#374A61" transform="translate(0,0)"/>
<path d="" fill="#3C495B" transform="translate(0,0)"/>
<path d="" fill="#3D4A5C" transform="translate(0,0)"/>
<path d="" fill="#3B485A" transform="translate(0,0)"/>
<path d="" fill="#3A4757" transform="translate(0,0)"/>
<path d="" fill="#3E4D61" transform="translate(0,0)"/>
<path d="" fill="#3D4A5E" transform="translate(0,0)"/>
<path d="" fill="#344B67" transform="translate(0,0)"/>
<path d="" fill="#384B62" transform="translate(0,0)"/>
<path d="" fill="#3C495B" transform="translate(0,0)"/>
<path d="" fill="#394961" transform="translate(0,0)"/>
<path d="" fill="#3F4C5F" transform="translate(0,0)"/>
<path d="" fill="#354A65" transform="translate(0,0)"/>
<path d="" fill="#394A5F" transform="translate(0,0)"/>
<path d="" fill="#324D6A" transform="translate(0,0)"/>
<path d="" fill="#394C64" transform="translate(0,0)"/>
<path d="" fill="#35485D" transform="translate(0,0)"/>
<path d="" fill="#324867" transform="translate(0,0)"/>
<path d="" fill="#324865" transform="translate(0,0)"/>
<path d="" fill="#3A4659" transform="translate(0,0)"/>
<path d="" fill="#334968" transform="translate(0,0)"/>
<path d="" fill="#394961" transform="translate(0,0)"/>
<path d="" fill="#384860" transform="translate(0,0)"/>
<path d="" fill="#3A4659" transform="translate(0,0)"/>
<path d="" fill="#364864" transform="translate(0,0)"/>
<path d="" fill="#384D64" transform="translate(0,0)"/>
<path d="" fill="#384857" transform="translate(0,0)"/>
<path d="" fill="#394C66" transform="translate(0,0)"/>
<path d="" fill="#3B4E65" transform="translate(0,0)"/>
<path d="" fill="#3A4C5C" transform="translate(0,0)"/>
<path d="" fill="#36475D" transform="translate(0,0)"/>
<path d="" fill="#314C69" transform="translate(0,0)"/>
<path d="" fill="#3B4C64" transform="translate(0,0)"/>
<path d="" fill="#3B4C62" transform="translate(0,0)"/>
<path d="" fill="#384862" transform="translate(0,0)"/>
<path d="" fill="#3A4757" transform="translate(0,0)"/>
<path d="" fill="#3B4B66" transform="translate(0,0)"/>
<path d="" fill="#384B64" transform="translate(0,0)"/>
<path d="" fill="#36475D" transform="translate(0,0)"/>
<path d="" fill="#464F60" transform="translate(0,0)"/>
<path d="" fill="#384B64" transform="translate(0,0)"/>
<path d="" fill="#3A4659" transform="translate(0,0)"/>
<path d="" fill="#344868" transform="translate(0,0)"/>
<path d="" fill="#344559" transform="translate(0,0)"/>
<path d="" fill="#324B69" transform="translate(0,0)"/>
<path d="" fill="#344964" transform="translate(0,0)"/>
<path d="" fill="#3D4A5E" transform="translate(0,0)"/>
<path d="" fill="#384759" transform="translate(0,0)"/>
<path d="" fill="#3B485A" transform="translate(0,0)"/>
<path d="" fill="#384B64" transform="translate(0,0)"/>
<path d="" fill="#39485A" transform="translate(0,0)"/>
<path d="" fill="#374658" transform="translate(0,0)"/>
<path d="" fill="#344962" transform="translate(0,0)"/>
<path d="" fill="#344962" transform="translate(0,0)"/>
<path d="" fill="#35485F" transform="translate(0,0)"/>
<path d="" fill="#374A61" transform="translate(0,0)"/>
<path d="" fill="#33495F" transform="translate(0,0)"/>
<path d="" fill="#394A5F" transform="translate(0,0)"/>
<path d="" fill="#35465C" transform="translate(0,0)"/>
<path d="" fill="#34475E" transform="translate(0,0)"/>
<path d="" fill="#354D6C" transform="translate(0,0)"/>
<path d="" fill="#3A4A64" transform="translate(0,0)"/>
<path d="" fill="#405162" transform="translate(0,0)"/>
<path d="" fill="#334863" transform="translate(0,0)"/>
<path d="" fill="#334861" transform="translate(0,0)"/>
<path d="" fill="#36475D" transform="translate(0,0)"/>
<path d="" fill="#344A60" transform="translate(0,0)"/>
<path d="" fill="#344A5E" transform="translate(0,0)"/>
<path d="" fill="#364559" transform="translate(0,0)"/>
<path d="" fill="#35465C" transform="translate(0,0)"/>
<path d="" fill="#374658" transform="translate(0,0)"/>
<path d="" fill="#374658" transform="translate(0,0)"/>
<path d="" fill="#364960" transform="translate(0,0)"/>
<path d="" fill="#3B4858" transform="translate(0,0)"/>
<path d="" fill="#39485A" transform="translate(0,0)"/>
<path d="" fill="#3A4659" transform="translate(0,0)"/>
<path d="" fill="#364960" transform="translate(0,0)"/>
<path d="" fill="#3A4A62" transform="translate(0,0)"/>
<path d="" fill="#354761" transform="translate(0,0)"/>
<path d="" fill="#354B61" transform="translate(0,0)"/>
<path d="" fill="#384B62" transform="translate(0,0)"/>
<path d="" fill="#364960" transform="translate(0,0)"/>
<path d="" fill="#344A6B" transform="translate(0,0)"/>
<path d="" fill="#3A4C5C" transform="translate(0,0)"/>
<path d="" fill="#354761" transform="translate(0,0)"/>
<path d="" fill="#3A4659" transform="translate(0,0)"/>
<path d="" fill="#364864" transform="translate(0,0)"/>
<path d="" fill="#344962" transform="translate(0,0)"/>
<path d="" fill="#324B69" transform="translate(0,0)"/>
<path d="" fill="#354A63" transform="translate(0,0)"/>
<path d="" fill="#354763" transform="translate(0,0)"/>
<path d="" fill="#3A445A" transform="translate(0,0)"/>
<path d="" fill="#34455B" transform="translate(0,0)"/>
<path d="" fill="#3A495D" transform="translate(0,0)"/>
<path d="" fill="#39485C" transform="translate(0,0)"/>
<path d="" fill="#384B64" transform="translate(0,0)"/>
</svg>
