<?xml version="1.0" encoding="UTF-8"?>
<svg version="1.1" xmlns="http://www.w3.org/2000/svg" width="806" height="806">
<path d="M0 0 C1.00771556 -0.00320648 2.01543112 -0.00641296 3.05368352 -0.0097166 C6.41563534 -0.017989 9.77740774 -0.01210193 13.13936234 -0.00622082 C15.58004856 -0.00924276 18.02073383 -0.01313245 20.46141744 -0.01781338 C25.76046876 -0.0259514 31.05946808 -0.0278955 36.35852051 -0.02431011 C44.23873295 -0.01899243 52.11890812 -0.02510914 59.99911651 -0.03339304 C74.89377484 -0.04862072 89.78841615 -0.05033936 104.68308064 -0.04787002 C116.18679254 -0.04603615 127.69049886 -0.04779893 139.19421005 -0.05209446 C140.84793997 -0.05269687 142.50166989 -0.05329806 144.15539981 -0.05389806 C146.64753437 -0.05480533 149.13966893 -0.055714 151.63180349 -0.05663041 C174.79813537 -0.0650582 197.96446515 -0.06939686 221.13079834 -0.06522369 C222.00384716 -0.06506732 222.87689598 -0.06491094 223.77640083 -0.06474983 C228.20117948 -0.06394407 232.62595812 -0.06309829 237.05073676 -0.06223653 C237.92948334 -0.06206544 238.80822992 -0.06189435 239.71360519 -0.06171808 C241.49064383 -0.06137142 243.26768246 -0.06102289 245.0447211 -0.06067249 C272.69177966 -0.055316 300.33880631 -0.06324437 327.98585892 -0.08170605 C359.06105242 -0.1024327 390.13622617 -0.11314746 421.21142697 -0.10913056 C424.52638705 -0.10873523 427.84134713 -0.10837368 431.15630722 -0.10803318 C432.38061057 -0.10789708 432.38061057 -0.10789708 433.62964733 -0.10775824 C445.93883017 -0.10659337 458.24799302 -0.11323214 470.55717087 -0.1238451 C484.5606387 -0.13590669 498.56406258 -0.13744504 512.56753108 -0.12505493 C520.39848503 -0.11843585 528.22933382 -0.12003536 536.06027931 -0.13364345 C541.91585895 -0.14288369 547.77135347 -0.13634743 553.62692919 -0.12379565 C555.98957027 -0.12114655 558.35222367 -0.12352192 560.71485266 -0.13153151 C573.00569477 -0.1702949 584.50859768 0.1077716 596.44289017 3.25447559 C597.56305782 3.53450075 597.56305782 3.53450075 598.70585513 3.82018298 C625.4917933 10.9888482 649.08906325 29.72521731 663.44289017 53.25447559 C677.65055058 77.93450696 679.90604887 101.91811021 679.83506417 129.80769002 C679.82820872 133.80025147 679.83878667 137.7927752 679.84700394 141.78532887 C679.86027456 149.58429093 679.8574936 157.3831659 679.84876601 165.18213124 C679.84196391 171.52551224 679.84108361 177.868869 679.84433746 184.21225262 C679.84479716 185.11842357 679.84525686 186.02459452 679.84573049 186.9582252 C679.84668976 188.79964043 679.8476624 190.64105565 679.84864827 192.48247086 C679.85718249 209.70890163 679.84739876 226.93528433 679.83124717 244.16170722 C679.81784351 258.91360131 679.82017631 273.66542457 679.83400345 288.41731739 C679.85009021 305.58776114 679.85636108 322.75816289 679.84716666 339.92861313 C679.8462111 341.76258019 679.84526799 343.59654726 679.84433746 345.43051434 C679.84387464 346.33264043 679.84341181 347.23476652 679.84293496 348.16422977 C679.84035452 354.49381202 679.84469552 360.82336743 679.85177612 367.15294552 C679.86022573 374.87534399 679.85783862 382.59765109 679.84193389 390.32003922 C679.8340978 394.25323316 679.83087905 398.18627523 679.84088135 402.11946774 C679.91139331 432.33433174 679.91139331 432.33433174 676.44289017 445.25447559 C676.09580537 446.60025354 676.09580537 446.60025354 675.74170876 447.97321892 C675.1745762 450.07975187 674.52745429 452.12944187 673.81789017 454.19197559 C673.44156448 455.29702442 673.44156448 455.29702442 673.05763626 456.42439747 C668.60787713 468.91028875 662.3051494 480.36767772 653.44289017 490.25447559 C652.72230423 491.09365528 652.00171829 491.93283497 651.25929642 492.79744434 C632.0976075 514.74870323 606.35250796 528.43772798 577.44289017 532.25447559 C572.43287097 532.52817121 567.42904875 532.52366744 562.41322708 532.50603199 C560.91426909 532.50817421 559.41531215 532.51120232 557.91635752 532.51503241 C553.82364502 532.52302668 549.73102464 532.5187876 545.63831258 532.51251364 C541.21425275 532.50796149 536.79020995 532.51502954 532.36615372 532.52081776 C524.70741527 532.52943346 517.04869993 532.53126308 509.38995743 532.52887058 C498.30484558 532.5257674 487.2197846 532.53743098 476.13468558 532.55342038 C458.132119 532.57935868 440.12955239 532.59939022 422.1269722 532.61287403 C421.05048497 532.6136844 419.97399774 532.61449477 418.86488968 532.6153297 C403.58355665 532.62655458 388.30222726 532.63183348 373.02089065 532.63471682 C371.40615981 532.63502281 371.40615981 532.63502281 369.75880814 532.63533497 C368.68363813 532.6355349 367.60846813 532.63573484 366.50071722 532.63594083 C348.56360136 532.63967537 330.62654081 532.65876965 312.68945265 532.69042933 C301.63407097 532.70932707 290.57883123 532.71531581 279.52343786 532.70461215 C271.9479592 532.69828728 264.37258228 532.70634985 256.79712594 532.72566627 C252.42912904 532.7363344 248.0613793 532.74052311 243.69338417 532.72719479 C239.68999848 532.71510177 235.68707517 532.72156208 231.68372935 532.74238677 C230.24040345 532.74667211 228.797038 532.74429516 227.35374004 532.7343456 C208.76326676 532.61555583 199.15432602 539.54201134 186.42360306 552.09969044 C179.44349715 558.76294043 179.44349715 558.76294043 173.44289017 566.25447559 C172.78289017 566.25447559 172.12289017 566.25447559 171.44289017 566.25447559 C171.04070267 567.15166309 171.04070267 567.15166309 170.63039017 568.06697559 C169.4437161 570.25295413 168.34689904 571.66780153 166.44289017 573.25447559 C165.78289017 573.25447559 165.12289017 573.25447559 164.44289017 573.25447559 C164.19006523 573.83192367 163.9372403 574.40937174 163.676754 575.00431824 C162.29257163 577.52860663 160.73305792 579.21885496 158.70106888 581.25699329 C157.92184067 582.04330631 157.14261246 582.82961933 156.33977127 583.63976002 C155.48370285 584.49335102 154.62763443 585.34694202 153.74562454 586.22639942 C152.84455978 587.13257511 151.94349503 588.0387508 151.01512527 588.97238636 C148.54422209 591.45667733 146.0669534 593.93452649 143.58808327 596.41086507 C141.51418883 598.48368833 139.44328228 600.55948414 137.37231874 602.63523501 C132.47957259 607.53907842 127.58151495 612.43757202 122.68019485 617.33284473 C117.64104456 622.36597231 112.61110079 627.40816612 107.5856452 632.45496446 C103.25972012 636.79857778 98.92793173 641.13628344 94.59153223 645.46943969 C92.00680687 648.05236144 89.42429962 650.63740153 86.84747696 653.2282095 C83.96523845 656.12550266 81.07085773 659.01037407 78.17531204 661.89436817 C77.33543747 662.74188648 76.4955629 663.58940479 75.63023758 664.46260548 C61.20931362 678.75737012 61.20931362 678.75737012 51.81789017 679.56697559 C46.80096185 679.47458281 42.63233335 677.99955836 38.44289017 675.25447559 C32.46889127 669.0108663 32.16785844 662.92454584 32.27345657 654.71394825 C32.50311997 646.57726991 33.62650508 638.51146071 34.63039017 630.44197559 C34.85836771 628.55552158 35.08548221 626.66896308 35.31178665 624.78230762 C35.78106518 620.88006145 36.25507092 616.97843411 36.73292923 613.0772295 C37.41804328 607.47513328 38.08573537 601.87108225 38.74757767 596.26619434 C41.26962459 574.92375681 43.84402117 553.58768525 46.44289017 532.25447559 C45.82695999 532.26113743 45.21102982 532.26779926 44.57643509 532.27466297 C38.08601043 532.34174274 31.59568638 532.38657294 25.10499954 532.41927052 C22.69219835 532.43422988 20.27942373 532.4546047 17.86671829 532.48079395 C-18.65031584 532.86685712 -49.31667175 523.36200087 -75.74460983 497.50447559 C-102.93436856 470.01646091 -109.04340766 436.94326553 -108.94928384 399.56369781 C-108.94243559 395.53362702 -108.9530029 391.50359384 -108.9612236 387.47353077 C-108.97450211 379.59889937 -108.97170959 371.72435418 -108.96298568 363.84971952 C-108.95618624 357.4448158 -108.95530214 351.03993609 -108.95855713 344.63502979 C-108.95901683 343.72039727 -108.95947653 342.80576474 -108.95995016 341.86341608 C-108.96090942 340.00484831 -108.96188206 338.14628056 -108.96286793 336.28771281 C-108.97140459 318.89580478 -108.96161483 301.50394433 -108.94546683 284.1120441 C-108.93206523 269.21744016 -108.9343938 254.32290639 -108.94822311 239.42830372 C-108.96430947 222.09489317 -108.97058078 204.76152423 -108.96138632 187.42810726 C-108.96043076 185.57671198 -108.95948765 183.72531669 -108.95855713 181.87392139 C-108.9580943 180.96320798 -108.95763148 180.05249457 -108.95715462 179.11418378 C-108.95457389 172.72349852 -108.95891587 166.33283984 -108.96599579 159.9421587 C-108.97444503 152.14471081 -108.97205913 144.34735343 -108.95615356 136.54991579 C-108.94831664 132.57824923 -108.94510014 128.60673309 -108.95510101 124.63506794 C-109.04240499 86.8095549 -101.4873105 57.84151043 -74.55710983 30.25447559 C-55.21893234 11.14457338 -27.13340905 -0.13014753 0 0 Z " fill="#D0E3FC" transform="translate(118.55710983276367,71.7455244064331)"/>
<path d="M0 0 C1.00771556 -0.00320648 2.01543112 -0.00641296 3.05368352 -0.0097166 C6.41563534 -0.017989 9.77740774 -0.01210193 13.13936234 -0.00622082 C15.58004856 -0.00924276 18.02073383 -0.01313245 20.46141744 -0.01781338 C25.76046876 -0.0259514 31.05946808 -0.0278955 36.35852051 -0.02431011 C44.23873295 -0.01899243 52.11890812 -0.02510914 59.99911651 -0.03339304 C74.89377484 -0.04862072 89.78841615 -0.05033936 104.68308064 -0.04787002 C116.18679254 -0.04603615 127.69049886 -0.04779893 139.19421005 -0.05209446 C140.84793997 -0.05269687 142.50166989 -0.05329806 144.15539981 -0.05389806 C146.64753437 -0.05480533 149.13966893 -0.055714 151.63180349 -0.05663041 C174.79813537 -0.0650582 197.96446515 -0.06939686 221.13079834 -0.06522369 C222.00384716 -0.06506732 222.87689598 -0.06491094 223.77640083 -0.06474983 C228.20117948 -0.06394407 232.62595812 -0.06309829 237.05073676 -0.06223653 C237.92948334 -0.06206544 238.80822992 -0.06189435 239.71360519 -0.06171808 C241.49064383 -0.06137142 243.26768246 -0.06102289 245.0447211 -0.06067249 C272.69177966 -0.055316 300.33880631 -0.06324437 327.98585892 -0.08170605 C359.06105242 -0.1024327 390.13622617 -0.11314746 421.21142697 -0.10913056 C424.52638705 -0.10873523 427.84134713 -0.10837368 431.15630722 -0.10803318 C432.38061057 -0.10789708 432.38061057 -0.10789708 433.62964733 -0.10775824 C445.93883017 -0.10659337 458.24799302 -0.11323214 470.55717087 -0.1238451 C484.5606387 -0.13590669 498.56406258 -0.13744504 512.56753108 -0.12505493 C520.39848503 -0.11843585 528.22933382 -0.12003536 536.06027931 -0.13364345 C541.91585895 -0.14288369 547.77135347 -0.13634743 553.62692919 -0.12379565 C555.98957027 -0.12114655 558.35222367 -0.12352192 560.71485266 -0.13153151 C573.00569477 -0.1702949 584.50859768 0.1077716 596.44289017 3.25447559 C597.56305782 3.53450075 597.56305782 3.53450075 598.70585513 3.82018298 C625.4917933 10.9888482 649.08906325 29.72521731 663.44289017 53.25447559 C677.65055058 77.93450696 679.90604887 101.91811021 679.83506417 129.80769002 C679.82820872 133.80025147 679.83878667 137.7927752 679.84700394 141.78532887 C679.86027456 149.58429093 679.8574936 157.3831659 679.84876601 165.18213124 C679.84196391 171.52551224 679.84108361 177.868869 679.84433746 184.21225262 C679.84479716 185.11842357 679.84525686 186.02459452 679.84573049 186.9582252 C679.84668976 188.79964043 679.8476624 190.64105565 679.84864827 192.48247086 C679.85718249 209.70890163 679.84739876 226.93528433 679.83124717 244.16170722 C679.81784351 258.91360131 679.82017631 273.66542457 679.83400345 288.41731739 C679.85009021 305.58776114 679.85636108 322.75816289 679.84716666 339.92861313 C679.8462111 341.76258019 679.84526799 343.59654726 679.84433746 345.43051434 C679.84387464 346.33264043 679.84341181 347.23476652 679.84293496 348.16422977 C679.84035452 354.49381202 679.84469552 360.82336743 679.85177612 367.15294552 C679.86022573 374.87534399 679.85783862 382.59765109 679.84193389 390.32003922 C679.8340978 394.25323316 679.83087905 398.18627523 679.84088135 402.11946774 C679.91139331 432.33433174 679.91139331 432.33433174 676.44289017 445.25447559 C676.09580537 446.60025354 676.09580537 446.60025354 675.74170876 447.97321892 C675.1745762 450.07975187 674.52745429 452.12944187 673.81789017 454.19197559 C673.44156448 455.29702442 673.44156448 455.29702442 673.05763626 456.42439747 C668.60787713 468.91028875 662.3051494 480.36767772 653.44289017 490.25447559 C652.72230423 491.09365528 652.00171829 491.93283497 651.25929642 492.79744434 C632.0976075 514.74870323 606.35250796 528.43772798 577.44289017 532.25447559 C572.43287097 532.52817121 567.42904875 532.52366744 562.41322708 532.50603199 C560.91426909 532.50817421 559.41531215 532.51120232 557.91635752 532.51503241 C553.82364502 532.52302668 549.73102464 532.5187876 545.63831258 532.51251364 C541.21425275 532.50796149 536.79020995 532.51502954 532.36615372 532.52081776 C524.70741527 532.52943346 517.04869993 532.53126308 509.38995743 532.52887058 C498.30484558 532.5257674 487.2197846 532.53743098 476.13468558 532.55342038 C458.132119 532.57935868 440.12955239 532.59939022 422.1269722 532.61287403 C421.05048497 532.6136844 419.97399774 532.61449477 418.86488968 532.6153297 C403.58355665 532.62655458 388.30222726 532.63183348 373.02089065 532.63471682 C371.40615981 532.63502281 371.40615981 532.63502281 369.75880814 532.63533497 C368.68363813 532.6355349 367.60846813 532.63573484 366.50071722 532.63594083 C348.56360136 532.63967537 330.62654081 532.65876965 312.68945265 532.69042933 C301.63407097 532.70932707 290.57883123 532.71531581 279.52343786 532.70461215 C271.9479592 532.69828728 264.37258228 532.70634985 256.79712594 532.72566627 C252.42912904 532.7363344 248.0613793 532.74052311 243.69338417 532.72719479 C239.68999848 532.71510177 235.68707517 532.72156208 231.68372935 532.74238677 C230.24040345 532.74667211 228.797038 532.74429516 227.35374004 532.7343456 C208.76326676 532.61555583 199.15432602 539.54201134 186.42360306 552.09969044 C179.44349715 558.76294043 179.44349715 558.76294043 173.44289017 566.25447559 C172.78289017 566.25447559 172.12289017 566.25447559 171.44289017 566.25447559 C171.04070267 567.15166309 171.04070267 567.15166309 170.63039017 568.06697559 C169.4437161 570.25295413 168.34689904 571.66780153 166.44289017 573.25447559 C165.78289017 573.25447559 165.12289017 573.25447559 164.44289017 573.25447559 C164.19006523 573.83192367 163.9372403 574.40937174 163.676754 575.00431824 C162.29257163 577.52860663 160.73305792 579.21885496 158.70106888 581.25699329 C157.92184067 582.04330631 157.14261246 582.82961933 156.33977127 583.63976002 C155.48370285 584.49335102 154.62763443 585.34694202 153.74562454 586.22639942 C152.84455978 587.13257511 151.94349503 588.0387508 151.01512527 588.97238636 C148.54422209 591.45667733 146.0669534 593.93452649 143.58808327 596.41086507 C141.51418883 598.48368833 139.44328228 600.55948414 137.37231874 602.63523501 C132.47957259 607.53907842 127.58151495 612.43757202 122.68019485 617.33284473 C117.64104456 622.36597231 112.61110079 627.40816612 107.5856452 632.45496446 C103.25972012 636.79857778 98.92793173 641.13628344 94.59153223 645.46943969 C92.00680687 648.05236144 89.42429962 650.63740153 86.84747696 653.2282095 C83.96523845 656.12550266 81.07085773 659.01037407 78.17531204 661.89436817 C77.33543747 662.74188648 76.4955629 663.58940479 75.63023758 664.46260548 C61.20931362 678.75737012 61.20931362 678.75737012 51.81789017 679.56697559 C46.80096185 679.47458281 42.63233335 677.99955836 38.44289017 675.25447559 C32.46889127 669.0108663 32.16785844 662.92454584 32.27345657 654.71394825 C32.50311997 646.57726991 33.62650508 638.51146071 34.63039017 630.44197559 C34.85836771 628.55552158 35.08548221 626.66896308 35.31178665 624.78230762 C35.78106518 620.88006145 36.25507092 616.97843411 36.73292923 613.0772295 C37.41804328 607.47513328 38.08573537 601.87108225 38.74757767 596.26619434 C41.26962459 574.92375681 43.84402117 553.58768525 46.44289017 532.25447559 C45.82695999 532.26113743 45.21102982 532.26779926 44.57643509 532.27466297 C38.08601043 532.34174274 31.59568638 532.38657294 25.10499954 532.41927052 C22.69219835 532.43422988 20.27942373 532.4546047 17.86671829 532.48079395 C-18.65031584 532.86685712 -49.31667175 523.36200087 -75.74460983 497.50447559 C-102.93436856 470.01646091 -109.04340766 436.94326553 -108.94928384 399.56369781 C-108.94243559 395.53362702 -108.9530029 391.50359384 -108.9612236 387.47353077 C-108.97450211 379.59889937 -108.97170959 371.72435418 -108.96298568 363.84971952 C-108.95618624 357.4448158 -108.95530214 351.03993609 -108.95855713 344.63502979 C-108.95901683 343.72039727 -108.95947653 342.80576474 -108.95995016 341.86341608 C-108.96090942 340.00484831 -108.96188206 338.14628056 -108.96286793 336.28771281 C-108.97140459 318.89580478 -108.96161483 301.50394433 -108.94546683 284.1120441 C-108.93206523 269.21744016 -108.9343938 254.32290639 -108.94822311 239.42830372 C-108.96430947 222.09489317 -108.97058078 204.76152423 -108.96138632 187.42810726 C-108.96043076 185.57671198 -108.95948765 183.72531669 -108.95855713 181.87392139 C-108.9580943 180.96320798 -108.95763148 180.05249457 -108.95715462 179.11418378 C-108.95457389 172.72349852 -108.95891587 166.33283984 -108.96599579 159.9421587 C-108.97444503 152.14471081 -108.97205913 144.34735343 -108.95615356 136.54991579 C-108.94831664 132.57824923 -108.94510014 128.60673309 -108.95510101 124.63506794 C-109.04240499 86.8095549 -101.4873105 57.84151043 -74.55710983 30.25447559 C-55.21893234 11.14457338 -27.13340905 -0.13014753 0 0 Z M-37.99460983 33.06697559 C-38.65162888 33.40752979 -39.30864792 33.74808399 -39.98557663 34.09895802 C-45.74937811 37.18106457 -50.74762894 40.81924238 -55.55710983 45.25447559 C-56.45945358 46.06529591 -57.36179733 46.87611622 -58.29148483 47.71150684 C-74.1796969 62.6999721 -84.28075573 83.0790028 -84.94021988 105.11183262 C-84.95902611 107.5481249 -84.96199795 109.98457614 -84.95151901 112.42091846 C-84.95642226 113.78961154 -84.96261862 115.15830047 -84.9699769 116.52698255 C-84.98621802 120.24598681 -84.98409126 123.96477693 -84.97860193 127.68380404 C-84.97591196 131.71123218 -84.99050011 135.73860573 -85.00269699 139.76601124 C-85.02367071 147.64023978 -85.02829649 155.51439457 -85.02650911 163.38864776 C-85.02519741 169.79453751 -85.02902634 176.20040441 -85.03643417 182.60628986 C-85.03853355 184.45705644 -85.04063115 186.30782302 -85.04272699 188.1585896 C-85.04377052 189.07999692 -85.04481405 190.00140423 -85.0458892 190.95073298 C-85.06475906 208.34650154 -85.06375137 225.74222787 -85.05691987 243.13800243 C-85.05134677 259.01974061 -85.07216576 274.90131737 -85.10528034 290.78301784 C-85.13908943 307.12580118 -85.15417671 323.46850734 -85.14956331 339.81132627 C-85.14732592 348.97234454 -85.15245443 358.13321363 -85.1774559 367.29420185 C-85.19856254 375.09387705 -85.20196881 382.89332126 -85.18315631 390.69300625 C-85.17405578 394.66501081 -85.17267846 398.6365858 -85.19351196 402.60855579 C-85.3299341 430.49693497 -81.37579186 453.00925782 -63.55710983 475.25447559 C-63.07886765 475.88482716 -62.60062546 476.51517872 -62.10789108 477.16463184 C-57.69958896 482.7097454 -52.14686122 486.95769914 -46.55710983 491.25447559 C-45.85972702 491.80232716 -45.16234421 492.35017872 -44.44382858 492.91463184 C-27.32618397 505.37893617 -5.96307793 508.3497902 14.61085892 508.46541309 C15.9775102 508.47840004 17.3441538 508.49221865 18.71078873 508.50682545 C24.47908783 508.56800627 30.24735448 508.62257669 36.01588821 508.65584278 C39.5590367 508.6768134 43.10179983 508.71211545 46.64472771 508.75660038 C48.63931111 508.77755539 50.63403968 508.78279931 52.62872696 508.78777027 C53.84381439 508.80433674 55.05890182 508.82090321 56.31081009 508.83797169 C57.91009605 508.85010197 57.91009605 508.85010197 59.54169083 508.8624773 C63.93521236 509.45611212 66.5636497 511.10069727 69.23341751 514.60408497 C73.66611219 524.31771707 69.52076178 539.34585785 68.22081375 549.57927418 C67.52151641 555.09002112 66.84990893 560.60417962 66.17335892 566.11775684 C65.96109413 567.83851177 65.96109413 567.83851177 65.74454117 569.59402943 C64.27314335 581.54995982 62.88414439 593.51491504 61.52400589 605.48396778 C61.26444689 607.76425536 61.00337279 610.04437105 60.74068069 612.32429981 C59.36214951 624.29059649 58.0591302 636.22145061 57.44289017 648.25447559 C64.13261111 642.77202035 70.14280076 636.64542962 76.21461868 630.50105762 C77.3946243 629.310933 78.57490424 628.12108032 79.75543594 626.93147755 C82.2878139 624.37906974 84.81884064 621.82533219 87.34898949 619.27071476 C91.36002052 615.22209954 95.37770638 611.18013306 99.39697647 607.13969898 C100.07737742 606.45566065 100.75777836 605.77162232 101.45879751 605.06685555 C102.84966872 603.66857909 104.24055636 602.27031897 105.63146007 600.87207484 C114.9791721 591.47454128 124.32261683 582.07287824 133.64723587 572.65242481 C139.94961661 566.28537169 146.26277677 559.92922379 152.58832306 553.58518207 C155.92790393 550.23498055 159.26190347 546.87963418 162.58272362 543.51082706 C165.71093809 540.33757242 168.85329347 537.17900821 172.00646019 534.03055286 C173.15243095 532.88136982 174.29336375 531.72713378 175.42842102 530.56717014 C187.51584214 518.22690086 200.56320368 509.40520023 218.40521145 508.87809467 C221.07159317 508.86216277 223.73485253 508.86198495 226.40094376 508.87593555 C227.89221539 508.87263911 229.38348458 508.86802144 230.87474853 508.86220789 C234.94644561 508.85006094 239.01793295 508.85633152 243.08962953 508.86571288 C247.49129811 508.8725359 251.89292921 508.86196289 256.29459 508.85342884 C263.91567652 508.84088465 271.5367063 508.83888193 279.15780067 508.84378529 C290.19391338 508.85060736 301.22994093 508.8380506 312.2660384 508.82027811 C330.19632314 508.79164971 348.12659867 508.7741217 366.05690384 508.76570606 C367.66518143 508.76494529 367.66518143 508.76494529 369.30594949 508.76416916 C376.91409626 508.76064291 384.52224318 508.7575137 392.13039017 508.75447559 C400.81260059 508.75100754 409.49481088 508.74735791 418.17702103 508.74324512 C419.24637702 508.74274251 420.31573301 508.74223989 421.41749372 508.74172205 C439.27665282 508.73296435 457.13578033 508.71250005 474.99491817 508.68376303 C485.99652635 508.66662572 496.99804494 508.65997904 507.9996647 508.66706908 C515.54479219 508.67126245 523.08986334 508.6648535 530.63497772 508.65027034 C534.98128021 508.64224827 539.32744281 508.63904026 543.6737442 508.64909267 C547.66313096 508.65824204 551.65225926 508.65332764 555.64162431 508.63787824 C557.07427394 508.63472358 558.50694605 508.63648304 559.93957921 508.64404362 C587.97612014 508.7812982 610.72181187 499.36779986 631.00539017 480.12947559 C652.9458882 457.66215769 656.07069997 429.87637571 655.93647075 399.91091299 C655.92317091 395.94908651 655.93324491 391.98730486 655.94023514 388.02547169 C655.95025979 380.28763829 655.93911189 372.5499774 655.92053454 364.81216547 C655.89965207 355.78625745 655.89990991 346.76038562 655.9008797 337.734458 C655.90187842 321.62423239 655.88362441 305.51408651 655.85451126 289.40388966 C655.82632276 273.79710406 655.81217075 258.19038856 655.81349564 242.58357716 C655.8136155 241.14066113 655.8136155 241.14066113 655.81373779 239.66859528 C655.81385886 238.22808766 655.81385886 238.22808766 655.81398237 236.75847888 C655.81536434 218.94810377 655.80357135 201.13775824 655.78567594 183.32739274 C655.77966136 177.04600344 655.777519 170.7646196 655.77661133 164.48322773 C655.77524271 156.82443387 655.76625274 149.16568992 655.74794571 141.50691721 C655.73875529 137.60450775 655.73260181 133.7021618 655.73513412 129.79974079 C655.7373445 126.21973097 655.73016553 122.63986099 655.71583708 119.05988029 C655.71056354 117.1684979 655.71489554 115.27709602 655.71970117 113.38571239 C655.57647362 87.82271632 646.5352753 65.33463201 628.44289017 47.25447559 C612.55573196 32.21264349 591.64783813 23.90366379 569.87574959 23.99441338 C568.86694485 23.9906077 567.8581401 23.98680203 566.81876552 23.98288104 C563.45309486 23.97261036 560.08759426 23.97646309 556.72191238 23.98032093 C554.27852627 23.97586609 551.8351416 23.97055124 549.39175904 23.96445221 C544.0867595 23.95324575 538.78180835 23.948238 533.47680092 23.94877338 C525.58762697 23.94956866 517.69849618 23.93899584 509.80933379 23.92635781 C494.07644119 23.90165429 478.34355917 23.89283911 462.61064984 23.88782133 C461.3893818 23.88742956 461.3893818 23.88742956 460.14344168 23.88702989 C459.32758503 23.88676961 458.51172839 23.88650934 457.67114882 23.88624118 C448.61985267 23.88315576 439.56855944 23.87664994 430.51726532 23.8700285 C403.16732997 23.85038495 375.81739777 23.83397791 348.46745491 23.83115196 C347.59317367 23.8310579 346.71889242 23.83096384 345.81811781 23.83086693 C342.2752102 23.83048846 338.73230259 23.83012446 335.18939498 23.82976395 C332.52291681 23.82949223 329.85643865 23.82921555 327.18996048 23.82893848 C326.30885342 23.82885046 325.42774635 23.82876244 324.51993907 23.82867175 C296.83927677 23.82576674 269.15868432 23.80367224 241.47804642 23.76741505 C210.36254556 23.72665954 179.24709231 23.70299318 148.13156331 23.70269245 C144.81151207 23.70259563 141.49146084 23.70242891 138.17140961 23.70221233 C137.35395907 23.70216822 136.53650853 23.70212411 135.69428676 23.70207865 C122.55874581 23.70096039 109.42327505 23.68357488 96.28775668 23.66039301 C83.07817121 23.63751343 69.86868024 23.63334917 56.65908222 23.64794231 C48.81958797 23.65607331 40.98039205 23.65047579 33.14093419 23.62476147 C27.27545426 23.60708059 21.41019985 23.61576694 15.54471673 23.63440656 C13.18069088 23.63789366 10.81663389 23.63302482 8.45264886 23.61870212 C-8.20620396 23.52431896 -23.04648885 25.12598044 -37.99460983 33.06697559 Z " fill="#3D669D" transform="translate(118.55710983276367,71.7455244064331)"/>
<path d="M0 0 C0.886875 0.680625 1.77375 1.36125 2.6875 2.0625 C3.9559375 2.92875 3.9559375 2.92875 5.25 3.8125 C8.49252568 6.80560063 10.51379637 10.25158129 12.6875 14.0625 C13.23277344 13.41023438 13.77804687 12.75796875 14.33984375 12.0859375 C22.70311701 2.39311823 30.84229744 -4.07558319 43.95458984 -5.11767578 C54.0220226 -5.66745338 63.60394529 -5.85456756 72.6875 -0.9375 C73.48285156 -0.51339844 74.27820313 -0.08929688 75.09765625 0.34765625 C84.93369604 6.24271182 90.10475055 15.10788694 93.22371197 25.92159271 C93.71771917 28.20199569 93.82189573 30.24646163 93.83467102 32.57873535 C93.84540398 33.9287841 93.84540398 33.9287841 93.85635376 35.30610657 C93.85904266 36.28597031 93.86173157 37.26583405 93.86450195 38.27539062 C93.87107315 39.31318161 93.87764435 40.3509726 93.88441467 41.42021179 C93.90412064 44.85305859 93.91580141 48.2858618 93.92578125 51.71875 C93.92985678 52.89057327 93.9339323 54.06239655 93.93813133 55.26972961 C93.95897583 61.46643904 93.97328724 67.66312639 93.98266602 73.85986328 C93.99375536 80.26940464 94.02818921 86.67860121 94.06783772 93.08802032 C94.09392997 98.01044375 94.10235105 102.93278387 94.10594749 107.85527039 C94.1108289 110.21882976 94.12248672 112.58238505 94.14098549 114.94587708 C94.16522966 118.24740355 94.16443915 121.54802189 94.1574707 124.84960938 C94.17668579 126.31940498 94.17668579 126.31940498 94.19628906 127.81889343 C94.14524955 134.4344511 94.14524955 134.4344511 91.79875183 137.65393066 C87.31924481 140.64253493 81.93088732 140.58497276 76.6875 140.0625 C68.59429251 138.30423128 68.59429251 138.30423128 66.58578491 135.55384827 C65.23571386 131.80949375 65.41299809 128.08462931 65.43212891 124.15405273 C65.42669823 122.80442696 65.42669823 122.80442696 65.42115784 121.42753601 C65.41426717 119.47416128 65.41175778 117.52076732 65.41310501 115.56738091 C65.41407124 112.46805235 65.40111403 109.3690697 65.38412476 106.26979065 C65.33789786 97.45780155 65.31327125 88.64584639 65.30664062 79.83374023 C65.30160457 74.44083486 65.27724312 69.04828789 65.24131393 63.65550423 C65.23155914 61.60758689 65.22916021 59.55961997 65.23448563 57.51168633 C65.81067854 41.027886 65.81067854 41.027886 59.31118774 26.38059998 C53.76093563 21.26767504 47.58381831 20.64429711 40.3671875 20.8203125 C34.87544196 21.31665102 31.17711899 23.24672791 27.4375 27.1875 C18.92147256 38.0198869 20.54004196 53.33619222 20.48826981 66.33823586 C20.47635663 69.06668132 20.45687968 71.79497716 20.43515015 74.52336121 C20.37390543 82.27325489 20.31936115 90.02312437 20.28613281 97.77319336 C20.2651947 102.53107763 20.22991846 107.28867316 20.18537521 112.04639244 C20.17123074 113.85364072 20.16249628 115.66093989 20.15932083 117.46824074 C20.15441395 119.99061071 20.13126874 122.5122104 20.10400391 125.03442383 C20.10851311 126.14806053 20.10851311 126.14806053 20.1131134 127.28419495 C20.042177 131.70163632 19.43620971 134.56333253 16.6875 138.0625 C11.23597277 140.85474566 4.46042888 141.01092432 -1.44140625 139.52734375 C-3.91322066 138.58299712 -5.87179033 137.64834113 -7.48403931 135.50515747 C-8.74196974 131.796239 -8.5868924 128.10217439 -8.56787109 124.22998047 C-8.57149155 123.33837723 -8.575112 122.44677399 -8.57884216 121.52815247 C-8.58573226 119.59278257 -8.58824232 117.65739326 -8.58689499 115.72201157 C-8.5859289 112.65236067 -8.59888384 109.58305915 -8.61587524 106.51345825 C-8.66210951 97.7860183 -8.68673351 89.05861288 -8.69335938 80.33105469 C-8.69839174 74.99002292 -8.72273358 69.64935369 -8.75868607 64.30844498 C-8.76844836 62.27923897 -8.77083563 60.24998286 -8.76551437 58.22076035 C-8.47646826 41.70432323 -8.47646826 41.70432323 -15.5625 27.1875 C-21.40478296 22.67300862 -26.34160898 20.33342668 -33.85546875 20.6796875 C-39.42444355 21.54734971 -43.11543584 23.86543584 -47.0625 27.8125 C-55.41072501 39.87104724 -55.60190776 52.21517172 -55.61746025 66.44396591 C-55.62116331 69.16836276 -55.63799101 71.89240825 -55.65821838 74.61672974 C-55.71329091 82.3537952 -55.74441195 90.09090806 -55.76879883 97.828125 C-55.7846725 102.58065778 -55.81487148 107.3329321 -55.85356331 112.08533096 C-55.86519586 113.88979477 -55.87114351 115.6943047 -55.87124443 117.498806 C-55.87143652 120.01624413 -55.88969967 122.53296615 -55.91186523 125.05029297 C-55.90499947 126.1615731 -55.90499947 126.1615731 -55.897995 127.29530334 C-55.95984577 131.71463153 -56.57936002 134.55315929 -59.3125 138.0625 C-64.96610477 141.21290939 -72.40308346 141.04659451 -78.578125 139.4921875 C-81.92791325 138.15508715 -83.28347413 137.10603881 -85.3125 134.0625 C-85.56976891 131.66144753 -85.56976891 131.66144753 -85.57992554 128.76211548 C-85.58845551 127.6629631 -85.59698547 126.56381073 -85.60577393 125.43135071 C-85.60486755 124.22504501 -85.60396118 123.01873932 -85.60302734 121.77587891 C-85.60974457 120.50575455 -85.61646179 119.23563019 -85.62338257 117.92701721 C-85.64106131 114.44141389 -85.64573874 110.95590873 -85.64701414 107.47026491 C-85.64891309 104.56025574 -85.65627062 101.65026944 -85.66335833 98.74026906 C-85.67964724 91.87403478 -85.68452685 85.00785295 -85.68310547 78.14160156 C-85.68190408 71.05979098 -85.70300387 63.97828518 -85.7345928 56.89655173 C-85.76074983 50.81576944 -85.771473 44.73508672 -85.77019465 38.6542486 C-85.76968481 35.02276358 -85.77537947 31.39154935 -85.79655075 27.76012039 C-85.81952264 23.70917197 -85.81041587 19.65890567 -85.79833984 15.60791016 C-85.80957886 14.40565292 -85.82081787 13.20339569 -85.83239746 11.96470642 C-85.77077073 3.84873183 -85.77077073 3.84873183 -83.42129517 -0.18214417 C-80.96840444 -2.22392428 -79.84860924 -2.56930222 -76.6875 -2.56640625 C-75.81609375 -2.56833984 -74.9446875 -2.57027344 -74.046875 -2.57226562 C-73.14453125 -2.54841797 -72.2421875 -2.52457031 -71.3125 -2.5 C-70.41015625 -2.51095703 -69.5078125 -2.52191406 -68.578125 -2.53320312 C-62.05261866 -2.46080476 -62.05261866 -2.46080476 -58.765625 -0.13671875 C-56.83938087 2.77853782 -56.09352556 5.67805589 -55.3125 9.0625 C-54.838125 8.36125 -54.36375 7.66 -53.875 6.9375 C-41.00692054 -7.49985744 -16.37169218 -9.57589542 0 0 Z " fill="#3C659C" transform="translate(306.3125,288.9375)"/>
<path d="M0 0 C1.45188721 0.00845947 1.45188721 0.00845947 2.93310547 0.01708984 C17.18634614 0.25794266 31.95375669 3.7651288 42.25 14.3125 C46.78512602 20.4956363 48.93559677 25.49669686 48.25 33.3125 C46.46601425 36.28580958 44.98759691 37.88223514 42 39.625 C36.41837741 41.02040565 31.43886239 40.97303135 26.25 38.3125 C24.546875 36.2890625 24.546875 36.2890625 23 33.9375 C18.57891851 28.03639982 14.31467324 26.0417952 7.13671875 24.75390625 C-0.60056963 23.87198266 -8.30084168 23.789493 -14.6640625 28.828125 C-18.28062434 32.63322798 -19.84585036 35.94487977 -19.75 41.3125 C-18.30890235 47.17982614 -15.75510572 49.73242337 -10.6484375 52.84765625 C-4.58345309 55.91284379 1.84862503 58.06746105 8.25 60.3125 C40.0090039 71.52287644 40.0090039 71.52287644 48.98828125 86.65234375 C53.26340113 95.66583179 53.77641062 106.62578077 51.5625 116.32421875 C50.62944186 118.80071057 49.56014414 121.01464596 48.25 123.3125 C47.82589844 124.08980469 47.40179687 124.86710937 46.96484375 125.66796875 C40.1474965 137.0048944 29.62937214 141.51937595 17.5 145.5625 C-0.52175185 149.72136581 -19.01708679 148.02638672 -34.99975586 138.52197266 C-41.64438617 134.31548128 -48.23829826 129.00458657 -50.75 121.3125 C-51.23779821 118.19724324 -51.38372704 115.41262417 -50.75 112.3125 C-48.3125 109.3125 -48.3125 109.3125 -45.75 107.3125 C-45.255 106.8175 -45.255 106.8175 -44.75 106.3125 C-42.31355304 106.10451063 -39.94031774 105.98805272 -37.5 105.9375 C-36.49646484 105.88142578 -36.49646484 105.88142578 -35.47265625 105.82421875 C-31.58551268 105.75548733 -29.97532491 106.12409808 -26.9609375 108.64453125 C-25.86652344 109.96517578 -25.86652344 109.96517578 -24.75 111.3125 C-18.00018263 118.17535259 -10.36604004 121.46387349 -0.6875 121.75 C7.85788506 121.4068563 14.56452773 119.60243259 20.97265625 113.8125 C24.00698606 110.24925031 23.57544709 105.7268977 23.25 101.3125 C22.64261878 97.98471575 22.64261878 97.98471575 21.25 95.3125 C18.731339 93.85162971 16.06657572 92.79145963 13.36328125 91.71875 C12.22125244 91.26423462 12.22125244 91.26423462 11.05615234 90.80053711 C9.82179443 90.31145874 9.82179443 90.31145874 8.5625 89.8125 C7.69834473 89.46646729 6.83418945 89.12043457 5.94384766 88.76391602 C0.8842007 86.74068376 -4.18823585 84.75657404 -9.27734375 82.80859375 C-10.37409424 82.38320313 -11.47084473 81.9578125 -12.60083008 81.51953125 C-14.7279557 80.69475657 -16.85913785 79.88034183 -18.99487305 79.078125 C-31.07404279 74.36430266 -40.97096432 67.32894695 -47.6875 56.0625 C-50.83939622 44.93816038 -50.64933479 32.93201096 -45.3046875 22.48828125 C-37.54684728 10.70718901 -26.97534658 3.59813477 -13.23046875 0.70507812 C-8.82544602 0.00790524 -4.45196548 -0.02720775 0 0 Z " fill="#3C659B" transform="translate(475.75,283.6875)"/>
<path d="M0 0 C3.5310655 4.7592622 3.13928142 10.21645581 2.4375 15.9375 C0.22186838 18.91111086 -1.30169585 20.30709793 -4.5625 21.9375 C-8.07681358 21.93008584 -11.57854811 21.86118078 -15.08984375 21.72265625 C-20.00443782 21.62830977 -23.43956229 21.96758724 -27.5625 24.9375 C-33.659666 31.19801047 -33.33560676 38.6474122 -33.375 46.9375 C-33.40013672 48.18917969 -33.42527344 49.44085938 -33.45117188 50.73046875 C-33.50974682 53.79979574 -33.5462459 56.86770599 -33.5625 59.9375 C-32.99329834 59.92178955 -32.42409668 59.9060791 -31.83764648 59.88989258 C-29.22520126 59.82701561 -26.6129159 59.78834468 -24 59.75 C-23.10474609 59.72486328 -22.20949219 59.69972656 -21.28710938 59.67382812 C-15.56559375 59.61095433 -11.61389961 60.19246311 -6.5625 62.9375 C-3.46305033 66.13693191 -3.33156097 69.15024561 -3.1875 73.4375 C-3.31952239 77.70239728 -3.53765749 80.70404766 -6.5625 83.9375 C-10.11806031 85.6652581 -12.92983623 86.1788177 -16.86328125 86.1328125 C-18.32797852 86.12314453 -18.32797852 86.12314453 -19.82226562 86.11328125 C-21.33336914 86.08814453 -21.33336914 86.08814453 -22.875 86.0625 C-23.90173828 86.05347656 -24.92847656 86.04445313 -25.98632812 86.03515625 C-28.51195899 86.01166201 -31.0371081 85.97881131 -33.5625 85.9375 C-33.55881283 86.4988798 -33.55512566 87.06025959 -33.55132675 87.63865089 C-33.46291692 101.31013709 -33.39701741 114.98157308 -33.35525131 128.65328407 C-33.33437449 135.26489538 -33.30605434 141.87630039 -33.26074219 148.48779297 C-33.21728899 154.86795455 -33.19336361 161.24791766 -33.18299103 167.62821579 C-33.17559881 170.06269836 -33.16116366 172.49717004 -33.13957977 174.93156815 C-33.11055385 178.34084824 -33.10654381 181.74930768 -33.10839844 185.15869141 C-33.08682678 186.66920578 -33.08682678 186.66920578 -33.06481934 188.2102356 C-33.0994408 194.08979749 -33.61297219 197.47648966 -37.5625 201.9375 C-42.91158369 204.73940098 -49.89541278 204.98043306 -55.69140625 203.33203125 C-58.44230579 202.2006592 -60.45270771 201.04729229 -62.5625 198.9375 C-63.53842552 196.03524002 -63.68626488 193.36541203 -63.68275452 190.31842041 C-63.68412918 189.39577896 -63.68550385 188.47313751 -63.68692017 187.52253723 C-63.68332489 186.51768784 -63.67972961 185.51283844 -63.67602539 184.47753906 C-63.67617142 183.41381577 -63.67631744 182.35009247 -63.6764679 181.25413513 C-63.67577106 177.73711103 -63.66798933 174.22013985 -63.66015625 170.703125 C-63.65829126 168.26503529 -63.65686774 165.8269452 -63.65586853 163.38885498 C-63.65204976 156.97075364 -63.6422249 150.55267492 -63.63116455 144.13458252 C-63.6209367 137.58581854 -63.61636796 131.03705091 -63.61132812 124.48828125 C-63.60060209 111.63801118 -63.58372544 98.78775679 -63.5625 85.9375 C-64.65949219 85.96070313 -65.75648438 85.98390625 -66.88671875 86.0078125 C-68.341139 86.02657921 -69.79556664 86.04477844 -71.25 86.0625 C-71.97123047 86.07925781 -72.69246094 86.09601563 -73.43554688 86.11328125 C-77.59664725 86.15128217 -80.87301489 85.93186283 -84.5625 83.9375 C-87.56768576 80.20238947 -87.99448002 77.16260489 -88 72.4375 C-88.01933594 71.3340625 -88.03867188 70.230625 -88.05859375 69.09375 C-87.45922751 65.2804593 -86.2718774 63.64197799 -83.5625 60.9375 C-80.85533758 60.03511253 -79.32473232 59.81898698 -76.55078125 59.83984375 C-75.41479492 59.84467773 -75.41479492 59.84467773 -74.25585938 59.84960938 C-73.07733398 59.86217773 -73.07733398 59.86217773 -71.875 59.875 C-71.07771484 59.87951172 -70.28042969 59.88402344 -69.45898438 59.88867188 C-67.49345743 59.9004415 -65.52796915 59.91837652 -63.5625 59.9375 C-63.57297363 59.17719482 -63.58344727 58.41688965 -63.59423828 57.63354492 C-63.63625821 54.13073134 -63.6619708 50.62797108 -63.6875 47.125 C-63.70425781 45.92939453 -63.72101563 44.73378906 -63.73828125 43.50195312 C-63.80495264 31.26775397 -62.67482103 22.05200679 -55.5625 11.9375 C-54.840625 10.885625 -54.11875 9.83375 -53.375 8.75 C-41.04537129 -3.57962871 -15.23359871 -12.26118921 0 0 Z " fill="#3E679D" transform="translate(195.5625,225.0625)"/>
<path d="M0 0 C1.94326172 -0.05607422 1.94326172 -0.05607422 3.92578125 -0.11328125 C8.28780153 0.3804469 10.38327257 1.45816738 13.6875 4.3125 C15.11567775 7.96861376 14.80052266 11.83079015 14.78515625 15.703125 C14.7837413 16.40773865 14.78232635 17.11235229 14.78086853 17.83831787 C14.77528933 20.07975584 14.76274073 22.32109243 14.75 24.5625 C14.74498231 26.08593605 14.74041987 27.60937368 14.73632812 29.1328125 C14.72532674 32.85940772 14.70807646 36.58594396 14.6875 40.3125 C15.37263672 40.29155273 16.05777344 40.27060547 16.76367188 40.24902344 C19.90479522 40.16524601 23.04568264 40.11364586 26.1875 40.0625 C27.26515625 40.02898437 28.3428125 39.99546875 29.453125 39.9609375 C36.36182197 39.8766851 40.83357031 40.54925949 46.6875 44.3125 C48.14873786 47.23497573 47.9352615 49.87103839 48 53.125 C48.05607422 54.95998047 48.05607422 54.95998047 48.11328125 56.83203125 C47.61537495 60.90207269 46.59516958 62.47817704 43.6875 65.3125 C40.44998322 66.39167226 38.10998229 66.42675601 34.70703125 66.41015625 C33.54365234 66.40693359 32.38027344 66.40371094 31.18164062 66.40039062 C29.96669922 66.39201172 28.75175781 66.38363281 27.5 66.375 C26.27345703 66.37048828 25.04691406 66.36597656 23.78320312 66.36132812 C20.75125332 66.34953065 17.71940094 66.33306921 14.6875 66.3125 C14.74878991 76.8832478 14.82595303 87.45375031 14.92321491 98.02423191 C14.96788555 102.93288586 15.00714901 107.84145744 15.03393555 112.75024414 C15.06000145 117.49014583 15.1004272 122.22973001 15.15068626 126.96943474 C15.16733274 128.7750242 15.17886082 130.58066856 15.18511391 132.38632393 C15.19477921 134.92137834 15.22286688 137.4556245 15.25512695 139.99047852 C15.25369186 140.73207214 15.25225677 141.47366577 15.2507782 142.23773193 C15.34279701 147.37204911 16.30137463 150.85075845 18.6875 155.3125 C22.12088854 157.60142569 23.8733695 157.68231041 27.9375 157.9375 C29.10023438 158.01484375 30.26296875 158.0921875 31.4609375 158.171875 C34.79506535 158.35799018 34.79506535 158.35799018 38.5625 158.1875 C42.64099881 158.35063995 45.17886543 159.22081401 48.6875 161.3125 C51.21484034 165.63343672 52.42988084 169.32794292 51.6875 174.3125 C49.16998567 179.26296099 46.81162508 181.1954357 41.74804688 182.97485352 C40.98556641 183.21002686 40.22308594 183.4452002 39.4375 183.6875 C38.64408203 183.94007568 37.85066406 184.19265137 37.03320312 184.45288086 C26.23010447 187.63386486 14.07959833 188.261957 3.6875 183.3125 C-4.50544509 178.80026606 -10.28118381 173.18987677 -13.37057495 164.25108337 C-14.60387313 159.79806635 -14.578239 155.48273566 -14.53955078 150.88891602 C-14.53984283 149.9710582 -14.54013489 149.05320038 -14.54043579 148.10752869 C-14.53904983 145.09372282 -14.52352324 142.08016858 -14.5078125 139.06640625 C-14.50407976 136.96890905 -14.50123402 134.8714101 -14.49923706 132.77391052 C-14.49162115 127.26823058 -14.47199021 121.76265709 -14.4498291 116.25701904 C-14.42932664 110.63294922 -14.42022594 105.0088621 -14.41015625 99.38476562 C-14.38874239 88.36063046 -14.35463113 77.3365741 -14.3125 66.3125 C-15.72402344 66.36470703 -15.72402344 66.36470703 -17.1640625 66.41796875 C-18.40929687 66.44503906 -19.65453125 66.47210938 -20.9375 66.5 C-22.78214844 66.55220703 -22.78214844 66.55220703 -24.6640625 66.60546875 C-28.61139357 66.28849891 -30.95473801 65.3648996 -34.3125 63.3125 C-37.48524732 58.98768881 -36.79071285 53.42102779 -36.3125 48.3125 C-35.01871914 44.86241772 -33.83916137 43.71442578 -30.9375 41.5 C-27.17926587 40.26885434 -24.51418064 40.19180764 -20.5859375 40.23828125 C-18.82515869 40.25435425 -18.82515869 40.25435425 -17.02880859 40.27075195 C-16.13242676 40.28452881 -15.23604492 40.29830566 -14.3125 40.3125 C-14.33344727 39.30872314 -14.35439453 38.30494629 -14.37597656 37.27075195 C-14.44856694 33.53424434 -14.49436811 29.79779863 -14.53222656 26.06079102 C-14.55229892 24.44577542 -14.5795633 22.83083211 -14.61425781 21.21606445 C-14.66297215 18.88995499 -14.68551154 16.56480907 -14.703125 14.23828125 C-14.72377014 13.52037918 -14.74441528 12.80247711 -14.76568604 12.06282043 C-14.76728498 8.46229467 -14.40362679 6.45799523 -12.47558594 3.37963867 C-8.7122237 -0.21679339 -5.00994611 0.09415329 0 0 Z " fill="#3D669C" transform="translate(574.3125,244.6875)"/>
<path d="M0 0 C0.75539063 -0.02449219 1.51078125 -0.04898438 2.2890625 -0.07421875 C6.2537369 -0.0950125 8.17353308 0.08705653 11.6015625 2.2734375 C14.98584754 5.78838992 14.75440541 8.0278734 14.76976013 12.82571411 C14.77328698 13.49556457 14.77681382 14.16541504 14.78044754 14.855564 C14.79116268 17.11091023 14.79482045 19.36621427 14.79858398 21.62158203 C14.80488732 23.23449381 14.81165288 24.84740384 14.81884766 26.46031189 C14.83353614 29.93995934 14.84525358 33.41959997 14.85479546 36.89926529 C14.87023218 42.4044638 14.89418304 47.90960455 14.91969299 53.4147644 C14.99093156 69.07171985 15.05060858 84.72870885 15.10180664 100.38574219 C15.13014298 109.02826544 15.1655455 117.67073168 15.20846039 126.31319511 C15.2351894 131.78197788 15.25312175 137.25069613 15.26449764 142.7195313 C15.27364885 146.1298912 15.29102318 149.54017311 15.31067657 152.95048714 C15.31812597 154.52742214 15.32223156 156.10437719 15.32267189 157.68132973 C15.23163327 168.69847401 15.23163327 168.69847401 17.625 179.375 C19.22829427 181.02783278 19.22829427 181.02783278 21.3125 181.6875 C22.02019531 181.98140625 22.72789062 182.2753125 23.45703125 182.578125 C24.17246094 182.84109375 24.88789062 183.1040625 25.625 183.375 C32.41919525 186.06629288 32.41919525 186.06629288 34.625 189.375 C35.37329501 194.90450632 35.68861014 199.76346949 32.5625 204.5 C24.4456147 209.68099061 15.60060928 209.18947411 6.5 207.25 C-1.87363009 204.93892109 -7.0065798 200.79248297 -11.46484375 193.40234375 C-13.56197638 188.73104832 -13.50228506 184.02072629 -13.50871277 178.96714783 C-13.51097833 178.23065854 -13.51324388 177.49416926 -13.51557809 176.73536211 C-13.52189769 174.27269607 -13.52109005 171.81008535 -13.52026367 169.34741211 C-13.52325635 167.57978749 -13.52665913 165.81216352 -13.53044128 164.04454041 C-13.53927226 159.24719675 -13.54161896 154.44987094 -13.54225707 149.65251994 C-13.54320681 145.64878036 -13.54688567 141.64504492 -13.55042917 137.64130694 C-13.55856952 128.19861329 -13.5610137 118.75592918 -13.56030273 109.31323242 C-13.55970134 99.56623375 -13.57026646 89.81929031 -13.5860464 80.07230562 C-13.59910908 71.70617917 -13.6044872 63.34007081 -13.60384732 54.97393423 C-13.60359206 49.97605641 -13.60645937 44.97822772 -13.61702538 39.98036003 C-13.6266855 35.28295023 -13.62679992 30.58563678 -13.61950874 25.88822365 C-13.61846045 24.16284927 -13.62084022 22.43746896 -13.6268692 20.7121048 C-13.63455736 18.35991173 -13.62996564 16.00805409 -13.62223816 13.65586853 C-13.62278293 12.3386679 -13.62332769 11.02146727 -13.62388897 9.66435146 C-13.38925576 6.56340608 -13.14109616 4.8913523 -11.375 2.375 C-7.56534402 -0.16477065 -4.41664491 0.00746055 0 0 Z " fill="#3B649A" transform="translate(664.375,222.625)"/>
<path d="M0 0 C0.495 0.99 0.495 0.99 1 2 C-1.29049196 5.14942644 -3.74603586 7.72218409 -6.69787598 10.23231506 C-10.74660281 13.73869552 -14.55882759 17.42361323 -18.33398438 21.22045898 C-19.01790253 21.90423111 -19.70182068 22.58800323 -20.40646362 23.29249573 C-22.63794131 25.52466303 -24.86586859 27.76033758 -27.09375 29.99609375 C-28.65151412 31.55572544 -30.20950102 33.11513464 -31.7677002 34.67433167 C-35.84690815 38.75733812 -39.92310269 42.8433399 -43.99865723 46.92999268 C-48.16654461 51.1081518 -52.33730224 55.28344362 -56.5078125 59.45898438 C-64.67467186 67.63653396 -72.83834763 75.81725377 -81 84 C-81 81 -81 81 -79.73499298 79.36584949 C-79.13767113 78.77129302 -78.54034927 78.17673655 -77.92492676 77.56416321 C-77.24338028 76.87849274 -76.5618338 76.19282227 -75.8596344 75.4863739 C-75.10222458 74.73974991 -74.34481476 73.99312592 -73.56445312 73.22387695 C-72.77441391 72.43339966 -71.98437469 71.64292236 -71.1703949 70.82849121 C-68.54772566 68.20791809 -65.91457733 65.59814068 -63.28125 62.98828125 C-61.46455821 61.17718246 -59.64852604 59.36542178 -57.83312988 57.55302429 C-53.53558526 53.26577802 -49.23142392 48.98527987 -44.9240098 44.70795268 C-40.02098595 39.8384367 -35.12645681 34.96042061 -30.23263264 30.08166182 C-20.16453183 20.04493636 -10.08577527 10.01896288 0 0 Z " fill="#2C5081" transform="translate(262,634)"/>
<path d="M0 0 C2 2 2 2 2.22705078 5.16455078 C2.22673389 6.50817963 2.21542181 7.8518341 2.1953125 9.1953125 C2.1924826 9.90275604 2.18965271 10.61019958 2.18673706 11.33908081 C2.17553137 13.6012251 2.15042679 15.86297515 2.125 18.125 C2.11497067 19.65754637 2.10584474 21.19009894 2.09765625 22.72265625 C2.0772912 26.48204535 2.03814518 30.24058078 2 34 C9.92 34 17.84 34 26 34 C26 34.33 26 34.66 26 35 C21.85451585 35.19583915 17.7086033 35.38027842 13.5625 35.5625 C12.37849609 35.61857422 11.19449219 35.67464844 9.97460938 35.73242188 C8.84990234 35.78076172 7.72519531 35.82910156 6.56640625 35.87890625 C5.00321655 35.94960327 5.00321655 35.94960327 3.40844727 36.02172852 C1 36 1 36 0 35 C-0.08851529 32.40640678 -0.11525945 29.83960309 -0.09765625 27.24609375 C-0.09553383 26.08292381 -0.09553383 26.08292381 -0.09336853 24.89625549 C-0.08775345 22.40996506 -0.07519846 19.9237634 -0.0625 17.4375 C-0.05748694 15.75586067 -0.0529237 14.07421994 -0.04882812 12.39257812 C-0.03777913 8.26168434 -0.02050445 4.13085724 0 0 Z " fill="#456792" transform="translate(587,251)"/>
<path d="M0 0 C0.33 0.99 0.66 1.98 1 3 C-0.96485198 4.96485198 -2.93010998 6.9292527 -4.8984375 8.890625 C-6.12279125 10.11953025 -7.34012359 11.35566223 -8.5390625 12.609375 C-10.71583959 14.87963332 -11.94979496 15.98326499 -15 17 C-16.21869929 19.50447516 -16.21869929 19.50447516 -17 22 C-17.66 22 -18.32 22 -19 22 C-19.33 22.66 -19.66 23.32 -20 24 C-20.99 23.67 -21.98 23.34 -23 23 C-15.41 15.41 -7.82 7.82 0 0 Z " fill="#2D5488" transform="translate(286,610)"/>
<path d="M0 0 C2.45862401 -0.05383848 4.9160755 -0.09359038 7.375 -0.125 C8.42300781 -0.15013672 8.42300781 -0.15013672 9.4921875 -0.17578125 C11.32897486 -0.19344267 13.16601963 -0.10303261 15 0 C15.66 0.66 16.32 1.32 17 2 C14.93831015 2.19620767 12.87559002 2.38160753 10.8125 2.5625 C9.66394531 2.66691406 8.51539063 2.77132812 7.33203125 2.87890625 C4.31368801 2.98859985 1.91076064 2.74002389 -1 2 C-0.67 1.34 -0.34 0.68 0 0 Z " fill="#2E5483" transform="translate(567,245)"/>
<path d="M0 0 C0.66 0.66 1.32 1.32 2 2 C-0.75078884 2.91692961 -2.35948913 3.10886083 -5.1875 3.0625 C-7.0746875 3.0315625 -7.0746875 3.0315625 -9 3 C-9.33 2.34 -9.66 1.68 -10 1 C-6.47940432 -0.17353189 -3.693507 -0.20146402 0 0 Z " fill="#5479A8" transform="translate(175,748)"/>
<path d="M0 0 C0.66 0.33 1.32 0.66 2 1 C-0.97 3.97 -3.94 6.94 -7 10 C-7 7 -7 7 -4.625 4.4375 C-3.75875 3.633125 -2.8925 2.82875 -2 2 C-1.34 1.34 -0.68 0.68 0 0 Z " fill="#315688" transform="translate(259,290)"/>
<path d="M0 0 C0.33 0 0.66 0 1 0 C1 2.31 1 4.62 1 7 C1.66 7.33 2.32 7.66 3 8 C1.68 8.99 0.36 9.98 -1 11 C-1.14285714 3.57142857 -1.14285714 3.57142857 0 0 Z " fill="#DFF3FC" transform="translate(177,709)"/>
<path d="M0 0 C-5.75 4 -5.75 4 -8 4 C-8 3.01 -8 2.02 -8 1 C-3.375 -1.125 -3.375 -1.125 0 0 Z " fill="#335D95" transform="translate(79,82)"/>
</svg>
